<?xml version="1.0" standalone="no"?>
<!DOCTYPE svg PUBLIC "-//W3C//DTD SVG 1.1//EN" "http://www.w3.org/Graphics/SVG/1.1/DTD/svg11.dtd" >
<svg xmlns="http://www.w3.org/2000/svg" xmlns:xlink="http://www.w3.org/1999/xlink" version="1.1">
<metadata></metadata>
<defs>
<font id="cf_bostonregular" horiz-adv-x="2048" >
<font-face units-per-em="2048" ascent="1489" descent="-559" />
<missing-glyph horiz-adv-x="401" />
<glyph horiz-adv-x="0" />
<glyph unicode="&#xd;" horiz-adv-x="0" />
<glyph horiz-adv-x="0" />
<glyph horiz-adv-x="0" />
<glyph unicode=" "  horiz-adv-x="401" />
<glyph unicode="&#x09;" horiz-adv-x="401" />
<glyph unicode="&#xa0;" horiz-adv-x="401" />
<glyph unicode="!" />
<glyph unicode="$" />
<glyph unicode="%" />
<glyph unicode="&#x26;" />
<glyph unicode="(" />
<glyph unicode=")" />
<glyph unicode="," />
<glyph unicode="-" />
<glyph unicode="." />
<glyph unicode="0" horiz-adv-x="1155" d="M59 539q0 66 13.5 166t43 211.5t79 225t123 204t173 146.5t228.5 56q123 0 198.5 -55t118.5 -136t57.5 -173t14.5 -166q0 -68 -13.5 -170.5t-43 -215t-78.5 -225t-122 -202.5t-172 -146.5t-226 -56.5t-205 56.5t-120 139.5t-55.5 175t-13.5 166zM326 412q0 -16 3 -69.5 t16 -110t42 -100.5t80 -44q53 0 92 40t80 105q43 68 79 187t62.5 252t42 262t15.5 219q0 12 -1 62.5t-12.5 104.5t-39 97t-80.5 43q-72 0 -127.5 -63.5t-97.5 -162.5t-71.5 -220t-48 -238t-26.5 -215t-8 -149z" />
<glyph unicode="1" horiz-adv-x="645" d="M55 10q-14 8 0 58l11 47q10 47 26.5 124.5t38 178t43 205t43 208t37.5 187.5t26.5 140t10.5 69q0 45 -26.5 63.5t-61.5 21.5t-70 0t-53 -1q8 31 10 43t6 32l506 123q-8 -37 -16 -80t-16.5 -83.5t-14.5 -78.5t-10 -63q-4 -23 -11.5 -56.5t-14.5 -71.5t-13 -74.5t-12 -63.5 q-12 -59 -26.5 -136t-25.5 -130q-14 -66 -28.5 -146t-29.5 -166t-30.5 -173t-34.5 -167q-4 -12 -19 -17t-36.5 -7t-43 -2h-36.5h-28.5t-38 2t-37 5t-25.5 9z" />
<glyph unicode="2" horiz-adv-x="1169" d="M14 4v29q0 20 9 26q80 74 175 155t189 167t181 174t155 176t107.5 176t39.5 174q0 109 -55 179.5t-178 70.5q-72 0 -131.5 -33.5t-103.5 -73.5t-72.5 -74t-36.5 -34q-16 0 -29.5 16.5t-13.5 26.5q0 20 12 41t29 43q23 31 39 52.5t34.5 42t43 43t63.5 51.5q16 12 44 28.5 t54 26.5q55 20 96.5 26.5t82.5 6.5q88 0 160.5 -27t123.5 -77t80 -120.5t29 -158.5q0 -90 -34 -170t-92.5 -154t-135 -143.5t-163.5 -140t-179.5 -143.5t-178.5 -153l512 -4h30t48.5 -3t44 -11t15.5 -25q0 -4 -6.5 -22t-13.5 -42t-16 -48.5t-18 -40.5q-10 -23 -30.5 -28 t-46.5 -5h-863z" />
<glyph unicode="3" horiz-adv-x="1079" d="M27 164q0 16 9 38.5t24.5 42t33 34t35.5 14.5q16 0 44 -28.5t70 -62.5t99 -61.5t133 -27.5q84 0 138.5 36.5t85 90t43 116t12.5 111.5q0 61 -19.5 115.5t-55.5 94.5t-86 63.5t-114 23.5q-4 0 -17 -1t-31.5 -3t-37 -5t-33.5 -7q-4 12 -5 29.5t-5 45.5q57 14 132 41 t141.5 69t111.5 101.5t45 139.5q0 49 -16 84.5t-43 59t-60.5 34t-70.5 10.5q-70 0 -120 -29.5t-86 -64.5t-61.5 -64.5t-48.5 -29.5q-16 0 -24 11t-8 19t6 25.5t16 30.5q18 25 42 54t49.5 58t55 55.5t62.5 45.5q12 6 31.5 15t36.5 13q4 4 7 4t7 2q18 4 42 9.5t45.5 8.5 t38.5 5t21 2q63 0 125 -18.5t111 -55.5t79 -92t30 -131q0 -61 -24 -106.5t-64.5 -83t-96 -72.5t-119.5 -74q74 -20 128.5 -56t89 -82t52 -98.5t17.5 -103.5q0 -90 -36 -167t-94 -140.5t-132 -112.5t-151.5 -84t-152.5 -52t-134 -17q-23 0 -73 8t-101.5 28.5t-90 55.5 t-38.5 86z" />
<glyph unicode="4" horiz-adv-x="1191" d="M25.5 427q-5.5 7 3 25.5t35 53.5t77.5 94q2 2 37 43t89.5 104.5t125 143.5t144 164t146.5 162.5t132 141t100 100.5t52 38h133l-178 -956h208q-4 -29 -9 -58.5t-9 -58.5q-2 -2 -8 -3t-26.5 -2t-61.5 -1h-115q-23 -90 -40 -199.5t-38 -198.5q-2 -10 -19.5 -15t-39 -9 t-40.5 -5t-28 -1q-16 0 -36.5 1t-40 6t-33 17.5t-13.5 34.5l74 369h-604q-12 2 -17.5 9zM236 541h430l143 680q-78 -84 -146.5 -163t-137 -160t-139.5 -169t-150 -188z" />
<glyph unicode="5" horiz-adv-x="1177" d="M35 170q0 16 10 37.5t26.5 40t34 32t33.5 13.5q14 0 44 -28.5t75 -62.5t104.5 -61.5t133.5 -27.5q80 0 132 31.5t82.5 80.5t43 108.5t12.5 115.5q0 160 -80 255t-254 95q-10 0 -40 -1t-52 -5q-23 -4 -56.5 -14.5t-43.5 -10.5t-15.5 8t-5.5 17l201 706h694q12 0 13 -4 t-3 -14q0 -4 -7 -24.5t-17 -47.5t-23.5 -56.5t-25.5 -49.5q-6 -10 -26.5 -16.5t-31.5 -6.5h-514l-127 -387q35 6 79 16.5t85 18.5t70.5 14t34.5 6q80 0 154.5 -24.5t133 -73.5t94 -121t35.5 -166q0 -135 -72.5 -241.5t-179 -181t-224.5 -114.5t-208 -40q-20 0 -72.5 8 t-107.5 29.5t-97 57.5t-42 89z" />
<glyph unicode="6" horiz-adv-x="1241" d="M59 485q0 168 59.5 330t174.5 297t285 235.5t391 147.5q41 10 92 21.5t98 17.5h17q4 -18 8 -39t8 -41q-31 -6 -65.5 -15t-69.5 -20q-80 -23 -183.5 -72t-189.5 -120q-98 -82 -162.5 -171t-107.5 -188l-2 -2q0 -2 10 -2q8 0 36.5 15.5t68.5 34t85 34t86 15.5q94 0 165 -36 t117 -94.5t69.5 -133t23.5 -152.5q0 -117 -45 -220.5t-122 -180t-179 -121.5t-217 -45q-121 0 -206 44t-139 115.5t-80 162.5t-26 183zM326 453q0 -31 8 -95.5t32.5 -129t69.5 -113.5t119 -49q76 0 124 52t76.5 121.5t40 140t11.5 105.5q0 47 -10.5 105.5t-38 109t-76.5 85 t-127 34.5q-14 0 -38.5 -5t-51.5 -14t-50.5 -19.5t-35.5 -18.5q-23 -70 -38 -155t-15 -154z" />
<glyph unicode="7" horiz-adv-x="1185" d="M31 16q129 156 256 317t243.5 319.5t220 312t187.5 295.5l-731 8q-12 2 -24.5 11t-12.5 24q0 4 3 20t9 38.5t13.5 47.5t15.5 43q6 12 23.5 24.5t29.5 12.5h897q16 -4 18.5 -11.5t-1.5 -17.5q0 -4 -20.5 -37.5t-49.5 -80t-58.5 -94.5t-50.5 -81q-33 -53 -68.5 -114.5 t-76.5 -126.5q-59 -94 -130 -208t-146.5 -236t-153.5 -245.5t-150 -238.5q-6 -8 -21 -13t-34.5 -9.5t-40 -5.5t-35.5 -1q-18 0 -39.5 3t-39 9.5t-27.5 14.5t-6 20z" />
<glyph unicode="8" horiz-adv-x="1136" d="M41 360q0 76 29.5 131.5t81 100.5t120 88t148.5 94q-102 90 -145.5 169t-43.5 165q0 104 45.5 183t115 133.5t155.5 82t168 27.5q70 0 138.5 -20.5t123.5 -62.5t90 -105.5t35 -149.5q0 -63 -24.5 -112.5t-67.5 -91.5t-100.5 -80t-121.5 -78q129 -98 196 -190.5t67 -201.5 q0 -119 -58.5 -204.5t-143.5 -141t-181.5 -82t-173.5 -26.5q-78 0 -158 20.5t-145.5 65.5t-107.5 115.5t-42 170.5zM293 367q0 -45 12 -95.5t40 -93.5t74 -70.5t113 -27.5q59 0 106.5 22.5t79.5 60.5t49 89t17 106q0 111 -73.5 196t-210.5 171q-111 -84 -159 -172t-48 -186z M467 1208q0 -10 2 -34.5t8 -43.5q8 -23 20.5 -48t26.5 -44q6 -8 31 -32.5t54.5 -50t57 -46t40.5 -20.5q10 0 29.5 17.5t40 41t35.5 45t19 29.5q10 16 19.5 40.5t13.5 43.5q4 23 8.5 53.5t4.5 38.5q0 39 -10.5 82t-34 79t-62.5 59.5t-94 23.5q-53 0 -92 -23.5t-64.5 -58.5 t-39 -76t-13.5 -76z" />
<glyph unicode="9" horiz-adv-x="1171" d="M43 66q35 8 75 22t75 25q86 23 182 84t180 143t146.5 175t82.5 179l-2 2h-4q-41 -16 -75.5 -33.5t-66.5 -33t-65.5 -25.5t-70.5 -10q-88 0 -157 34t-117 90t-72.5 128t-24.5 145q0 111 45 211.5t121 175t176 119.5t211 45q127 0 212 -49t135 -126t71.5 -169t21.5 -178 q0 -154 -51 -308.5t-153.5 -288.5t-255 -237.5t-355.5 -154.5q-20 -6 -54 -13.5t-67.5 -13.5t-59.5 -9t-30 -3h-37q-6 16 -9 33.5t-7 40.5zM401 1061q0 -49 11.5 -105.5t41 -103.5t78 -78t121.5 -31q14 0 40 5.5t51.5 12.5t45 16t23.5 20q23 66 33 143.5t10 153.5 q0 37 -5 97t-25.5 117.5t-61.5 99.5t-111 42q-72 0 -121 -44t-77.5 -106.5t-41 -129t-12.5 -109.5z" />
<glyph unicode=":" horiz-adv-x="452" d="M59 154q0 33 12.5 65.5t35 58t54.5 41t68 15.5q37 0 65 -15.5t45 -38t25.5 -51t8.5 -55.5q0 -35 -12.5 -66.5t-35 -55t-53 -38t-67.5 -14.5q-72 0 -109 47t-37 107zM121 911q0 33 12 66t34.5 58.5t54.5 41t69 15.5t64.5 -15.5t45 -38t25.5 -51t8 -55.5q0 -35 -12 -66.5 t-34.5 -55.5t-53.5 -38t-68 -14q-72 0 -108.5 47t-36.5 106z" />
<glyph unicode=";" horiz-adv-x="452" d="M-35 -186q49 29 91 54.5t73 54t48.5 62t17.5 76.5q0 53 -22.5 79t-49.5 40.5t-49.5 24.5t-22.5 33q0 27 11.5 51t32 44.5t47 33t57.5 12.5q51 0 87 -24.5t59.5 -60.5t33.5 -78t10 -77q0 -74 -30.5 -137t-85 -113.5t-127 -87.5t-154.5 -57q-4 16 -11.5 32.5t-15.5 37.5z M121 911q0 33 12 66t34.5 58.5t54.5 41t69 15.5t64.5 -15.5t45 -38t25.5 -51t8 -55.5q0 -35 -12 -66.5t-34.5 -55.5t-53.5 -38t-68 -14q-72 0 -108.5 47t-36.5 106z" />
<glyph unicode="?" />
<glyph unicode="@" />
<glyph unicode="A" horiz-adv-x="1298" d="M47 10v15q0 2 17.5 33.5t43 75.5t53 92t48.5 83q27 47 60.5 106.5t66.5 119.5q63 113 139 249t153 273t150.5 266t134.5 229q10 16 32 26.5t36 10.5q8 0 19.5 -4t15.5 -8q16 -41 24.5 -105.5t18.5 -123.5q16 -109 37.5 -245t45 -278.5t45 -278.5t39 -243.5t28 -174.5 t10.5 -71q0 -10 -1 -21t-10 -22q-16 -2 -36.5 -5t-41 -5t-37 -4t-20.5 -2q-8 0 -44 3t-58 13q-14 8 -18.5 34t-6.5 44q-2 31 -6 61.5t-8 61.5q-10 78 -24.5 156t-30.5 155l-422 2q-27 -51 -62 -115.5t-72.5 -133t-77.5 -137t-79 -126.5q-2 -4 -16.5 -7t-32 -6t-32.5 -4 t-22 -1q-8 0 -27.5 2t-31.5 10zM553 639h358l-80 532z" />
<glyph unicode="B" horiz-adv-x="1218" d="M27 84q0 2 11 65.5t30.5 164t45 229.5t52.5 262t52.5 262t47.5 229q6 35 10.5 78t15.5 81t36.5 63.5t74.5 25.5l236 2q4 0 33.5 -1t64.5 -3t66 -4t41 -4q178 -16 261 -100t83 -217q0 -154 -101.5 -245t-291.5 -132h4q182 -41 268 -136.5t86 -230.5q0 -98 -38 -171 t-97.5 -125t-135 -87t-150.5 -55.5t-143.5 -28.5t-115.5 -8h-377q-10 0 -22.5 11t-22.5 26.5t-17 29t-7 19.5zM324 227q0 -49 14 -75.5t37.5 -41t51.5 -17.5t54 -3q84 0 152.5 31t117 83t74 123.5t25.5 153.5q0 43 -11.5 89t-36 85t-66.5 69t-103 42q-14 4 -32.5 9t-29.5 5 h-149zM442 872h140q10 0 48 9.5t60 15.5q61 16 103.5 52t67 80t35.5 91t11 86q0 104 -57 177t-186 73q-10 0 -25.5 -1t-33 -5t-31 -11t-19.5 -20q-37 -80 -52.5 -184.5t-33.5 -204.5q-4 -16 -9 -38.5t-9.5 -44t-6.5 -37t-2 -19.5v-19z" />
<glyph unicode="C" horiz-adv-x="1449" d="M53 618q0 225 82 404.5t216 303.5t307 189.5t356 65.5q80 0 151.5 -20.5t126 -62.5t87 -108.5t32.5 -158.5q0 -6 -1 -28.5t-7 -48.5t-17.5 -45t-31.5 -19q-16 0 -27.5 12t-11.5 20q-14 100 -39 170t-65 113t-96 61.5t-130 18.5q-106 0 -204.5 -47t-180.5 -128 t-141.5 -191.5t-85.5 -235.5q-18 -82 -25.5 -142.5t-7.5 -132.5q0 -74 15.5 -169t57.5 -180t116.5 -144.5t195.5 -59.5q133 0 250 96.5t221 262.5q4 6 17.5 13t23.5 7q16 0 25.5 -15.5t9.5 -25.5q0 -18 -7.5 -50t-16.5 -65.5t-18 -61.5t-13 -36q-10 -18 -29 -43.5 t-41.5 -50.5t-48 -44t-47.5 -26q-66 -20 -160 -33.5t-186 -13.5q-156 0 -277 45t-204 130t-127 205t-44 269z" />
<glyph unicode="D" horiz-adv-x="1550" d="M37 72q0 68 20.5 151.5t32.5 153.5q20 109 47 252t55.5 293.5t57.5 294t51 251.5q2 8 14.5 19.5t27.5 22t31.5 18.5t24.5 8h404q156 0 288 -42t227 -125t149.5 -205.5t54.5 -284.5q0 -217 -87 -383t-231.5 -279t-331 -170t-387.5 -57h-387q-10 0 -20 10t-19.5 23.5 t-15.5 26.5t-6 22zM350 217q0 -43 15.5 -68.5t40 -39t57.5 -17.5t69 -4q166 0 294 70.5t215 186.5t133.5 261t46.5 297q0 125 -33 224.5t-98.5 170t-163 108.5t-224.5 38q-29 0 -61.5 -3t-52.5 -26q-12 -12 -34 -98t-48.5 -211t-54 -268.5t-50 -272.5t-37 -225t-14.5 -123z " />
<glyph unicode="E" horiz-adv-x="1212" d="M43 78q0 23 12.5 92.5t30.5 169.5t44 220t51.5 243t50 238.5t45 206.5t33 148.5t12.5 63.5q2 8 9 22.5t19 28t29.5 23.5t40.5 10h536q39 0 77 -12t69 -35.5t49 -56.5t18 -74q0 -18 -2 -55t-8 -74t-18.5 -64.5t-32.5 -27.5q-4 0 -20.5 3t-18.5 19q-6 74 -12 127.5 t-27.5 89t-68 53t-130.5 17.5h-180q-25 0 -47 -4t-33 -31q-8 -23 -20 -90t-25.5 -146t-25 -149.5t-17.5 -101.5q-4 -23 -3 -35t6.5 -17.5t12.5 -6.5t13 -3q100 -2 186 -4q74 -2 144.5 -2h99.5q39 0 44 -4t9 -12q0 -14 -1 -32.5t-5 -34t-15 -26t-32 -10.5l-436 7 q-23 0 -39 -9.5t-33 -54.5q-14 -68 -28.5 -140.5t-26.5 -139t-21.5 -117.5t-11.5 -74q-2 -11 -2 -22q0 -25 12 -43q16 -24 43 -39t63 -19t68 -4q115 0 190 12.5t129 48t99 98t101 163.5q8 14 12 15t14 -3l31 -14q10 -4 11 -11.5t1 -13.5q0 -68 -32.5 -137.5t-86 -124.5 t-121 -90t-137.5 -35h-628q-29 0 -49.5 27.5t-20.5 52.5z" />
<glyph unicode="F" horiz-adv-x="1204" d="M49 66q0 20 12.5 91.5t32 173t45 224.5t52 249t51 243.5t45 210t33 148.5t12.5 58q12 70 100 70h531q39 0 76.5 -12.5t68.5 -36t49.5 -57t18.5 -74.5q0 -49 -7.5 -104.5t-19.5 -102.5q-8 -6 -13.5 -8t-21.5 -4q-8 -2 -19.5 2t-19.5 20q-6 74 -12 129t-27 91 q-22 35 -68 53q-37 14 -101 15q-15 0 -31 -1l-211 -10q-27 -2 -32 -20.5t-13 -49.5q0 -2 -6.5 -28.5t-15.5 -68.5t-19.5 -92.5t-19.5 -97.5t-15 -84t-6 -53q0 -29 5 -52.5t40 -27.5q53 -2 113.5 -3t116.5 -1h103.5h73.5q37 -2 43 -6t8 -14v-33t-5 -34t-16 -24.5t-32 -9.5 l-434 4q-18 0 -35.5 -5t-34.5 -52q-14 -72 -36.5 -174t-44 -202.5t-40 -182.5t-24.5 -109q-12 -20 -51 -23t-72 -3q-20 0 -42.5 3t-41 11t-31 23.5t-12.5 40.5z" />
<glyph unicode="G" horiz-adv-x="1515" d="M29 662q0 225 86 399t227 293t323.5 180t374.5 61q68 0 144 -16t140.5 -56t106.5 -106t42 -164q0 -10 -1.5 -27.5t-4.5 -36t-10 -33.5t-17 -21h-64q-6 104 -37.5 173.5t-82 112.5t-116 60.5t-139.5 17.5q-86 0 -158.5 -22.5t-133.5 -63.5q-109 -72 -180.5 -164 t-112.5 -192.5t-57.5 -200.5t-16.5 -186q0 -92 20.5 -196.5t71.5 -195t139.5 -149.5t225.5 -59q12 0 35.5 3t50 10t49 19.5t35.5 32.5q8 12 20 31.5t17 40.5q8 39 18 94t19.5 106.5t14.5 89.5t5 42q0 47 -23.5 68.5t-57.5 28.5t-73 8t-71 9q4 16 8 37t8 35h483 q10 -8 21.5 -19.5t11.5 -19.5q0 -4 -6 -27.5t-14.5 -56.5t-16.5 -68.5t-12 -62.5q-16 -92 -35 -197q-18 -96 -18 -184v-18q-115 -35 -248 -65t-262 -30q-154 0 -287 42t-231.5 128t-154.5 214t-56 301z" />
<glyph unicode="H" horiz-adv-x="1587" d="M37 33q0 2 12 67.5t32.5 169t46.5 235.5t52.5 270t52 270.5t46.5 234.5q10 45 19 98.5t21 102.5q4 16 19.5 36.5t38.5 20.5h217q0 -4 3 -11t3 -11l-133 -648h682q18 76 35.5 167l32.5 169q6 35 15 80t15 84q6 29 12.5 72t22.5 76q2 4 12.5 13t20.5 9h209q10 -6 19 -14.5 t9 -18.5q0 -4 -9 -42t-21.5 -89t-24.5 -107.5t-20 -99.5t-19.5 -111.5t-25.5 -129.5q-8 -41 -16.5 -89.5t-18.5 -95.5q-14 -76 -31.5 -166t-36 -182t-34 -180t-27.5 -158q-4 -29 -21.5 -42t-39 -18t-44 -4t-41.5 1q-10 0 -33.5 -1t-46 4t-38 16.5t-11.5 35.5l135 707h-684 q-35 -176 -65.5 -354.5t-67.5 -358.5q-2 -10 -11 -18.5t-19 -14.5q-23 -10 -69 -13t-73 -3h-26.5t-34 3t-29.5 12t-12 26z" />
<glyph unicode="I" horiz-adv-x="647" d="M33 49q0 2 6 35t17.5 83t24.5 114.5t26.5 129t25.5 126t21 106.5q33 174 75.5 401.5t96.5 468.5q2 10 17 21.5t30 11.5h196q23 0 23 -11.5t-2 -21.5q0 -4 -13.5 -67.5t-34 -167.5t-47 -242.5t-55.5 -292.5q-8 -39 -18 -88t-19 -90q-12 -70 -30.5 -156.5t-30.5 -156.5 q-8 -45 -19.5 -102.5t-21.5 -102.5q-6 -29 -16.5 -38t-20.5 -9h-205q-18 4 -24 14.5t-2 34.5z" />
<glyph unicode="J" horiz-adv-x="614" d="M-231 -260q27 2 63.5 21.5t70.5 47t61.5 61.5t37.5 64q10 25 24.5 61t22.5 66q33 135 62.5 281.5t55.5 290t49.5 276.5t45.5 244q8 41 17.5 89t19.5 95q8 37 17.5 90.5t21.5 100.5q8 16 23.5 18t25.5 2h195q10 0 14 -5t4 -12t-1 -13.5t-1 -8.5q0 -4 -8 -43t-18.5 -92 t-21.5 -113.5t-20 -109.5q-10 -59 -27.5 -149.5t-33.5 -182.5q-10 -57 -22.5 -133t-28.5 -143q-25 -104 -42.5 -222t-57 -231t-118.5 -213t-229 -168q-16 -6 -39.5 -15t-48 -16.5t-44 -12.5t-23.5 -5h-31q-4 18 -8 39.5t-8 40.5z" />
<glyph unicode="K" horiz-adv-x="1646" d="M42 54.5q-1 15.5 1 25.5q72 356 141.5 710.5t141.5 712.5q4 25 21.5 29t31.5 4h184q23 -2 24 -11t-1 -22l-133 -669l-2 -3q0 -2 8 -2q23 0 61.5 24t77.5 52.5t66.5 52t29.5 25.5q47 37 112.5 100.5t138.5 137t148.5 149.5t147.5 139q10 8 27.5 13.5t34 8.5t29.5 4l14 1 h231q8 0 18.5 -1t18.5 -5q14 -11 -2 -23l-879 -614q80 -160 182.5 -334t233.5 -371q12 -16 30.5 -36.5t39.5 -36.5q27 -23 70.5 -36t72.5 -13q2 -31 2 -42.5t-2 -31.5h-422q-25 37 -53.5 85t-58 99t-60.5 103.5t-57 101.5q-23 37 -47.5 85t-51.5 89q-10 18 -26.5 52t-36 66 t-41 56.5t-45.5 24.5q-10 0 -14.5 -3t-10.5 -8q-35 -180 -66.5 -360t-74.5 -360q-4 -8 -20.5 -20.5t-26.5 -12.5h-158q-10 0 -24.5 13t-24.5 24q0 12 -1 27.5z" />
<glyph unicode="L" horiz-adv-x="960" d="M30 56.5q-1 17.5 1 29.5q47 250 96 501t100 507q10 47 20.5 107.5t20.5 113.5q8 41 19.5 97t19.5 106q4 10 13.5 20t46.5 8h190q20 4 19 -9t-3 -21l-241 -1299q-2 -11 -2 -21q0 -28 16 -42q22 -20 58 -25q27 -4 55 -5q9 0 19 1q38 2 63 2l344 6q41 2 43 -11t2 -50 q0 -25 -1 -39.5t-4 -20.5t-7.5 -7t-8.5 -3h-856q-4 4 -11 10t-11 11q0 16 -1 33.5z" />
<glyph unicode="M" horiz-adv-x="1869" d="M20 2q41 129 87.5 259t89.5 261q10 33 26.5 85t30.5 100q10 37 24.5 84t26.5 83q14 53 35.5 131t46.5 166.5t51.5 178.5t53.5 170q8 23 33.5 25.5t35.5 2.5l127 -2q20 -4 25.5 -16t9.5 -25q55 -258 108.5 -517t112.5 -521q164 262 320.5 523t322.5 519q27 39 74 39h160 q10 0 14 -7t4 -15t-1 -16.5t-1 -12.5l-201 -1495h-280l205 1282l-2 2l-748 -1270h-63l-226 1260q-4 -4 -4 -8t-4 -13q-47 -170 -91 -327.5t-86 -311t-81 -306t-74 -308.5h-162z" />
<glyph unicode="N" horiz-adv-x="1529" d="M47 2v16q0 4 11.5 52.5t26.5 114t32.5 134t29.5 115.5q2 8 15.5 67.5t33 145.5t40 187.5t39 194.5t30.5 165t12 100q0 33 -1 48.5t-7 32t-19.5 42t-39.5 80.5q-2 4 -5 11.5t-3 17.5q4 16 18 19t21 3h213q23 0 49 -33.5t49.5 -76.5t41 -81t21.5 -46q129 -223 259 -447.5 t266 -451.5l4 4q12 53 22.5 109.5t18.5 103.5q6 35 15 85t15 85q14 72 29.5 165t31 191t31 190.5t31.5 163.5q4 23 29 31t41 8q23 0 42 -7t15 -42l-297 -1517h-106l-690 1228l-224 -1208h-141z" />
<glyph unicode="O" horiz-adv-x="1640" d="M55 659q0 178 63.5 347.5t179.5 301.5t277.5 213t360.5 81q162 0 283.5 -55.5t201.5 -149.5t120 -219.5t40 -262.5q0 -182 -61.5 -351t-175 -298t-275.5 -205.5t-360 -76.5q-156 0 -278 52t-205 143t-127 215t-44 265zM358 608q0 -66 12.5 -157t51.5 -174.5t110.5 -142 t188.5 -58.5q94 0 172 42t140.5 113.5t108.5 163.5t76.5 191.5t46 200t15.5 186.5q0 61 -10 153.5t-47 177.5t-108 145t-191 60q-94 0 -173 -43t-141.5 -115.5t-109.5 -165.5t-79 -192.5t-47.5 -200t-15.5 -184.5z" />
<glyph unicode="P" horiz-adv-x="1310" d="M49 47q0 2 11.5 61.5t31 154.5t43 215t47 242t47 235.5t39.5 195.5q6 35 15.5 84t15.5 84q6 45 17.5 102.5t21.5 104.5q4 16 21.5 18t25.5 2q55 4 111 6q38 1 74 1h36q53 -1 99.5 -3t78.5 -4q4 0 18.5 -1t35 -4t42 -6t38.5 -7q186 -39 262.5 -138t76.5 -249 q0 -139 -59 -238.5t-151.5 -163t-201 -94.5t-206.5 -31q-20 0 -47 6.5t-54.5 14.5t-52 15t-39.5 12h-14q-33 -150 -61.5 -301.5t-57.5 -301.5q-2 -6 -7 -17t-9 -17q-6 -10 -22.5 -15.5t-37 -7.5t-39 -2h-30.5q-18 0 -38.5 -1t-39 2t-30 13.5t-11.5 32.5zM455 758 q0 -10 1 -10t5 -5q16 -4 38.5 -8t44 -8t37 -7t19.5 -3q82 0 150.5 37t118 98t76 142t26.5 167q0 55 -13.5 109.5t-44 96.5t-82 67.5t-124.5 25.5q-16 0 -38 -3t-41.5 -11t-34.5 -22.5t-20 -37.5q-10 -47 -22 -111.5t-24.5 -133t-26 -136t-23.5 -122t-16 -89t-6 -36.5z" />
<glyph unicode="Q" horiz-adv-x="1597" d="M41 657q0 178 63.5 347.5t179 301.5t277.5 212.5t361 80.5q162 0 283.5 -56t201.5 -150.5t120 -218.5t40 -261q0 -109 -24.5 -227.5t-82 -233t-154 -216t-237.5 -175.5l109 -241q4 -12 -1.5 -20.5t-14.5 -11.5t-19 -4t-15 -1q-18 -4 -48.5 -4h-41.5h-67.5t-63.5 14 q-35 18 -49 58t-27 75q-4 10 -8 25.5t-10 25.5q-4 8 -9 8.5t-22 0.5q-10 0 -43.5 -2t-44.5 -2q-156 0 -277.5 52t-204.5 143t-127 215t-44 265zM342 606q0 -66 13.5 -157t52 -175t110.5 -142t189 -58h65l-92 243q-4 12 15.5 20.5t45 13.5t51 6t35.5 1h18.5t33 -2t37 -6 t30.5 -12q29 -20 39 -55t21 -66q70 76 119 171t79.5 196.5t45 201t14.5 183.5q0 41 -4.5 97t-16.5 116.5t-35.5 119t-63.5 103.5t-97.5 73.5t-137.5 28.5q-94 0 -173 -43t-142.5 -115.5t-110.5 -165.5t-78.5 -192.5t-47 -200t-15.5 -184.5z" />
<glyph unicode="R" horiz-adv-x="1304" d="M29 47q33 190 62.5 353t62.5 335q14 76 32.5 173.5t38 199.5t39 203.5t37.5 187.5q4 16 22.5 31.5t41.5 15.5h387q78 0 156.5 -19.5t143 -62.5t104.5 -113.5t40 -174.5q0 -66 -21.5 -132.5t-65.5 -125t-112.5 -105.5t-160.5 -76l-2 -2l-7 -6q57 -154 120 -294t157 -281 q14 -20 30.5 -37t39.5 -33q25 -16 44 -22.5t32.5 -11.5t20.5 -11.5t7 -22.5t-13.5 -23t-28.5 -10t-29.5 -3h-16.5q-104 0 -174 15t-118 49t-83 86t-68.5 124t-71.5 165t-95 208q-12 25 -34 36t-47.5 14t-50 2t-42.5 -1q-29 -133 -60 -303t-74 -346q-4 -10 -17 -13.5 t-24 -7.5q-23 -4 -54.5 -6t-41.5 -2q-25 0 -60.5 9t-45.5 38zM418 764h149q51 0 107.5 23.5t104.5 65.5t82 98.5t40 121.5q4 31 6 56.5t2 33.5q0 49 -11 102.5t-40 96.5t-76 70.5t-116 27.5q-10 0 -26.5 -2t-33 -6t-31 -11t-18.5 -18q-25 -76 -38 -146.5t-27 -135.5 q-18 -92 -35 -188.5t-39 -188.5z" />
<glyph unicode="S" horiz-adv-x="1269" d="M39 322q0 55 12 94t58 88q4 4 14 9t18 5q10 0 20.5 -7t14.5 -13t8 -15.5t6 -17.5q23 -84 56 -154.5t79 -121t105 -78t135 -27.5q63 0 113.5 21.5t84.5 59.5t52.5 88t18.5 105q0 86 -41 150.5t-101.5 120t-132.5 107.5t-132 113.5t-101 137.5t-41 180q0 113 44 196 t116.5 138t162.5 82t183 27q61 0 135.5 -12.5t141.5 -40t111 -74.5t44 -115q0 -47 -21.5 -100.5t-62.5 -83.5q-8 -8 -23.5 -21.5t-25.5 -13.5q-8 0 -22.5 10t-16.5 23q-10 68 -30 130t-53.5 108t-81.5 74t-116 28q-57 0 -102 -21.5t-77 -58.5t-48.5 -83t-16.5 -95 q0 -82 42 -142.5t105.5 -113t136.5 -103.5t136.5 -112.5t105.5 -140.5t42 -189q0 -127 -54.5 -216t-136.5 -146.5t-179 -83t-185 -25.5q-59 0 -144.5 15.5t-164 53t-135 101t-56.5 160.5z" />
<glyph unicode="T" horiz-adv-x="1339" d="M18 1440q2 6 9.5 34.5t11.5 51.5q8 20 33 20l1224 -4q16 -2 16.5 -14.5t0.5 -14.5q0 -4 -2 -19t-5 -33.5t-8.5 -34t-11.5 -17.5q-10 -4 -37.5 -5t-36.5 -1h-428q-12 -53 -25.5 -127t-25.5 -141q-10 -55 -23.5 -123t-23.5 -123q-4 -29 -12 -76t-19 -88q-14 -76 -30.5 -163 t-33 -175t-32.5 -175t-31 -163q-2 -10 -13 -27.5t-28 -19.5q-8 0 -21 -1t-27.5 -1h-26h-15.5q-14 0 -39.5 -1t-49 3t-40 15.5t-14.5 33.5l262 1348h-379h-30.5t-41 3t-35 12t-12.5 26z" />
<glyph unicode="U" horiz-adv-x="1468" d="M45 449q0 33 7 89t17.5 120.5t23.5 134t25.5 130t20.5 105.5t13 64q16 90 32.5 199.5t36.5 199.5q4 20 29.5 38.5t48.5 18.5h195q16 -4 14 -13t-2 -19q0 -2 -9.5 -50.5t-24.5 -124t-34.5 -171t-38 -192.5t-36 -187.5t-29.5 -155.5q-2 -14 -4 -38t-4 -47.5t-3 -42 t-1 -24.5q0 -78 16 -145.5t54 -116.5t98.5 -77.5t150.5 -28.5q119 0 203 49t143.5 131t96 188.5t61.5 223.5q6 29 14 73.5t17.5 95t18.5 99.5t15 90q8 45 16.5 103.5t17.5 121t18.5 125t19.5 119.5l129 14q10 0 9 -6t-3 -16q0 -4 -10 -53.5t-22.5 -116t-27 -137 t-24.5 -119.5q-8 -41 -19 -89t-18 -96q-25 -172 -70.5 -342t-129.5 -304t-213 -218t-320 -84q-115 0 -210 30t-163.5 89t-106.5 149.5t-38 213.5zM1282 1524v4v6q4 10 12 10l117 4q-37 -8 -63 -14q-25 -4 -44.5 -9t-19.5 -3q-2 0 -2 2z" />
<glyph unicode="V" horiz-adv-x="1331" d="M18.5 1535.5q-4.5 16.5 10.5 18.5q8 0 24.5 1t36 1h37.5h31h23.5t46 -1t45 -4t24.5 -11q4 -29 10 -57.5t10 -57.5q18 -133 43 -284.5t51.5 -298t50 -271.5t36.5 -204q4 0 10 10q86 154 172 309.5t168 308.5q33 61 67.5 132t70.5 142.5t72 142.5t70 130q8 12 39 13t50 1 q10 0 31.5 -1t37.5 -1q6 0 9 -6t-9 -22l-20 -34q-21 -34 -47.5 -79t-54 -89t-40.5 -64q-197 -319 -373 -637t-356 -639h-96l-276 1525q0 10 -4.5 26.5z" />
<glyph unicode="W" horiz-adv-x="1929" d="M45 1518v8q0 36 33 42q29 5 84 5h33h33.5t39 -2t32.5 -8.5t15 -18.5q4 -35 8.5 -69.5t8.5 -69.5q18 -248 42.5 -487.5t53.5 -491.5l530 1122h95l194 -1126q23 41 48.5 95t47.5 108q45 102 83 189t81 187.5t98.5 226.5t135.5 308q6 10 16 21.5t33 11.5h98q14 -4 10 -15.5 t-4 -9.5l-739 -1546h-100l-193 1104l-536 -1104h-101z" />
<glyph unicode="X" horiz-adv-x="1458" d="M27 4q57 68 144 167t177 205.5t174 209t140 178.5l-318 747q-16 39 6 39h236q23 0 33 -9t14 -23q49 -121 104.5 -260.5t120.5 -274.5q16 16 45 51t59.5 75t62.5 82t54 73q47 59 94.5 128.5t92.5 123.5q12 14 30.5 23t36 14.5t31.5 6.5t18 1q16 0 28.5 -7t8.5 -30 l-518 -645l365 -836q4 -14 -11.5 -22.5t-39 -13.5t-49 -6t-40.5 -1q-29 0 -67.5 2t-63.5 14q-31 16 -44 52t-25 65q-18 43 -33.5 88t-32.5 86q-37 90 -74.5 179t-76.5 180l-494 -662h-188z" />
<glyph unicode="Y" horiz-adv-x="1200" d="M29 1536q-2 10 16 10h221q29 2 41 -20q6 -14 15.5 -40t18.5 -56.5t18.5 -61.5t17.5 -57q41 -123 85 -248t91 -248q16 20 40.5 54t52.5 75t57.5 84t54.5 82q55 84 123.5 195.5t132.5 216.5q10 16 26.5 25t34 12.5t31.5 3.5h18q12 0 34 -7t22 -32q0 -4 -22.5 -36t-58.5 -80 t-80 -106.5t-86 -116t-79 -107.5t-57 -83q-31 -45 -65 -90t-65.5 -93t-56 -100.5t-37.5 -109.5q-4 -16 -8 -38.5t-8 -39.5q-10 -43 -21.5 -106.5t-23.5 -131t-25.5 -133t-25.5 -114.5q-4 -16 -21.5 -27.5t-25.5 -11.5h-191q-14 4 -24.5 12t-8.5 35l129 623q-4 31 -14 68.5 t-22 72.5q-23 59 -49.5 133t-54 152t-53.5 151.5t-46.5 132t-33.5 95t-13 41.5z" />
<glyph unicode="Z" horiz-adv-x="1613" d="M22.5 6q-8.5 8 6.5 25l1122 1411l-743 -27q-25 0 -31 7.5t-4 19.5q2 10 7 36.5t9 47.5q4 16 17 18h1101q18 -2 23.5 -14.5t-0.5 -22.5l-1106 -1398q10 -4 17.5 -4.5t17.5 -0.5l782 68l94 4q10 0 13.5 -3t-0.5 -15q-2 -8 -8.5 -35t-16.5 -54.5t-23.5 -49t-29.5 -21.5 h-1219q-20 0 -28.5 8z" />
<glyph unicode="a" horiz-adv-x="1251" d="M29 268q0 63 13 139t41 152t69 148.5t98 132.5q55 57 125.5 104t144.5 79t144.5 48t130.5 16l268 -36l-174 -811q-1 -7 -1 -13q0 -31 24 -43q28 -14 57 -14q37 0 69.5 17.5t63.5 39t59.5 39t57.5 17.5h43q-41 -35 -105.5 -87.5t-137.5 -101.5t-143.5 -84t-121.5 -35 q-53 0 -76 36t-25 95l35 261q2 0 2 2t-4 6q-41 -59 -101.5 -129t-128 -128.5t-137 -97t-129.5 -38.5q-53 0 -85.5 36.5t-49 85t-21.5 95.5t-5 69zM299 301q0 -12 2 -33.5t7 -42t15.5 -35t28.5 -14.5q31 0 54 17q57 37 115.5 97t107.5 132t85 146.5t48 142.5q22 120 49 231 q-35 14 -69.5 23.5t-73.5 9.5q-70 0 -124.5 -35t-95 -92t-69.5 -129t-46.5 -147.5t-25.5 -146.5t-8 -124z" />
<glyph unicode="b" horiz-adv-x="1048" d="M18 244q0 29 15.5 122t40 218t53.5 268t57.5 273t51 233.5t34.5 148.5q2 10 15.5 21.5t31 23t36 20.5t30.5 15q31 18 64.5 38t68.5 38h23q4 -4 5 -10t1 -11l-201 -866v-2q0 -4 4 -6q57 66 120.5 125t127 104t125 72t117.5 27q61 0 98 -34t55.5 -80t24.5 -95t6 -78 q0 -94 -27.5 -199.5t-85 -207t-146.5 -190.5t-214 -153q-59 -29 -136 -49t-134 -20q-117 0 -189 67.5t-72 186.5zM268 301q0 -18 3 -52t16.5 -66.5t40 -56.5t73.5 -24q57 0 106.5 36t88.5 92.5t68.5 129t50 145.5t31 140.5t10.5 114.5q0 8 -1 34.5t-8.5 55.5t-22.5 52.5 t-44 23.5t-70 -23.5t-82 -56.5t-76.5 -71t-56.5 -64q-16 -23 -41.5 -50.5t-31.5 -48.5q-18 -63 -36 -138t-18 -173z" />
<glyph unicode="c" horiz-adv-x="1140" d="M45 356q0 84 20.5 178.5t68.5 184.5t127 172t194 143q53 29 118.5 50.5t120.5 21.5q31 0 66 -7t64.5 -23.5t50 -41t20.5 -61.5q0 -25 -13.5 -50.5t-33 -46t-40 -34t-34.5 -13.5q-12 0 -31.5 25t-46 54.5t-61.5 54t-78 24.5q-49 0 -82 -31.5t-59 -78.5q-53 -94 -79 -211 t-26 -228q0 -41 3 -86t19.5 -82t52.5 -61.5t101 -24.5q57 0 135 20.5t156 50.5t147.5 63.5t112.5 62.5q10 6 35 7t35 1h43q-72 -61 -172 -130t-210 -128t-219.5 -98t-197.5 -39q-94 0 -154.5 31.5t-94 83t-46 116t-12.5 131.5z" />
<glyph unicode="d" horiz-adv-x="1435" d="M49 287q0 131 43 266t132 248.5t223.5 192.5t316.5 98l117 -15q23 104 41 205.5t41 206.5q4 18 18 31.5t32.5 24.5t37 19.5t28.5 14.5q12 8 33 20.5t42.5 23.5t37.5 19.5t20 8.5q10 0 17.5 -12.5t3.5 -24.5l-262 -1301q4 -59 26.5 -98t79.5 -39q27 0 55.5 11.5t59.5 27.5 t60.5 33.5t58.5 32.5q20 10 49.5 8t58.5 -2q-25 -18 -66.5 -49t-94 -65t-112 -67.5t-117.5 -61.5t-112.5 -45t-95.5 -17q-63 0 -92 43q-25 37 -25 89q0 9 1 19l43 248h-5q-4 0 -8 -4q-43 -57 -106.5 -126t-133 -127t-140 -98t-128.5 -40q-61 0 -97 37.5t-53.5 88 t-22.5 100.5t-5 75zM315 338q0 -12 1 -38t9.5 -52.5t22.5 -47t43 -20.5q27 0 65 24.5t80 63.5t81.5 86t73.5 90t56.5 78t26.5 49q12 37 25.5 93.5t24 109.5t17.5 94t7 45q0 14 -23.5 27.5t-54.5 24t-60.5 15.5t-39.5 5q-68 0 -121 -39t-92 -101.5t-67 -137t-44 -147.5 t-23.5 -132t-7.5 -90z" />
<glyph unicode="e" horiz-adv-x="1140" d="M18 340q0 131 48.5 265t134.5 241.5t205.5 175.5t261.5 68q45 0 86 -13.5t73.5 -39t52 -62.5t19.5 -84q0 -70 -32.5 -122t-85 -93t-120 -73t-136 -56.5t-133 -45t-113.5 -40.5v-111q0 -76 48 -134t126 -58q96 0 188 32.5t178 70.5q86 39 168 69q72 27 140 26h18 q-86 -61 -185.5 -126.5t-206 -121t-217 -90t-221.5 -34.5q-82 0 -138 28.5t-92 76.5t-51.5 112.5t-15.5 138.5zM291 553h16q2 0 13.5 4t24.5 8t24.5 9.5t13.5 5.5q45 16 96 39.5t92 57.5t69 77t28 100q0 47 -25 90t-78 43q-57 0 -105 -50t-85 -119.5t-59.5 -143.5 t-24.5 -121z" />
<glyph unicode="f" horiz-adv-x="667" d="M-309 -303q0 10 8 30.5t21.5 40t31 35t35.5 15.5q8 0 27 -13q6 -4 14 -10t18 -12q20 -10 44 -19.5t47 -9.5q31 0 51 24.5t32 63.5q12 41 15.5 76t7.5 45q12 45 20.5 101.5t18.5 109.5q27 154 52.5 307.5t51.5 306.5h-135l-12 13q0 2 -1 3t-1 3q-2 2 -5 7t-3 11 q0 8 9 19.5t19 21.5q10 8 21.5 18.5t21.5 20.5h107q4 16 8 31.5t8 32.5q4 14 10.5 32.5t10.5 32.5q14 68 60 135.5t107.5 122t130 88t130.5 33.5q14 0 37.5 -5t46 -17.5t40 -33t17.5 -50.5q0 -12 -8 -33t-22.5 -40.5t-32 -33.5t-35.5 -14q-12 0 -35 18q-12 10 -25.5 24.5 t-29.5 28.5q-16 12 -30.5 20.5t-29.5 8.5q-10 0 -21.5 -6t-19.5 -20q-10 -23 -23.5 -54.5t-17.5 -58.5q-6 -31 -15 -71t-16.5 -75.5t-12.5 -62.5t-5 -29v-4h221q-16 -35 -30.5 -55.5t-26.5 -40.5q-47 -4 -92 -8l-90 -8q-33 -145 -57.5 -302t-61.5 -305 q-39 -154 -102.5 -284.5t-178.5 -220.5q-49 -39 -96 -63t-92 -24q-10 0 -32.5 5.5t-46 16.5t-41 30.5t-17.5 50.5z" />
<glyph unicode="g" horiz-adv-x="1212" d="M-211 -311q0 57 43 108t101.5 94t121 77t103.5 59q-12 12 -27.5 28.5t-28.5 36.5q-4 6 -5 18.5t-1 22.5q0 31 18.5 53.5t44 42t53.5 35t48 29.5q-133 37 -179 107.5t-46 179.5q0 115 49 209t127 160.5t173 103.5t189 37q4 0 16.5 -1.5t29 -2.5t34 -4t29.5 -7q10 8 11 10 t1 4.5t5.5 6.5t23.5 16q25 18 61 24q30 4 59 4h11q35 -1 61.5 -5.5t30.5 -4.5q16 0 18.5 -16t2.5 -18q0 -4 -2 -18.5t-6.5 -31t-8.5 -34t-6 -29.5q-25 -92 -36 -131t-18 -61.5t-13.5 -46t-18.5 -82.5q-6 -35 -32.5 -78t-64.5 -85t-82 -77t-87 -53q-53 -23 -114.5 -39.5 t-117.5 -40.5q-33 -14 -32 -49q0 -12 13 -28.5t30.5 -30t35 -24t23.5 -10.5q2 0 18.5 7.5t39 16.5t50 20.5t56.5 21.5q29 8 63.5 19.5t69.5 21.5q25 8 57.5 18.5t61.5 20.5q23 8 72 28.5t86 43.5q53 31 79.5 50t41 31.5t26.5 17.5t39 5h33q-66 -92 -153 -154.5t-180 -105.5 t-183.5 -70.5t-159.5 -50.5q47 -29 98 -59.5t93 -67.5t69 -79t27 -93q0 -35 -10.5 -68.5t-39.5 -64.5q-51 -59 -118.5 -102t-141 -72t-150.5 -42t-145 -13q-59 0 -136 14t-144.5 46t-113.5 81t-46 121zM51 -264q0 -55 35 -94t82 -63.5t96 -35t80 -10.5q27 0 71 7t86 25.5 t72.5 49.5t30.5 80q0 37 -27.5 70.5t-65.5 61.5t-78 48.5t-62 32.5q-12 6 -29.5 15t-35 18.5t-31 15.5t-17.5 6t-19.5 -7t-34 -19.5t-38 -25.5t-33.5 -26q-25 -20 -43 -45.5t-29 -46.5q-4 -16 -7 -32.5t-3 -24.5zM281 580q0 -23 4 -54.5t16 -61.5t35.5 -50.5t62.5 -20.5 q63 0 107.5 43t73 106.5t42 133.5t13.5 123q0 16 -3 51t-15.5 68.5t-37 59.5t-65.5 26q-68 0 -113 -57.5t-71.5 -131.5t-37.5 -143.5t-11 -91.5z" />
<glyph unicode="h" horiz-adv-x="1404" d="M31 -10q0 4 6 35.5t16 76.5t20.5 95.5t20.5 91.5q53 262 109.5 550.5t120.5 606.5q4 14 14 33.5t22 29.5q25 18 60 39t67.5 39.5t58 29.5t29.5 11t13.5 -13t9.5 -26l-195 -930q10 0 15 11q55 68 124.5 138.5t143.5 128.5t147.5 95t139.5 37q31 0 51 -12.5t31.5 -32.5 t16.5 -49t7 -62l-137 -716q-6 -37 11.5 -43.5t37.5 -6.5q31 0 79 20.5t98.5 50.5t94.5 60.5t68 51.5q8 6 23.5 7t25.5 -1h33q-53 -59 -126 -129t-152.5 -128.5t-159.5 -97t-148 -38.5q-25 0 -53.5 5t-52 20.5t-36.5 41.5q-8 16 -8 40q0 14 3 32l149 741q-2 8 -3 18.5 t-4 18.5t-10 14.5t-21 6.5q-31 0 -74 -28t-88 -71t-90 -93t-81 -95t-58.5 -79t-24.5 -42q-20 -113 -45 -226.5t-43 -230.5l-234 -47q-6 -2 -14 4.5t-8 16.5z" />
<glyph unicode="i" horiz-adv-x="657" d="M12 104q0 4 2 19.5t5.5 37t7.5 45t10 46.5q12 57 28.5 131t36 158t40 173t40.5 177q2 10 24.5 21.5t39.5 21.5q41 23 85 46.5t85 43.5q4 -4 7 -10t3 -10l-182 -803q0 -4 1 -20.5t19 -16.5q27 0 75 21.5t99 49t94 56t60 43.5q4 4 18.5 6t24.5 0h29q-47 -53 -113 -114.5 t-136.5 -114t-142 -87t-131.5 -34.5q-63 0 -96 25.5t-33 88.5zM217 1264q0 25 10.5 50t28.5 46.5t44 36t58 14.5q59 0 84 -37t25 -78q0 -59 -42 -104t-103 -45q-57 0 -81 39t-24 78z" />
<glyph unicode="j" horiz-adv-x="477" d="M-367 -408q0 6 8.5 27t20.5 42.5t28.5 38.5t33.5 17q4 0 18 -9t33.5 -20.5t43 -20.5t44.5 -9q37 0 58.5 33t33.5 72.5t17 76.5t8 43q10 31 21 88.5t19 104.5q33 168 67 337t69 337q4 23 8 47t8 47q2 12 5 31.5t13 27.5q51 37 110.5 64.5t113.5 56.5q12 -8 12 -20 q0 -4 -8 -39t-18.5 -84.5t-24 -104.5t-21.5 -100q-6 -39 -15 -87t-19.5 -98.5t-20.5 -102.5t-20 -99q-23 -100 -52.5 -222t-89.5 -239q-29 -55 -80 -110.5t-109.5 -101.5t-115.5 -74.5t-96 -28.5q-14 0 -31.5 5t-33 14t-27 24.5t-11.5 35.5zM213 1272q0 55 39 101t104 46 q59 0 84 -36.5t25 -75.5q0 -57 -38 -104.5t-101 -47.5q-55 0 -84 38t-29 79z" />
<glyph unicode="k" horiz-adv-x="1284" d="M27 -10q6 25 14 57.5t16.5 69.5t16.5 73.5t14 65.5q27 119 63.5 278.5t76.5 332.5t79 346t70 321q2 10 24.5 22.5t38.5 20.5q41 23 85 46.5t85 43.5q4 -4 7.5 -10t3.5 -10l-267 -1115h6q31 31 71 75t85 92.5t94 94.5t97.5 82.5t94.5 59t85 22.5q33 0 56.5 -14t36.5 -34.5 t19.5 -45t6.5 -45.5q0 -68 -47.5 -118t-111 -86.5t-128 -58t-101.5 -30.5q35 -90 65 -178t65 -174q10 -29 42.5 -39t51.5 -10q33 0 83 18.5t102 45t99.5 57t75.5 55.5q6 4 20.5 5t22.5 1h29q-41 -49 -104.5 -110.5t-136 -114.5t-146.5 -89t-133 -36q-51 0 -87 20.5t-64 55.5 t-49.5 81t-41.5 99q-23 55 -50.5 131t-49.5 145q-10 -8 -23.5 -22t-28 -29.5t-24.5 -31t-12 -25.5q-16 -88 -35 -180t-39 -185q-16 -2 -42 -6t-54.5 -10t-58 -12t-52.5 -13zM573 649l19 -55q6 -2 48 11t90 35t87 51.5t39 62.5q0 23 -15.5 26.5t-33.5 3.5q-27 0 -57.5 -10 t-61.5 -27.5t-60.5 -42t-54.5 -55.5z" />
<glyph unicode="l" horiz-adv-x="782" d="M41 158q0 35 8 89t18.5 112.5t22.5 112.5t19 91q23 109 47 227.5t48.5 243.5t49.5 250t49 246q2 8 8 20.5t15 16.5q53 39 112.5 68.5t118.5 60.5q8 -8 10 -19.5t6 -19.5l-286 -1401q2 -4 3 -13.5t3 -19.5t8 -18t18 -8q16 0 50 12t70 27.5t64.5 30t35.5 18.5 q27 16 66.5 46.5t76.5 55.5q10 8 24.5 8h24.5h33q-47 -55 -119 -123.5t-153.5 -129t-164.5 -100.5t-151 -40q-45 0 -71.5 9t-41 27.5t-18.5 48.5t-4 71z" />
<glyph unicode="m" d="M39 6q10 39 29.5 127t45 197.5t55.5 229.5t57.5 222.5t52 176t43.5 92.5q30 30 74 30q11 0 22 -2q42 -9 58 -39q12 -21 11 -45q0 -10 -2 -20l-63 -326h4q37 51 102.5 125t142.5 141.5t156.5 115.5t147.5 48q59 0 81.5 -40t22.5 -93q0 -72 -13 -146.5t-24 -146.5 q41 51 105.5 125t140.5 140.5t155 113.5t150 47q51 0 76 -39t25 -86q0 -84 -17.5 -183t-41 -201.5t-49 -202t-42.5 -185.5q6 -20 16.5 -28.5t18.5 -12.5q31 0 83 22.5t107.5 52.5t104.5 62.5t72 55.5q18 4 38.5 6t40.5 0q-43 -53 -113.5 -120.5t-151.5 -128t-166 -102.5 t-154 -42q-25 0 -51.5 6t-49 18.5t-37 33t-14.5 48.5q0 23 10.5 81.5t25.5 135t33.5 162.5t37 166t33 143.5t20.5 96.5q4 18 0 34.5t-33 16.5q-25 0 -63.5 -25.5t-81.5 -64.5t-87 -88t-82 -97.5t-64.5 -88.5t-32.5 -64q-33 -104 -52.5 -216t-42.5 -220l-243 -48l-13 29 l185 823q4 16 -4.5 38t-28.5 22q-18 0 -40 -11.5t-42.5 -27.5t-38.5 -32.5t-31 -29.5q-72 -72 -121 -128t-83.5 -108t-56 -104.5t-37 -113t-30 -134t-30.5 -171.5l-236 -52z" />
<glyph unicode="n" horiz-adv-x="1415" d="M20 12q31 125 60 256t56.5 262.5t57 260.5t64.5 249q42 42 72 48q19 4 39 4q13 0 26 -2q41 -6 57 -43q11 -27 11 -50q0 -9 -2 -18l-58 -326q41 53 106.5 128t142.5 143.5t159 117t154 48.5q55 0 85 -46q23 -34 24 -72q0 -13 -3 -26l-149 -743q2 -18 13 -29.5t26 -15.5 q61 4 120.5 36.5t114.5 69.5q56 36 108 66q46 26 88 26h11q-43 -53 -113.5 -120.5t-151.5 -128t-166 -102.5t-155 -42q-25 0 -51.5 6t-49 19.5t-36.5 34t-14 49.5q0 23 9 80t24.5 133.5t34 163t35.5 165t30.5 142t19.5 94.5q2 10 2 18q0 33 -33 33q-27 0 -65.5 -25.5 t-81.5 -65.5t-88 -89t-82 -97.5t-64.5 -90t-35.5 -66.5q-35 -100 -54.5 -207.5t-42.5 -212.5l-10 -10q-57 -8 -113.5 -19.5t-111.5 -27.5z" />
<glyph unicode="o" horiz-adv-x="1439" d="M31 375q0 88 21.5 185t71.5 189.5t132 169t201 123.5q51 20 106 35t115 15q63 0 122.5 -18.5t106.5 -58.5t77 -103.5t36 -153.5l-10 -174q4 -4 5 -4h11q16 0 44 8t56 18q33 10 68 27q10 6 30.5 17.5t45 25.5t48 28.5t42.5 24.5l80 -8q-51 -55 -106.5 -93t-114 -64.5 t-117 -47t-115.5 -45.5q-6 -2 -14 -20.5t-18.5 -43t-21.5 -51t-24 -47.5q-35 -59 -82 -110.5t-100 -91t-109.5 -67.5t-111.5 -38q-14 -2 -35.5 -5t-42 -5t-38 -4t-21.5 -2q-100 0 -166 34.5t-104 90t-53 125t-15 139.5zM297 379q0 -29 4 -78t20.5 -96t51.5 -82t94 -35 q10 0 34.5 4t41.5 14q37 23 64.5 60t47 79t32.5 82t22 70q2 10 8 24.5t6 22.5v23q-117 33 -184.5 103.5t-67.5 162.5q0 31 9 69t27.5 73.5t45.5 65.5t61 46q-4 0 -7 4t-13 4q-41 0 -90 -29.5t-76 -78.5q-66 -133 -98.5 -257t-32.5 -251zM590 762q-6 -25 3 -46.5t24.5 -39 t35 -31.5t35.5 -22q10 -4 23.5 -13.5t23.5 -9.5q8 0 10 2t3 4l6 107q0 23 -3 50.5t-9.5 54t-12.5 50t-12 39.5h-33q-25 0 -42 -21.5t-28.5 -47t-17.5 -49t-6 -27.5z" />
<glyph unicode="p" horiz-adv-x="1398" d="M-129 -612l13 62q14 63 36.5 169.5t52 246.5t63.5 298t69.5 324.5t68.5 324.5q14 66 29.5 142.5t38.5 148.5q2 8 35.5 34.5t75.5 55.5t79 50.5t45 21.5q10 0 15.5 -4.5t13.5 -8.5l-41 -184l213 23q186 0 268 -83t82 -261q0 -141 -67.5 -290t-215.5 -282q43 -33 70 -35 t51 -2q45 0 103.5 19.5t119 49.5t118 67.5t104.5 74.5q6 6 21.5 7t25.5 1h33q-53 -59 -126 -128.5t-153 -128t-160 -97.5t-147 -39q-47 0 -100.5 23.5t-90.5 89.5q-66 -41 -136 -65.5t-124 -26.5l-110 24q-25 -111 -45.5 -244t-59.5 -255q-4 -10 -33.5 -29t-52.5 -31 q-37 -23 -75.5 -43t-77.5 -43h-23q-6 8 -6 23zM295 195q0 -35 35 -69t78 -34q12 0 32.5 7t41 17.5t38 25t27.5 30.5q-29 53 -75 84t-85 31t-65.5 -23.5t-26.5 -68.5zM338 426h10q71 0 144 -26q79 -27 149 -103q27 43 48.5 97.5t37.5 111.5t25.5 111.5t9.5 101.5 q0 49 -8.5 95t-32 81t-64.5 56.5t-106 21.5q-10 0 -49 -4t-62 -15q-14 -61 -31.5 -147t-34 -164t-26.5 -134t-10 -60v-23z" />
<glyph unicode="q" horiz-adv-x="1153" d="M45 283q0 96 29.5 204.5t90 212t154 190.5t220.5 140q80 33 148.5 51.5t135.5 18.5q20 0 53 -2t67 -7.5t63.5 -12.5t46.5 -17q20 -12 26 -32t6 -36q0 -4 -8 -48t-20.5 -104.5t-24.5 -127t-20 -113.5q-41 -217 -85 -465t-98 -487q-4 -25 -6 -59.5t-22 -69.5 q-10 -16 -43 -35t-53 -29q-35 -18 -72 -39.5t-72 -40.5h-22q-4 4 -5.5 11.5t-1.5 11.5l209 971h-6q-53 -57 -116.5 -123t-131 -122t-136 -93t-130.5 -37q-57 0 -92 36t-53.5 83t-24.5 96t-6 74zM317 352q0 -10 1 -37.5t8.5 -55.5t21.5 -49.5t43 -21.5q43 0 104.5 48.5 t118 109t97.5 114.5t45 68q27 92 48.5 205t39.5 217q-8 6 -26.5 12.5t-40 11.5t-43 9t-36.5 4q-74 0 -131 -37t-99 -95t-70.5 -130t-47 -142.5t-26 -132t-7.5 -98.5z" />
<glyph unicode="r" horiz-adv-x="911" d="M37 -4q0 4 6 29.5t14.5 59.5t17.5 72t15 66q14 68 31.5 150t36 167t33 163.5t22.5 140.5q4 29 14.5 61.5t22.5 61.5q20 55 52 79.5t73 24.5q20 0 34.5 -12t21.5 -29.5t10 -37t1 -34.5l-41 -268q2 -2 5 -2q2 0 4 2q10 20 46 82t85 128.5t104 118.5t109 52q23 0 45 -9 t40.5 -25.5t31 -38t12.5 -46.5q0 -14 -12.5 -42.5t-32 -58.5t-43 -51.5t-45.5 -21.5q-8 0 -20.5 8.5t-27 17.5t-32 17t-35.5 8q-25 0 -53.5 -24.5t-56 -62t-53.5 -82t-46 -82t-32.5 -65.5t-12.5 -30q-25 -115 -48.5 -232.5t-45.5 -234.5l-232 -47q-4 4 -11 10.5t-7 16.5z " />
<glyph unicode="s" horiz-adv-x="991" d="M18 174q0 16 13.5 40t34 44.5t46 34.5t50.5 14q16 0 47 -29.5t75 -65.5t102 -65.5t128 -29.5q27 0 53.5 8t48 22.5t35 35t13.5 44.5q0 43 -34 79t-84 70t-108.5 68.5t-108.5 74.5t-84 89t-34 113q0 76 54 142.5t133 116.5t168 80t157 30q31 0 74 -8.5t82 -26t66.5 -46 t27.5 -67.5q0 -16 -10.5 -38.5t-30 -43t-47 -35t-60.5 -12.5q-63 68 -124.5 105.5t-133.5 37.5q-49 0 -91 -23.5t-42 -76.5q0 -41 35 -76t86 -69.5t111.5 -70.5t111.5 -77t86 -90t35 -111q0 -59 -28.5 -110t-75.5 -93t-107.5 -75t-122 -55.5t-120 -33.5t-101.5 -11 q-37 0 -92 11t-107.5 34.5t-89.5 59.5t-37 85z" />
<glyph unicode="t" horiz-adv-x="811" d="M29 991l63 86h137q8 23 12.5 51.5t8.5 59.5t12 58.5t25 49.5q23 29 61.5 58.5t77.5 53.5t69.5 39t34.5 15q10 0 15.5 -7t9.5 -15l-82 -363h266l-67 -102h-185q-10 0 -18 -2l-16 -4q-20 -33 -25.5 -80t-15.5 -96q-16 -68 -36 -161t-36 -178t-28.5 -146.5t-12.5 -65.5 q0 -6 1 -17.5t4 -23t10.5 -18.5t19.5 -7q33 0 88 21.5t113.5 52.5t110.5 65.5t79 59.5q6 4 22.5 5t26.5 1h33q-47 -55 -119 -124t-153.5 -129t-163.5 -100t-150 -40q-92 0 -130 43t-38 133q0 4 1 22.5t4 42t6.5 48t7.5 40.5q31 152 62.5 301.5t64.5 299.5q4 10 7 22t7 29 h-172z" />
<glyph unicode="u" horiz-adv-x="1366" d="M23 160q0 4 1 22.5t3 41t5 46t7 39.5q39 170 77 341t91 345q8 27 26.5 47.5t41 34t46 20.5t41.5 7q64 0 64 -85v-5l-154 -752q2 -27 3 -45t36 -18q29 0 69 24.5t83 63.5t85 87t76.5 93t57.5 83t29 56q31 104 52 213t44 217q27 8 63.5 19.5t71.5 21.5t61.5 18.5t30.5 8.5 h31l-188 -871q0 -18 3 -39.5t29 -21.5q35 0 91.5 24.5t112.5 57.5t102.5 64.5t62.5 46.5q6 4 21.5 6t25.5 0h33q-53 -59 -126 -129t-153 -128.5t-159.5 -97.5t-147.5 -39q-29 0 -57.5 7.5t-50.5 23.5q-21 16 -32 42q-7 17 -7 39q0 12 2 26l51 295q-8 0 -10 -4.5t-6 -8.5 q-49 -61 -113 -131.5t-133.5 -130t-141 -98.5t-137.5 -39q-41 0 -63.5 15.5t-33.5 38t-14 51t-3 57.5z" />
<glyph unicode="v" horiz-adv-x="911" d="M43 895q-2 27 3 63.5t19.5 69.5t38 55.5t58.5 22.5q39 0 66.5 -51t46 -131t28.5 -177.5t16.5 -188.5t8.5 -165t6 -106q39 49 93 117.5t101 145.5t81 153.5t34 140.5q0 53 -18.5 82.5t-18.5 54.5q0 53 43 89t94 36q29 0 50.5 -14.5t37 -36t23.5 -48t8 -51.5 q0 -49 -39 -126.5t-100 -171t-137 -191.5t-150 -188.5t-136 -163t-99 -113.5h-90q6 66 6 135q0 41 -2 84q-6 113 -18.5 226.5t-28 226t-25.5 221.5z" />
<glyph unicode="w" horiz-adv-x="1392" d="M35 901q2 35 10 71t23.5 63.5t40 45t59.5 17.5q39 0 62.5 -37t33.5 -83t13.5 -88t3.5 -54v-480l415 705h70l102 -772q29 33 77 100.5t94 146t79 157.5t33 138q0 61 -17.5 91t-17.5 55q0 20 11.5 42.5t29 39t40 28t44.5 11.5q33 0 56.5 -15.5t38 -37t20.5 -48.5t6 -47 q0 -47 -18.5 -97t-47.5 -97q-51 -84 -115.5 -178.5t-135 -192.5t-145.5 -198.5t-144 -194.5h-86l-90 682l-414 -682h-80z" />
<glyph unicode="x" horiz-adv-x="1220" d="M18 104q0 18 8.5 43t22.5 45.5t33.5 35t44.5 14.5q4 0 18.5 -8.5t31 -17.5t30.5 -17.5t18 -8.5q25 0 55.5 23t62.5 57.5t62.5 74.5t54 76t39 60.5t17.5 26.5l-139 469q-8 27 3 46t31.5 33.5t44 21.5t40.5 7q37 0 63.5 -29.5t44 -66.5t27.5 -70.5t14 -44.5 q12 -31 24.5 -69.5t28.5 -77.5q31 41 73 102.5t91 118t103.5 97t113.5 40.5t86 -36.5t27 -75.5q0 -18 -8 -42t-23.5 -44.5t-36 -33.5t-43.5 -13q-18 0 -27.5 8t-18.5 17t-20 17.5t-32 8.5q-23 0 -46.5 -15.5t-47.5 -41.5q-23 -23 -50.5 -56t-53 -63.5t-43 -54t-17.5 -27.5 q0 -8 16.5 -51t28.5 -82q10 -37 18.5 -70t19.5 -66.5t25.5 -70.5t36.5 -80q6 -10 18.5 -21.5t22.5 -11.5q18 0 41 14.5t45.5 36t44 45t39.5 41.5l43 -53q-29 -45 -66.5 -95t-82.5 -92t-94.5 -69.5t-96.5 -27.5t-77.5 31.5t-51 74.5t-34 86t-21.5 66q-10 31 -22.5 75.5 t-28.5 92.5q-31 -39 -73 -111t-94 -141.5t-112.5 -121.5t-128.5 -52q-59 0 -91 36.5t-32 87.5z" />
<glyph unicode="y" horiz-adv-x="1249" d="M-483 -457q0 96 58 178t144 141.5t186.5 94.5t184.5 37q10 0 27.5 1l35 2t32 3t18.5 6v26q0 101 -13 222q-16 137 -30 262q-6 45 -16.5 106.5t-21.5 119t-19.5 99.5t-8.5 50v24q0 33 4 59q6 34 35 66q10 14 38 22.5t44 8.5q37 0 61.5 -24.5t41 -58.5t23.5 -69.5t11 -58.5 q6 -47 13.5 -95t11.5 -95q10 -117 21.5 -230.5t21.5 -232.5q37 53 85 127t91 154.5t72.5 161.5t29.5 149q0 33 -5 55.5t-12 39.5t-12 30.5t-5 29.5q0 27 13 48.5t32.5 37t42 23.5t39.5 8q33 0 56 -16.5t36.5 -40t19.5 -50t6 -49.5q0 -53 -32.5 -129.5t-83 -165 t-110.5 -179.5t-116.5 -171t-99.5 -142t-59 -93q4 -4 8 -3t14 1t29.5 4t34.5 8q55 12 97 22.5t79 21.5t71.5 25.5t77.5 32.5q23 10 48.5 24.5t47.5 27.5q49 27 97.5 59.5t101.5 73.5q8 6 23.5 7t25.5 1h33q-18 -25 -54 -62.5t-75 -72.5q-127 -115 -223 -172.5t-182.5 -84 t-170 -35.5t-188.5 -30q-16 -4 -43 -35.5t-66.5 -86t-93 -126t-120.5 -153.5q-16 -18 -39 -39t-52 -43q-27 -20 -67.5 -29.5t-75.5 -9.5q-37 0 -78 9t-74.5 29.5t-55 55.5t-21.5 88zM-335 -416.5q1 -13.5 5 -32.5q18 -16 28.5 -18t25.5 -2q20 0 57 21.5t80 54.5t89 72.5 t85 77.5t68.5 68t37.5 44h-32q-41 0 -99.5 -17.5t-117 -45t-108.5 -60.5t-71 -63q-18 -23 -28.5 -40.5t-15.5 -31.5t-4 -27.5z" />
<glyph unicode="z" horiz-adv-x="1114" d="M37 49q0 41 20.5 80t42.5 64q164 174 340 339.5t355 344.5q-25 2 -59 -3.5t-44 -5.5l-223 17q-41 0 -74 -6.5t-63.5 -25.5t-60 -56t-66.5 -97l-66 37q20 41 48 104.5t67 121t88 97.5q43 35 95 35q8 0 16 -1l409 -56q7 -1 14 -1q41 -1 76 21q41 24 86 66l54 -47 q-68 -90 -161 -189.5t-195.5 -201.5t-208 -204.5t-197.5 -196.5l377 -86q5 -1 11 0q28 1 58 17q36 20 68.5 50.5t59 65.5t42.5 61q14 -4 30.5 -17.5t33.5 -25.5q-18 -41 -52 -107.5t-80.5 -129t-103.5 -106.5q-52 -40 -110 -40h-11l-422 150q-10 2 -26.5 -5.5t-30.5 -17.5 q-27 -18 -41 -36.5t-23.5 -33t-16.5 -22.5t-19 -8t-19.5 8t-11.5 18.5t-5 19.5z" />
<glyph unicode="&#xad;" />
<glyph unicode="&#xec;" />
<glyph unicode="&#xed;" />
<glyph unicode="&#xee;" />
<glyph unicode="&#xef;" />
<glyph unicode="&#x2000;" horiz-adv-x="848" />
<glyph unicode="&#x2001;" horiz-adv-x="1696" />
<glyph unicode="&#x2002;" horiz-adv-x="848" />
<glyph unicode="&#x2003;" horiz-adv-x="1696" />
<glyph unicode="&#x2004;" horiz-adv-x="565" />
<glyph unicode="&#x2005;" horiz-adv-x="424" />
<glyph unicode="&#x2006;" horiz-adv-x="282" />
<glyph unicode="&#x2007;" horiz-adv-x="282" />
<glyph unicode="&#x2008;" horiz-adv-x="212" />
<glyph unicode="&#x2009;" horiz-adv-x="339" />
<glyph unicode="&#x200a;" horiz-adv-x="94" />
<glyph unicode="&#x2010;" />
<glyph unicode="&#x2011;" />
<glyph unicode="&#x2012;" />
<glyph unicode="&#x2013;" />
<glyph unicode="&#x2014;" />
<glyph unicode="&#x2019;" />
<glyph unicode="&#x201d;" />
<glyph unicode="&#x2026;" />
<glyph unicode="&#x202f;" horiz-adv-x="339" />
<glyph unicode="&#x205f;" horiz-adv-x="424" />
<glyph unicode="&#x25fc;" horiz-adv-x="1085" d="M0 0v1085h1085v-1085h-1085z" />
</font>
</defs>
</svg>
