<?xml version="1.0" encoding="UTF-8" standalone="no"?>
<!DOCTYPE svg  PUBLIC '-//W3C//DTD SVG 1.1//EN'  'http://www.w3.org/Graphics/SVG/1.1/DTD/svg11.dtd'>
<svg xmlns="http://www.w3.org/2000/svg">
<defs>
<font id="ChaparralPro-Regular" horiz-adv-x="524">
<font-face underline-position="-46" font-weight="400" descent="-200" panose-1="2 6 5 3 4 5 5 2 2 3" units-per-em="1000" unicode-range="U+0020-25CA" bbox="-30 -250 1073 870" x-height="420" underline-thickness="54" font-family="ChaparralPro" ascent="800" cap-height="650"/>
<missing-glyph horiz-adv-x="1000"/>
<glyph glyph-name=".notdef" horiz-adv-x="1000"/>
<glyph glyph-name=".null" horiz-adv-x="0"/>
<glyph glyph-name="nonmarkingreturn" horiz-adv-x="333"/>
<glyph glyph-name="space" horiz-adv-x="220" unicode=" "/>
<glyph glyph-name="exclam" horiz-adv-x="273" unicode="!" d="M138 94h1q24 0 37.5 -16.5t13.5 -37.5q0 -19 -15 -34t-38 -15t-38 14t-15 36q0 20 15 36.5t39 16.5zM183 659h1v-3q-2 -60 -6 -146t-8.5 -191t-6.5 -149q-14 -4 -52 -7q0 10 -11 227q-4 122 -13 251q15 5 50.5 11.5t45.5 6.5z"/>
<glyph glyph-name="quotedbl" horiz-adv-x="321" unicode='&quot;' d="M270 698q-8 -138 -10 -224q-23 -7 -48 -7q-11 152 -18 218q39 13 76 13zM131 698q-8 -138 -10 -224q-23 -7 -48 -7q-11 153 -18 217q37 14 76 14z"/>
<glyph glyph-name="numbersign" d="M330 419h-109q-14 -78 -23 -138q18 0 55 -0.5t55 -0.5q4 26 22 139zM230 466h109q5 28 10 59.5t11 67.5t9 53q4 0 13 0.5t14 0.5t14 -0.5t13 -0.5q-4 -23 -14.5 -84.5t-16.5 -94.5q18 0 52 0.5t48 0.5q0 -26 -3 -49h-107q-4 -23 -11.5 -69t-11.5 -69h108v-13 q0 -10 -2 -34h-114q-22 -126 -35 -198q-11 -1 -35 -1h-15q5 30 11 63.5t12.5 73t10.5 61.5h-111q-4 -25 -11.5 -67t-13 -74.5t-9.5 -56.5q-4 0 -12 -0.5t-12 -0.5t-12.5 0.5t-13.5 0.5q20 112 33 198q-16 0 -51 -0.5t-50 -0.5q0 21 2 49h108q8 46 22 138h-109q0 18 2 46 q39 1 116 1q8 51 30 180q18 2 54 2q-3 -18 -14.5 -82.5t-17.5 -99.5z" unicode="#"/>
<glyph glyph-name="dollar" d="M390 183v1q0 42 -25 63t-83 40q-2 -146 -4 -209q50 6 78 29q34 28 34 76zM143 460v-1q0 -37 24 -56t81 -37q2 143 3 191q-48 -4 -74 -26q-34 -25 -34 -71zM74 449v1q0 33 18.5 64.5t48.5 51.5q47 32 112 36q0 18 0.5 52t0.5 50q20 5 51 7q-2 -55 -3 -107h6q85 0 133 -29 q0 -11 -10.5 -31t-21.5 -26q-60 35 -109 39q-2 -143 -4 -203q80 -25 120.5 -59t40.5 -93q0 -76 -54 -122q-50 -41 -125 -48q0 -17 -1 -50.5t-1 -50.5q-15 -2 -47 -4q0 17 0.5 51t0.5 52h-11q-102 0 -170 38q12 39 37 56q77 -46 144 -48q2 66 4 222q-79 27 -119.5 59 t-40.5 92z" unicode="$"/>
<glyph glyph-name="percent" horiz-adv-x="760" unicode="%" d="M573 283h-1q-34 0 -54 -23q-32 -35 -32 -106q0 -74 31 -103q23 -21 55 -21t52 19q31 33 31 109q0 66 -29 102q-18 23 -53 23zM577 323h1q59 0 92 -33q49 -46 49 -129q0 -82 -49 -131q-40 -40 -101 -40q-55 0 -89 28q-58 43 -58 133q0 84 56 135q42 37 99 37zM193 612h-1 q-36 0 -55 -22q-32 -35 -32 -103q0 -74 32 -106q24 -22 54 -22t49 17q35 33 35 112q0 66 -30 103q-15 21 -52 21zM511 616l-3 3q-31 0 -106 -1.5t-113 -2.5q21 -14 35.5 -47t14.5 -73q0 -85 -51 -136q-38 -40 -101 -40q-52 0 -87 29q-59 46 -59 137q0 81 53 129 q40 37 107 39h17q233 0 341 11q12 -13 22 -30q-51 -90 -176 -318q-30 -55 -188 -342q-31 13 -43 21q78 139 190 346q14 25 147 275z"/>
<glyph glyph-name="ampersand" horiz-adv-x="712" unicode="&amp;" d="M271 41h1q99 0 176 79q-115 137 -227 211q-43 -21 -75.5 -60.5t-32.5 -93.5q0 -63 47 -102q41 -34 111 -34zM165 510v-1q0 -38 22 -65.5t69 -57.5q104 50 104 127q0 43 -27 71q-26 26 -69 26q-42 0 -70 -26q-29 -29 -29 -74zM301 360l-1 -5q93 -63 194 -184 q23 28 41.5 76.5t21.5 86.5q1 8 -4 8l-58 3q0 31 1 44h104q14 0 44 0.5t44 0.5q0 -3 0.5 -11t0.5 -12t-0.5 -11.5t-0.5 -11.5l-59 -2q-34 -130 -100 -209q10 -12 32.5 -38.5t30.5 -36.5q10 -12 25 -12l76 -2q0 -29 -1 -44q-84 -4 -141 -5q-12 14 -36 44.5t-35 43.5 q-98 -93 -229 -93q-87 0 -142 37q-76 51 -76 137q0 59 37 109.5t106 86.5v4q-84 61 -84 139q0 66 55 112q50 40 123 40q69 0 111 -33q49 -40 49 -99q0 -104 -129 -163z"/>
<glyph glyph-name="quotesingle" horiz-adv-x="181" unicode="&apos;" d="M131 698q-10 -166 -11 -224q-23 -7 -48 -7q-11 153 -18 217q38 14 77 14z"/>
<glyph glyph-name="parenleft" horiz-adv-x="328" unicode="(" d="M70 279v1q0 142 67 259t158 173q12 -15 24 -35q-71 -53 -124 -157t-53 -237q0 -240 175 -398q-14 -17 -30 -32q-43 35 -75 68t-67.5 85t-55 121.5t-19.5 151.5z"/>
<glyph glyph-name="parenright" horiz-adv-x="328" unicode=")" d="M257 287v-1q0 -262 -221 -432q-5 6 -28 33q177 150 177 396q0 134 -51.5 236t-122.5 159q16 22 24 32q91 -54 156.5 -168t65.5 -255z"/>
<glyph glyph-name="asterisk" horiz-adv-x="357" unicode="*" d="M197 510q0 -21 2 -63.5t3 -64.5q-3 0 -11.5 -0.5t-12.5 -0.5t-11.5 0.5t-11.5 0.5q4 87 5 128q-20 -15 -103 -74q-14 19 -25 39q14 8 53 31t60 35q-76 44 -113 66q7 13 23 39q57 -38 106 -73l-6 126q4 0 12 0.5t12 0.5t12 -0.5t11 -0.5q0 -21 -2 -63l-3 -63q70 50 105 74 q16 -24 23 -39q-74 -44 -112 -67q76 -44 113 -67q-13 -22 -26 -38q-44 32 -103 74z"/>
<glyph glyph-name="plus" d="M460 208h-170q-1 -70 -1 -196q-25 -3 -55 -3v199h-170q0 36 1 53q110 0 169 1v186q29 3 57 3q0 -25 -0.5 -88.5t-0.5 -99.5q118 0 172 1v-15q0 -17 -2 -41z" unicode="+"/>
<glyph glyph-name="comma" horiz-adv-x="245" unicode="," d="M110 100h1q28 0 50 -25.5t22 -58.5q0 -52 -31.5 -94.5t-80.5 -70.5q-16 17 -29 35q68 42 68 93q0 33 -50 47q-1 4 -1 12q0 26 15 44t36 18z"/>
<glyph glyph-name="hyphen" horiz-adv-x="315" unicode="-" d="M132 213h-1h-99q0 36 1 52q35 1 102 1q26 0 74.5 0.5t73.5 1.5q0 -21 -2 -55h-149z"/>
<glyph glyph-name="period" horiz-adv-x="245" unicode="." d="M124 102h1q27 0 40 -17.5t13 -38.5q0 -22 -14.5 -38.5t-38.5 -16.5q-25 0 -41 15.5t-16 38.5q0 22 15 39.5t41 17.5z"/>
<glyph glyph-name="slash" horiz-adv-x="392" unicode="/" d="M60 -56q-22 6 -49 15q103 236 172 397q22 51 72 169t73 171q24 -4 55 -16q-78 -176 -151 -344q-84 -195 -172 -392z"/>
<glyph glyph-name="zero" d="M266 609h-1q-48 0 -80 -40q-26 -31 -42 -100t-16 -162q0 -158 46 -224q35 -48 90 -48q46 0 78 38q57 67 57 242q0 183 -46 248q-32 46 -86 46zM479 332v-1q0 -195 -89 -289q-52 -52 -135 -52q-78 0 -127 49q-82 82 -82 263q0 206 93 299q56 54 135 54t130 -54 q33 -36 54 -105.5t21 -163.5z" unicode="0"/>
<glyph glyph-name="one" d="M312 48l156 -3q0 -30 -1 -45q-33 0 -99.5 0.5t-95.5 0.5q-32 0 -99.5 -0.5t-104.5 -0.5q0 31 1 45l163 3q4 0 4 5q1 167 1 504q-29 -8 -86 -24t-87 -24q-1 4 -5 19.5t-5 23.5q51 19 115 45.5t102.5 43t40.5 16.5q3 0 3 -4q0 -8 -3 -605z" unicode="1"/>
<glyph glyph-name="two" d="M456 473v-1q0 -134 -183 -305q-55 -54 -118 -106l1 -4q180 0 312 3l3 -1q0 -24 -4 -60q-15 0 -119.5 0.5t-147.5 0.5h-143q-7 18 -14 41q113 93 175 154q155 150 155 268q0 69 -36 106q-33 36 -98 36q-63 0 -99 -31q-4 -4 -5 -11l-21 -97q-21 1 -53 5q2 19 6 68t6 75 q74 41 174 41q94 0 147 -42q62 -50 62 -140z" unicode="2"/>
<glyph glyph-name="three" d="M135 570l-18 -95q-4 1 -23.5 2.5t-29.5 3.5q7 98 10 137q74 37 174 37q93 0 145 -39q24 -18 39.5 -47.5t15.5 -58.5q0 -60 -38.5 -102t-97.5 -59v-6q73 -11 113.5 -54.5t40.5 -101.5q0 -87 -79 -148q-65 -49 -192 -49q-77 0 -131 15q-11 63 -21 140q40 10 53 11l25 -91 q1 -5 8 -11q31 -14 83 -14q80 0 124 37q47 39 47 103q0 59 -47.5 94t-118.5 35h-70q-1 11 -1 36v15h10q102 0 156.5 38t54.5 99q0 50 -31 78q-32 31 -101 31q-57 0 -94 -25q-5 -5 -6 -11z" unicode="3"/>
<glyph glyph-name="four" d="M319 555h-5q-17 -24 -53.5 -76.5t-63.5 -90.5q-15 -21 -104 -155q-4 -7 2 -7q49 -1 222 -1zM388 46l78 -3v-12q0 -20 -1 -31q-15 0 -55.5 0.5t-61.5 0.5q-25 0 -72 -0.5t-67 -0.5q0 29 1 43l103 3q5 0 5 4v122q-31 -1 -273 -1q-16 31 -25 58q45 66 141 198 q121 167 165 222q45 0 66 -2q-1 -79 -2 -233t-1 -189q84 0 109 1q0 -36 -2 -53h-107q-1 -42 -1 -127z" unicode="4"/>
<glyph glyph-name="five" d="M462 221v-1q0 -113 -82 -175q-74 -55 -194 -55q-69 0 -118 13q-14 81 -22 138q14 4 53 11l24 -90q2 -6 9 -11q27 -12 68 -12q84 0 134 42t50 116q0 76 -50 117.5t-145 41.5q-51 0 -102 -9l-7 8q8 74 36 290h164q116 0 171 1q0 -30 -5 -62q-45 0 -136.5 0.5t-137.5 0.5 q-3 -19 -12.5 -80.5t-14.5 -93.5q38 5 83 5q114 0 174 -57.5t60 -137.5z" unicode="5"/>
<glyph glyph-name="six" d="M274 35h1q51 0 85 36q40 44 40 119t-38 115q-32 36 -87 36q-37 0 -78 -22t-65 -62v-11q0 -106 46 -164q34 -47 96 -47zM127 326h5q76 70 164 70q77 0 121 -44q26 -25 43.5 -64t17.5 -82q0 -109 -82 -175q-51 -41 -132 -41q-84 0 -136 52q-78 78 -78 229q0 184 87 293 q74 91 198 91q59 0 94 -15q9 -60 15 -129q-18 -4 -53 -10l-19 83q-2 9 -5 11q-24 11 -54 11q-39 0 -72 -20.5t-53 -51.5q-50 -79 -61 -208z" unicode="6"/>
<glyph glyph-name="seven" d="M420 578l-3 5q-90 1 -200 1q-54 0 -66 -1q-20 -1 -28 -22l-21 -79q-3 1 -23 4t-30 5q4 25 12 77t12 77q4 0 35.5 -0.5t51.5 -0.5h318q10 -20 20 -56q-74 -123 -133 -251t-87 -217q-14 -42 -16 -119q-32 -3 -79 -3q0 74 20 128q44 121 217 452z" unicode="7"/>
<glyph glyph-name="eight" d="M409 163v1q0 59 -39.5 91.5t-138.5 63.5q-51 -22 -83 -62.5t-32 -92.5q0 -59 40 -93q40 -35 102 -35q63 0 103 28q48 36 48 99zM147 500v-1q0 -49 31 -77t112 -55q97 48 97 133q0 48 -27 76q-33 33 -86 33q-57 0 -92 -30q-35 -32 -35 -79zM346 348v-4q69 -25 104.5 -68.5 t35.5 -98.5q0 -92 -79 -146q-60 -41 -155 -41q-90 0 -148 39q-66 46 -66 130q0 114 140 181v5q-105 50 -105 146q0 36 18.5 68t44.5 52q58 44 144 44q84 0 132 -42t48 -103q0 -103 -114 -162z" unicode="8"/>
<glyph glyph-name="nine" d="M256 610h-1q-50 0 -85 -35q-43 -42 -43 -124q0 -69 34 -109q34 -37 92 -37q39 0 77 19.5t63 53.5v10q0 54 -13 101.5t-30 72.5q-36 48 -94 48zM397 316h-5q-74 -62 -158 -62q-76 0 -127 47q-59 55 -59 138q0 106 80 170q55 46 136 46q87 0 137 -55q74 -80 74 -236 q0 -187 -84 -288q-71 -86 -198 -86q-52 0 -98 10q-16 84 -23 126q28 8 52 11l24 -80q3 -7 9 -11q17 -10 57 -10t73.5 19.5t52.5 47.5q53 80 57 213z" unicode="9"/>
<glyph glyph-name="colon" horiz-adv-x="245" unicode=":" d="M125 102h1q26 0 39 -17.5t13 -37.5q0 -23 -15 -39.5t-39 -16.5q-25 0 -40.5 15.5t-15.5 38.5q0 22 15 39.5t42 17.5zM125 418h1q26 0 39.5 -17.5t13.5 -38.5q0 -22 -15 -38.5t-39 -16.5q-25 0 -41 15.5t-16 38.5q0 22 15 39.5t42 17.5z"/>
<glyph glyph-name="semicolon" horiz-adv-x="245" unicode=";" d="M111 99h1q27 0 49 -25.5t22 -58.5q0 -52 -31.5 -94.5t-80.5 -70.5q-12 13 -29 34q68 43 68 93q0 34 -50 48q-1 4 -1 12q0 27 15 44.5t37 17.5zM125 418h1q26 0 39 -17.5t13 -38.5q0 -23 -14.5 -39t-39.5 -16t-40.5 15.5t-15.5 38.5q0 22 15 39.5t42 17.5z"/>
<glyph glyph-name="less" d="M173 238q49 -42 233 -194q-15 -24 -31 -41q-50 39 -140 108.5t-131 101.5q-1 15 -1 47q122 90 273 201q18 -20 30 -42q-170 -131 -233 -181z" unicode="&lt;"/>
<glyph glyph-name="equal" d="M62 132q0 32 3 56h398q0 -17 -2 -53q-21 0 -399 -3zM63 283q0 19 2 53q20 0 398 3v-15q0 -17 -2 -41h-398z" unicode="="/>
<glyph glyph-name="greater" d="M332 235q-127 104 -234 189q14 24 30 41q114 -85 273 -205v-47q-248 -188 -273 -206q-12 14 -31 41q117 91 235 187z" unicode="&gt;"/>
<glyph glyph-name="question" horiz-adv-x="426" unicode="?" d="M196 93h1q23 0 37.5 -16.5t14.5 -36.5q0 -19 -15.5 -34t-36.5 -15q-23 0 -39 14t-16 35q0 20 15 36.5t39 16.5zM385 505v-1q0 -59 -38.5 -109.5t-116.5 -104.5q-27 -20 -27 -35q0 -22 20 -80q-20 -11 -51 -17q-14 18 -30 59t-16 66q95 67 133.5 111.5t38.5 104.5 q0 49 -28.5 79t-78.5 30q-45 0 -73 -21q-3 -3 -6 -12l-18 -86q-38 4 -56 7q2 23 6 68.5t6 63.5q64 32 155 32q88 0 134 -46.5t46 -108.5z"/>
<glyph glyph-name="at" horiz-adv-x="623" unicode="@" d="M232 169v-1q0 -22 22 -22q21 0 61.5 32.5t51.5 57.5q5 15 18 67q-20 28 -61 28q-24 0 -44 -22t-32 -56q-16 -45 -16 -84zM394 343h4l17 29q11 -1 45 -10q-19 -70 -54 -218q-1 -3 2 -5t6 -2q40 0 70 30q46 44 46 117q0 78 -50 132.5t-145 54.5q-98 0 -169 -77.5 t-71 -198.5q0 -100 57.5 -150t137.5 -50q71 0 123 35q12 -15 17 -32q-63 -39 -156 -39q-94 0 -161.5 61t-67.5 172q0 139 89 226.5t214 87.5q101 0 165.5 -59.5t64.5 -151.5q0 -98 -64 -154q-53 -43 -136 -43q-6 0 -16.5 5.5t-15.5 12.5q2 18 11 50l-6 2q-71 -69 -120 -69 q-12 0 -33 12t-28 26q-2 5 -2 20q0 37 15 85q16 49 53 89t84 40q44 0 74 -28z"/>
<glyph glyph-name="A" horiz-adv-x="606" unicode="A" d="M299 548h-4q-18 -48 -54.5 -149t-51.5 -143q-3 -6 2 -6h210q-25 75 -102 298zM-13 46l56 3q4 2 5 5q34 87 231 605q12 1 55 1q39 -105 121.5 -336t97.5 -274l61 -3q0 -32 -1 -46h-94q-24 0 -68.5 -0.5t-63.5 -0.5q0 8 0.5 23t0.5 23l78 3q4 0 2 5q-40 116 -51 144 q-1 5 -7 5l-239 -1q-42 -119 -53 -153l90 -2q0 -31 -1 -46h-133q-15 0 -45 -0.5t-43 -0.5q0 31 1 46z"/>
<glyph glyph-name="B" horiz-adv-x="574" unicode="B" d="M201 313l-1 -231q-1 -22 17 -29.5t68 -7.5q68 0 117.5 33.5t49.5 101.5q0 54 -46 94.5t-145 40.5q-53 0 -60 -2zM202 603l-1 -241q12 -2 48 -2q69 0 118 35t49 91q0 54 -39.5 87t-116.5 33q-46 0 -58 -3zM48 46l70 2q5 0 5 5v549l-75 2q0 8 0.5 23.5t0.5 22.5 q21 0 85 0.5t90 0.5q133 0 192 -26q34 -17 56 -50.5t22 -71.5q0 -53 -33.5 -93t-85.5 -58v-6q68 -8 114 -53t46 -105q0 -84 -68 -136.5t-181 -52.5q-13 0 -63 0.5t-59 0.5h-117q0 31 1 46z"/>
<glyph glyph-name="C" horiz-adv-x="585" unicode="C" d="M50 288v1q0 187 132 295q92 76 227 76q81 0 127 -21q4 -53 10 -169q-14 -2 -57 -7l-16 108q-2 11 -8 15q-28 18 -83 18q-95 0 -158 -64q-89 -91 -89 -228q0 -67 13.5 -112t48.5 -84q27 -31 72.5 -49.5t94.5 -18.5q83 0 177 42q10 -31 12 -51q-119 -49 -203 -49 q-116 0 -193 61q-49 38 -78 100t-29 137z"/>
<glyph glyph-name="D" horiz-adv-x="691" unicode="D" d="M203 602l-2 -521q0 -21 14 -28.5t63 -7.5q130 0 200 64q36 33 57.5 88.5t21.5 117.5q0 83 -21 134.5t-69 94.5q-72 62 -203 62q-48 0 -61 -4zM49 45l70 3q4 0 4 4v549l-74 2q0 32 1 46q108 2 204 2q89 0 145 -12t103 -40q63 -37 101 -105t38 -149q0 -88 -32 -162 t-93 -119q-89 -65 -233 -65q-22 0 -65.5 0.5t-53.5 0.5q-16 0 -56 -0.5t-60 -0.5q0 8 0.5 23.5t0.5 22.5z"/>
<glyph glyph-name="E" horiz-adv-x="555" unicode="E" d="M51 46l69 3q3 0 3 4v548l-73 2q0 32 1 47q17 0 56 -0.5t59 -0.5q15 0 112.5 0.5t109.5 0.5h86q6 -74 9 -151q-17 -3 -53 -7l-16 87q-3 16 -23 17q-42 5 -159 5h-29l-1 -246q28 0 79 0.5t78 1.5q22 1 23 20l5 48q36 0 51 -1q-1 -15 -1.5 -47t-0.5 -48v-92q-11 -1 -36 -1 h-15l-4 52q-1 19 -24 19q-45 1 -155 1l-1 -240q0 -13 8.5 -16.5t47.5 -3.5q125 0 155 7q14 4 18 20l32 91q12 -2 52 -10q-14 -64 -35 -157q-46 1 -311 1h-118q0 31 1 46z"/>
<glyph glyph-name="F" horiz-adv-x="531" unicode="F" d="M123 600l-73 3q0 32 1 47h114h222q23 0 50.5 0.5t37.5 0.5q8 -103 11 -160q-9 -1 -27.5 -3t-25.5 -3l-19 95q-4 16 -22 17q-45 5 -168 5q-5 0 -12 -0.5t-9 -0.5l-1 -260q59 0 157 2q14 0 18.5 4.5t6.5 14.5l6 50h17h34q-2 -66 -2 -101q-1 -30 -1 -91q-16 -1 -51 -1l-4 54 q-1 18 -26 18q-60 1 -155 3l-1 -244l117 -3q0 -32 -1 -47q-20 0 -72 0.5t-77 0.5q-21 0 -61 -0.5t-57 -0.5q0 8 0.5 23t0.5 23l68 3q4 2 4 4v547z"/>
<glyph glyph-name="G" horiz-adv-x="665" unicode="G" d="M514 461l-14 100q-2 14 -8 19q-35 27 -103 27q-98 0 -164 -63q-87 -85 -87 -223t70 -209q72 -74 188 -74q24 0 46 4t34 9t12 10v171l-107 2q0 33 1 48h144h97v-14q0 -23 -1 -34l-51 -2q-4 0 -4 -4l-2 -205q-56 -33 -178 -33q-144 0 -227 68q-110 94 -110 251 q0 91 39 165.5t106 121.5q89 64 217 64q95 0 151 -28q6 -104 7 -165q-18 -2 -56 -6z"/>
<glyph glyph-name="H" horiz-adv-x="731" unicode="H" d="M54 47l65 3q4 0 4 4v547l-71 3q0 31 1 46q17 0 56 -0.5t58 -0.5q20 0 62 0.5t60 0.5q0 -31 -1 -47l-82 -2q-3 0 -3 -4v-230q0 -4 4 -4h322v238l-85 2q0 32 1 46h125q19 0 55.5 0.5t51.5 0.5v-14q0 -22 -1 -32l-64 -3q-2 0 -2 -4l-3 -547l74 -3q0 -31 -1 -46h-114 q-20 0 -62 -0.5t-59 -0.5q0 32 1 47l79 3q4 0 4 4v256q0 4 -4 4l-323 -2l-1 -262l89 -3q0 -32 -1 -47q-17 0 -60 0.5t-64 0.5q-19 0 -57 -0.5t-55 -0.5q0 31 1 47z"/>
<glyph glyph-name="I" horiz-adv-x="324" unicode="I" d="M123 601l-79 3q0 8 0.5 23t0.5 23h124h117q0 -8 -0.5 -23.5t-0.5 -22.5l-79 -3q-3 0 -3 -4l-2 -547l85 -3q0 -32 -1 -47q-16 0 -57 0.5t-62 0.5q-20 0 -61 -0.5t-59 -0.5q0 31 1 46l72 3q4 0 4 5v547z"/>
<glyph glyph-name="J" horiz-adv-x="493" unicode="J" d="M462 605l-71 -3q-3 0 -3 -3v-232v-116q0 -69 -11 -111.5t-39 -80.5q-59 -79 -185 -79q-60 0 -112 12q-2 21 -16 154q22 5 52 9l20 -99q1 -8 8 -12q23 -12 65 -12q78 0 112 55q18 29 22.5 63t4.5 98q0 120 -2 354l-125 3q0 31 1 45h170h110q0 -30 -1 -45z"/>
<glyph glyph-name="K" horiz-adv-x="631" unicode="K" d="M123 600l-71 3q0 32 1 47h116h109q0 -32 -1 -47l-70 -3q-3 0 -3 -6l-2 -239q41 0 69 7q27 26 90 100.5t107 132.5q4 4 -2 4l-67 3q0 33 1 48h130h79q0 -32 -1 -47l-53 -3q-96 -111 -220 -247v-5q56 -42 116 -137q49 -78 89 -137q15 -21 33 -23l72 -3q0 -16 -2 -46 q-12 -1 -40 -1.5t-40 -0.5q-22 -1 -67 -1q-16 19 -108 168q-87 142 -125 142q-47 0 -61 -2l-1 -257l81 -3v-14q0 -22 -1 -33q-15 0 -55.5 0.5t-60.5 0.5q-19 0 -58 -0.5t-55 -0.5v46l67 3q4 1 4 4v547z"/>
<glyph glyph-name="L" horiz-adv-x="523" unicode="L" d="M123 600l-73 3v13q0 22 1 33h117h127q0 -17 -2 -47l-87 -2q-2 0 -2 -4l-3 -528q0 -14 6.5 -17.5t36.5 -3.5q127 0 159 6q12 4 18 21l36 105q14 -2 53 -12q-11 -54 -39 -168q-13 0 -119.5 0.5t-184.5 0.5q-22 0 -61.5 -0.5t-56.5 -0.5q0 17 2 47l68 3q4 0 4 4v547z"/>
<glyph glyph-name="M" horiz-adv-x="869" unicode="M" d="M122 600l-70 2q0 33 1 47q25 0 86 0.5t90 0.5q28 -68 98 -246t110 -276h6q24 60 67 169t78 197t63 156h166q0 -32 -1 -47l-65 -3q-3 0 -3 -5q0 -195 2 -545l70 -3q0 -32 -1 -47q-15 0 -52 0.5t-56 0.5q-20 0 -59.5 -0.5t-55.5 -0.5q0 8 0.5 23.5t0.5 22.5l77 3q4 1 4 5 q0 25 -3 502h-6q-113 -299 -218 -525q-9 -1 -45 -1q-116 260 -217 531h-6q-6 -467 -6 -511l89 -3q0 -7 -0.5 -23t-0.5 -24q-18 0 -60.5 0.5t-63.5 0.5q-17 0 -48.5 -0.5t-45.5 -0.5q0 8 0.5 24t0.5 23l66 3q4 0 4 4q1 84 2.5 274t1.5 272z"/>
<glyph glyph-name="N" horiz-adv-x="716" unicode="N" d="M48 46l64 3q4 0 4 4v548l-73 2v14q0 22 1 33h144q151 -224 358 -540l5 1q-2 328 -4 490l-94 1q0 8 0.5 24t0.5 24h124h96v-15v-31l-61 -3q-3 0 -3 -5l-3 -592q-24 -11 -53 -11q-161 219 -372 538h-6q0 -321 -1 -482l100 -2q0 -8 -0.5 -23.5t-0.5 -22.5h-132 q-17 0 -49.5 -0.5t-45.5 -0.5q0 32 1 46z"/>
<glyph glyph-name="O" horiz-adv-x="718" unicode="O" d="M360 40h1q95 0 149 62q72 85 72 222q0 145 -71 225q-57 61 -145 61q-84 0 -142 -52q-88 -80 -88 -232q0 -146 74 -224q58 -62 150 -62zM347 -10h-1q-125 0 -207 84q-89 89 -89 245q0 92 39 167.5t100 117.5q83 56 189 56q97 0 168 -50q55 -39 88.5 -109.5t33.5 -155.5 q0 -171 -104 -274q-84 -81 -217 -81z"/>
<glyph glyph-name="P" horiz-adv-x="547" unicode="P" d="M203 601l-2 -291q8 -9 53 -9q68 0 107 26q68 40 68 127q0 73 -47 112t-128 39q-42 0 -51 -4zM123 601l-69 2q0 31 1 46q92 2 164 2q104 0 162 -17q60 -17 94.5 -64t34.5 -103q0 -64 -35.5 -115.5t-88.5 -74.5q-59 -25 -143 -25q-10 0 -24.5 0.5t-17.5 0.5l-1 -203l112 -3 q0 -31 -1 -46h-149q-18 0 -54.5 -0.5t-53.5 -0.5q0 32 1 46l64 3q4 2 4 4v548z"/>
<glyph glyph-name="Q" horiz-adv-x="718" unicode="Q" d="M135 324v-1q0 -147 76 -223q60 -60 151 -60t148 63q73 83 73 215q0 159 -76 235q-58 57 -140 57q-87 0 -147 -55q-36 -34 -60.5 -94.5t-24.5 -136.5zM49 316v1q0 95 40 171t106 120q77 52 184 52q87 0 155 -41q65 -41 100 -115.5t35 -161.5q0 -85 -28.5 -155.5 t-76.5 -115.5q-50 -49 -110 -67v-5q79 -50 149 -80q32 -14 73 -14t87 14q4 -21 6 -48q-83 -29 -134 -29q-35 0 -75 21q-79 42 -185 128q-7 -1 -23 -1q-131 0 -215 84q-88 89 -88 242z"/>
<glyph glyph-name="R" horiz-adv-x="600" unicode="R" d="M203 601l-2 -275q6 -2 53 -2q86 0 128.5 43t42.5 97q0 69 -44.5 105t-120.5 36q-45 0 -57 -4zM123 601l-69 2q0 31 1 46q112 2 193 2q82 0 137 -15q51 -14 86.5 -56.5t35.5 -94.5q0 -63 -37.5 -109.5t-98.5 -70.5v-5q8 -3 15 -7.5t14.5 -12t12.5 -13t12.5 -17.5t12 -18.5 t13.5 -23t13 -24t14.5 -29t15.5 -30.5q25 -47 35.5 -60.5t19.5 -13.5l62 -3q0 -15 -2 -47h-66q-18 -1 -65 -1q-19 25 -66.5 118.5t-60.5 113.5q-17 26 -37 36t-56 10q-48 0 -58 -2v-226l84 -3q0 -31 -1 -47q-16 0 -57.5 0.5t-62.5 0.5q-20 0 -57 -0.5t-52 -0.5q0 32 1 47 l63 3q5 0 5 3v548z"/>
<glyph glyph-name="S" horiz-adv-x="492" unicode="S" d="M98 180l18 -104q1 -8 8 -12q34 -23 93 -23q77 0 114 40q32 32 32 80q0 55 -26 79.5t-98 57.5q-13 6 -20 9q-74 34 -112.5 73t-38.5 100q0 40 18.5 75.5t46.5 57.5q58 47 163 47q81 0 122 -22q8 -78 11 -148q-7 -1 -25.5 -3.5t-29.5 -3.5l-17 94q-3 9 -6 12q-24 20 -75 20 q-60 0 -94 -30q-38 -33 -38 -83q0 -49 26 -71.5t111 -60.5q82 -36 120 -75.5t38 -103.5q0 -87 -58 -139q-62 -56 -180 -56q-89 0 -147 24q-2 27 -6.5 80.5t-6.5 77.5q47 7 57 8z"/>
<glyph glyph-name="T" horiz-adv-x="567" unicode="T" d="M161 47l81 3q4 0 4 4v546q-97 0 -130 -3q-22 -2 -25 -19l-16 -97q-22 1 -56 5q2 27 5 82t5 82q7 0 38 -0.5t54 -0.5h170q144 0 168 1q65 0 86 1q4 -52 8 -164q-16 -2 -56 -6l-15 97q-3 17 -25 19q-39 3 -131 3l-2 -550l92 -3q0 -7 -0.5 -23t-0.5 -24q-17 0 -61 0.5 t-65 0.5q-20 0 -64 -0.5t-65 -0.5q0 32 1 47z"/>
<glyph glyph-name="U" horiz-adv-x="669" unicode="U" d="M185 601l-2 -330v-9q0 -111 41 -165q40 -53 119 -53q72 0 116 46q49 51 49 176q0 229 -1 330q0 4 -4 4l-83 3q0 31 1 46h116q19 0 54 0.5t50 0.5q0 -31 -1 -47l-64 -3l-2 -335q-1 -140 -70 -213q-60 -62 -164 -62q-112 0 -171 58q-40 38 -53 88.5t-13 126.5v332q0 6 -5 6 l-61 2q0 32 1 46h108q23 0 66 0.5t62 0.5q0 -31 -1 -47z"/>
<glyph glyph-name="V" horiz-adv-x="624" unicode="V" d="M630 603l-56 -3q-16 -43 -52.5 -136.5t-53.5 -137.5q-96 -246 -135 -335q-8 -1 -56 -1q-48 125 -127 347q-31 86 -88 260q-1 2 -6 4l-58 2q0 7 0.5 23t0.5 24h103h150q0 -8 -0.5 -24t-0.5 -23l-98 -3q22 -83 70 -229q87 -265 92 -278h5q37 93 96 258q64 180 82 244 q0 5 -3 5l-88 3q0 33 1 47h130h93q0 -31 -1 -47z"/>
<glyph glyph-name="W" horiz-adv-x="880" unicode="W" d="M885 604l-55 -3q-14 -52 -38.5 -141.5t-35.5 -129.5q-52 -195 -99 -340q-11 -1 -58 -1q-77 232 -149 494h-6q-76 -232 -175 -493q-11 -1 -56 -1q-34 127 -87 356q-10 44 -28.5 129t-27.5 124q0 3 -5 3l-58 3q0 31 1 46h100h147q0 -31 -1 -46l-96 -3q16 -107 41 -225 q30 -155 54 -273h6q23 68 85 256.5t87 262.5q8 1 54 1q22 -75 72.5 -256t76.5 -268h6q26 106 63 259q43 188 52 238q0 5 -4 5l-87 2q0 32 1 46q19 0 63.5 0.5t65.5 0.5q64 0 92 1q0 -32 -1 -47z"/>
<glyph glyph-name="X" horiz-adv-x="589" unicode="X" d="M-11 46l57 3q3 0 7 4q29 39 96 131.5t103 140.5v7q-106 158 -175 266q-3 3 -8 3l-60 3q0 31 1 46h69h36h142q0 -31 -1 -46l-88 -3q79 -137 136 -218h6q20 27 68 105t64 108q3 5 -2 5l-80 3q0 31 1 46h126h93q0 -31 -1 -46l-57 -3q-115 -167 -182 -259v-6q45 -63 195 -287 l63 -3q0 -31 -1 -46q-14 0 -50 0.5t-55 0.5q-25 0 -71 -0.5t-66 -0.5q0 31 1 46l78 3q6 2 3 6q-85 141 -148 228h-6q-60 -84 -154 -234l83 -3q0 -31 -1 -45h-129q-16 0 -48 -0.5t-46 -0.5q0 31 1 46z"/>
<glyph glyph-name="Y" horiz-adv-x="562" unicode="Y" d="M160 47l79 2q5 0 5 6v196q-20 35 -193 347q-1 0 -2.5 1.5t-2.5 1.5l-52 3q0 32 1 46h98q26 0 73.5 0.5t67.5 0.5q0 -32 -1 -47l-90 -3q37 -73 152 -293h5q108 199 148 289q2 4 -3 4l-81 2q0 32 1 47h124q14 0 44 0.5t42 0.5q0 -32 -1 -46l-51 -4q-33 -56 -102.5 -178 t-97.5 -171l-1 -202l92 -3q0 -17 -2 -47q-17 0 -60.5 0.5t-65.5 0.5q-21 0 -64 -0.5t-63 -0.5q0 31 1 47z"/>
<glyph glyph-name="Z" horiz-adv-x="583" unicode="Z" d="M128 57l1 -4h78q184 0 227 9q20 5 27 27l33 102q25 -3 57 -10q-26 -118 -42 -182q-5 0 -54 0.5t-116.5 0.5h-115.5h-176q-9 18 -18 43q60 75 409 550l-2 4q-71 1 -169 1q-73 0 -101 -3q-16 -4 -22 -25l-32 -105q-32 4 -55 9q5 29 15.5 88.5t15.5 88.5q5 0 38.5 -0.5 t53.5 -0.5l336 -1q13 -29 18 -53q-282 -384 -406 -539z"/>
<glyph glyph-name="bracketleft" horiz-adv-x="323" unicode="[" d="M108 -128v829q64 0 186 2q0 -28 -1 -42l-112 -3q-6 0 -6 -8l-3 -733l122 -3q0 -30 -1 -44q-69 0 -185 2z"/>
<glyph glyph-name="backslash" horiz-adv-x="392" unicode="\" d="M329 -52q-62 143 -172 397q-63 149 -147 340q1 1 21.5 10.5t32.5 13.5q25 -59 79.5 -189t64.5 -154q28 -64 84 -195.5t86 -199.5q-27 -15 -49 -23z"/>
<glyph glyph-name="bracketright" horiz-adv-x="323" unicode="]" d="M217 702l-3 -830q-64 0 -184 -2q-1 14 -1 44l121 3v733q0 8 -7 8l-111 3q-1 14 -1 43q32 0 94.5 -1t91.5 -1z"/>
<glyph glyph-name="asciicircum" d="M243 631q14 1 45 1q28 -42 89.5 -133.5t94.5 -139.5q-18 -17 -42 -32q-32 44 -87.5 121t-77.5 107q-75 -107 -161 -228q-25 18 -43 32q21 31 86 128.5t96 143.5z" unicode="^"/>
<glyph glyph-name="underscore" horiz-adv-x="500" unicode="_" d="M0 -73h500v-54h-500v54z"/>
<glyph glyph-name="grave" horiz-adv-x="333" unicode="`" d="M119 640q25 -24 73 -73t60 -61q-9 -11 -29 -31q-15 12 -45 37t-55.5 46t-46.5 38q13 17 43 44z"/>
<glyph glyph-name="a" horiz-adv-x="454" unicode="a" d="M110 97v-1q0 -23 19 -38t48 -15q55 0 111 40q3 2 3 9v85q-10 2 -56 2q-63 0 -94 -23t-31 -59zM293 35h-5q-88 -45 -146 -45q-40 0 -76.5 29t-36.5 69q0 49 50.5 91.5t141.5 42.5h3h68v21q0 69 -19.5 98.5t-63.5 29.5q-58 0 -120 -67q-26 28 -34 38q86 88 178 88 q59 0 96.5 -41t37.5 -121q0 -126 -2 -210q0 -15 9 -15l67 2v-42q-45 -13 -115 -13q-9 8 -33 45z"/>
<glyph glyph-name="b" horiz-adv-x="509" unicode="b" d="M387 210v1q0 70 -25 112q-28 48 -81 48q-65 0 -130 -47q0 -38 -0.5 -118t-0.5 -117q0 -18 31.5 -35t69.5 -17q54 0 90 37q46 48 46 136zM150 382l4 -2q67 33 95.5 41.5t59.5 8.5q67 0 113.5 -57.5t46.5 -128.5q0 -72 -24 -129q-27 -62 -81 -96q-44 -29 -114 -29 q-60 0 -113 30l-23 -33q-21 2 -46 8q6 77 7 117v519l-73 3q0 29 1 42q18 2 53.5 8.5t63 11.5t30.5 5t3 -3q0 -40 -0.5 -92.5t-1.5 -120t-1 -103.5z"/>
<glyph glyph-name="c" horiz-adv-x="403" unicode="c" d="M40 184v1q0 107 68 176t174 69q60 0 92 -21q0 -11 -11.5 -33.5t-20.5 -28.5q-1 0 -9 4t-15.5 7t-18.5 6.5t-23 5.5t-24 2q-54 0 -86 -37q-45 -51 -45 -131t36 -123q31 -37 90 -37q53 0 124 30q5 -17 11 -44q-83 -40 -159 -40q-77 0 -130 51.5t-53 142.5z"/>
<glyph glyph-name="d" horiz-adv-x="521" unicode="d" d="M357 96v1q0 179 -1 255q-47 26 -98 26q-64 0 -99 -48q-36 -48 -36 -130q0 -73 32 -116q30 -41 85 -41t111 39q6 4 6 14zM365 35h-6q-58 -29 -84 -37t-55 -8q-73 0 -122 49q-58 56 -58 152q0 100 67 175q56 64 149 64q46 0 99 -20l4 3q0 38 -0.5 109.5t-1.5 108.5l-83 2 q0 29 1 43q21 3 59 9t66.5 11t32.5 5q3 0 3 -4q0 -87 -1.5 -309t-1.5 -321q0 -21 11 -21l68 3v-42q-14 -5 -51.5 -11t-65.5 -6q-16 13 -30 45z"/>
<glyph glyph-name="e" horiz-adv-x="445" unicode="e" d="M242 383h-1q-46 0 -74 -31q-39 -45 -42 -97q109 0 195 3q13 0 13 11q0 52 -27 84q-25 30 -64 30zM40 191v1q0 100 59 169t154 69q77 0 118 -51q38 -48 38 -131q-4 -10 -15.5 -22.5t-18.5 -13.5q-88 -3 -254 -3v-7q0 -77 33 -116q35 -41 103 -41q53 0 133 32q8 -21 11 -45 q-86 -42 -159 -42q-95 0 -148.5 56t-53.5 145z"/>
<glyph glyph-name="f" horiz-adv-x="334" unicode="f" d="M177 47l98 -2q0 -30 -1 -44h-135q-15 0 -49.5 -0.5t-50.5 -0.5q0 7 0.5 21.5t0.5 22.5l58 3q3 0 3 4v212v103h-75q0 34 1 49q46 2 69 2q5 0 5 7q0 78 11.5 116t41.5 72q66 71 152 71q35 0 65 -12q0 -13 -11 -35t-21 -30q-40 15 -68 15q-42 0 -62 -29q-18 -23 -24 -53 t-6 -102v-20q98 0 144 1q0 -21 -2 -53h-143q0 -216 -1 -318z"/>
<glyph glyph-name="g" horiz-adv-x="466" unicode="g" d="M386 -100v1q0 33 -22.5 44.5t-89.5 16.5q-27 2 -104 6q-56 -49 -67 -66q-11 -16 -11 -32q0 -35 38 -53t86 -18q71 0 115 24q55 28 55 77zM124 266v-1q0 -60 27 -88t69 -28q44 0 72 32.5t28 91.5q0 54 -23 83q-24 31 -70 31q-47 0 -75 -31.5t-28 -89.5zM138 115v5 q-93 44 -93 142q0 69 52.5 118.5t139.5 49.5q42 0 69 -9q11 -3 21 -1q81 2 131 5q0 -4 0.5 -12t0.5 -13t-0.5 -13.5t-0.5 -12.5h-95v-4q35 -33 35 -94q0 -68 -45 -114q-53 -55 -147 -55h-18q-49 -39 -49 -52q0 -18 25.5 -24t105.5 -9q113 -5 145 -26q25 -16 35.5 -33 t10.5 -46q0 -42 -26.5 -77.5t-76.5 -56.5q-65 -28 -153 -28q-91 0 -141 29.5t-50 85.5q0 27 22 45q19 15 45 34t38 29v5q-59 18 -59 69q0 6 11 15t67 48z"/>
<glyph glyph-name="h" horiz-adv-x="545" unicode="h" d="M164 371l4 -1q74 40 103 50t61 10q69 0 111 -71q14 -25 14 -75q0 -81 -2 -237l66 -2q0 -30 -1 -44h-102q-17 0 -51.5 -0.5t-49.5 -0.5v14v30l59 3q4 0 4 4v182q0 81 -15 105q-19 32 -63 32q-59 0 -137 -55q-2 -158 -2 -268l77 -2q0 -7 -0.5 -22t-0.5 -22h-115 q-14 0 -48 -0.5t-49 -0.5q0 30 1 44l57 3q3 0 3 4q1 175 1 583l-76 1v13q0 20 1 28q16 2 52.5 8.5t65.5 11.5t32 5t3 -4q0 -42 -0.5 -96t-1.5 -123.5t-1 -106.5z"/>
<glyph glyph-name="i" horiz-adv-x="266" unicode="i" d="M102 361l-77 2v42q18 2 55 8.5t65.5 11.5t31.5 5q2 0 2 -3q0 -55 -1 -191t-1 -189l70 -3q0 -29 -1 -43h-111q-17 0 -52.5 -0.5t-51.5 -0.5v44l67 3q4 0 4 4v310zM135 632h1q25 0 37.5 -16t12.5 -36q0 -23 -15 -38.5t-38 -15.5t-38.5 15.5t-15.5 37.5t15 37.5t41 15.5z "/>
<glyph glyph-name="j" horiz-adv-x="244" unicode="j" d="M95 359l-81 1q0 30 1 44q16 2 54.5 9t68.5 12t33 5q2 0 2 -3q0 -50 -0.5 -171t-0.5 -172q0 -67 -8.5 -109.5t-31.5 -86.5q-39 -83 -105 -120q-13 1 -33.5 16.5t-23.5 28.5q71 33 95 76q32 57 32 175zM121 632h1q26 0 38.5 -17t12.5 -37q0 -22 -14.5 -37.5t-37.5 -15.5 t-38.5 15.5t-15.5 37.5q0 20 14.5 37t39.5 17z"/>
<glyph glyph-name="k" horiz-adv-x="499" unicode="k" d="M88 633l-76 1q0 29 1 42q16 2 53 8.5t66 11.5t32 5t3 -4q0 -35 -3 -443q46 0 63 3q60 56 107 110q1 4 -2 5l-47 2q0 32 1 45h100q14 0 41.5 0.5t39.5 0.5q0 -3 0.5 -10.5t0.5 -11.5t-0.5 -11.5t-0.5 -11.5l-47 -3q-85 -82 -135 -127v-5q39 -32 84 -104q39 -64 53 -79 q9 -9 18 -9l60 -2q0 -30 -1 -44q-74 -2 -133 -2q-23 31 -67 110q-48 83 -83 100q-28 0 -52 -2q0 -24 -0.5 -81t-0.5 -80l63 -2q0 -30 -1 -44h-102q-17 0 -51.5 -0.5t-49.5 -0.5q0 30 1 44l62 3q2 0 2 4q1 175 1 582z"/>
<glyph glyph-name="l" horiz-adv-x="256" unicode="l" d="M90 633l-80 2q0 7 0.5 21.5t0.5 21.5q19 2 56 7.5t66.5 10.5t32.5 5t3 -4q0 -76 -1.5 -308.5t-2.5 -341.5l78 -2q0 -30 -1 -44h-116q-18 0 -55 -0.5t-53 -0.5q0 30 1 44l67 3q3 0 3 4q1 124 1 417v165z"/>
<glyph glyph-name="m" horiz-adv-x="812" unicode="m" d="M101 360l-76 3q0 29 1 41q17 3 50.5 9t59 11t28.5 5t3 -3q1 -7 4 -25.5t4 -27.5l4 -1q66 39 93.5 48.5t56.5 9.5q64 0 107 -66h3q67 42 97 53t63 11q64 0 105 -64q22 -36 22 -76q0 -37 -1.5 -119.5t-1.5 -121.5l64 -3q0 -7 -0.5 -21.5t-0.5 -21.5h-104q-17 0 -49 -0.5 t-45 -0.5q0 30 1 43l56 4q3 0 3 4q1 67 1 198q0 59 -11 82q-19 40 -68 40t-119 -52v-49q0 -35 -0.5 -112t-0.5 -111l68 -3q0 -29 -1 -43h-111q-16 0 -47.5 -0.5t-43.5 -0.5q0 29 1 44l56 3q4 0 4 4v205q0 61 -12 83q-19 34 -63 34q-25 0 -59 -15.5t-63 -38.5 q-3 -127 -3 -272l71 -3q0 -30 -1 -43h-110q-16 0 -50 -0.5t-48 -0.5q0 30 1 44l59 3q3 0 3 4v309z"/>
<glyph glyph-name="n" horiz-adv-x="558" unicode="n" d="M101 360l-77 2q0 6 0.5 20t0.5 21q16 3 50.5 9.5t59.5 11.5t28 5q2 0 2 -2q4 -29 11 -60l5 -1q69 43 98.5 53.5t65.5 10.5q67 0 106 -67q20 -33 20 -74q0 -17 -3 -242l64 -3q0 -29 -1 -43h-105q-16 0 -49 -0.5t-47 -0.5q0 29 1 43l58 3q3 2 3 4q1 54 1 181q0 79 -13 101 q-21 38 -68 38q-58 0 -133 -58q-2 -152 -2 -265l72 -3q0 -7 -0.5 -22t-0.5 -21h-113q-16 0 -49 -0.5t-48 -0.5q0 30 1 44l59 3q4 0 4 4z"/>
<glyph glyph-name="o" horiz-adv-x="505" unicode="o" d="M251 34h1q51 0 83 33q45 49 45 149q0 87 -40 133q-34 37 -85 37t-84 -34q-46 -47 -46 -143q0 -95 47 -142q30 -33 79 -33zM245 -10h-1q-85 0 -137 47q-66 61 -66 165q0 115 84 183q55 45 137 45q75 0 124 -37q78 -59 78 -173q0 -120 -86 -188q-53 -42 -133 -42z"/>
<glyph glyph-name="p" horiz-adv-x="522" unicode="p" d="M399 214v1q0 61 -21 103q-29 52 -87 52q-62 0 -127 -47q0 -39 -0.5 -119t-0.5 -115q0 -17 32.5 -34t68.5 -17q53 0 87 35q48 48 48 141zM159 376l5 -1q73 37 98.5 46t57.5 9q71 0 116 -59t45 -130q0 -70 -24 -125q-29 -63 -79 -97q-43 -29 -111 -29q-56 0 -102 23l-4 -2 v-62v-129l93 -2q0 -29 -1 -43q-86 0 -130 -1q-70 0 -100 -1q0 29 1 43l58 3q4 2 4 6v535l-76 1q0 28 1 41q16 3 49.5 10t59.5 12.5t28 5.5q3 0 3 -3q5 -26 8 -51z"/>
<glyph glyph-name="q" horiz-adv-x="507" unicode="q" d="M259 378h-1q-64 0 -98 -48q-36 -46 -36 -129q0 -75 34 -117q33 -40 86 -40q46 0 108 41q5 3 5 15v172v79q-45 27 -98 27zM359 34h-7q-53 -28 -76.5 -35.5t-50.5 -7.5q-76 0 -125 49q-59 57 -59 153q0 98 65 171q56 65 154 65q47 0 109 -22l27 28q25 -2 43 -7 q-4 -48 -4 -92q0 -60 -1 -220t-1 -231v-64l63 -1q0 -30 -1 -44q-15 0 -49 -0.5t-53 -0.5l-126 -3q0 29 1 43l86 6q4 0 4 6z"/>
<glyph glyph-name="r" horiz-adv-x="375" unicode="r" d="M101 361l-73 1q0 29 1 42q15 3 50.5 9.5t60.5 11t28 4.5q1 0 1 -3q2 -26 4 -133l5 -1q41 80 71 109t64 29q33 0 59 -11q0 -16 -9.5 -41.5t-18.5 -32.5q-36 8 -51 8t-34 -15q-31 -25 -65 -93q-17 -33 -17 -91q-1 -35 -1 -108l94 -2q0 -29 -1 -43h-127q-18 0 -53 -0.5 t-51 -0.5q0 30 1 43l58 3q4 0 4 3v312z"/>
<glyph glyph-name="s" horiz-adv-x="401" unicode="s" d="M88 134l13 -65q3 -8 9 -12q27 -21 69 -21q51 0 75 16q28 21 28 56q0 33 -18.5 46t-79.5 32q-10 3 -15 5q-61 18 -87 44t-26 68q0 66 63 101q46 26 119 26q68 0 98 -18q8 -69 11 -110q-4 0 -22.5 -3t-28.5 -4l-14 63q-1 7 -7 11q-20 15 -59 15q-38 0 -62 -19 q-25 -18 -25 -52q0 -29 18 -41t81 -31q65 -19 96.5 -43.5t31.5 -76.5q0 -68 -64 -106q-40 -25 -121 -25q-74 0 -120 19q-2 19 -7 57.5t-8 58.5q24 6 52 9z"/>
<glyph glyph-name="t" horiz-adv-x="358" unicode="t" d="M202 -9h-1q-47 0 -77 26q-18 16 -22.5 33t-4.5 45q0 29 0.5 87.5t0.5 67.5q0 16 0.5 59.5t0.5 55.5h-69q0 19 2 49q22 0 64 2q6 0 6 7q1 15 2 47.5t1 45.5q12 8 29 16t28.5 13t13.5 5q3 0 3 -3q-2 -68 -2 -130q106 0 157 1q0 -4 -3 -52h-156v-112q-1 -41 -1 -148 q0 -30 18.5 -45.5t46.5 -15.5q38 0 96 15q3 -12 7 -44q-69 -25 -140 -25z"/>
<glyph glyph-name="u" horiz-adv-x="528" unicode="u" d="M366 43l-5 1q-61 -36 -88 -45t-61 -9q-50 0 -89.5 42.5t-39.5 94.5q0 45 0.5 126.5t0.5 115.5l-61 1q0 16 2 46q12 0 45.5 1t59 2t30.5 1q3 0 3 -3q-3 -114 -3 -239v-13q0 -58 15 -83q23 -36 69 -36q50 0 118 50v91v182l-64 2q0 32 1 47q21 0 78 1t61 1q2 0 2 -3 q0 -56 -1 -177t-1 -180q0 -14 7 -14l67 1q0 -29 -1 -42q-45 -15 -113 -15q-16 16 -32 53z"/>
<glyph glyph-name="v" horiz-adv-x="473" unicode="v" d="M475 376l-47 -3q-6 -13 -18 -40t-31.5 -71t-36.5 -81q-43 -98 -89 -190q-14 -1 -57 -1q-61 157 -82 219q-14 41 -56 161q-2 3 -4 3l-52 3q0 30 1 44h95h113q0 -30 -1 -44l-67 -3q11 -43 42 -141q44 -137 51 -156h6q40 92 58 141q44 111 56 152q1 4 -2 4l-58 2q0 31 1 44 h102q14 0 40 0.5t37 0.5q0 -29 -1 -44z"/>
<glyph glyph-name="w" horiz-adv-x="680" unicode="w" d="M681 377l-45 -3q-43 -134 -62 -189q-35 -104 -70 -195q-15 -1 -58 -1q-55 154 -98 304l-5 -1q-51 -134 -127 -302q-14 -1 -54 -1q-38 123 -62 216q-7 26 -43 165q0 3 -4 3l-47 3q0 30 1 44h86h115q0 -30 -1 -44l-70 -2q3 -19 29 -143q17 -82 35 -153h5q113 293 122 315 q10 1 58 1q7 -23 28 -93t40 -131.5t29 -93.5h6q10 35 42 145q22 76 38 148q1 4 -3 4l-57 2q0 32 1 45h101h71q0 -29 -1 -43z"/>
<glyph glyph-name="x" horiz-adv-x="474" unicode="x" d="M1 43l41 3q5 0 10 5q21 23 71.5 80t71.5 80v7q-15 20 -57 73.5t-62 78.5q-3 3 -6 3l-48 3q0 30 1 43h94h107q0 -29 -1 -43l-58 -3q8 -11 21.5 -30t32 -45.5t30.5 -42.5h6q69 89 85 114q4 4 -1 4l-50 2q0 7 0.5 22t0.5 22h96q14 0 40 0.5t36 0.5q0 -17 -2 -43l-46 -4 q-10 -12 -54 -63t-77 -88v-5q27 -34 75 -96.5t57 -74.5l53 -2q0 -30 -1 -44q-13 0 -43.5 0.5t-47.5 0.5q-19 0 -56.5 -0.5t-54.5 -0.5q0 30 1 44l52 2q8 0 4 6q-25 38 -92 124h-5q-45 -51 -104 -130l55 -2q0 -29 -1 -43h-98q-13 0 -39 -0.5t-38 -0.5q0 29 1 43z"/>
<glyph glyph-name="y" horiz-adv-x="462" unicode="y" d="M466 376l-44 -3q-5 -14 -82 -201q-93 -221 -158 -319q-52 -78 -86 -98q-13 0 -37.5 17t-24.5 27q54 37 89 80q49 57 76 119q-43 103 -86 217q-10 27 -29.5 80t-28.5 75q-1 3 -5 3l-49 3q0 31 1 44h86h121q0 -30 -1 -44l-70 -3q15 -51 45 -138q30 -86 57 -159h5 q30 72 55 140q19 52 51 152q2 5 -3 5l-61 2q0 31 1 44h101q14 0 40.5 0.5t37.5 0.5q0 -29 -1 -44z"/>
<glyph glyph-name="z" horiz-adv-x="441" unicode="z" d="M121 51l1 -5q139 0 184 4q24 2 31 20l28 79q26 -4 51 -11q-22 -92 -34 -139q-4 0 -23 0.5t-49 0.5h-62h-117h-89q-6 16 -14 40q199 232 279 329l-1 5q-89 0 -159 -2q-23 0 -28 -15l-26 -79q-23 3 -52 10q5 20 14.5 64.5t14.5 67.5q3 0 34.5 -0.5t58.5 -0.5h221 q7 -18 15 -49q-46 -57 -278 -319z"/>
<glyph glyph-name="braceleft" horiz-adv-x="334" unicode="{" d="M135 297v-6q31 -9 47.5 -33t15.5 -54q0 -37 -10 -94t-10 -90q0 -52 32 -83.5t92 -31.5h3q1 -13 1 -43q-89 0 -142.5 44.5t-53.5 115.5q0 38 12.5 96t12.5 82q0 31 -16 49.5t-61 18.5h-9q-1 14 -1 44q51 0 69 15.5t18 44.5q0 23 -11.5 77t-11.5 91q0 78 50 122.5t146 45.5 q0 -3 0.5 -10t0.5 -11q0 -3 -0.5 -10t-0.5 -11q-128 0 -128 -118q0 -33 9.5 -86.5t9.5 -82.5q0 -64 -64 -82z"/>
<glyph glyph-name="bar" d="M236 750h53v-1000h-53v1000z" unicode="|"/>
<glyph glyph-name="braceright" horiz-adv-x="334" unicode="}" d="M197 289v6q-63 19 -63 83q0 29 11 83t11 87q0 58 -30 87.5t-97 29.5q-1 10 -1 31v12q97 0 146.5 -44t49.5 -124q0 -37 -13.5 -91.5t-13.5 -76.5q0 -29 18.5 -44.5t69.5 -15.5q0 -30 -1 -44h-9q-79 0 -79 -68q0 -25 13 -82.5t14 -94.5q0 -70 -54 -115t-142 -45v13 q0 20 1 30q62 0 95 31t33 84q0 34 -11 90.5t-11 91.5q0 29 17 53t46 33z"/>
<glyph glyph-name="asciitilde" d="M178 302h1q43 0 98 -37q3 -2 14 -9t16 -9.5t14.5 -7t17.5 -6.5t17 -2q22 0 37 21t17 52q4 0 12.5 0.5t12.5 0.5t12.5 -0.5t12.5 -0.5q-2 -52 -31 -93.5t-74 -41.5q-35 0 -96 38q-3 2 -17 10.5t-21 12t-19 7.5t-24 4q-25 0 -41 -19.5t-22 -51.5q-15 0 -49 2q5 54 36.5 92 t75.5 38z" unicode="~"/>
<glyph glyph-name="uni00A0" horiz-adv-x="220" unicode=" "/>
<glyph glyph-name="exclamdown" horiz-adv-x="273" unicode="¡" d="M135 327h-1q-24 0 -37.5 16.5t-13.5 36.5q0 19 15.5 34.5t36.5 15.5q23 0 38.5 -14.5t15.5 -35.5q0 -20 -15 -36.5t-39 -16.5zM90 -234h-1v2q19 442 21 484q8 2 28 4t24 3q0 -13 11 -228q4 -128 13 -247q-15 -5 -50.5 -11.5t-45.5 -6.5z"/>
<glyph glyph-name="cent" d="M143 315v-1q0 -76 38 -117q33 -33 87 -38q0 52 1 162t2 162q-58 -9 -93 -59.5t-35 -108.5zM69 297v1q0 89 55.5 154.5t148.5 79.5q0 69 1 102q21 5 51 7q-1 -16 -1.5 -51.5t-0.5 -52.5q5 1 19 1q60 0 112 -25q0 -13 -10.5 -33t-21.5 -26q-58 31 -101 31q-1 -53 -2 -163.5 t-2 -163.5q60 3 133 34q4 -10 13 -42q-79 -36 -146 -42q0 -20 -0.5 -55.5t-0.5 -50.5q-14 -2 -48 -4q0 69 1 108q-86 3 -143 52t-57 139z" unicode="¢"/>
<glyph glyph-name="sterling" d="M344 654h1q52 0 91 -15q7 -64 12 -142l-54 -6l-16 94q-4 11 -10 13q-20 7 -50 7q-48 0 -79 -31q-33 -34 -33 -104q0 -7 13 -140q47 0 181 2q0 -27 -3 -51h-172q2 -24 2 -34q0 -108 -62 -189q-7 -10 8 -10q196 0 220 7q12 1 19 21l33 98q16 -3 51 -12q-14 -67 -38 -163 q-13 0 -129.5 0.5t-194.5 0.5q-20 0 -59.5 -0.5t-60.5 -0.5q0 33 1 48l69 3q10 0 16 6q52 53 52 166q0 32 -4 59h-100q0 17 2 47q29 1 87 1q5 0 4 6q-13 102 -13 124q0 91 61 144q60 51 155 51z" unicode="£"/>
<glyph glyph-name="currency" d="M265 449h-1q-50 0 -79 -29q-45 -45 -45 -108q0 -69 41 -108q30 -27 80 -27t80 26q45 37 45 114q0 69 -42 106q-30 26 -79 26zM270 497h1q58 0 99 -27q13 16 36 42.5t32 37.5q21 -17 41 -40q-9 -10 -20 -22t-25.5 -28.5t-23.5 -26.5q37 -47 37 -112q0 -83 -48 -129 q54 -62 78 -89q-22 -20 -40 -33q-29 34 -76 88q-42 -29 -103 -29q-56 0 -94 23q-52 -58 -75 -83q-19 14 -39 33q20 24 73 83q-44 47 -44 120q0 71 45 123q-27 31 -73 81q19 20 41 39q14 -16 73 -83q45 32 105 32z" unicode="¤"/>
<glyph glyph-name="yen" d="M233 54v90q-22 0 -76 -0.5t-78 -0.5v13q0 21 1 30h153v61h-155q0 29 1 42q45 1 139 1q-34 62 -158 293q-3 5 -7 5l-41 2q0 31 1 46q9 0 37.5 -1t44.5 -1q26 0 71.5 1t63.5 1q0 -31 -1 -46l-87 -3q46 -93 136 -279h5q80 164 131 274q2 5 -4 5l-80 3q0 29 1 44h117 q13 0 39.5 1t35.5 1q0 -31 -1 -45l-42 -4q-107 -201 -159 -296q93 0 136 1q0 -31 -1 -45h-154l-1 -61q27 0 78 0.5t75 0.5q0 -28 -1 -42q-20 0 -73.5 -0.5t-78.5 -0.5l-1 -95l96 -3q0 -31 -1 -46q-17 0 -61 0.5t-66 0.5q-20 0 -62.5 -0.5t-62.5 -0.5v13q0 22 1 33l83 2 q6 0 6 6z" unicode="¥"/>
<glyph glyph-name="brokenbar" d="M236 175h53v-350h-53v350zM236 675h53v-350h-53v350z" unicode="¦"/>
<glyph glyph-name="section" horiz-adv-x="452" unicode="§" d="M119 318v-1q0 -45 24 -76t79 -67q71 -48 93 -72q22 30 22 78q0 47 -23 76.5t-80 69.5q-73 54 -89 69q-26 -29 -26 -77zM395 201v-1q0 -77 -48 -130q19 -31 19 -73q0 -74 -52 -123q-51 -49 -127 -49q-100 0 -166 61q6 15 19.5 28.5t27.5 16.5q23 -24 57 -40.5t69 -16.5 q50 0 79 32q26 27 26 73q0 41 -24 70t-87 67q-65 40 -96.5 82t-31.5 98q0 72 54 130q-28 35 -28 84q0 65 58 112q46 37 119 37q89 0 142 -50q-4 -13 -17.5 -27t-27.5 -18q-16 17 -48 31.5t-60 14.5q-45 0 -69 -21q-31 -28 -31 -70q0 -38 26 -65t98 -75q62 -39 90.5 -80.5 t28.5 -97.5z"/>
<glyph glyph-name="dieresis" horiz-adv-x="333" unicode="¨" d="M246 581h1q19 0 30 -13.5t11 -29.5q0 -19 -12 -31t-31 -12q-20 0 -31.5 13t-11.5 29q0 17 10.5 30.5t33.5 13.5zM88 581h1q22 0 32 -13.5t10 -30.5q0 -16 -11.5 -29t-30.5 -13t-31.5 12t-12.5 31q0 16 11.5 29.5t31.5 13.5z"/>
<glyph glyph-name="copyright" horiz-adv-x="761" unicode="©" d="M461 385l-9 64q0 4 -4 8q-17 10 -44 10q-45 0 -78 -29q-48 -46 -48 -124q0 -62 33 -97q32 -33 90 -33q49 0 97 24q6 -21 9 -39q-62 -29 -118 -29q-69 0 -115 34q-61 46 -61 132q0 98 73 158q53 45 133 45q53 0 77 -12q4 -60 6 -107q-22 -4 -41 -5zM381 622h-1 q-120 0 -199.5 -87.5t-79.5 -210.5q0 -124 79.5 -210t200.5 -86q120 0 199.5 87.5t79.5 210.5q0 124 -79 210t-200 86zM384 660h1q139 0 231.5 -96t92.5 -236t-96 -239t-235 -99t-232.5 96t-93.5 236t96.5 239t235.5 99z"/>
<glyph glyph-name="ordfeminine" horiz-adv-x="361" unicode="ª" d="M96 401v-1q0 -17 14.5 -26.5t36.5 -9.5q35 0 75 28q3 2 3 5v62q-1 0 -5.5 0.5t-12.5 0.5h-17q-46 0 -70 -16t-24 -43zM227 353h-3q-62 -33 -109 -33q-28 0 -56 21.5t-28 51.5q0 38 38 70.5t104 32.5h53v10q0 49 -14.5 70.5t-45.5 21.5q-44 0 -88 -46q-18 16 -29 30 q64 64 135 64q44 0 74 -30.5t30 -88.5q0 -18 -0.5 -77.5t-0.5 -74.5q0 -11 5 -11l52 2v-24v-11q-44 -11 -95 -11q-12 12 -22 33z"/>
<glyph glyph-name="guillemotleft" horiz-adv-x="411" unicode="«" d="M274 223q48 -74 97 -138q-12 -13 -29 -27q-70 76 -137 146q0 3 -0.5 8.5t-0.5 8.5t0.5 8.5t0.5 7.5q26 28 76 82.5t59 64.5q15 -12 30 -27q-89 -124 -96 -134zM118 223q39 -63 98 -144q-16 -16 -31 -27q-72 78 -141 150q-1 12 -1 37q60 62 141 151q11 -8 31 -28 q-66 -92 -97 -139z"/>
<glyph glyph-name="logicalnot" d="M403 33v189h-344q0 20 2 54q63 0 197 1t197 2q4 0 4 -4q0 -37 -1 -122.5t-1 -116.5q-25 -3 -54 -3z" unicode="¬"/>
<glyph glyph-name="uni00AD" horiz-adv-x="315" unicode="­" d="M132 213h-1h-99q0 36 1 52q35 1 102 1q26 0 74.5 0.5t73.5 1.5q0 -21 -2 -55h-149z"/>
<glyph glyph-name="registered" horiz-adv-x="475" unicode="®" d="M215 547v-69h12q23 0 34.5 10.5t11.5 26.5q0 32 -44 32h-14zM172 400v147h-22q0 18 1 26q23 1 67 1q40 0 59 -5t30 -18t11 -27q0 -39 -42 -56v-4q15 -7 37 -51q7 -13 15 -13h14v-26h-55q-6 8 -18.5 35t-16.5 33q-7 10 -24 10h-13v-52h24v-26h-88v26h21zM237 630h-1 q-64 0 -106 -46t-42 -113q0 -66 42 -111t107 -45q64 0 107 46t43 112q0 67 -42.5 112t-107.5 45zM238 660h2q78 0 130 -53.5t52 -133.5q0 -77 -54.5 -132.5t-131.5 -55.5q-79 0 -131 53.5t-52 132.5q0 78 53.5 133.5t131.5 55.5z"/>
<glyph glyph-name="macron" horiz-adv-x="333" unicode="¯" d="M267 555v-16v-32q-29 0 -98.5 0.5t-102.5 0.5q0 3 -0.5 10.5t-0.5 11.5t0.5 11.5t0.5 11.5q134 2 201 2z"/>
<glyph glyph-name="degree" horiz-adv-x="314" unicode="°" d="M159 614h-1q-25 0 -40 -19.5t-15 -45.5q0 -27 16 -44.5t40 -17.5q26 0 40 18t14 45q0 28 -14 46t-40 18zM159 655h1q50 0 79.5 -28.5t29.5 -74.5q0 -45 -32.5 -76t-78.5 -31q-47 0 -79 28t-32 75q0 42 32.5 74.5t79.5 32.5z"/>
<glyph glyph-name="plusminus" d="M461 1l-398 -1q0 22 2 54q62 0 199 1t199 1q0 -21 -2 -55zM235 315v153q54 3 56 3q0 -19 -0.5 -71.5t-0.5 -83.5q119 0 173 1v-15q0 -16 -2 -42h-171q-1 -53 -1 -146q-32 -2 -54 -2v148h-171q0 20 2 54q110 0 169 1z" unicode="±"/>
<glyph glyph-name="twosuperior" horiz-adv-x="337" unicode="²" d="M279 662v-1q0 -66 -98 -145q-21 -16 -51 -38l1 -5q19 0 79.5 2t71.5 2q3 0 3 -2q-1 -7 -2 -22t-1 -22h-151h-79q-10 24 -12 32q60 41 93 70q26 23 38.5 35.5t28 38.5t15.5 51q0 26 -17 45q-14 15 -45 15q-30 0 -46 -13q-3 -3 -3 -6l-9 -53l-42 3q3 52 6 89q44 19 101 19 q60 0 88 -25q31 -29 31 -70z"/>
<glyph glyph-name="threesuperior" horiz-adv-x="337" unicode="³" d="M88 523l12 -49q2 -4 4 -5q13 -9 42 -9q35 0 55 14q22 17 22 44q0 28 -23 43.5t-61 15.5h-38q-1 13 -1 38h5q110 0 110 58q0 22 -14 33q-13 13 -47 13q-28 0 -45 -11q-3 -3 -3 -6l-8 -47q-14 0 -42 2q2 26 4 81q41 18 104 18q59 0 87 -21q28 -22 28 -52q0 -58 -72 -79v-4 q40 -5 60.5 -27.5t20.5 -49.5q0 -48 -42 -75q-35 -25 -106 -25q-55 0 -84 7q-7 50 -11 86q15 3 43 7z"/>
<glyph glyph-name="acute" horiz-adv-x="333" unicode="´" d="M222 640q16 -13 43 -44q-28 -22 -82.5 -66.5t-66.5 -54.5q-3 3 -8.5 9.5t-10.5 11.5t-9 10q22 21 67.5 67.5t66.5 66.5z"/>
<glyph glyph-name="mu" horiz-adv-x="530" unicode="µ" d="M151 24l-4 -1q0 -119 3 -242q-13 -11 -37 -17t-37 -6q4 129 4 367q0 114 2 274q36 21 75 21q2 0 2 -3q-2 -154 -2 -238q0 -66 16 -93q24 -40 75 -40q32 0 72.5 26t40.5 46v280q33 22 76 22q2 0 2 -3q0 -146 -2 -304q0 -70 31 -70q16 0 48 10q4 -18 8 -41 q-42 -22 -111 -22q-25 17 -45 61l-5 1q-79 -62 -135 -62q-42 0 -77 34z"/>
<glyph glyph-name="mu" horiz-adv-x="530" unicode="μ" d="M151 24l-4 -1q0 -119 3 -242q-13 -11 -37 -17t-37 -6q4 129 4 367q0 114 2 274q36 21 75 21q2 0 2 -3q-2 -154 -2 -238q0 -66 16 -93q24 -40 75 -40q32 0 72.5 26t40.5 46v280q33 22 76 22q2 0 2 -3q0 -146 -2 -304q0 -70 31 -70q16 0 48 10q4 -18 8 -41 q-42 -22 -111 -22q-25 17 -45 61l-5 1q-79 -62 -135 -62q-42 0 -77 34z"/>
<glyph glyph-name="paragraph" horiz-adv-x="536" unicode="¶" d="M448 602l-3 -721q-23 -6 -52 -9l-1 731h-68l-2 -724q-17 -5 -53 -11v360h-14q-51 0 -89 15q-57 22 -93 69.5t-36 116.5q0 66 36 117.5t86 74.5q63 29 181 29q24 0 168 -3q0 -7 0.5 -22.5t0.5 -23.5z"/>
<glyph glyph-name="periodcentered" horiz-adv-x="245" unicode="·" d="M124 316h1q27 0 40 -17.5t13 -38.5q0 -22 -15 -38.5t-39 -16.5q-25 0 -40.5 15.5t-15.5 38.5q0 22 15 39.5t41 17.5z"/>
<glyph glyph-name="cedilla" horiz-adv-x="333" unicode="¸" d="M151 -71l74 72h50l-61 -63q27 -5 42 -22t15 -41q0 -37 -34.5 -60t-90.5 -24q-2 8 -4 34q72 5 72 44q0 17 -13 28q-12 11 -41 11q-2 4 -5 11.5t-4 9.5z"/>
<glyph glyph-name="onesuperior" horiz-adv-x="337" unicode="¹" d="M210 469l77 -1q0 -25 -1 -37h-106h-116q0 24 1 36l83 2q2 0 2 2v219q-44 -9 -85 -20q-1 6 -3.5 19t-3.5 19q28 9 65.5 22.5t59.5 21.5t27 8q1 0 1 -3q0 -46 -0.5 -143.5t-0.5 -144.5z"/>
<glyph glyph-name="ordmasculine" horiz-adv-x="385" unicode="º" d="M191 358h1q35 0 58 22q31 31 31 106q0 66 -28 97q-22 26 -59 26q-35 0 -57 -25q-33 -35 -33 -99q0 -70 30 -102q22 -25 57 -25zM187 321h-1q-67 0 -101 37q-48 46 -48 118q0 84 59 135q42 35 102 35q59 0 93 -27q57 -43 57 -127q0 -92 -65 -142q-38 -29 -96 -29z"/>
<glyph glyph-name="guillemotright" horiz-adv-x="411" unicode="»" d="M293 221q-52 78 -97 141q13 15 31 29q22 -25 141 -151q0 -25 -1 -37q-21 -23 -68 -73t-72 -77q-30 27 -31 28q48 65 97 140zM137 221q-42 62 -96 136q10 11 29 28q15 -16 62.5 -67.5t74.5 -79.5q0 -11 -2 -33q-88 -96 -135 -146q-17 14 -30 28q39 50 97 134z"/>
<glyph glyph-name="onequarter" horiz-adv-x="733" unicode="¼" d="M569 267h-6q-9 -13 -27 -36.5t-29 -38.5t-28.5 -38t-21.5 -28q-2 -6 3 -6h109v147zM620 34l42 -1v-11v-22h-76h-83v33l63 1q3 0 3 2v43h-152q-14 26 -19 38q6 7 75 98q53 68 86 109q43 0 63 -1q0 -33 -0.5 -101.5t-0.5 -101.5h59q0 -26 -1 -40h-59v-46zM224 -15 q-21 7 -42 18q65 112 166 297q12 23 83.5 154t110.5 205q33 -11 45 -17q-174 -318 -199 -363q-69 -128 -164 -294zM226 365l77 -1v-37h-107h-116q0 24 1 36l83 2q2 0 2 2v219q-44 -9 -85 -20q-1 6 -3.5 19t-3.5 19q28 9 65.5 22.5t59.5 21.5t27 8q1 0 1 -3 q0 -46 -0.5 -143.5t-0.5 -144.5z"/>
<glyph glyph-name="onehalf" horiz-adv-x="733" unicode="½" d="M669 231v-1q0 -66 -98 -145q-8 -6 -51 -38l1 -5q19 0 79.5 2t71.5 2q3 0 3 -2q-1 -7 -2 -22t-1 -22h-151h-79q-10 24 -12 32q60 41 93 70q26 23 38.5 35.5t28 38.5t15.5 51q0 26 -17 45q-14 15 -45 15q-30 0 -46 -13q-3 -3 -3 -6l-9 -53l-42 3q3 52 6 89q44 19 101 19 q60 0 88 -25q31 -29 31 -70zM209 -15q-21 7 -42 18q68 119 166 298q70 129 193 358q36 -12 46 -17q-39 -70 -107 -195t-92 -168q-26 -48 -85.5 -154t-78.5 -140zM215 365l77 -1q0 -25 -1 -37h-106h-116q0 24 1 36l83 2q2 0 2 2v219q-44 -9 -85 -20q-1 6 -3.5 19t-3.5 19 q28 9 65.5 22.5t59.5 21.5t27 8q1 0 1 -3q0 -46 -0.5 -143.5t-0.5 -144.5z"/>
<glyph glyph-name="threequarters" horiz-adv-x="733" unicode="¾" d="M563 267h-6q-9 -13 -27 -36.5t-29 -38.5q-33 -43 -49 -66q-4 -6 2 -6h109v147zM614 34l42 -1v-11v-22h-76h-83v33l63 1q3 0 3 2v43h-152q-3 6 -6.5 12.5t-7 14t-5.5 11.5q6 7 75 98q53 68 86 109q43 0 63 -1q0 -33 -0.5 -101.5t-0.5 -101.5h59q0 -26 -1 -40h-59v-46z M220 -15q-22 8 -41 18q71 125 165 297q81 151 193 359q36 -12 46 -17q-70 -125 -199 -364q-75 -138 -164 -293zM112 419l12 -49q2 -4 4 -5q14 -9 42 -9q35 0 55 14q22 17 22 44q0 28 -23 43.5t-61 15.5h-38q-1 13 -1 38h5q110 0 110 58q0 22 -14 33q-13 13 -47 13 q-28 0 -45 -11q-3 -3 -3 -6l-8 -47q-14 0 -42 2q2 26 4 81q41 18 104 18q61 0 87 -21q28 -21 28 -52q0 -58 -72 -79v-4q40 -5 60.5 -27.5t20.5 -49.5q0 -48 -42 -75q-35 -25 -106 -25q-55 0 -84 7q-6 40 -12 87q22 4 44 6z"/>
<glyph glyph-name="questiondown" horiz-adv-x="426" unicode="¿" d="M40 -82v1q0 59 38 108.5t116 103.5q28 22 28 36q0 22 -20 80q22 11 51 17q14 -19 30.5 -59.5t16.5 -65.5q-96 -65 -134.5 -109.5t-38.5 -105.5q0 -49 28.5 -78.5t78.5 -29.5q44 0 73 21q5 5 6 12l18 86q23 -1 56 -7q-1 -13 -12 -132q-66 -32 -155 -32q-88 0 -134 46 t-46 108zM230 328h-1q-24 0 -38 16.5t-14 36.5q0 19 15.5 34t36.5 15q23 0 39 -14t16 -35q0 -20 -15 -36.5t-39 -16.5z"/>
<glyph glyph-name="Agrave" horiz-adv-x="606" unicode="À" d="M212 850q108 -81 154 -115q-8 -14 -23 -34q-10 6 -74 42t-95 53q21 34 38 54zM299 548h-4q-18 -48 -54.5 -149t-51.5 -143q-3 -6 2 -6h210q-25 75 -102 298zM-13 46l56 3q4 2 5 5q34 87 231 605q12 1 55 1q39 -105 121.5 -336t97.5 -274l61 -3q0 -32 -1 -46h-94 q-24 0 -68.5 -0.5t-63.5 -0.5q0 8 0.5 23t0.5 23l78 3q4 0 2 5q-40 116 -51 144q-1 5 -7 5l-239 -1q-42 -119 -53 -153l90 -2q0 -31 -1 -46h-133q-15 0 -45 -0.5t-43 -0.5q0 31 1 46z"/>
<glyph glyph-name="Aacute" horiz-adv-x="606" unicode="Á" d="M400 849q16 -19 37 -53q-107 -61 -168 -95q-14 17 -23 34q123 91 154 114zM299 548h-4q-18 -48 -54.5 -149t-51.5 -143q-3 -6 2 -6h210q-25 75 -102 298zM-13 46l56 3q4 2 5 5q34 87 231 605q12 1 55 1q39 -105 121.5 -336t97.5 -274l61 -3q0 -32 -1 -46h-94 q-24 0 -68.5 -0.5t-63.5 -0.5q0 8 0.5 23t0.5 23l78 3q4 0 2 5q-40 116 -51 144q-1 5 -7 5l-239 -1q-42 -119 -53 -153l90 -2q0 -31 -1 -46h-133q-15 0 -45 -0.5t-43 -0.5q0 31 1 46z"/>
<glyph glyph-name="Acircumflex" horiz-adv-x="606" unicode="Â" d="M310 778q-12 -8 -52 -34t-59 -39q-19 21 -26 31q49 39 120 99q11 1 35 1q15 -12 118 -98q-9 -14 -27 -32q-49 33 -109 72zM299 548h-4q-18 -48 -54.5 -149t-51.5 -143q-3 -6 2 -6h210q-25 75 -102 298zM-13 46l56 3q4 2 5 5q34 87 231 605q12 1 55 1q39 -105 121.5 -336 t97.5 -274l61 -3q0 -32 -1 -46h-94q-24 0 -68.5 -0.5t-63.5 -0.5q0 8 0.5 23t0.5 23l78 3q4 0 2 5q-40 116 -51 144q-1 5 -7 5l-239 -1q-42 -119 -53 -153l90 -2q0 -31 -1 -46h-133q-15 0 -45 -0.5t-43 -0.5q0 31 1 46z"/>
<glyph glyph-name="Atilde" horiz-adv-x="606" unicode="Ã" d="M254 809h1q28 0 70 -26q38 -21 53 -21q30 0 34 45h12h27q0 -38 -20.5 -68.5t-56.5 -30.5q-19 0 -64 25q-40 23 -59 23q-13 0 -23.5 -12t-13.5 -31h-12h-26q1 38 23 67t55 29zM299 548h-4q-18 -48 -54.5 -149t-51.5 -143q-3 -6 2 -6h210q-25 75 -102 298zM-13 46l56 3 q4 2 5 5q34 87 231 605q12 1 55 1q39 -105 121.5 -336t97.5 -274l61 -3q0 -32 -1 -46h-94q-24 0 -68.5 -0.5t-63.5 -0.5q0 8 0.5 23t0.5 23l78 3q4 0 2 5q-40 116 -51 144q-1 5 -7 5l-239 -1q-42 -119 -53 -153l90 -2q0 -31 -1 -46h-133q-15 0 -45 -0.5t-43 -0.5q0 31 1 46z "/>
<glyph glyph-name="Adieresis" horiz-adv-x="606" unicode="Ä" d="M396 805h1q20 0 31 -13.5t11 -30.5q0 -18 -12 -30.5t-29 -12.5q-21 0 -33.5 13t-12.5 29q0 17 11 31t33 14zM227 805h1q20 0 30.5 -14t10.5 -31q0 -16 -11.5 -29t-30.5 -13t-31.5 12t-12.5 31q0 17 11.5 30.5t32.5 13.5zM299 548h-4q-18 -48 -54.5 -149t-51.5 -143 q-3 -6 2 -6h210q-25 75 -102 298zM-13 46l56 3q4 2 5 5q34 87 231 605q12 1 55 1q39 -105 121.5 -336t97.5 -274l61 -3q0 -32 -1 -46h-94q-24 0 -68.5 -0.5t-63.5 -0.5q0 8 0.5 23t0.5 23l78 3q4 0 2 5q-40 116 -51 144q-1 5 -7 5l-239 -1q-42 -119 -53 -153l90 -2 q0 -31 -1 -46h-133q-15 0 -45 -0.5t-43 -0.5q0 31 1 46z"/>
<glyph glyph-name="Aring" horiz-adv-x="606" unicode="Å" d="M307 833h-1q-21 0 -34 -14.5t-13 -34.5t13.5 -33.5t34.5 -13.5t33.5 13.5t12.5 34.5t-12 34.5t-34 13.5zM307 870h1q42 0 68.5 -24t26.5 -60q0 -37 -27.5 -61.5t-68.5 -24.5q-42 0 -70 22.5t-28 61.5q0 34 27.5 60t70.5 26zM299 548h-4q-18 -48 -54.5 -149t-51.5 -143 q-3 -6 2 -6h210q-25 75 -102 298zM-13 46l56 3q4 2 5 5q34 87 231 605q12 1 55 1q39 -105 121.5 -336t97.5 -274l61 -3q0 -32 -1 -46h-94q-24 0 -68.5 -0.5t-63.5 -0.5q0 8 0.5 23t0.5 23l78 3q4 0 2 5q-40 116 -51 144q-1 5 -7 5l-239 -1q-42 -119 -53 -153l90 -2 q0 -31 -1 -46h-133q-15 0 -45 -0.5t-43 -0.5q0 31 1 46z"/>
<glyph glyph-name="AE" horiz-adv-x="853" unicode="Æ" d="M431 597h-4q-65 -109 -158 -273q-3 -6 2 -6h160v279zM426 272l-187 -1q-24 -44 -65.5 -119t-56.5 -103l91 -2q0 -31 -1 -46h-139q-15 0 -44.5 -0.5t-42.5 -0.5q0 31 1 46l57 4q5 0 7 4q60 100 185.5 313.5t164.5 279.5q3 3 5 3q4 0 44 -0.5t63 -0.5q12 0 92 0.5t92 0.5 h86q6 -73 9 -151q-8 -1 -53 -6l-16 86q-3 17 -23 19q-42 4 -154 4h-30l-1 -279q48 0 152 2q14 0 18.5 4.5t6.5 14.5l5 48q4 0 12 0.5t13 0.5t13 -0.5t12 -0.5v-95q0 -15 -1 -46t-1 -43q-32 -2 -51 -2l-3 49q-1 19 -25 19q-43 1 -151 1l-1 -207q0 -13 8.5 -16.5t47.5 -3.5 q120 0 150 7q13 3 19 20l30 87q36 -6 52 -10q-13 -64 -34 -153q-44 1 -306 1h-122v46l73 3q4 0 4 3v216q0 4 -5 4z"/>
<glyph glyph-name="Ccedilla" horiz-adv-x="585" unicode="Ç" d="M271 -77l70 68h-6q-101 0 -178 59q-49 38 -78 100.5t-29 137.5q0 188 132 296q90 76 226 76q81 0 127 -21q8 -111 10 -169q-16 -3 -56 -7l-17 108q-2 11 -8 15q-28 18 -82 18q-95 0 -158 -64q-89 -91 -89 -228q0 -67 13.5 -112t47.5 -84q60 -68 167 -68q79 0 177 37 q10 -31 12 -51q-78 -30 -153 -40l-59 -61q34 -5 51 -23.5t17 -43.5q0 -38 -38 -63.5t-103 -26.5q-4 19 -5 37q82 2 82 47q0 19 -13 28q-13 11 -51 11z"/>
<glyph glyph-name="Egrave" horiz-adv-x="555" unicode="È" d="M205 850q108 -81 154 -115q-8 -14 -23 -34q-10 6 -74 42t-95 53q21 34 38 54zM51 46l69 3q3 0 3 4v548l-73 2q0 32 1 47q17 0 56 -0.5t59 -0.5q15 0 112.5 0.5t109.5 0.5h86q6 -74 9 -151q-17 -3 -53 -7l-16 87q-3 16 -23 17q-42 5 -159 5h-29l-1 -246q28 0 79 0.5 t78 1.5q22 1 23 20l5 48q36 0 51 -1q-1 -15 -1.5 -47t-0.5 -48v-92q-11 -1 -36 -1h-15l-4 52q-1 19 -24 19q-45 1 -155 1l-1 -240q0 -13 8.5 -16.5t47.5 -3.5q125 0 155 7q14 4 18 20l32 91q12 -2 52 -10q-14 -64 -35 -157q-46 1 -311 1h-118q0 31 1 46z"/>
<glyph glyph-name="Eacute" horiz-adv-x="555" unicode="É" d="M381 849q16 -19 37 -53q-107 -61 -168 -95q-14 17 -23 34q123 91 154 114zM51 46l69 3q3 0 3 4v548l-73 2q0 32 1 47q17 0 56 -0.5t59 -0.5q15 0 112.5 0.5t109.5 0.5h86q6 -74 9 -151q-17 -3 -53 -7l-16 87q-3 16 -23 17q-42 5 -159 5h-29l-1 -246q28 0 79 0.5t78 1.5 q22 1 23 20l5 48q36 0 51 -1q-1 -15 -1.5 -47t-0.5 -48v-92q-11 -1 -36 -1h-15l-4 52q-1 19 -24 19q-45 1 -155 1l-1 -240q0 -13 8.5 -16.5t47.5 -3.5q125 0 155 7q14 4 18 20l32 91q12 -2 52 -10q-14 -64 -35 -157q-46 1 -311 1h-118q0 31 1 46z"/>
<glyph glyph-name="Ecircumflex" horiz-adv-x="555" unicode="Ê" d="M277 779q-12 -8 -52 -34t-59 -39q-19 21 -26 31q49 39 120 99q11 1 35 1q15 -12 118 -98q-9 -14 -27 -32q-49 33 -109 72zM51 46l69 3q3 0 3 4v548l-73 2q0 32 1 47q17 0 56 -0.5t59 -0.5q15 0 112.5 0.5t109.5 0.5h86q6 -74 9 -151q-17 -3 -53 -7l-16 87q-3 16 -23 17 q-42 5 -159 5h-29l-1 -246q28 0 79 0.5t78 1.5q22 1 23 20l5 48q36 0 51 -1q-1 -15 -1.5 -47t-0.5 -48v-92q-11 -1 -36 -1h-15l-4 52q-1 19 -24 19q-45 1 -155 1l-1 -240q0 -13 8.5 -16.5t47.5 -3.5q125 0 155 7q14 4 18 20l32 91q12 -2 52 -10q-14 -64 -35 -157 q-46 1 -311 1h-118q0 31 1 46z"/>
<glyph glyph-name="Edieresis" horiz-adv-x="555" unicode="Ë" d="M361 806h1q20 0 31 -13.5t11 -30.5q0 -18 -12 -30.5t-29 -12.5q-21 0 -33.5 13t-12.5 29q0 17 11 31t33 14zM192 806h1q20 0 30.5 -14t10.5 -31q0 -16 -11.5 -29t-30.5 -13t-31.5 12t-12.5 31q0 17 11.5 30.5t32.5 13.5zM51 46l69 3q3 0 3 4v548l-73 2q0 32 1 47 q17 0 56 -0.5t59 -0.5q15 0 112.5 0.5t109.5 0.5h86q6 -74 9 -151q-17 -3 -53 -7l-16 87q-3 16 -23 17q-42 5 -159 5h-29l-1 -246q28 0 79 0.5t78 1.5q22 1 23 20l5 48q36 0 51 -1q-1 -15 -1.5 -47t-0.5 -48v-92q-11 -1 -36 -1h-15l-4 52q-1 19 -24 19q-45 1 -155 1l-1 -240 q0 -13 8.5 -16.5t47.5 -3.5q125 0 155 7q14 4 18 20l32 91q12 -2 52 -10q-14 -64 -35 -157q-46 1 -311 1h-118q0 31 1 46z"/>
<glyph glyph-name="Igrave" horiz-adv-x="324" unicode="Ì" d="M90 850q108 -81 154 -115q-8 -14 -23 -34q-10 6 -74 42t-95 53q21 34 38 54zM123 601l-79 3q0 8 0.5 23t0.5 23h124h117q0 -8 -0.5 -23.5t-0.5 -22.5l-79 -3q-3 0 -3 -4l-2 -547l85 -3q0 -32 -1 -47q-16 0 -57 0.5t-62 0.5q-20 0 -61 -0.5t-59 -0.5q0 31 1 46l72 3 q4 0 4 5v547z"/>
<glyph glyph-name="Iacute" horiz-adv-x="324" unicode="Í" d="M247 849q16 -19 37 -53q-107 -61 -168 -95q-14 17 -23 34q123 91 154 114zM123 601l-79 3q0 8 0.5 23t0.5 23h124h117q0 -8 -0.5 -23.5t-0.5 -22.5l-79 -3q-3 0 -3 -4l-2 -547l85 -3q0 -32 -1 -47q-16 0 -57 0.5t-62 0.5q-20 0 -61 -0.5t-59 -0.5q0 31 1 46l72 3q4 0 4 5 v547z"/>
<glyph glyph-name="Icircumflex" horiz-adv-x="324" unicode="Î" d="M165 779q-12 -8 -52 -34t-59 -39q-19 21 -26 31q49 39 120 99q11 1 35 1q15 -12 118 -98q-9 -14 -27 -32q-49 33 -109 72zM123 601l-79 3q0 8 0.5 23t0.5 23h124h117q0 -8 -0.5 -23.5t-0.5 -22.5l-79 -3q-3 0 -3 -4l-2 -547l85 -3q0 -32 -1 -47q-16 0 -57 0.5t-62 0.5 q-20 0 -61 -0.5t-59 -0.5q0 31 1 46l72 3q4 0 4 5v547z"/>
<glyph glyph-name="Idieresis" horiz-adv-x="324" unicode="Ï" d="M256 806h1q20 0 31 -13.5t11 -30.5q0 -18 -12 -30.5t-29 -12.5q-21 0 -33.5 13t-12.5 29q0 17 11 31t33 14zM87 806h1q20 0 30.5 -14t10.5 -31q0 -16 -11.5 -29t-30.5 -13t-31.5 12t-12.5 31q0 17 11.5 30.5t32.5 13.5zM123 601l-79 3q0 8 0.5 23t0.5 23h124h117 q0 -8 -0.5 -23.5t-0.5 -22.5l-79 -3q-3 0 -3 -4l-2 -547l85 -3q0 -32 -1 -47q-16 0 -57 0.5t-62 0.5q-20 0 -61 -0.5t-59 -0.5q0 31 1 46l72 3q4 0 4 5v547z"/>
<glyph glyph-name="Eth" horiz-adv-x="708" unicode="Ð" d="M220 296l-1 -215q0 -21 13.5 -28.5t62.5 -7.5q129 0 201 64q35 31 57 87.5t22 117.5q0 83 -21 135t-69 94q-71 63 -209 63q-42 0 -55 -4l-1 -256q29 1 88.5 1.5t91.5 0.5q0 -20 -2 -52h-178zM140 346v255l-74 2q0 32 1 46q108 2 205 2q90 0 143 -11.5t98 -36.5 q68 -39 107 -108.5t39 -149.5q0 -186 -124 -280q-87 -66 -233 -66q-22 0 -66 0.5t-54 0.5q-17 0 -57 -0.5t-59 -0.5v14q0 22 1 32l69 3q4 0 4 5v243h-88q0 35 1 49q29 1 87 1z"/>
<glyph glyph-name="Ntilde" horiz-adv-x="716" unicode="Ñ" d="M313 809h1q28 0 70 -26q38 -21 53 -21q30 0 34 45h12h27q0 -38 -20.5 -68.5t-56.5 -30.5q-19 0 -64 25q-40 23 -59 23q-13 0 -23.5 -12t-13.5 -31h-12h-26q1 38 23 67t55 29zM48 46l64 3q4 0 4 4v548l-73 2v14q0 22 1 33h144q151 -224 358 -540l5 1q-2 328 -4 490l-94 1 q0 8 0.5 24t0.5 24h124h96v-15v-31l-61 -3q-3 0 -3 -5l-3 -592q-24 -11 -53 -11q-161 219 -372 538h-6q0 -321 -1 -482l100 -2q0 -8 -0.5 -23.5t-0.5 -22.5h-132q-17 0 -49.5 -0.5t-45.5 -0.5q0 32 1 46z"/>
<glyph glyph-name="Ograve" horiz-adv-x="718" unicode="Ò" d="M287 855q108 -81 154 -115q-8 -14 -23 -34q-10 6 -74 42t-95 53q21 34 38 54zM360 40h1q95 0 149 62q72 85 72 222q0 145 -71 225q-57 61 -145 61q-84 0 -142 -52q-88 -80 -88 -232q0 -146 74 -224q58 -62 150 -62zM347 -10h-1q-125 0 -207 84q-89 89 -89 245 q0 92 39 167.5t100 117.5q83 56 189 56q97 0 168 -50q55 -39 88.5 -109.5t33.5 -155.5q0 -171 -104 -274q-84 -81 -217 -81z"/>
<glyph glyph-name="Oacute" horiz-adv-x="718" unicode="Ó" d="M457 854q16 -19 37 -53q-107 -61 -168 -95q-14 17 -23 34q123 91 154 114zM360 40h1q95 0 149 62q72 85 72 222q0 145 -71 225q-57 61 -145 61q-84 0 -142 -52q-88 -80 -88 -232q0 -146 74 -224q58 -62 150 -62zM347 -10h-1q-125 0 -207 84q-89 89 -89 245q0 92 39 167.5 t100 117.5q83 56 189 56q97 0 168 -50q55 -39 88.5 -109.5t33.5 -155.5q0 -171 -104 -274q-84 -81 -217 -81z"/>
<glyph glyph-name="Ocircumflex" horiz-adv-x="718" unicode="Ô" d="M374 779q-12 -8 -52 -34t-59 -39q-19 21 -26 31q49 39 120 99q11 1 35 1q15 -12 118 -98q-9 -14 -27 -32q-49 33 -109 72zM360 40h1q95 0 149 62q72 85 72 222q0 145 -71 225q-57 61 -145 61q-84 0 -142 -52q-88 -80 -88 -232q0 -146 74 -224q58 -62 150 -62zM347 -10h-1 q-125 0 -207 84q-89 89 -89 245q0 92 39 167.5t100 117.5q83 56 189 56q97 0 168 -50q55 -39 88.5 -109.5t33.5 -155.5q0 -171 -104 -274q-84 -81 -217 -81z"/>
<glyph glyph-name="Otilde" horiz-adv-x="718" unicode="Õ" d="M317 814h1q28 0 70 -26q38 -21 53 -21q30 0 34 45h12h27q0 -38 -20.5 -68.5t-56.5 -30.5q-19 0 -64 25q-40 23 -59 23q-13 0 -23.5 -12t-13.5 -31h-12h-26q1 38 23 67t55 29zM360 40h1q95 0 149 62q72 85 72 222q0 145 -71 225q-57 61 -145 61q-84 0 -142 -52 q-88 -80 -88 -232q0 -146 74 -224q58 -62 150 -62zM347 -10h-1q-125 0 -207 84q-89 89 -89 245q0 92 39 167.5t100 117.5q83 56 189 56q97 0 168 -50q55 -39 88.5 -109.5t33.5 -155.5q0 -171 -104 -274q-84 -81 -217 -81z"/>
<glyph glyph-name="Odieresis" horiz-adv-x="718" unicode="Ö" d="M463 806h1q20 0 31 -13.5t11 -30.5q0 -18 -12 -30.5t-29 -12.5q-21 0 -33.5 13t-12.5 29q0 17 11 31t33 14zM294 806h1q20 0 30.5 -14t10.5 -31q0 -16 -11.5 -29t-30.5 -13t-31.5 12t-12.5 31q0 17 11.5 30.5t32.5 13.5zM360 40h1q95 0 149 62q72 85 72 222 q0 145 -71 225q-57 61 -145 61q-84 0 -142 -52q-88 -80 -88 -232q0 -146 74 -224q58 -62 150 -62zM347 -10h-1q-125 0 -207 84q-89 89 -89 245q0 92 39 167.5t100 117.5q83 56 189 56q97 0 168 -50q55 -39 88.5 -109.5t33.5 -155.5q0 -171 -104 -274q-84 -81 -217 -81z"/>
<glyph glyph-name="multiply" d="M301 231q110 -112 158 -162q-13 -16 -37 -36q-25 26 -79 80t-80 81q-54 -55 -160 -161q-22 20 -36 37q60 61 158 161q-103 105 -150 151q20 23 41 41q105 -108 147 -151q25 26 76 78t74 76q21 -16 42 -41q-74 -72 -154 -154z" unicode="×"/>
<glyph glyph-name="Oslash" horiz-adv-x="718" unicode="Ø" d="M360 40h1q97 0 151 63q72 85 72 229q0 106 -40 170q-35 -41 -93 -110.5t-76 -90.5q-124 -147 -167 -199q59 -62 152 -62zM364 610h-1q-89 0 -146 -58q-84 -84 -84 -228q0 -120 46 -185q79 97 167 201q13 16 170 205q-55 65 -152 65zM381 660h1q102 0 177 -62q44 52 66 77 q22 -15 42 -35q-11 -12 -34 -39t-36 -41q31 -37 51 -95.5t20 -120.5q0 -166 -100 -269q-85 -85 -221 -85q-109 0 -183 61q-13 -15 -38.5 -44t-36.5 -41q-19 15 -37 31q24 29 77 88q-79 88 -79 232q0 95 39.5 170.5t104.5 119.5q80 53 187 53z"/>
<glyph glyph-name="Ugrave" horiz-adv-x="669" unicode="Ù" d="M277 850q108 -81 154 -115q-8 -14 -23 -34q-10 6 -74 42t-95 53q21 34 38 54zM185 601l-2 -330v-9q0 -111 41 -165q40 -53 119 -53q72 0 116 46q49 51 49 176q0 229 -1 330q0 4 -4 4l-83 3q0 31 1 46h116q19 0 54 0.5t50 0.5q0 -31 -1 -47l-64 -3l-2 -335 q-1 -140 -70 -213q-60 -62 -164 -62q-112 0 -171 58q-40 38 -53 88.5t-13 126.5v332q0 6 -5 6l-61 2q0 32 1 46h108q23 0 66 0.5t62 0.5q0 -31 -1 -47z"/>
<glyph glyph-name="Uacute" horiz-adv-x="669" unicode="Ú" d="M447 849q16 -19 37 -53q-107 -61 -168 -95q-14 17 -23 34q123 91 154 114zM185 601l-2 -330v-9q0 -111 41 -165q40 -53 119 -53q72 0 116 46q49 51 49 176q0 229 -1 330q0 4 -4 4l-83 3q0 31 1 46h116q19 0 54 0.5t50 0.5q0 -31 -1 -47l-64 -3l-2 -335q-1 -140 -70 -213 q-60 -62 -164 -62q-112 0 -171 58q-40 38 -53 88.5t-13 126.5v332q0 6 -5 6l-61 2q0 32 1 46h108q23 0 66 0.5t62 0.5q0 -31 -1 -47z"/>
<glyph glyph-name="Ucircumflex" horiz-adv-x="669" unicode="Û" d="M353 779q-12 -8 -52 -34t-59 -39q-19 21 -26 31q49 39 120 99q11 1 35 1q15 -12 118 -98q-9 -14 -27 -32q-49 33 -109 72zM185 601l-2 -330v-9q0 -111 41 -165q40 -53 119 -53q72 0 116 46q49 51 49 176q0 229 -1 330q0 4 -4 4l-83 3q0 31 1 46h116q19 0 54 0.5t50 0.5 q0 -31 -1 -47l-64 -3l-2 -335q-1 -140 -70 -213q-60 -62 -164 -62q-112 0 -171 58q-40 38 -53 88.5t-13 126.5v332q0 6 -5 6l-61 2q0 32 1 46h108q23 0 66 0.5t62 0.5q0 -31 -1 -47z"/>
<glyph glyph-name="Udieresis" horiz-adv-x="669" unicode="Ü" d="M440 806h1q20 0 31 -13.5t11 -30.5q0 -18 -12 -30.5t-29 -12.5q-21 0 -33.5 13t-12.5 29q0 17 11 31t33 14zM271 806h1q20 0 30.5 -14t10.5 -31q0 -16 -11.5 -29t-30.5 -13t-31.5 12t-12.5 31q0 17 11.5 30.5t32.5 13.5zM185 601l-2 -330v-9q0 -111 41 -165 q40 -53 119 -53q72 0 116 46q49 51 49 176q0 229 -1 330q0 4 -4 4l-83 3q0 31 1 46h116q19 0 54 0.5t50 0.5q0 -31 -1 -47l-64 -3l-2 -335q-1 -140 -70 -213q-60 -62 -164 -62q-112 0 -171 58q-40 38 -53 88.5t-13 126.5v332q0 6 -5 6l-61 2q0 32 1 46h108q23 0 66 0.5 t62 0.5q0 -31 -1 -47z"/>
<glyph glyph-name="Yacute" horiz-adv-x="562" unicode="Ý" d="M415 849q16 -19 37 -53q-107 -61 -168 -95q-14 17 -23 34q123 91 154 114zM160 47l79 2q5 0 5 6v196q-20 35 -193 347q-1 0 -2.5 1.5t-2.5 1.5l-52 3q0 32 1 46h98q26 0 73.5 0.5t67.5 0.5q0 -32 -1 -47l-90 -3q37 -73 152 -293h5q108 199 148 289q2 4 -3 4l-81 2 q0 32 1 47h124q14 0 44 0.5t42 0.5q0 -32 -1 -46l-51 -4q-33 -56 -102.5 -178t-97.5 -171l-1 -202l92 -3q0 -17 -2 -47q-17 0 -60.5 0.5t-65.5 0.5q-21 0 -64 -0.5t-63 -0.5q0 31 1 47z"/>
<glyph glyph-name="Thorn" horiz-adv-x="555" unicode="Þ" d="M202 475l-1 -281q5 -9 55 -9q68 0 115 28q60 40 60 122q0 70 -48 107t-134 37q-38 0 -47 -4zM123 54v547l-69 2q0 31 1 47h113h117q0 -31 -1 -45l-78 -3q-4 0 -4 -4v-72q15 1 46 1q82 0 135 -16q60 -18 95 -63.5t35 -100.5q0 -63 -34 -112t-82 -70q-58 -27 -138 -27h-59 v-88l96 -3v-13q0 -22 -1 -33h-134q-17 0 -53.5 -0.5t-53.5 -0.5v16v31l65 3q4 0 4 4z"/>
<glyph glyph-name="germandbls" horiz-adv-x="580" unicode="ß" d="M26 415l68 2q5 0 5 7q0 79 13 121t50 77q66 61 151 61q59 0 100 -38q50 -47 50 -148q0 -18 -1 -28q-50 -36 -64 -49q-41 -34 -41 -68q0 -32 16 -47t62 -35q59 -24 83 -55.5t24 -76.5q0 -75 -60 -117q-42 -31 -123 -31q-51 0 -89 12q-2 21 -6.5 60.5t-6.5 56.5q28 5 50 8 l12 -64q3 -10 9 -13q22 -12 48 -12q42 0 66 19q26 23 26 62q0 37 -16.5 56t-69.5 41q-52 22 -73 50t-21 70q0 20 11.5 42t19 30t26.5 28l44 44q0 3 0.5 9t0.5 9q0 75 -37 110q-25 22 -63 22q-52 0 -85 -39q-18 -21 -23.5 -58t-6.5 -115q0 -50 -0.5 -181t-0.5 -190l35 -2 q0 -29 -1 -44h-71q-15 0 -49.5 -0.5t-50.5 -0.5q0 8 0.5 22t0.5 21l58 4q3 0 3 4v315h-75q0 19 2 49z"/>
<glyph glyph-name="agrave" horiz-adv-x="454" unicode="à" d="M154 640q25 -24 73 -73t60 -61q-9 -11 -29 -31q-15 12 -45 37t-55.5 46t-46.5 38q13 17 43 44zM110 97v-1q0 -23 19 -38t48 -15q55 0 111 40q3 2 3 9v85q-10 2 -56 2q-63 0 -94 -23t-31 -59zM293 35h-5q-88 -45 -146 -45q-40 0 -76.5 29t-36.5 69q0 49 50.5 91.5 t141.5 42.5h3h68v21q0 69 -19.5 98.5t-63.5 29.5q-58 0 -120 -67q-26 28 -34 38q86 88 178 88q59 0 96.5 -41t37.5 -121q0 -126 -2 -210q0 -15 9 -15l67 2v-42q-45 -13 -115 -13q-9 8 -33 45z"/>
<glyph glyph-name="aacute" horiz-adv-x="454" unicode="á" d="M304 640q16 -13 43 -44q-28 -22 -82.5 -66.5t-66.5 -54.5q-3 3 -8.5 9.5t-10.5 11.5t-9 10q22 21 67.5 67.5t66.5 66.5zM110 97v-1q0 -23 19 -38t48 -15q55 0 111 40q3 2 3 9v85q-10 2 -56 2q-63 0 -94 -23t-31 -59zM293 35h-5q-88 -45 -146 -45q-40 0 -76.5 29t-36.5 69 q0 49 50.5 91.5t141.5 42.5h3h68v21q0 69 -19.5 98.5t-63.5 29.5q-58 0 -120 -67q-26 28 -34 38q86 88 178 88q59 0 96.5 -41t37.5 -121q0 -126 -2 -210q0 -15 9 -15l67 2v-42q-45 -13 -115 -13q-9 8 -33 45z"/>
<glyph glyph-name="acircumflex" horiz-adv-x="454" unicode="â" d="M219 562q-14 -14 -93 -92q-9 8 -30 26q59 71 105 124q12 1 37 1q14 -16 50.5 -60t53.5 -64q-19 -19 -29 -27q-63 63 -94 92zM110 97v-1q0 -23 19 -38t48 -15q55 0 111 40q3 2 3 9v85q-10 2 -56 2q-63 0 -94 -23t-31 -59zM293 35h-5q-88 -45 -146 -45q-40 0 -76.5 29 t-36.5 69q0 49 50.5 91.5t141.5 42.5h3h68v21q0 69 -19.5 98.5t-63.5 29.5q-58 0 -120 -67q-26 28 -34 38q86 88 178 88q59 0 96.5 -41t37.5 -121q0 -126 -2 -210q0 -15 9 -15l67 2v-42q-45 -13 -115 -13q-9 8 -33 45z"/>
<glyph glyph-name="atilde" horiz-adv-x="454" unicode="ã" d="M161 594h1q8 0 15.5 -1.5t15 -5.5t12 -6.5t13 -8.5t10.5 -8q4 -3 11.5 -8.5t11 -8t10 -5t13.5 -2.5q15 0 21.5 12.5t9.5 38.5h12h24q-4 -102 -67 -102q-23 0 -64 29q-3 2 -12.5 9t-13.5 9.5t-11 5t-14 2.5q-24 0 -34 -49h-12h-25q8 99 73 99zM110 97v-1q0 -23 19 -38 t48 -15q55 0 111 40q3 2 3 9v85q-10 2 -56 2q-63 0 -94 -23t-31 -59zM293 35h-5q-88 -45 -146 -45q-40 0 -76.5 29t-36.5 69q0 49 50.5 91.5t141.5 42.5h3h68v21q0 69 -19.5 98.5t-63.5 29.5q-58 0 -120 -67q-26 28 -34 38q86 88 178 88q59 0 96.5 -41t37.5 -121 q0 -126 -2 -210q0 -15 9 -15l67 2v-42q-45 -13 -115 -13q-9 8 -33 45z"/>
<glyph glyph-name="adieresis" horiz-adv-x="454" unicode="ä" d="M294 579h1q19 0 30 -13.5t11 -29.5q0 -19 -12 -31t-31 -12q-20 0 -31.5 13t-11.5 29q0 17 10.5 30.5t33.5 13.5zM136 579h1q22 0 32 -13.5t10 -30.5q0 -16 -11.5 -29t-30.5 -13t-31.5 12t-12.5 31q0 16 11.5 29.5t31.5 13.5zM110 97v-1q0 -23 19 -38t48 -15q55 0 111 40 q3 2 3 9v85q-10 2 -56 2q-63 0 -94 -23t-31 -59zM293 35h-5q-88 -45 -146 -45q-40 0 -76.5 29t-36.5 69q0 49 50.5 91.5t141.5 42.5h3h68v21q0 69 -19.5 98.5t-63.5 29.5q-58 0 -120 -67q-26 28 -34 38q86 88 178 88q59 0 96.5 -41t37.5 -121q0 -126 -2 -210q0 -15 9 -15 l67 2v-42q-45 -13 -115 -13q-9 8 -33 45z"/>
<glyph glyph-name="aring" horiz-adv-x="454" unicode="å" d="M220 618h-1q-22 0 -35 -14.5t-13 -34.5t14 -34t35 -14q23 0 35 14t12 35t-12 34.5t-35 13.5zM220 654h1q42 0 67.5 -23.5t25.5 -59.5t-27 -61t-68 -25q-40 0 -67.5 23.5t-27.5 60.5q0 32 27.5 58.5t68.5 26.5zM110 97v-1q0 -23 19 -38t48 -15q55 0 111 40q3 2 3 9v85 q-10 2 -56 2q-63 0 -94 -23t-31 -59zM293 35h-5q-88 -45 -146 -45q-40 0 -76.5 29t-36.5 69q0 49 50.5 91.5t141.5 42.5h3h68v21q0 69 -19.5 98.5t-63.5 29.5q-58 0 -120 -67q-26 28 -34 38q86 88 178 88q59 0 96.5 -41t37.5 -121q0 -126 -2 -210q0 -15 9 -15l67 2v-42 q-45 -13 -115 -13q-9 8 -33 45z"/>
<glyph glyph-name="ae" horiz-adv-x="690" unicode="æ" d="M176 42h1q62 0 127 47q4 3 3 7q-11 32 -15 81q-10 2 -56 2q-63 0 -94 -23t-31 -59q0 -23 18.5 -39t46.5 -16zM485 383h-1q-42 0 -72 -30q-39 -45 -42 -98q109 0 196 3q12 0 12 11q0 52 -27 84q-25 30 -66 30zM330 55h-6q-101 -65 -184 -65q-37 0 -74 29t-37 68 q0 49 51 92t141 43h2h70v16q0 70 -19.5 101.5t-62.5 31.5q-61 0 -121 -67q-7 6 -35 37q42 41 82.5 65t90.5 24q86 0 111 -83h5q53 83 154 83q77 0 117 -51q39 -48 39 -131q-4 -10 -15.5 -22.5t-18.5 -13.5q-88 -3 -253 -3v-7q0 -78 33 -117q34 -40 103 -40q52 0 132 32 q5 -19 11 -45q-87 -42 -158 -42q-107 0 -158 65z"/>
<glyph glyph-name="ccedilla" horiz-adv-x="403" unicode="ç" d="M150 -71l64 62h-5q-25 0 -52.5 11t-54.5 32.5t-44.5 60.5t-17.5 89q0 108 68 177t174 69q60 0 92 -21q0 -11 -11.5 -33.5t-20.5 -27.5l-16 7q-17 7 -36.5 12t-37.5 5q-54 0 -86 -37q-45 -51 -45 -131q0 -79 36 -122q31 -37 91 -37q47 0 124 28q7 -23 10 -43 q-56 -27 -113 -35l-55 -57q27 -5 42 -22t15 -41q0 -37 -34.5 -60t-91.5 -24q-2 8 -4 34q73 5 73 43q0 18 -13 29q-12 11 -42 11q-1 2 -3 6.5t-3.5 8t-2.5 6.5z"/>
<glyph glyph-name="egrave" horiz-adv-x="445" unicode="è" d="M187 640q25 -24 73 -73t60 -61q-9 -11 -29 -31q-15 12 -45 37t-55.5 46t-46.5 38q13 17 43 44zM242 383h-1q-46 0 -74 -31q-39 -45 -42 -97q109 0 195 3q13 0 13 11q0 52 -27 84q-25 30 -64 30zM40 191v1q0 100 59 169t154 69q77 0 118 -51q38 -48 38 -131 q-4 -10 -15.5 -22.5t-18.5 -13.5q-88 -3 -254 -3v-7q0 -77 33 -116q35 -41 103 -41q53 0 133 32q8 -21 11 -45q-86 -42 -159 -42q-95 0 -148.5 56t-53.5 145z"/>
<glyph glyph-name="eacute" horiz-adv-x="445" unicode="é" d="M316 640q16 -13 43 -44q-28 -22 -82.5 -66.5t-66.5 -54.5q-3 3 -8.5 9.5t-10.5 11.5t-9 10q22 21 67.5 67.5t66.5 66.5zM242 383h-1q-46 0 -74 -31q-39 -45 -42 -97q109 0 195 3q13 0 13 11q0 52 -27 84q-25 30 -64 30zM40 191v1q0 100 59 169t154 69q77 0 118 -51 q38 -48 38 -131q-4 -10 -15.5 -22.5t-18.5 -13.5q-88 -3 -254 -3v-7q0 -77 33 -116q35 -41 103 -41q53 0 133 32q8 -21 11 -45q-86 -42 -159 -42q-95 0 -148.5 56t-53.5 145z"/>
<glyph glyph-name="ecircumflex" horiz-adv-x="445" unicode="ê" d="M249 562q-14 -14 -93 -92q-9 8 -30 26q59 71 105 124q12 1 37 1q14 -16 50.5 -60t53.5 -64q-19 -19 -29 -27q-63 63 -94 92zM242 383h-1q-46 0 -74 -31q-39 -45 -42 -97q109 0 195 3q13 0 13 11q0 52 -27 84q-25 30 -64 30zM40 191v1q0 100 59 169t154 69q77 0 118 -51 q38 -48 38 -131q-4 -10 -15.5 -22.5t-18.5 -13.5q-88 -3 -254 -3v-7q0 -77 33 -116q35 -41 103 -41q53 0 133 32q8 -21 11 -45q-86 -42 -159 -42q-95 0 -148.5 56t-53.5 145z"/>
<glyph glyph-name="edieresis" horiz-adv-x="445" unicode="ë" d="M327 579h1q19 0 30 -13.5t11 -29.5q0 -19 -12 -31t-31 -12q-20 0 -31.5 13t-11.5 29q0 17 10.5 30.5t33.5 13.5zM169 579h1q22 0 32 -13.5t10 -30.5q0 -16 -11.5 -29t-30.5 -13t-31.5 12t-12.5 31q0 16 11.5 29.5t31.5 13.5zM242 383h-1q-46 0 -74 -31q-39 -45 -42 -97 q109 0 195 3q13 0 13 11q0 52 -27 84q-25 30 -64 30zM40 191v1q0 100 59 169t154 69q77 0 118 -51q38 -48 38 -131q-4 -10 -15.5 -22.5t-18.5 -13.5q-88 -3 -254 -3v-7q0 -77 33 -116q35 -41 103 -41q53 0 133 32q8 -21 11 -45q-86 -42 -159 -42q-95 0 -148.5 56t-53.5 145z "/>
<glyph glyph-name="igrave" horiz-adv-x="266" unicode="ì" d="M55 640q25 -24 73 -73t60 -61q-9 -11 -29 -31q-15 12 -45 37t-55.5 46t-46.5 38q13 17 43 44zM102 361l-77 2v42q18 2 55 8.5t65.5 11.5t31.5 5q2 0 2 -3q0 -55 -1 -191t-1 -189l70 -3q0 -29 -1 -43h-111q-17 0 -52.5 -0.5t-51.5 -0.5v44l67 3q4 0 4 4v310z"/>
<glyph glyph-name="iacute" horiz-adv-x="266" unicode="í" d="M201 640q16 -13 43 -44q-28 -22 -82.5 -66.5t-66.5 -54.5q-3 3 -8.5 9.5t-10.5 11.5t-9 10q22 21 67.5 67.5t66.5 66.5zM102 361l-77 2v42q18 2 55 8.5t65.5 11.5t31.5 5q2 0 2 -3q0 -55 -1 -191t-1 -189l70 -3q0 -29 -1 -43h-111q-17 0 -52.5 -0.5t-51.5 -0.5v44l67 3 q4 0 4 4v310z"/>
<glyph glyph-name="icircumflex" horiz-adv-x="266" unicode="î" d="M133 562q-14 -14 -93 -92q-9 8 -30 26q59 71 105 124q12 1 37 1q14 -16 50.5 -60t53.5 -64q-19 -19 -29 -27q-63 63 -94 92zM102 361l-77 2v42q18 2 55 8.5t65.5 11.5t31.5 5q2 0 2 -3q0 -55 -1 -191t-1 -189l70 -3q0 -29 -1 -43h-111q-17 0 -52.5 -0.5t-51.5 -0.5v44 l67 3q4 0 4 4v310z"/>
<glyph glyph-name="idieresis" horiz-adv-x="266" unicode="ï" d="M208 579h1q19 0 30 -13.5t11 -29.5q0 -19 -12 -31t-31 -12q-20 0 -31.5 13t-11.5 29q0 17 10.5 30.5t33.5 13.5zM50 579h1q22 0 32 -13.5t10 -30.5q0 -16 -11.5 -29t-30.5 -13t-31.5 12t-12.5 31q0 16 11.5 29.5t31.5 13.5zM102 361l-77 2v42q18 2 55 8.5t65.5 11.5 t31.5 5q2 0 2 -3q0 -55 -1 -191t-1 -189l70 -3q0 -29 -1 -43h-111q-17 0 -52.5 -0.5t-51.5 -0.5v44l67 3q4 0 4 4v310z"/>
<glyph glyph-name="eth" horiz-adv-x="501" unicode="ð" d="M243 34h1q55 0 90 46q46 60 46 173q0 57 -17 76q-41 43 -109 43q-56 0 -92 -45q-38 -46 -38 -128q0 -97 50 -140q30 -25 69 -25zM369 379l7 3q-29 108 -91 170q-64 -48 -101 -76q-10 12 -28 36q56 41 94 71q-56 50 -150 62q5 27 10 42q54 -2 105 -21.5t83 -44.5 q8 6 40.5 31t51.5 39q15 -18 27 -37l-84 -63q53 -49 88.5 -130t35.5 -174q0 -162 -77 -240q-57 -57 -145 -57q-73 0 -119 38q-34 27 -53.5 70t-19.5 92q0 103 72 171q57 57 142 57q67 0 112 -39z"/>
<glyph glyph-name="ntilde" horiz-adv-x="558" unicode="ñ" d="M231 594h1q8 0 15.5 -1.5t15 -5.5t12 -6.5t13 -8.5t10.5 -8q4 -3 11.5 -8.5t11 -8t10 -5t13.5 -2.5q15 0 21.5 12.5t9.5 38.5h12h24q-4 -102 -67 -102q-23 0 -64 29q-3 2 -12.5 9t-13.5 9.5t-11 5t-14 2.5q-24 0 -34 -49h-12h-25q8 99 73 99zM101 360l-77 2q0 6 0.5 20 t0.5 21q16 3 50.5 9.5t59.5 11.5t28 5q2 0 2 -2q4 -29 11 -60l5 -1q69 43 98.5 53.5t65.5 10.5q67 0 106 -67q20 -33 20 -74q0 -17 -3 -242l64 -3q0 -29 -1 -43h-105q-16 0 -49 -0.5t-47 -0.5q0 29 1 43l58 3q3 2 3 4q1 54 1 181q0 79 -13 101q-21 38 -68 38q-58 0 -133 -58 q-2 -152 -2 -265l72 -3q0 -7 -0.5 -22t-0.5 -21h-113q-16 0 -49 -0.5t-48 -0.5q0 30 1 44l59 3q4 0 4 4z"/>
<glyph glyph-name="ograve" horiz-adv-x="505" unicode="ò" d="M195 640q25 -24 73 -73t60 -61q-9 -11 -29 -31q-15 12 -45 37t-55.5 46t-46.5 38q13 17 43 44zM251 34h1q51 0 83 33q45 49 45 149q0 87 -40 133q-34 37 -85 37t-84 -34q-46 -47 -46 -143q0 -95 47 -142q30 -33 79 -33zM245 -10h-1q-85 0 -137 47q-66 61 -66 165 q0 115 84 183q55 45 137 45q75 0 124 -37q78 -59 78 -173q0 -120 -86 -188q-53 -42 -133 -42z"/>
<glyph glyph-name="oacute" horiz-adv-x="505" unicode="ó" d="M337 640q16 -13 43 -44q-28 -22 -82.5 -66.5t-66.5 -54.5q-3 3 -8.5 9.5t-10.5 11.5t-9 10q22 21 67.5 67.5t66.5 66.5zM251 34h1q51 0 83 33q45 49 45 149q0 87 -40 133q-34 37 -85 37t-84 -34q-46 -47 -46 -143q0 -95 47 -142q30 -33 79 -33zM245 -10h-1q-85 0 -137 47 q-66 61 -66 165q0 115 84 183q55 45 137 45q75 0 124 -37q78 -59 78 -173q0 -120 -86 -188q-53 -42 -133 -42z"/>
<glyph glyph-name="ocircumflex" horiz-adv-x="505" unicode="ô" d="M264 562q-14 -14 -93 -92q-9 8 -30 26q59 71 105 124q12 1 37 1q14 -16 50.5 -60t53.5 -64q-19 -19 -29 -27q-63 63 -94 92zM251 34h1q51 0 83 33q45 49 45 149q0 87 -40 133q-34 37 -85 37t-84 -34q-46 -47 -46 -143q0 -95 47 -142q30 -33 79 -33zM245 -10h-1 q-85 0 -137 47q-66 61 -66 165q0 115 84 183q55 45 137 45q75 0 124 -37q78 -59 78 -173q0 -120 -86 -188q-53 -42 -133 -42z"/>
<glyph glyph-name="otilde" horiz-adv-x="505" unicode="õ" d="M210 594h1q8 0 15.5 -1.5t15 -5.5t12 -6.5t13 -8.5t10.5 -8q4 -3 11.5 -8.5t11 -8t10 -5t13.5 -2.5q15 0 21.5 12.5t9.5 38.5h12h24q-4 -102 -67 -102q-23 0 -64 29q-3 2 -12.5 9t-13.5 9.5t-11 5t-14 2.5q-24 0 -34 -49h-12h-25q8 99 73 99zM251 34h1q51 0 83 33 q45 49 45 149q0 87 -40 133q-34 37 -85 37t-84 -34q-46 -47 -46 -143q0 -95 47 -142q30 -33 79 -33zM245 -10h-1q-85 0 -137 47q-66 61 -66 165q0 115 84 183q55 45 137 45q75 0 124 -37q78 -59 78 -173q0 -120 -86 -188q-53 -42 -133 -42z"/>
<glyph glyph-name="odieresis" horiz-adv-x="505" unicode="ö" d="M340 579h1q19 0 30 -13.5t11 -29.5q0 -19 -12 -31t-31 -12q-20 0 -31.5 13t-11.5 29q0 17 10.5 30.5t33.5 13.5zM182 579h1q22 0 32 -13.5t10 -30.5q0 -16 -11.5 -29t-30.5 -13t-31.5 12t-12.5 31q0 16 11.5 29.5t31.5 13.5zM251 34h1q51 0 83 33q45 49 45 149 q0 87 -40 133q-34 37 -85 37t-84 -34q-46 -47 -46 -143q0 -95 47 -142q30 -33 79 -33zM245 -10h-1q-85 0 -137 47q-66 61 -66 165q0 115 84 183q55 45 137 45q75 0 124 -37q78 -59 78 -173q0 -120 -86 -188q-53 -42 -133 -42z"/>
<glyph glyph-name="divide" d="M215 99v1q0 18 13.5 32.5t35.5 14.5q20 0 32.5 -14.5t12.5 -36.5q0 -17 -12.5 -32t-33.5 -15q-23 0 -35.5 15.5t-12.5 34.5zM460 210h-397q0 36 2 53q65 1 203 2t195 1q0 -30 -3 -56zM215 378v1q0 19 13.5 33.5t34.5 14.5t33.5 -14t12.5 -34q0 -19 -12.5 -34.5 t-32.5 -15.5q-24 0 -36.5 15t-12.5 34z" unicode="÷"/>
<glyph glyph-name="oslash" horiz-adv-x="505" unicode="ø" d="M251 34h1q51 0 83 32q49 49 49 148q0 63 -20 95q-22 -27 -62.5 -76t-73.5 -89t-62 -75q32 -35 85 -35zM255 386h-1q-51 0 -86 -35q-48 -49 -48 -142q0 -68 23 -104q124 154 198 244q-30 37 -86 37zM261 430h1q68 0 118 -34q3 4 54 64q18 -13 36 -32q-15 -16 -54 -64 q48 -55 48 -143q0 -126 -91 -193q-52 -38 -129 -38q-68 0 -117 32q-29 -35 -59 -68q-17 14 -32 29q6 7 26 31t31 38q-53 58 -53 150q0 116 85 183q57 45 136 45z"/>
<glyph glyph-name="ugrave" horiz-adv-x="528" unicode="ù" d="M185 640q25 -24 73 -73t60 -61q-9 -11 -29 -31q-15 12 -45 37t-55.5 46t-46.5 38q13 17 43 44zM366 43l-5 1q-61 -36 -88 -45t-61 -9q-50 0 -89.5 42.5t-39.5 94.5q0 45 0.5 126.5t0.5 115.5l-61 1q0 16 2 46q12 0 45.5 1t59 2t30.5 1q3 0 3 -3q-3 -114 -3 -239v-13 q0 -58 15 -83q23 -36 69 -36q50 0 118 50v91v182l-64 2q0 32 1 47q21 0 78 1t61 1q2 0 2 -3q0 -56 -1 -177t-1 -180q0 -14 7 -14l67 1q0 -29 -1 -42q-45 -15 -113 -15q-16 16 -32 53z"/>
<glyph glyph-name="uacute" horiz-adv-x="528" unicode="ú" d="M328 640q16 -13 43 -44q-28 -22 -82.5 -66.5t-66.5 -54.5q-3 3 -8.5 9.5t-10.5 11.5t-9 10q22 21 67.5 67.5t66.5 66.5zM366 43l-5 1q-61 -36 -88 -45t-61 -9q-50 0 -89.5 42.5t-39.5 94.5q0 45 0.5 126.5t0.5 115.5l-61 1q0 16 2 46q12 0 45.5 1t59 2t30.5 1q3 0 3 -3 q-3 -114 -3 -239v-13q0 -58 15 -83q23 -36 69 -36q50 0 118 50v91v182l-64 2q0 32 1 47q21 0 78 1t61 1q2 0 2 -3q0 -56 -1 -177t-1 -180q0 -14 7 -14l67 1q0 -29 -1 -42q-45 -15 -113 -15q-16 16 -32 53z"/>
<glyph glyph-name="ucircumflex" horiz-adv-x="528" unicode="û" d="M257 562q-15 -14 -93 -92q-9 8 -30 26q59 71 105 124q12 1 37 1q14 -16 50.5 -60t53.5 -64q-19 -19 -29 -27q-63 63 -94 92zM366 43l-5 1q-61 -36 -88 -45t-61 -9q-50 0 -89.5 42.5t-39.5 94.5q0 45 0.5 126.5t0.5 115.5l-61 1q0 16 2 46q12 0 45.5 1t59 2t30.5 1 q3 0 3 -3q-3 -114 -3 -239v-13q0 -58 15 -83q23 -36 69 -36q50 0 118 50v91v182l-64 2q0 32 1 47q21 0 78 1t61 1q2 0 2 -3q0 -56 -1 -177t-1 -180q0 -14 7 -14l67 1q0 -29 -1 -42q-45 -15 -113 -15q-16 16 -32 53z"/>
<glyph glyph-name="udieresis" horiz-adv-x="528" unicode="ü" d="M336 579h1q19 0 30 -13.5t11 -29.5q0 -19 -12 -31t-31 -12q-20 0 -31.5 13t-11.5 29q0 17 10.5 30.5t33.5 13.5zM178 579h1q22 0 32 -13.5t10 -30.5q0 -16 -11.5 -29t-30.5 -13t-31.5 12t-12.5 31q0 16 11.5 29.5t31.5 13.5zM366 43l-5 1q-61 -36 -88 -45t-61 -9 q-50 0 -89.5 42.5t-39.5 94.5q0 45 0.5 126.5t0.5 115.5l-61 1q0 16 2 46q12 0 45.5 1t59 2t30.5 1q3 0 3 -3q-3 -114 -3 -239v-13q0 -58 15 -83q23 -36 69 -36q50 0 118 50v91v182l-64 2q0 32 1 47q21 0 78 1t61 1q2 0 2 -3q0 -56 -1 -177t-1 -180q0 -14 7 -14l67 1 q0 -29 -1 -42q-45 -15 -113 -15q-16 16 -32 53z"/>
<glyph glyph-name="yacute" horiz-adv-x="462" unicode="ý" d="M327 640q16 -13 43 -44q-28 -22 -82.5 -66.5t-66.5 -54.5q-3 3 -8.5 9.5t-10.5 11.5t-9 10q22 21 67.5 67.5t66.5 66.5zM466 376l-44 -3q-5 -14 -82 -201q-93 -221 -158 -319q-52 -78 -86 -98q-13 0 -37.5 17t-24.5 27q54 37 89 80q49 57 76 119q-43 103 -86 217 q-10 27 -29.5 80t-28.5 75q-1 3 -5 3l-49 3q0 31 1 44h86h121q0 -30 -1 -44l-70 -3q15 -51 45 -138q30 -86 57 -159h5q30 72 55 140q19 52 51 152q2 5 -3 5l-61 2q0 31 1 44h101q14 0 40.5 0.5t37.5 0.5q0 -29 -1 -44z"/>
<glyph glyph-name="thorn" horiz-adv-x="513" unicode="þ" d="M390 215v1q0 62 -21 102q-28 51 -89 51t-125 -47q-2 -150 -2 -233q0 -17 33 -34t68 -17q56 0 87 33q49 52 49 144zM152 377l5 -1q64 35 92 44.5t61 9.5q71 0 116.5 -58.5t45.5 -128.5q0 -74 -23 -126q-25 -58 -74 -93q-45 -34 -117 -34q-54 0 -102 23l-5 -2q1 -56 1 -192 l91 -2q0 -15 -2 -43q-85 0 -127 -1q-70 0 -100 -1q0 29 1 43l58 3q4 2 4 6v739l-77 1q0 29 1 42q16 2 53 9t66 12t33 5q2 0 2 -3q0 -57 -3 -252z"/>
<glyph glyph-name="OE" horiz-adv-x="975" unicode="Œ" d="M136 330v-1q0 -146 67 -220q63 -69 155 -69q63 0 112.5 33t76.5 96v320q-23 56 -70 88.5t-115 32.5q-88 0 -143 -55q-83 -83 -83 -225zM50 319v1q0 91 38 167t102 121q74 52 176 52q60 0 108 -23.5t74 -58.5v72q9 0 26.5 -0.5t24.5 -0.5q15 0 108 0.5t104 0.5h87 q6 -98 8 -151l-20 -3q-21 -3 -32 -4l-16 86q-3 17 -25 19q-48 4 -157 4h-29l-1 -243q27 0 77.5 0.5t77.5 1.5q24 0 25 20l5 47h17h34q-1 -15 -1.5 -47t-0.5 -48v-93q-11 -1 -36 -1h-15l-4 51q-1 12 -6 16t-19 4q-32 1 -104 1h-50l-1 -242q0 -13 8.5 -16.5t47.5 -3.5 q126 0 154 7q13 3 19 20l32 90q22 -2 52 -10q-14 -66 -35 -156q-49 1 -295 1h-60v85q-68 -95 -209 -95q-116 0 -198 79q-91 91 -91 250z"/>
<glyph glyph-name="oe" horiz-adv-x="781" unicode="œ" d="M574 383h-1q-43 0 -70 -30q-40 -43 -42 -98q110 0 194 3q13 0 13 11q0 52 -27 84q-25 30 -67 30zM253 34h1q49 0 80 31q45 49 45 148q0 89 -38 135q-33 38 -84 38q-54 0 -87 -37q-45 -48 -45 -137q0 -98 47 -145q30 -33 81 -33zM414 80h-5q-23 -40 -65.5 -65t-100.5 -25 q-86 0 -135 46q-67 64 -67 165q0 117 83 184q58 45 139 45q56 0 97 -28t58 -70h5q25 47 68 72.5t97 25.5q78 0 118 -51q39 -47 39 -131q-4 -10 -15.5 -22.5t-19.5 -13.5q-92 -3 -253 -3v-7q0 -78 32 -116q35 -41 104 -41q54 0 132 32q6 -17 12 -45q-87 -42 -160 -42 q-123 0 -163 90z"/>
<glyph glyph-name="Scaron" horiz-adv-x="492" unicode="Š" d="M273 771q9 6 50 33t60 40q13 -12 27 -31q-12 -10 -36.5 -30.5t-45.5 -38t-38 -31.5q-24 0 -35 1q-69 58 -118 97q23 27 26 31q13 -8 51.5 -33t58.5 -38zM98 180l18 -104q1 -8 8 -12q34 -23 93 -23q77 0 114 40q32 32 32 80q0 55 -26 79.5t-98 57.5q-13 6 -20 9 q-74 34 -112.5 73t-38.5 100q0 40 18.5 75.5t46.5 57.5q58 47 163 47q81 0 122 -22q8 -78 11 -148q-7 -1 -25.5 -3.5t-29.5 -3.5l-17 94q-3 9 -6 12q-24 20 -75 20q-60 0 -94 -30q-38 -33 -38 -83q0 -49 26 -71.5t111 -60.5q82 -36 120 -75.5t38 -103.5q0 -87 -58 -139 q-62 -56 -180 -56q-89 0 -147 24q-2 27 -6.5 80.5t-6.5 77.5q47 7 57 8z"/>
<glyph glyph-name="scaron" horiz-adv-x="401" unicode="š" d="M212 542q15 15 47.5 47t46.5 45q13 -9 29 -27q-17 -19 -54 -63t-51 -60q-3 0 -9 -0.5t-9 -0.5t-9.5 0.5t-9.5 0.5q-62 76 -104 124q15 15 30 26q14 -14 46.5 -46t46.5 -46zM88 134l13 -65q3 -8 9 -12q27 -21 69 -21q51 0 75 16q28 21 28 56q0 33 -18.5 46t-79.5 32 q-10 3 -15 5q-61 18 -87 44t-26 68q0 66 63 101q46 26 119 26q68 0 98 -18q8 -69 11 -110q-4 0 -22.5 -3t-28.5 -4l-14 63q-1 7 -7 11q-20 15 -59 15q-38 0 -62 -19q-25 -18 -25 -52q0 -29 18 -41t81 -31q65 -19 96.5 -43.5t31.5 -76.5q0 -68 -64 -106q-40 -25 -121 -25 q-74 0 -120 19q-2 19 -7 57.5t-8 58.5q24 6 52 9z"/>
<glyph glyph-name="Ydieresis" horiz-adv-x="562" unicode="Ÿ" d="M396 806h1q20 0 31 -13.5t11 -30.5q0 -18 -12 -30.5t-29 -12.5q-21 0 -33.5 13t-12.5 29q0 17 11 31t33 14zM227 806h1q20 0 30.5 -14t10.5 -31q0 -16 -11.5 -29t-30.5 -13t-31.5 12t-12.5 31q0 17 11.5 30.5t32.5 13.5zM160 47l79 2q5 0 5 6v196q-20 35 -193 347 q-1 0 -2.5 1.5t-2.5 1.5l-52 3q0 32 1 46h98q26 0 73.5 0.5t67.5 0.5q0 -32 -1 -47l-90 -3q37 -73 152 -293h5q108 199 148 289q2 4 -3 4l-81 2q0 32 1 47h124q14 0 44 0.5t42 0.5q0 -32 -1 -46l-51 -4q-33 -56 -102.5 -178t-97.5 -171l-1 -202l92 -3q0 -17 -2 -47 q-17 0 -60.5 0.5t-65.5 0.5q-21 0 -64 -0.5t-63 -0.5q0 31 1 47z"/>
<glyph glyph-name="circumflex" horiz-adv-x="333" unicode="ˆ" d="M167 562q-14 -14 -93 -92q-9 8 -30 26q59 71 105 124q12 1 37 1q14 -16 50.5 -60t53.5 -64q-19 -19 -29 -27q-63 63 -94 92z"/>
<glyph glyph-name="tilde" horiz-adv-x="333" unicode="˜" d="M113 596h1q8 0 15.5 -1.5t15 -5.5t12 -6.5t13 -8.5t10.5 -8q4 -3 11.5 -8.5t11 -8t10 -5t13.5 -2.5q15 0 21.5 12.5t9.5 38.5h12h24q-4 -102 -67 -102q-23 0 -64 29q-3 2 -12.5 9t-13.5 9.5t-11 5t-14 2.5q-24 0 -34 -49h-12h-25q8 99 73 99z"/>
<glyph glyph-name="pi" horiz-adv-x="543" unicode="π" d="M502 410h-66v-273q0 -91 13 -137h-70q-15 30 -15 130v280h-164q-4 -102 -24 -228t-44 -182h-69q26 67 45 187.5t22 222.5q-19 0 -51 -2q-21 -1 -46 -7l-10 44q40 22 127 22h360z"/>
<glyph glyph-name="endash" horiz-adv-x="500" unicode="–" d="M252 213h-1h-219q0 36 1 53h219q90 0 216 2q0 -23 -2 -55h-214z"/>
<glyph glyph-name="emdash" horiz-adv-x="1000" unicode="—" d="M480 213h-1h-447q0 36 1 53q298 0 446 1q332 0 489 1q0 -23 -2 -55h-486z"/>
<glyph glyph-name="quoteleft" horiz-adv-x="202" unicode="‘" d="M113 471h-1q-24 0 -44.5 23.5t-20.5 56.5q0 50 31 93.5t77 67.5q17 -17 27 -34q-63 -40 -63 -90q0 -31 45 -44q1 -5 1 -15q0 -26 -14.5 -42t-37.5 -16z"/>
<glyph glyph-name="quotesinglbase" horiz-adv-x="237" unicode="‚" d="M112 100h1q24 0 44.5 -23.5t20.5 -56.5q0 -50 -31 -94t-78 -67q-11 14 -26 34q63 42 63 91q0 32 -45 44q-1 5 -1 14q0 25 14.5 41.5t37.5 16.5z"/>
<glyph glyph-name="quotedblleft" horiz-adv-x="357" unicode="“" d="M271 485h-1q-23 0 -43 22.5t-20 53.5q0 47 29.5 88.5t74.5 63.5q10 -10 26 -32q-61 -41 -61 -86q0 -28 45 -41q1 -4 1 -12q0 -25 -14.5 -41t-36.5 -16zM111 485h-1q-24 0 -43.5 22.5t-19.5 53.5q0 47 29.5 88.5t74.5 63.5q15 -15 26 -32q-61 -41 -61 -86q0 -29 46 -41 q1 -4 1 -12q0 -26 -15 -41.5t-37 -15.5z"/>
<glyph glyph-name="quotedblright" horiz-adv-x="357" unicode="”" d="M247 699h1q23 0 43 -22.5t20 -53.5q0 -47 -30 -89t-74 -64q-10 12 -26 33q61 39 61 86q0 29 -46 43v9q0 27 14 42.5t37 15.5zM87 699h1q23 0 43 -22.5t20 -53.5q0 -47 -30 -89t-74 -64q-10 12 -26 33q61 39 61 86q0 30 -45 43q0 2 -0.5 5.5t-0.5 5.5q0 26 14.5 41 t36.5 15z"/>
<glyph glyph-name="dagger" horiz-adv-x="454" unicode="†" d="M256 654h1q2 0 2 -4q-1 -75 -3 -219q26 0 79 0.5t80 0.5q0 -21 -2 -55h-158q-5 -295 -8 -520q-20 -6 -53 -9q-1 87 -4 275t-4 254h-147q0 19 2 53q23 0 69 0.5t67 0.5q8 0 8 7q0 79 -2 191q13 8 39 16.5t34 8.5z"/>
<glyph glyph-name="daggerdbl" horiz-adv-x="454" unicode="‡" d="M257 654h1q1 -2 0 -4q-1 -75 -3 -219q26 0 79.5 0.5t81.5 0.5v-14q0 -17 -2 -41h-107h-52q0 -26 -0.5 -73.5t-1 -86.5t-1.5 -73h163q0 -26 -3 -52q-23 0 -79.5 -0.5t-81.5 -0.5q-3 -223 -3 -234q-6 -2 -54 -9q-2 169 -4 242q-20 0 -71 -0.5t-80 -0.5q0 29 3 56 q24 0 71.5 -0.5t69.5 -0.5q5 0 5 7q0 88 -2 226h-148q0 2 3 53q23 0 68.5 0.5t67.5 0.5q8 0 8 7q-2 136 -3 194q10 7 37.5 14.5t37.5 7.5z"/>
<glyph glyph-name="ellipsis" horiz-adv-x="794" unicode="…" d="M664 102h1q27 0 40 -17.5t13 -38.5q0 -22 -15 -38.5t-39 -16.5q-25 0 -40.5 15.5t-15.5 38.5q0 22 15 39.5t41 17.5zM399 102h1q27 0 40 -17.5t13 -38.5q0 -22 -15 -38.5t-39 -16.5q-25 0 -40.5 15.5t-15.5 38.5q0 22 15 39.5t41 17.5zM134 102h1q27 0 40 -17.5t13 -38.5 q0 -22 -15 -38.5t-39 -16.5q-25 0 -40.5 15.5t-15.5 38.5q0 22 15 39.5t41 17.5z"/>
<glyph glyph-name="perthousand" horiz-adv-x="1113" unicode="‰" d="M927 283h-1q-34 0 -54 -23q-32 -37 -32 -108q0 -68 29 -99q22 -23 57 -23q30 0 50 19q33 30 33 109q0 68 -29 102q-18 23 -53 23zM573 283h-1q-31 0 -54 -23q-32 -36 -32 -109q0 -71 31 -100q21 -21 55 -21q31 0 51 19q32 29 32 106q0 71 -29 105q-20 23 -53 23zM930 323 h1q58 0 94 -34q48 -46 48 -127q0 -85 -49 -132q-40 -40 -100 -40q-55 0 -91 27q-25 19 -41 55t-16 78q0 85 56 136q42 37 98 37zM577 323h1q57 0 91 -32q50 -47 50 -129q0 -85 -50 -133q-39 -39 -99 -39q-54 0 -91 28q-26 19 -41.5 53.5t-15.5 77.5q0 87 57 137q40 37 98 37 zM193 612h-1q-33 0 -55 -22q-32 -34 -32 -104q0 -76 32 -105q24 -22 54 -22q28 0 49 17q35 31 35 113q0 67 -30 102q-17 21 -52 21zM511 616l-3 3q-32 0 -106.5 -1.5t-112.5 -2.5q21 -15 35.5 -48t14.5 -72q0 -84 -51 -137q-39 -39 -100 -39q-53 0 -89 29q-58 45 -58 137 q0 79 53 129q40 37 106 39h18q232 0 342 11q12 -15 21 -30q-29 -51 -176 -317q-97 -179 -187 -343q-24 9 -44 20q81 145 190 347q26 48 147 275z"/>
<glyph glyph-name="guilsinglleft" horiz-adv-x="256" unicode="‹" d="M118 223q53 -81 99 -144q-14 -14 -32 -27q-69 76 -141 150q-1 12 -1 37q60 62 141 151q20 -14 32 -28q-78 -109 -98 -139z"/>
<glyph glyph-name="guilsinglright" horiz-adv-x="256" unicode="›" d="M139 222q-24 36 -99 140q15 15 33 28q47 -52 141 -150q0 -26 -1 -38q-79 -82 -140 -150q-15 11 -32 28q40 55 98 142z"/>
<glyph glyph-name="fraction" horiz-adv-x="433" unicode="⁄" d="M56 -15q-23 9 -40 18q68 119 166 298q70 129 193 358q35 -13 44 -17q-25 -45 -199 -363q-61 -111 -164 -294z"/>
<glyph glyph-name="Euro" d="M2 343v42h52q27 116 119 194q89 75 212 75q70 0 114 -22q4 -49 10 -167q-47 -6 -56 -6l-16 107q-1 11 -8 15q-28 18 -69 18q-37 0 -76.5 -17t-68.5 -47q-61 -61 -80 -150h251v-42h-257q-2 -22 -2 -35q0 -23 1 -34h258v-43l-252 1q10 -67 54 -117q25 -28 68 -48t87 -20 q69 0 161 42q10 -31 12 -51q-43 -19 -60.5 -26t-53 -14.5t-73.5 -7.5q-104 0 -181 60q-84 66 -100 182h-46v42h41v19q0 29 4 50h-45z" unicode="€"/>
<glyph glyph-name="trademark" horiz-adv-x="620" unicode="™" d="M267 430l32 1q1 60 1 188h-32v30h95q8 -25 28.5 -89t30.5 -93h5q6 17 19.5 57.5t24.5 74.5t16 50h93q0 -19 -1 -30h-33q1 -61 1 -188l33 -1v-31q-8 0 -26 0.5t-28 0.5q-9 0 -24 -0.5t-21 -0.5q0 20 1 31l23 1q2 102 2 156h-5q-25 -74 -65 -176h-32q-34 87 -63 179h-5 q1 -48 1 -159l24 -1v-31q-6 0 -21.5 0.5t-23.5 0.5q-9 0 -25.5 -0.5t-24.5 -0.5v31zM74 430l36 1v188q-31 0 -46 -3l-8 -49q-6 1 -17 1t-16 1q2 75 3 81q37 -1 112 -1q19 0 53 0.5t51 0.5q2 -53 4 -81q-10 0 -34 -2l-7 49q-18 3 -47 3v-188h38v-32q-8 0 -28 0.5t-32 0.5 q-11 0 -32 -0.5t-30 -0.5v31z"/>
<glyph glyph-name="partialdiff" horiz-adv-x="523" unicode="∂" d="M255 373h-1q-61 0 -104 -50.5t-43 -124.5q0 -66 33 -105t88 -39h1q66 0 113 64.5t58 156.5q-16 41 -55 69.5t-90 28.5zM90 610l-23 48q74 50 162 50q104 0 177.5 -90t73.5 -250q0 -177 -75.5 -275t-182.5 -98q-91 0 -139.5 59t-48.5 143q0 98 62 165.5t150 67.5 q55 0 100.5 -27t59.5 -57q1 -1 2 -1t1 1q1 10 1 34q0 128 -56 198.5t-130 70.5q-79 0 -134 -39z"/>
<glyph glyph-name="product" horiz-adv-x="611" unicode="∏" d="M501 587v-652h-72v652h-246v-652h-72v652h-89v62h568v-62h-89z"/>
<glyph glyph-name="summation" horiz-adv-x="509" unicode="∑" d="M19 -65v46l247 309l-234 308v51h441v-63h-342v-4l220 -289l-231 -291v-4h385v-63h-486z"/>
<glyph glyph-name="minus" d="M460 208h-398q0 19 2 53q64 1 201.5 2t196.5 1v-15q0 -17 -2 -41z" unicode="−"/>
<glyph glyph-name="radical" horiz-adv-x="543" unicode="√" d="M558 808l-223 -896h-57l-155 416l-71 -30l-18 44l129 54l123 -344q13 -40 16 -52h1q9 44 11 52l183 756h61z"/>
<glyph glyph-name="infinity" horiz-adv-x="715" unicode="∞" d="M179 173h1q26 0 55 16t43.5 30t42.5 42q-11 10 -33 32q-58 56 -106 56q-37 0 -62.5 -26t-25.5 -62q0 -38 23.5 -63t59.5 -25h2zM533 173h1q37 0 62 26t25 62q0 38 -24 63t-61 25q-26 0 -54.5 -15.5t-44.5 -30.5t-42 -42q5 -4 22.5 -22t26.5 -25.5t25 -19t31.5 -16.5 t32.5 -5zM532 118h-1q-31 0 -63.5 16.5t-52 33t-49.5 46.5l-9 9q-62 -61 -93 -79q-43 -26 -89 -26q-61 0 -100 40t-39 103q0 59 42.5 101t104.5 42q11 0 22 -2t20 -4t20 -8t17.5 -9t18 -12t16 -12.5t16.5 -14.5t15 -13.5t15.5 -15l14.5 -14.5q40 39 55 52.5t52.5 33 t74.5 19.5q61 0 100 -40t39 -103q0 -59 -42 -101t-105 -42z"/>
<glyph glyph-name="approxequal" d="M440 205l31 -35q-51 -59 -118 -59q-27 0 -54 9q-9 3 -24 9.5t-18 7.5q-25 11 -39 16q-19 8 -45 8q-43 0 -87 -44l-30 36q52 58 118 58q27 0 54 -9q21 -8 43 -18q5 -2 17 -7t19 -8q23 -9 46 -9q46 0 87 45zM436 353l32 -35q-51 -59 -118 -59q-24 0 -56 10q-9 3 -24 9 t-17 7q-28 13 -38 16q-19 8 -45 8q-45 0 -87 -44l-30 36q54 58 118 58q23 0 55 -10q8 -3 22 -9t19 -8t17 -7t20 -8q26 -8 46 -8q42 0 86 44z" unicode="≈"/>
<glyph glyph-name="notequal" d="M312 283l-35 -95h186q0 -17 -2 -53q-31 0 -99 -0.5t-105 -0.5q-15 -41 -35 -97q-38 15 -49 20q9 24 27 76q-94 0 -137 -1v15q0 17 2 41h155q12 31 34 95h-191q0 19 2 53q31 0 101 0.5t107 0.5q7 19 18.5 52.5t15.5 44.5q18 -6 51 -21q-15 -45 -27 -75q24 0 68 0.5t64 0.5 v-15q0 -17 -2 -41h-149z" unicode="≠"/>
<glyph glyph-name="lessequal" d="M65 -3q0 51 3 55h396q0 -18 -2 -52q-289 0 -397 -3zM173 344q15 -14 121.5 -102.5t111.5 -92.5q-20 -29 -31 -40q-23 18 -120.5 93.5t-150.5 116.5q0 8 -0.5 24t-0.5 23q104 75 274 201q17 -21 30 -42q-117 -87 -234 -181z" unicode="≤"/>
<glyph glyph-name="greaterequal" d="M60 -2q0 50 3 54q272 0 396 1q0 -19 -2 -53q-323 0 -397 -2zM345 337q-54 45 -234 189q14 24 30 41q114 -85 273 -205v-47q-94 -71 -272 -205q-12 12 -32 40q219 174 235 187z" unicode="≥"/>
<glyph glyph-name="lozenge" horiz-adv-x="504" unicode="◊" d="M392 319l-131 269q-8 16 -9 20h-2q0 -2 -2 -5t-4 -7.5t-3 -7.5l-129 -266l132 -270q4 -8 8 -20h2q2 6 10 20zM460 320l-177 -349h-61l-177 349l177 350h61z"/>
</font>
</defs>
</svg>
