<?xml version="1.0" standalone="no"?>
<!DOCTYPE svg PUBLIC "-//W3C//DTD SVG 1.1//EN" "http://www.w3.org/Graphics/SVG/1.1/DTD/svg11.dtd" >
<svg xmlns="http://www.w3.org/2000/svg" xmlns:xlink="http://www.w3.org/1999/xlink" version="1.1">
<metadata></metadata>
<defs>
<font id="chapaza_italicitalic" horiz-adv-x="1036" >
<font-face units-per-em="2048" ascent="1565" descent="-483" />
<missing-glyph horiz-adv-x="600" />
<glyph horiz-adv-x="0" />
<glyph unicode="&#xd;" horiz-adv-x="600" />
<glyph unicode=" "  horiz-adv-x="600" />
<glyph unicode="&#x09;" horiz-adv-x="600" />
<glyph unicode="&#xa0;" horiz-adv-x="600" />
<glyph unicode="!" horiz-adv-x="632" d="M39 132q3 62 47 107q50 45 106 45q57 0 105 -45q51 -45 49 -107q0 -64 -48 -109t-106 -46q-57 0 -105 45q-48 46 -48 110zM219 346h40l328 878q27 69 -6 123q-33 55 -99 55q-63 0 -120 -53q-56 -53 -64 -125z" />
<glyph unicode="&#x22;" horiz-adv-x="490" d="M-13 836h24l173 471q18 40 -2 67q-14 28 -50 28t-66 -29q-30 -27 -37 -66zM321 836h24l174 471q17 40 -4 67q-15 28 -51 28q-32 0 -65 -29q-27 -27 -34 -66z" />
<glyph unicode="#" horiz-adv-x="1095" d="M39 575h330l-86 -573h58l88 573h195l-88 -573h61l86 573h379v55h-370l31 196h339v54h-332l90 576h-61l-88 -576h-196l88 576h-57l-90 -576h-377v-54h370l-31 -196h-339v-55zM438 630l30 196h196l-31 -196h-195z" />
<glyph unicode="$" horiz-adv-x="1171" d="M41 271q-9 -71 28 -134q39 -67 111 -101q96 -48 232 -53l-35 -152h56l35 150q230 9 392 135q162 128 185 341q7 51 -2 92q-6 41 -28 77q-21 36 -48 64q-24 30 -69 59q-44 33 -83 54q-39 25 -99 58q-26 15 -40 21l108 469q108 -3 156 -46q34 -27 31 -81q-3 -32 -17 -57 l-23 -41q-9 -20 -13 -49q-3 -35 21 -62q29 -26 65 -23q54 2 91 41q39 42 43 96q4 73 -37 130q-41 60 -119 96q-76 37 -188 40l35 152h-56l-35 -152q-198 -5 -338 -111q-138 -104 -167 -287q-9 -63 7 -118q16 -51 65 -102q49 -47 103 -86q54 -36 147 -90l-130 -564 q-165 7 -215 67q-18 22 -12 60q6 33 19 57l27 41q15 28 18 49q6 39 -17 64q-21 24 -65 26q-51 3 -93 -36q-39 -37 -46 -94zM445 1124q11 105 89 162q82 60 193 63l-102 -444q-99 54 -143 99q-42 46 -37 120zM481 38l124 539q123 -63 174 -120q53 -55 43 -145 q-12 -126 -108 -197q-92 -71 -233 -77z" />
<glyph unicode="%" horiz-adv-x="1566" d="M39 -152l27 -25l1467 1531l-27 26zM144 851q-33 -141 33 -240q69 -99 196 -99q130 0 247 103q118 103 151 250q36 154 -24 246q-59 93 -203 92q-138 1 -253 -101q-111 -98 -147 -251zM303 633q-21 90 8 218q33 136 94 228q63 93 128 92q70 1 85 -83q20 -84 -14 -224 q-15 -66 -39 -124q-21 -56 -56 -104q-62 -93 -125 -93q-60 3 -81 90zM801 337q-33 -141 32 -241q69 -98 198 -98q130 0 246 102q118 102 151 251q36 153 -24 245q-57 94 -203 93q-140 0 -254 -102q-111 -99 -146 -250zM958 118q-21 90 9 219q33 133 93 225q64 94 130 93 q69 1 85 -83q21 -84 -12 -222q-31 -135 -97 -228q-63 -92 -126 -93q-60 3 -82 89z" />
<glyph unicode="&#x26;" horiz-adv-x="1942" d="M39 371q-5 -87 46 -175q53 -86 143 -138q226 -122 484 -57q260 65 428 275q158 200 238 509q224 -93 353 -50q81 27 131 111q45 74 47 148q3 75 -39 120q-44 52 -131 49q-62 -1 -104 -46q-44 -51 -42 -110q3 -48 48 -51q51 -3 59 59q15 111 87 104q72 -6 72 -100 q1 -135 -146 -134q-117 3 -302 85q-210 90 -342 46q-81 -24 -131 -111q-44 -75 -47 -148q0 -74 39 -120q46 -51 132 -49q64 2 103 46q45 50 42 110q-3 48 -48 51q-50 3 -59 -59q-15 -110 -87 -104t-72 100q0 130 146 134q99 4 245 -64q-93 -310 -243 -442 q-108 -92 -262 -116q-153 -24 -282 8q-127 32 -202 94l575 712q84 108 194 289q94 153 121 257q17 69 -7 108q-27 46 -81 44q-51 -3 -77 -57q-20 -50 4 -122q16 -45 24 -89q10 -36 -17 -93q-63 -141 -197 -315q-147 51 -301 -9q-183 -71 -355 -284q-80 -99 -131 -216 q-50 -113 -56 -200zM207 541q-19 117 44 222q106 165 342 165q89 0 143 -26l-430 -527q-78 51 -99 166z" />
<glyph unicode="'" horiz-adv-x="187" d="M-13 836h23l174 472q18 40 -2 67q-15 28 -51 28q-33 1 -66 -29q-30 -27 -36 -66z" />
<glyph unicode="(" horiz-adv-x="409" d="M54 531q-132 -569 253 -837q-183 291 -58 837q126 549 450 865q-513 -294 -645 -865z" />
<glyph unicode=")" horiz-adv-x="405" d="M20 -306q320 291 446 837q126 549 -53 865q381 -294 248 -865q-131 -569 -641 -837z" />
<glyph unicode="*" horiz-adv-x="782" d="M42 1185q-8 29 9 59t49 44q33 14 51 2q36 -20 69 -47q36 -23 52 -38q18 -13 38 -25q22 -10 27 -16q9 -2 17 1q10 5 10 14q2 9 4 34q4 27 1 50q2 24 -1 72q2 49 2 91q2 24 28 48q30 24 60 24q34 0 49 -24q19 -24 7 -48q-18 -42 -42 -90q-18 -45 -35 -72q-11 -24 -21 -50 q-8 -24 -13 -34q0 -8 3 -14q8 -4 16 -1q10 6 34 15q28 12 50 25q27 15 72 39q48 26 92 47q24 12 49 -3q27 -15 29 -45q4 -30 -18 -58q-20 -27 -47 -31q-54 -4 -141 -13q-34 -3 -49 -4q-15 0 -36 -4l-28 -4q-3 3 -13 -7q-6 -6 -8 -10q3 -3 6 -15q6 -11 12 -17q8 -6 22 -24 q18 -18 28 -31q52 -51 85 -91q18 -15 3 -48q-10 -32 -43 -52q-27 -18 -60 -13q-27 6 -35 30q-6 39 -18 83q-9 46 -13 68q-3 24 -11 45q-3 22 -9 30q-3 9 -13 8q-10 1 -16 -8q-6 -8 -23 -30q-15 -21 -30 -45q-11 -22 -44 -68q-27 -45 -56 -85q-13 -21 -49 -28q-34 -6 -55 12 q-20 19 -18 51q3 34 24 49q39 29 82 61q47 32 68 47q24 15 45 34q22 19 29 25q9 8 6 16q0 8 -9 10q-8 3 -33 6q-21 6 -48 6q-23 3 -71 6q-45 6 -89 10q-24 4 -33 31z" />
<glyph unicode="+" horiz-adv-x="1102" d="M39 703h480l-107 -463h56l107 463h482l12 53h-482l106 461h-56l-106 -461h-480z" />
<glyph unicode="," horiz-adv-x="493" d="M39 -399l12 71q90 21 159 78q76 64 112 139q15 33 23 75q7 40 -23 22q-38 -14 -80 -11q-62 9 -101 60q-39 55 -30 118q10 69 61 104q56 39 119 27q51 -6 87 -37q66 -51 79 -163q15 -108 -32 -217q-51 -119 -157 -191q-105 -68 -229 -75z" />
<glyph unicode="-" horiz-adv-x="617" d="M39 544h509l36 159h-509z" />
<glyph unicode="." horiz-adv-x="379" d="M39 132q2 62 47 107q50 45 106 45q57 0 105 -45q51 -45 49 -107q0 -64 -48 -109t-106 -46q-57 0 -105 45q-48 46 -48 110z" />
<glyph unicode="/" horiz-adv-x="913" d="M39 -185l50 -16l791 1559l-51 14z" />
<glyph unicode="0" horiz-adv-x="1225" d="M58 303q38 -144 143 -228q105 -83 255 -83q114 0 226 50q114 51 210 137q96 87 168 208q75 123 105 258q69 285 -37 456q-102 173 -355 173q-165 0 -316 -89q-147 -90 -253 -238q-102 -147 -144 -326q-40 -171 -2 -318zM293 333q-8 131 28 289q39 162 104 295 q67 135 154 216q88 81 175 81q132 0 170 -157q39 -156 -21 -414q-37 -163 -109 -301q-72 -136 -157 -214q-83 -74 -164 -77q-77 0 -125 75q-46 76 -55 207z" />
<glyph unicode="1" horiz-adv-x="652" d="M39 0h580l9 40q-180 0 -139 183l241 1042h-79q-140 -87 -348 -120l-11 -50h181l-202 -872q-40 -183 -223 -183z" />
<glyph unicode="2" horiz-adv-x="1061" d="M72 0l32 1q87 119 186 122q82 3 212 -58q153 -66 255 -64q274 3 348 331l-32 6q-81 -120 -193 -118q-122 4 -250 67q-120 63 -211 58q-231 -3 -323 -252q10 75 37 138q27 64 63 108q39 45 85 81q49 38 94 59q47 23 103 43q58 21 97 30q43 10 94 22q52 15 76 21 q93 28 144 49q52 22 97 53q78 52 125 124q49 72 64 153q15 70 -9 131q-21 63 -72 96q-111 78 -336 72q-66 -2 -147 -24q-79 -21 -136 -57q-82 -52 -127 -124q-38 -63 -29 -114q9 -50 61 -64q38 -9 80 9q44 21 66 59q16 27 20 54q2 10 2 25q3 17 3 26q3 27 25 62q24 42 74 68 q52 27 103 31q63 6 114 -21q54 -27 63 -91q14 -66 -8 -156q-62 -273 -303 -343q-250 -73 -376 -172q-125 -99 -164 -269q-27 -122 -7 -172z" />
<glyph unicode="3" horiz-adv-x="1015" d="M95 181q13 -69 73 -113q110 -78 290 -77q250 3 428 132q74 53 122 125q52 74 67 155q33 151 -97 250q-72 53 -170 74q90 27 157 66q144 87 168 205q15 64 -6 116q-19 54 -69 88q-114 84 -313 70q-66 -4 -141 -25q-72 -21 -126 -56q-75 -48 -120 -129q-34 -60 -26 -109 q9 -51 54 -65q36 -10 75 10q41 20 62 59q17 30 19 54l7 51q3 28 23 61q24 42 72 69q48 28 94 30q138 9 164 -108q15 -58 -3 -127q-45 -201 -233 -246q-34 -9 -70 -9l-3 -40q12 0 18 -1q132 -15 176 -89q48 -72 10 -219q-33 -144 -118 -237q-81 -90 -208 -99q-165 -9 -186 91 q-5 30 4 61q2 9 5 24q6 17 8 26q8 27 4 53q-6 40 -38 56q-18 10 -44 8q-18 -2 -29 -5q-51 -17 -82 -71q-27 -50 -18 -109z" />
<glyph unicode="4" horiz-adv-x="1100" d="M118 344h557l-28 -123q-39 -181 -223 -181l-9 -40h580l9 40q-182 0 -139 181l28 123h53q160 0 110 -219h40l112 486h-40q-50 -218 -210 -218h-53l201 872h-84l-896 -887zM195 393l638 633l-146 -633h-492z" />
<glyph unicode="5" horiz-adv-x="1025" d="M94 183q12 -68 74 -114q112 -80 289 -78q251 3 431 134q74 53 122 127q52 76 67 157q33 156 -97 254q-68 55 -164 76q-96 22 -187 19q-129 -3 -254 -51l85 368q44 15 95 13q53 -2 98 -10q45 -6 90 -21t92 -23q49 -8 93 -13q46 -7 94 5q50 12 93 37q45 27 95 77 q36 39 67 96l-25 20q-50 -44 -100 -53t-101 -1q-51 10 -106 25q-53 19 -111 28q-58 11 -118 7q-58 -3 -128 -42t-121 -115l30 130h-44l-137 -592q165 73 301 70q129 0 174 -81q48 -80 10 -232q-33 -147 -119 -246q-84 -98 -211 -106q-166 -10 -186 92q-5 28 4 61q3 9 7 25 q6 18 8 27q9 24 3 54q-5 41 -38 56q-16 11 -43 8q-18 -2 -30 -6q-51 -17 -81 -71q-30 -51 -21 -111z" />
<glyph unicode="6" horiz-adv-x="1016" d="M175 586q-71 -272 16 -436q90 -162 309 -159q16 0 46 2q88 9 170 38q84 33 156 86q75 55 131 141q57 88 84 194q39 144 1 245q-36 102 -132 144q-92 45 -226 33q-63 -4 -135 -31t-112 -57q141 406 377 433q62 9 100 -14q40 -21 52 -67q10 -26 2 -58q0 -8 -4 -25 q-2 -15 -5 -25q-4 -30 2 -52q10 -34 46 -46q18 -3 34 -3q7 0 13 2q18 4 30 10q54 27 79 80q24 53 6 107q-17 54 -86 96q-115 70 -298 42q-99 -14 -199 -70q-100 -54 -188 -141q-88 -85 -160 -208q-70 -120 -109 -261zM371 220q-3 82 9 180q16 98 38 184q24 87 48 150 q118 88 244 81q99 -4 126 -114q30 -108 -20 -285q-44 -164 -130 -269q-84 -103 -167 -109q-69 -3 -107 48q-36 54 -41 134z" />
<glyph unicode="7" horiz-adv-x="1074" d="M237 856l40 1q141 233 258 203q99 -24 220 -25q183 1 478 151q-182 -98 -330 -209q-147 -111 -246 -203q-99 -93 -162 -174t-102 -159q-47 -93 -65 -181q-16 -86 -14 -149q4 -60 22 -111h487q-91 50 -145 116q-51 69 -65 139q-11 73 3 154q15 81 57 161q42 81 99 159 q58 81 128 152q70 73 145 136q75 65 142 110q69 46 132 79l-6 29q-129 -50 -260 -11q-175 54 -286 58q-167 8 -344 -175l79 151l-39 1z" />
<glyph unicode="8" horiz-adv-x="1101" d="M122 361q-36 -153 73 -260q111 -105 342 -105q95 0 187 21t176 63q86 42 150 114q66 75 99 169q47 129 1 234q-44 108 -186 174q30 9 62 29q34 21 68 48q36 30 61 70q27 42 37 86q22 90 -22 151q-40 63 -121 89q-80 28 -188 26q-111 0 -216 -37q-105 -35 -187 -110 q-81 -71 -117 -170q-34 -101 -12 -176q26 -75 80 -113q-33 -14 -75 -41q-42 -25 -86 -64q-42 -37 -78 -91q-34 -51 -48 -107zM235 226q-15 63 2 138q19 80 85 152q68 74 149 110q15 -8 61 -23q48 -13 101 -28q53 -13 110 -41q61 -28 100 -62q42 -32 57 -89q18 -53 -5 -122 q-28 -93 -127 -149q-96 -56 -231 -56q-70 0 -133 18q-62 21 -106 55q-45 37 -63 97zM552 967q-9 42 7 96q24 72 105 114q84 45 186 43q116 0 185 -58q72 -57 46 -171q-29 -123 -183 -195q-20 9 -68 18q-45 10 -87 18q-39 9 -84 27q-44 19 -71 43q-24 24 -36 65z" />
<glyph unicode="9" horiz-adv-x="1016" d="M101 154q9 -30 30 -54q22 -21 58 -48q117 -76 294 -58q99 10 196 61q101 51 188 134q90 83 159 203q72 123 107 261q73 276 -14 444q-87 171 -304 176h-46q-87 -2 -169 -30q-80 -27 -154 -80q-72 -51 -129 -138q-56 -84 -86 -192q-37 -143 -1 -248q38 -102 130 -153 q94 -48 225 -44q63 3 133 25q72 25 110 52q-140 -403 -375 -421q-57 -3 -97 19q-38 25 -52 70q-6 29 -3 59q3 10 5 25q4 17 5 26q5 28 -1 52q-9 37 -47 49q-17 6 -33 5q-8 2 -13 -1q-15 -3 -30 -9q-51 -23 -78 -77q-23 -51 -8 -108zM479 569q-29 112 21 288q48 168 130 267 q86 102 166 102q70 3 106 -54q36 -56 38 -139q4 -81 -10 -182q-12 -99 -36 -186q-22 -86 -50 -149q-116 -84 -241 -70q-93 12 -124 123z" />
<glyph unicode=":" horiz-adv-x="545" d="M39 132q2 62 47 107q50 45 106 45q57 0 105 -45q51 -45 49 -107q0 -64 -48 -109t-106 -46q-57 0 -105 45q-48 46 -48 110zM205 836q2 62 47 107q50 45 106 45q57 0 105 -45q51 -45 49 -107q3 -63 -48 -109q-48 -45 -106 -46q-57 0 -105 45q-48 46 -48 110z" />
<glyph unicode=";" horiz-adv-x="578" d="M39 -399l12 71q90 21 159 78q76 64 112 139q15 33 23 75q7 40 -23 22q-38 -14 -80 -11q-62 9 -101 60q-39 55 -30 118q10 69 61 104q56 36 119 27q51 -8 87 -37q69 -55 79 -163q15 -108 -32 -217q-51 -119 -157 -191q-105 -68 -229 -75zM238 836q0 62 47 107 q49 45 106 45t105 -45q51 -45 49 -107q3 -63 -48 -109q-48 -45 -106 -46q-57 0 -105 45q-48 46 -48 110z" />
<glyph unicode="&#x3c;" horiz-adv-x="906" d="M39 701l656 -385l26 113l-504 289l639 297l17 73z" />
<glyph unicode="=" horiz-adv-x="1163" d="M39 577h1021l12 53h-1021zM96 825h1021l13 56h-1021z" />
<glyph unicode="&#x3e;" horiz-adv-x="906" d="M39 316l834 387l-656 385l-26 -113l504 -289l-639 -297z" />
<glyph unicode="?" horiz-adv-x="816" d="M39 132q2 62 47 107q50 45 106 45q57 0 105 -45q51 -45 49 -107q0 -64 -48 -109t-106 -46q-57 0 -105 45q-48 46 -48 110zM53 1116q6 -36 44 -45q39 -9 78 18q24 21 39 70q10 30 13 60q9 42 17 62q15 25 41 40q73 41 151 35q51 -2 75 -23q51 -37 60 -95q9 -48 5 -96 q-3 -46 -18 -91q-28 -93 -92 -175q-66 -90 -142 -168q-72 -75 -111 -117q-35 -39 -47 -84q-14 -57 24 -103q39 -42 113 -57l8 56q-47 6 -62 39q-13 32 -4 64q13 32 46 64q37 34 130 104q96 72 162 126q145 117 178 219q27 63 21 136q-4 75 -44 125q-54 72 -156 101 q-58 17 -134 19q-78 3 -144 -18q-75 -21 -137 -66q-59 -46 -95 -110q-24 -48 -19 -90z" />
<glyph unicode="@" horiz-adv-x="2054" d="M73 442q-102 -372 99 -625q208 -255 604 -256q261 3 515 119q111 51 203 117l-39 49q-84 -62 -186 -110q-228 -111 -459 -111q-351 -1 -529 236q-174 238 -81 583q64 230 220 422q160 195 394 309q234 115 488 115q388 0 547 -221q140 -194 29 -509q-74 -220 -227 -349 q-150 -127 -300 -148q-93 -13 -129 13q-36 28 9 109l408 788q-76 -72 -163 -105q-80 -27 -122 15q-62 95 -173 95q-159 0 -346 -142q-183 -140 -301 -369q-116 -228 -83 -357q34 -122 202 -127q75 1 141 22q69 23 117 65q51 42 72 68q25 26 43 52q-24 -94 15 -148 q42 -51 123 -60q84 -6 170 7q88 15 162 43q36 14 74 34q42 21 98 65q60 45 110 101q54 57 104 141q56 87 88 187q120 336 -45 554q-183 244 -621 244q-288 0 -550 -125q-261 -126 -439 -333q-170 -202 -242 -458zM647 161q4 121 103 309q100 190 230 321q112 111 199 120 q28 3 37 -1q52 -8 68 -65q20 -66 -37 -177l-217 -400q-60 -86 -141 -155q-77 -63 -143 -70q-99 -5 -99 118z" />
<glyph unicode="A" horiz-adv-x="1501" d="M60 0h354l10 42q-103 0 -103 60q0 35 34 89l166 268h494l48 -268q4 -21 4 -40q0 -109 -136 -109h-4l-10 -42h574l10 42q-135 4 -167 149l-226 1191h-65l-733 -1191q-91 -149 -233 -149h-7zM546 499q26 39 359 581q93 -518 103 -581h-462z" />
<glyph unicode="B" horiz-adv-x="1356" d="M59 0h867q153 0 291 108q137 106 170 258q11 46 11 87q0 98 -62 172q-88 109 -241 109h-74q153 10 275 102q124 94 153 223q9 37 9 71q0 90 -63 158q-87 94 -242 94h-775l-9 -38q142 -2 142 -116q0 -26 -7 -58l-222 -960q-38 -172 -210 -172h-4zM522 189l119 519h296 q129 0 179 -95q32 -57 32 -134q0 -49 -13 -106q-35 -155 -170 -245q-133 -90 -280 -90q-102 0 -141 45q-26 32 -26 73q0 16 4 33zM651 748l136 592h198q129 0 183 -85q37 -52 37 -123q0 -41 -12 -88q-29 -126 -123 -212q-92 -84 -221 -84h-198z" />
<glyph unicode="C" horiz-adv-x="1484" d="M57 677q-18 -80 -18 -156q0 -102 33 -196q63 -164 204 -254q150 -92 385 -92q395 1 602 313l-34 10q-204 -270 -544 -272q-382 0 -382 385q0 114 34 262q65 277 239 471q182 202 389 203h2q370 0 376 -375l39 3l69 404h-39q-15 -56 -73 -56q-29 0 -69 14q-166 61 -286 61 q-224 0 -423 -100t-329 -262q-128 -164 -175 -363z" />
<glyph unicode="D" horiz-adv-x="1610" d="M59 0h817q282 0 523 203q243 205 300 489q16 69 16 135q0 68 -17 133q-27 124 -105 218q-75 94 -202 150q-123 54 -278 54h-735l-9 -38q142 -2 142 -116q0 -26 -7 -58l-222 -960q-38 -168 -214 -172zM540 269l247 1071h170q127 0 238 -49q114 -48 174 -141 q91 -133 91 -306q0 -73 -16 -152q-32 -156 -107 -286q-67 -124 -172 -212q-105 -87 -202 -120q-93 -30 -205 -30q-226 0 -226 158q0 31 8 67z" />
<glyph unicode="E" horiz-adv-x="1498" d="M60 0h1206l115 394l-34 3q-102 -357 -544 -360q-269 1 -269 172q0 28 7 60l105 453h178q165 0 165 -136q0 -34 -10 -75h38l106 461h-38q-47 -207 -251 -207h-178l132 575h351q273 0 273 -219q0 -34 -7 -74l38 6l55 329h-1119l-9 -38h6q137 0 137 -113q0 -27 -8 -61 l-222 -960q-37 -168 -214 -172z" />
<glyph unicode="F" horiz-adv-x="1416" d="M20 0h595l8 33h-11q-133 0 -133 115q0 28 8 62l119 512h178q158 0 158 -156q0 -44 -13 -100h38l127 551h-38q-60 -252 -262 -252h-178l132 575h308q273 0 273 -221q0 -34 -6 -72l38 6l55 329h-1077l-9 -38q143 -2 143 -115q0 -27 -8 -59l-222 -960q-37 -172 -210 -172h-4 z" />
<glyph unicode="G" horiz-adv-x="1493" d="M60 678q-21 -91 -21 -173q0 -190 113 -332q154 -195 459 -195h18q179 6 337 64q141 51 261 138l37 163q45 180 240 219l9 42h-630l-9 -42q147 -34 147 -158q0 -28 -8 -61l-11 -49q-28 -122 -127 -193q-93 -71 -230 -71h-7q-150 0 -231 89q-83 90 -95 228q-3 32 -3 66 q0 122 34 265q65 276 239 472q180 201 388 201q375 0 381 -375l36 3l71 403h-37q-17 -56 -75 -56q-29 0 -70 15q-165 62 -282 62h-4q-228 -1 -425 -100t-327 -264q-134 -169 -178 -361z" />
<glyph unicode="H" horiz-adv-x="1572" d="M20 0h593l9 38h-6q-135 0 -135 116q0 26 7 58l113 488h686l-113 -488q-39 -174 -208 -174h-6l-9 -38h592l9 38h-6q-134 0 -133 114q0 27 7 60l221 957q41 175 205 175h7l9 38h-592l-9 -38q141 0 141 -116q0 -27 -7 -59l-99 -427h-686l99 427q42 175 207 175h7l9 38h-593 l-9 -38q141 0 141 -116q0 -27 -7 -59l-221 -957q-38 -174 -208 -174h-6z" />
<glyph unicode="I" horiz-adv-x="932" d="M20 0h593l9 38q-141 0 -141 117q0 26 7 57l221 957q43 175 214 175l9 38h-593l-9 -38q141 0 141 -116q0 -27 -7 -59l-221 -957q-39 -174 -214 -174z" />
<glyph unicode="J" horiz-adv-x="1328" d="M61 -238q-1 -7 -1 -13q0 -46 55 -84q79 -51 217 -52q180 0 327 111q141 105 179 279l269 1166q41 175 212 175l9 38h-591l-9 -38q141 0 141 -115q0 -27 -8 -60l-307 -1330q-33 -144 -159 -171q-22 -3 -39 -3q-41 0 -58 15q-6 6 -34 82q-15 45 -36 60q-21 18 -55 21 q-36 0 -69 -21t-43 -60z" />
<glyph unicode="K" horiz-adv-x="1476" d="M20 0h593l10 37q-142 1 -142 117q0 26 7 58l93 401l98 82l228 -452q48 -93 48 -172q0 -37 -11 -71h502l9 37q-141 0 -241 206l-308 646l324 278q192 159 386 177l9 38h-421l-9 -38q82 -1 82 -40q0 -44 -109 -137l-574 -497l115 499q43 175 214 175l9 38h-593l-9 -38 q143 0 143 -114q0 -27 -8 -61l-221 -957q-38 -174 -215 -175z" />
<glyph unicode="L" horiz-adv-x="1362" d="M20 0h1207l115 395l-36 2q-48 -131 -141 -215q-89 -81 -188 -114q-98 -30 -215 -30q-269 0 -269 168q0 29 8 63l208 901q43 174 214 174l9 38h-593l-9 -38q141 0 141 -115q0 -26 -7 -59l-222 -960q-39 -174 -213 -175z" />
<glyph unicode="M" horiz-adv-x="2130" d="M20 0h392l7 31q-139 2 -139 120q0 27 8 61l235 1020l276 -1230h70l795 1230l-235 -1020q-39 -174 -217 -175l-9 -37h594l9 37q-143 1 -143 118q0 26 7 57l221 958q40 174 216 174l9 38l-401 1l-700 -1090l-217 997q-5 27 -5 54q0 20 3 39l-457 -1l-9 -38q143 0 143 -114 q0 -27 -8 -60l-221 -958q-39 -176 -216 -179z" />
<glyph unicode="N" horiz-adv-x="1769" d="M60 0h391l8 35q-139 0 -139 117q0 27 7 60l235 1019l641 -1231h74l270 1170q42 172 209 172h4l9 40h-393l-9 -38q144 0 144 -115q0 -27 -8 -59l-172 -745q-308 585 -437 866q-28 50 -28 81q0 6 1 10h-488l-9 -38q139 0 139 -115q0 -26 -7 -59l-221 -958 q-39 -174 -212 -175z" />
<glyph unicode="O" horiz-adv-x="1573" d="M79 674q-19 -86 -19 -165q0 -189 112 -331q160 -201 467 -204q199 0 393 95q192 94 330 262q138 165 185 371q26 109 25 204q0 182 -95 306q-145 194 -481 194q-220 0 -416 -101q-195 -99 -327 -265q-128 -162 -174 -366zM355 676q45 186 136 339q93 153 221 245 q129 93 262 93h3q207 0 286 -180q41 -94 41 -221q0 -113 -32 -252q-44 -190 -143 -344q-99 -156 -226 -243t-250 -87q-186 0 -273 188q-51 111 -51 249q0 100 26 213z" />
<glyph unicode="P" horiz-adv-x="1426" d="M20 0h592l9 38q-141 0 -141 116q0 26 7 58l88 382h339q171 0 317 115q148 117 184 278q11 48 12 92q0 106 -68 187q-92 116 -263 116h-757l-9 -38h11q131 0 132 -110q0 -28 -9 -64l-221 -958q-37 -174 -214 -174zM585 636l162 702h162q139 0 211 -100q52 -69 52 -159 q0 -43 -12 -90q-32 -147 -155 -250q-122 -103 -258 -103h-162z" />
<glyph unicode="Q" horiz-adv-x="1586" d="M58 681q-19 -85 -19 -164q0 -100 31 -191q58 -156 203 -253q145 -93 343 -93q28 0 80 4q45 -52 120 -103q58 -33 103 -43q21 -2 41 -2q46 0 92 12q75 20 150 83q51 39 99 102l-17 14q-77 -60 -144 -60q-50 0 -93 33l-54 47q199 95 343 265q147 171 192 375q25 105 25 197 q0 183 -98 312q-141 193 -469 193h-10q-220 -1 -418 -101q-192 -99 -324 -264q-130 -165 -176 -363zM319 353q-9 56 -9 116q0 101 25 212q45 183 138 337q93 153 219 246q129 94 267 94q209 0 283 -180q40 -95 40 -221q0 -114 -32 -252q-39 -177 -132 -324 q-94 -147 -208 -241q-93 91 -221 91h-13q-134 -3 -251 -110q-81 87 -106 232zM453 93q33 24 71 24h2q69 0 126 -86h-18q-100 0 -181 62z" />
<glyph unicode="R" horiz-adv-x="1418" d="M20 0h594l9 38q-142 0 -142 115q0 26 7 57l106 459h39h5q95 0 141 -39q56 -39 71 -108l59 -271q23 -96 23 -166q0 -49 -11 -85h477l9 38q-160 3 -229 246l-71 260q-33 126 -152 131q160 22 280 120q123 102 153 231q9 38 8 72q0 102 -74 181q-101 104 -273 104h-3h-707 l-9 -39q143 0 143 -112q0 -28 -9 -62l-222 -960q-39 -172 -213 -172zM604 711l145 628h91h10q154 0 232 -90q58 -64 58 -151q0 -35 -9 -74q-29 -132 -152 -223q-122 -90 -284 -90h-91z" />
<glyph unicode="S" horiz-adv-x="1255" d="M39 0h34q21 62 50 86q23 20 44 20q9 0 17 -4q28 -10 73 -40q120 -76 249 -82q16 -1 33 -1q208 0 367 120q166 127 217 307q18 67 18 122q0 52 -16 93q-33 81 -120 141q-60 40 -231 108q-176 70 -216 121q-32 40 -31 91q-1 63 31 117q28 60 79 93q87 63 201 63h18 q150 0 214 -111q54 -88 56 -250l37 4l59 384h-38q-12 -50 -59 -50q-33 0 -83 24q-96 46 -203 46q-203 0 -362 -112q-135 -106 -174 -265q-8 -35 -8 -69q0 -178 215 -301q45 -25 137 -65q93 -38 156 -78q65 -42 86 -83q20 -37 20 -79q0 -14 -2 -28q-11 -72 -45 -126 q-36 -63 -102 -103q-96 -58 -224 -59q-10 0 -21 1q-175 9 -265 119q-76 99 -79 270h-34z" />
<glyph unicode="T" horiz-adv-x="1461" d="M20 1053l36 -4q87 292 372 292h6h224l-262 -1131q-38 -172 -215 -172l-9 -38h596l9 38q-144 0 -144 115q0 26 7 57l262 1131h224h6q243 0 243 -214q0 -36 -7 -78l38 2l55 331h-1344z" />
<glyph unicode="U" horiz-adv-x="1516" d="M36 427q-16 -68 -16 -126q0 -128 77 -206q123 -117 377 -117q250 0 424 117q177 119 227 332l171 743q40 174 211 174l9 37h-391l-9 -37q141 0 141 -115q0 -26 -7 -59l-171 -743q-43 -183 -167 -271q-122 -86 -312 -89h-4q-186 0 -269 91q-56 63 -56 166q0 47 12 103 l171 743q40 174 214 174l9 37h-595l-9 -37q142 0 142 -113q0 -27 -8 -61z" />
<glyph unicode="V" horiz-adv-x="1497" d="M60 1344q124 0 157 -174l238 -1170h65l718 1170q106 174 250 174l9 37h-353l-9 -37q100 0 100 -64q0 -42 -43 -110l-537 -868l-171 868q-5 26 -5 47q0 127 159 127l9 37h-578z" />
<glyph unicode="W" horiz-adv-x="2283" d="M20 1344q124 0 156 -174l208 -1170h83l626 1122l191 -1122h84l660 1170q99 174 246 174l9 38h-353l-9 -38q100 0 100 -65q0 -41 -41 -109l-494 -866l-149 866q-3 20 -3 37q0 137 189 137l9 38h-578l-9 -38q158 -1 158 -84q0 -35 -29 -86l-489 -870l-148 866q-3 22 -3 41 q0 133 164 133l9 38h-578z" />
<glyph unicode="X" horiz-adv-x="1468" d="M20 0h354l9 38q-79 2 -79 43q0 43 84 127l407 408l164 -401q23 -55 23 -94q0 -81 -106 -83l-9 -38h576l9 38q-128 0 -202 173l-252 615l324 344q165 174 306 175l8 37h-354l-8 -37q78 -1 78 -43q0 -44 -85 -131l-287 -302l-122 300q-21 55 -21 93q0 83 103 83h2l8 37 h-574l-8 -37q130 0 196 -171l213 -518l-442 -448q-164 -166 -306 -170z" />
<glyph unicode="Y" horiz-adv-x="1447" d="M60 1344q120 0 185 -174l163 -417q39 -99 39 -126q1 -6 1 -14q0 -53 -25 -164l-56 -239q-39 -172 -215 -172l-9 -38h596l9 38q-146 0 -146 117q0 25 7 55l100 431q16 69 25 83q16 27 32 42l368 401q164 175 304 177l9 38h-351l-9 -38q80 0 80 -43t-84 -132l-382 -405 l-165 404q-20 51 -20 88q0 88 120 88l9 38h-576z" />
<glyph unicode="Z" horiz-adv-x="1251" d="M29 0h1119l116 397l-36 1q-102 -356 -486 -356h-419l1100 1297l10 43h-1006l-96 -328l36 -4q87 290 396 290h368l-1092 -1298z" />
<glyph unicode="[" horiz-adv-x="830" d="M50 -297h343l11 47h-134l367 1585h132l11 47h-342z" />
<glyph unicode="\" horiz-adv-x="227" d="M50 1358l56 14l71 -1557l-56 -16z" />
<glyph unicode="]" horiz-adv-x="831" d="M50 -297l11 47h133l365 1585h-132l11 47h343l-388 -1679h-343z" />
<glyph unicode="^" horiz-adv-x="872" d="M247 852h118l391 449l185 -449h78l-249 600z" />
<glyph unicode="_" horiz-adv-x="1118" d="M1 -212h1018l25 106h-1018z" />
<glyph unicode="`" horiz-adv-x="415" d="M50 1383l101 -121l171 -196l43 28l-116 289h-199z" />
<glyph unicode="a" d="M81 474q-20 -85 -20 -159q0 -104 40 -188q61 -129 208 -138h14q111 0 193 73q90 81 135 195q-15 -53 -15 -95q0 -57 26 -97q48 -68 134 -74q9 -1 18 -1q190 0 216 312h-47q-48 -227 -112 -227q-4 0 -8 1q-20 5 -20 44q0 37 18 106l175 750h-36q-75 -126 -132 -127 q-60 0 -87 33q-80 98 -200 98q-158 0 -305 -140q-141 -140 -195 -366zM308 239q-1 22 -1 43q0 119 28 237q37 141 121 274q81 118 172 118h7q104 -2 104 -142q0 -57 -17 -137l-45 -197q-30 -129 -111 -254q-72 -109 -148 -109q-10 0 -20 2q-81 15 -90 165z" />
<glyph unicode="b" d="M60 -10h35q65 122 134 122q57 0 85 -30q90 -96 200 -96q159 0 305 142q145 142 196 364q21 86 22 162q0 104 -41 188q-62 128 -210 136q-10 1 -20 1q-175 0 -291 -205l182 797l-377 -86l-11 -36q22 6 40 6q63 0 63 -74q0 -28 -9 -66zM374 332l45 197q30 129 111 254 q74 109 149 109l19 -2q81 -15 90 -165q1 -22 1 -44q0 -123 -29 -236q-38 -151 -120 -274q-78 -118 -174 -118h-5q-103 4 -103 146q0 56 16 133z" />
<glyph unicode="c" horiz-adv-x="974" d="M72 469q-11 -63 -11 -119q0 -132 63 -227q99 -138 300 -138q171 1 300 103q130 102 217 295h-44q-86 -171 -210 -266q-87 -70 -184 -70q-23 0 -46 4q-153 27 -153 249q0 85 22 199q18 81 57 168q43 88 121 169q82 82 175 92q20 3 38 3q64 0 98 -42q22 -27 22 -58 q0 -7 -1 -14q-3 -39 -37 -101q-14 -27 -17 -48q-4 -32 17 -59q23 -20 51 -20h8q44 3 76 42q30 39 38 95q2 14 2 28q0 54 -29 100q-29 57 -95 90q-74 39 -185 39q-216 -3 -381 -152q-172 -153 -212 -362z" />
<glyph unicode="d" horiz-adv-x="1176" d="M81 472q-21 -86 -21 -161q0 -104 40 -187q63 -128 209 -137h14q111 0 193 73q90 81 135 195q-15 -53 -15 -97q0 -56 25 -95q46 -68 133 -74q9 -1 18 -1q191 0 220 312h-48q-47 -230 -112 -230q-4 0 -7 1q-20 5 -20 48q0 38 15 105q134 562 316 1347l-377 -86l-11 -36 q23 6 40 6q63 0 63 -73q0 -28 -9 -67l-100 -434q-87 93 -201 95q-161 0 -305 -139q-141 -139 -195 -365zM308 239v33q0 132 28 247q39 153 120 274q82 118 174 118h5q104 -2 104 -142q0 -57 -17 -137l-45 -197q-30 -128 -111 -254q-72 -109 -149 -108q-9 0 -19 1 q-81 15 -90 165z" />
<glyph unicode="e" horiz-adv-x="950" d="M73 465q-13 -64 -13 -121q0 -129 65 -223q100 -139 301 -139q174 0 302 101q126 102 215 297h-43q-86 -176 -209 -268q-87 -68 -185 -68q-23 0 -47 4q-153 27 -154 256q0 28 3 59q114 9 218 35q108 28 202 75q99 49 157 124q63 77 65 170v10q0 99 -80 153q-76 54 -194 54 h-12q-92 -2 -196 -45q-102 -43 -183 -113q-173 -158 -212 -361zM310 407q22 184 122 346q102 165 207 174q8 1 15 1q72 0 93 -93q7 -31 7 -63q0 -88 -55 -181q-59 -95 -158 -134t-231 -50z" />
<glyph unicode="f" horiz-adv-x="1554" d="M61 -252q-1 -10 -1 -20q0 -58 26 -112q34 -58 96 -92q69 -32 157 -35q142 3 265 104q129 103 167 279l156 673l83 362h265l11 51h-264l79 343q41 171 164 173h16q75 0 111 -35q26 -23 26 -61v-10q-2 -30 -26 -78q-28 -58 -28 -96q0 -7 1 -13q9 -45 64 -51h5q54 0 86 43 q27 39 33 98q2 13 2 27q0 54 -27 105q-33 59 -96 92q-66 35 -157 35q-141 -2 -265 -104q-128 -104 -167 -279l-46 -189h-146l-10 -51h147l-275 -1189q-38 -170 -164 -173h-12q-73 0 -115 35q-26 26 -26 71q4 30 26 78q29 55 29 92q0 9 -2 17q-7 46 -64 51h-7q-52 0 -84 -43 q-27 -38 -33 -98z" />
<glyph unicode="g" horiz-adv-x="1176" d="M62 -257q-2 -16 -2 -31q0 -50 25 -96q29 -58 92 -92q75 -42 183 -44h9q216 0 380 138q143 120 197 356l230 1002h-35q-69 -126 -133 -127q-52 0 -86 36q-90 94 -202 94q-164 0 -306 -142q-142 -140 -196 -366q-20 -85 -20 -160q0 -106 40 -190q63 -129 210 -137h17 q107 0 189 73q90 81 135 196q-17 -68 -75 -302q-34 -141 -82 -234q-28 -57 -67 -95q-36 -36 -93 -62q-56 -24 -123 -25q-95 0 -134 42q-23 26 -23 57q0 8 2 17q6 35 41 97q13 24 19 48q2 8 2 16q0 24 -18 44q-20 22 -53 22h-5q-44 0 -78 -40q-30 -32 -40 -95zM447 238 q-1 22 -1 43q0 119 28 237q36 142 121 274q80 118 173 118h6q104 -2 104 -142q0 -57 -17 -137l-45 -197q-30 -130 -111 -254q-72 -109 -149 -109q-9 0 -19 2q-81 15 -90 165z" />
<glyph unicode="h" horiz-adv-x="1069" d="M60 0h234q94 522 199 706q94 168 193 187q14 3 27 3q54 0 76 -53q13 -26 13 -72q0 -66 -28 -173l-92 -363q-15 -59 -15 -105q0 -58 24 -95q45 -62 133 -68q9 -1 18 -1q191 0 227 315h-50q-48 -232 -114 -232q-4 0 -8 1q-20 4 -20 45q0 38 18 109l116 448q14 56 14 102 q0 83 -44 139q-66 90 -201 90h-2q-194 0 -311 -212q75 303 185 800l-377 -86l-11 -36q22 6 40 6q63 0 62 -75q0 -27 -8 -65z" />
<glyph unicode="i" horiz-adv-x="552" d="M60 667h48q42 227 105 227q4 0 8 -1q23 -4 23 -50q0 -36 -15 -99l-37 -160q-26 -122 -74 -328q-12 -50 -12 -91q0 -68 33 -109q51 -62 139 -68q9 -1 18 -1q191 0 217 313h-48q-43 -227 -106 -227q-4 0 -7 1q-22 4 -22 50q0 36 14 99l111 488q11 51 11 91q0 69 -32 109 q-51 63 -139 68q-9 1 -18 1q-190 0 -217 -313zM242 1323q0 -62 46 -108q46 -45 109 -46q63 1 109 46q46 46 46 108q0 63 -46 109t-109 46h-5q-60 0 -104 -46q-46 -46 -46 -109z" />
<glyph unicode="j" horiz-adv-x="1085" d="M61 -258q-1 -11 -1 -22q0 -57 27 -113q36 -61 98 -94q69 -36 161 -36q147 3 271 106q132 106 171 286l86 373q82 363 115 503q12 50 12 91q0 64 -30 103q-44 60 -137 66q-11 1 -21 1q-192 0 -207 -302h44q43 222 107 222q4 0 8 -1q21 -5 21 -48q0 -37 -15 -101 q-13 -57 -247 -1065q-39 -174 -168 -177h-12q-77 0 -118 36q-26 28 -26 73q4 30 26 80q30 57 30 93q0 10 -2 18q-8 48 -66 52h-9q-51 0 -84 -44q-25 -38 -34 -100zM784 1334q0 -60 44 -105q45 -45 105 -45q63 0 106 44q46 46 46 106q0 62 -45 106q-44 45 -106 45 q-60 0 -105 -45q-45 -44 -45 -106z" />
<glyph unicode="k" horiz-adv-x="1066" d="M60 0h237l34 150l126 188l28 -132q50 -239 239 -239h5q177 3 268 345h-54q-77 -236 -164 -245q-48 3 -81 154l-77 368l146 221q25 33 64 33q27 0 55 -15q18 -9 49 -27q31 -15 57 -15q20 0 37 9q37 21 37 70v7q-6 44 -40 70q-36 30 -87 36q-16 2 -31 2q-54 0 -91 -26 q-39 -26 -99 -107q-56 -87 -350 -537l287 1261l-377 -86l-11 -36q22 6 40 6q63 0 63 -74q0 -28 -9 -66z" />
<glyph unicode="l" horiz-adv-x="612" d="M72 254q-11 -51 -11 -92q0 -68 31 -108q51 -62 144 -68q9 -1 18 -1q190 0 216 312h-46q-47 -228 -112 -228q-4 0 -8 1q-20 5 -20 48q0 37 15 103l313 1350l-379 -86l-11 -36q23 6 40 6q63 0 63 -73q0 -28 -9 -67z" />
<glyph unicode="m" horiz-adv-x="1571" d="M60 666h51q48 232 110 232q5 0 9 -1q21 -5 21 -49q0 -37 -15 -103l-172 -745h227q105 520 192 712q75 165 169 183q14 3 27 3q55 0 78 -56q10 -24 10 -65q0 -67 -27 -179l-139 -598h227q105 522 192 713q75 165 168 182q14 3 26 3q55 0 79 -56q10 -23 10 -62 q0 -67 -29 -182l-90 -363q-15 -59 -15 -104q0 -59 25 -96q46 -63 133 -69q8 -1 17 -1q192 0 227 315h-50q-48 -230 -114 -230q-4 0 -8 1q-21 5 -21 47q0 38 17 106l120 448q14 55 14 102q0 83 -44 141q-69 88 -203 88q-188 0 -290 -220q-2 78 -43 132q-69 88 -204 88 q-213 0 -315 -280q19 73 19 127q0 141 -132 152q-12 1 -23 1q-192 0 -234 -317z" />
<glyph unicode="n" horiz-adv-x="1066" d="M60 668h48q53 230 115 230q4 0 8 -1q19 -5 19 -46q0 -38 -16 -106l-172 -745h229q94 522 199 706q94 168 193 187q14 3 27 3q54 0 76 -53q13 -26 13 -72q0 -66 -28 -173l-92 -363q-15 -59 -15 -105q0 -58 24 -95q46 -62 133 -68q9 -1 18 -1q191 0 227 315h-50 q-49 -232 -114 -232q-4 0 -8 1q-21 4 -21 44q0 38 19 110l116 448q14 56 14 102q0 83 -44 139q-68 90 -201 90q-219 0 -349 -282q19 74 19 129q0 143 -130 153q-13 1 -25 1q-192 0 -232 -316z" />
<glyph unicode="o" horiz-adv-x="1024" d="M70 462q-10 -55 -10 -105q0 -140 78 -243q106 -137 295 -137h8q198 4 363 154q168 153 207 366q14 67 14 127q0 134 -69 230q-90 130 -298 130h-13q-212 -4 -374 -154q-159 -150 -201 -368zM319 468q39 196 125 331q93 136 189 138h5q98 0 129 -120q16 -60 16 -138 q0 -84 -19 -189q-36 -198 -127 -330q-92 -136 -185 -136q-90 0 -130 127q-20 67 -20 150q0 77 17 167z" />
<glyph unicode="p" horiz-adv-x="1298" d="M60 -536h495l9 35q-93 30 -93 133q0 33 9 73l88 373q88 -94 202 -97q162 1 309 142q147 143 198 368q21 87 21 163q0 105 -41 191q-57 129 -211 137h-31q-183 -8 -291 -221q15 67 126 556h-234q-44 -205 -149 -347q-105 -141 -235 -201l14 -45q198 80 297 274l-298 -1293 q-39 -171 -176 -206zM628 328l46 201q32 130 113 259q76 111 153 111q10 0 19 -2q82 -15 91 -168q1 -23 1 -45q0 -126 -29 -241q-39 -153 -123 -279q-81 -120 -177 -120h-5q-105 3 -105 148q0 57 16 136z" />
<glyph unicode="q" horiz-adv-x="1044" d="M80 470q-20 -85 -20 -160q0 -107 40 -193q63 -127 211 -136h16q184 0 299 205l-113 -479q-39 -174 -173 -207l-9 -35h496l9 35q-91 27 -91 131q0 34 10 76l289 1269h-36q-74 -130 -132 -130q-44 0 -88 42q-92 92 -203 92q-159 0 -306 -142q-147 -144 -199 -368zM307 234 v27q0 137 28 259q39 154 123 279q82 120 177 120h5q107 -2 107 -145q0 -58 -18 -139l-46 -201q-29 -130 -113 -259q-75 -110 -154 -110q-9 0 -18 1q-81 15 -91 168z" />
<glyph unicode="r" horiz-adv-x="919" d="M60 660h48q51 228 114 228q4 0 8 -1q19 -5 19 -44q0 -37 -17 -106l-168 -737h232l120 516q58 254 114 322q50 58 112 58q40 0 67 -36q15 -20 33 -82q18 -50 31 -70q21 -30 56 -37h9q39 0 61 23q20 23 20 66v11q-3 60 -35 105q-40 56 -110 83q-40 17 -85 17q-28 0 -57 -7 q-132 -29 -192 -191q0 10 1 19q0 176 -143 176h-4q-194 0 -234 -313z" />
<glyph unicode="s" horiz-adv-x="849" d="M61 277q-1 -14 -1 -27q0 -58 22 -101q28 -56 85 -101q86 -65 236 -65h13q129 3 203 52q124 81 163 204q16 51 16 96q0 103 -84 172q-36 31 -173 100q-123 66 -158 105q-21 30 -21 66q0 25 10 53q36 90 173 96h14q61 0 100 -24q24 -15 33 -51q4 -13 4 -34q0 -14 -2 -33 q-2 -42 4 -63q14 -55 74 -55h4q54 3 68 53q5 21 5 42q0 25 -7 49q-15 57 -66 101q-72 64 -189 70q-15 1 -30 1q-128 0 -224 -63q-102 -66 -138 -177q-14 -47 -14 -89q0 -118 111 -193q50 -30 113 -63q118 -58 138 -70q57 -36 70 -70q13 -28 13 -57q0 -26 -11 -52 q-25 -67 -100 -97q-50 -19 -108 -19q-33 0 -69 6q-87 17 -121 53q-27 30 -27 70q2 32 22 70q27 42 30 70q1 10 1 19q0 31 -16 47q-21 24 -56 26q-42 0 -70 -27q-33 -33 -40 -90z" />
<glyph unicode="t" horiz-adv-x="649" d="M72 245q-11 -51 -11 -91q0 -66 30 -106q51 -62 138 -67q9 -1 18 -1q190 0 216 308h-48q-49 -225 -113 -225q-3 0 -7 1q-20 4 -20 43q0 37 18 106l159 700h187l10 45h-186l79 352h-228l-81 -352h-124l-11 -45h125z" />
<glyph unicode="u" horiz-adv-x="1058" d="M60 668l47 -11q52 241 117 241q3 0 6 -1q21 -4 21 -44q0 -38 -19 -108l-114 -433q-14 -54 -14 -100q0 -82 44 -139q70 -89 199 -89q219 0 346 279q-18 -72 -18 -126q0 -142 128 -153q12 -1 24 -1q192 0 231 313h-48q-51 -228 -114 -228q-4 0 -8 1q-19 5 -18 45 q0 37 15 105l171 739h-227q-93 -516 -197 -700q-93 -164 -192 -185q-14 -3 -26 -3q-54 0 -76 52q-12 26 -12 71q0 66 27 172l90 349q16 60 16 106q0 57 -25 92q-42 62 -131 68q-9 1 -18 1q-188 0 -225 -313z" />
<glyph unicode="v" horiz-adv-x="1026" d="M61 787q-1 -11 -1 -22q0 -48 22 -84q24 -39 63 -61q30 -14 60 -14h7q34 4 44 34t-8 54q-12 18 -30 29q-39 33 -60 66q-22 34 -22 57q0 16 11 26q9 10 23 10q17 0 41 -13q59 -27 124 -27q45 0 93 13q75 21 131 39q-350 -433 -350 -652q0 -119 84 -193q70 -62 168 -66 q11 -1 22 -1q134 0 248 81q124 89 205 287q72 162 86 324q4 49 4 92q0 75 -13 128q-9 52 -38 82q-28 31 -64 31h-6q-27 0 -49 -27q-14 -22 -14 -50q4 -24 16 -40q4 -2 46 -59q45 -54 47 -117q1 -16 1 -32q0 -105 -49 -242q-56 -156 -155 -269q-93 -105 -181 -106q-5 0 -10 1 q-75 8 -97 106q-5 27 -5 63q0 211 182 727q-21 -7 -53 -7q-55 0 -145 21q-130 31 -169 31h-6q-93 0 -163 -117q-31 -54 -40 -103z" />
<glyph unicode="w" horiz-adv-x="1399" d="M61 787q-1 -11 -1 -22q0 -48 22 -84q24 -39 63 -61q30 -14 60 -14h7q34 4 44 34t-8 54q-12 18 -30 29q-39 33 -60 66q-22 34 -22 57q0 16 11 26q9 8 23 8q17 0 41 -11q74 -32 151 -32q38 0 77 8q130 27 175 51q-452 -387 -479 -654q-1 -13 -1 -26q0 -100 56 -158 q64 -64 162 -74q23 -2 46 -2q152 0 288 105q68 -91 184 -103q23 -3 45 -3q115 0 209 79q114 96 192 291q64 159 79 323q4 46 4 88q0 73 -13 134q-12 48 -36 80q-26 32 -62 32h-4q-33 -2 -49 -26q-11 -18 -11 -50q3 -28 19 -55q10 -12 49 -63q34 -51 36 -97v-14 q0 -116 -48 -263q-50 -156 -143 -268q-87 -105 -170 -105h-9q-54 3 -87 53q-32 50 -32 122q141 166 187 325q18 57 18 97q0 77 -63 99q-20 6 -39 5q-76 0 -151 -83q-91 -105 -133 -264q-20 -83 -20 -153q0 -65 17 -120q-96 -81 -179 -81h-11q-78 7 -84 106v12q0 190 328 778 q-44 -11 -96 -11q-77 0 -174 24q-113 31 -166 31h-9q-93 0 -163 -117q-31 -54 -40 -103zM842 341q3 111 33 247q31 129 81 129h5q25 -10 25 -49q0 -13 -3 -30q-6 -64 -51 -154q-42 -86 -90 -143z" />
<glyph unicode="x" horiz-adv-x="1164" d="M60 89v5q0 53 37 72q19 9 39 9q26 0 55 -15q34 -15 49 -27q28 -15 55 -15q40 0 64 33q28 45 114 173q51 76 69 103l-63 304q-27 147 -80 150h-4q-84 0 -158 -240h-52q87 335 264 338h5q188 0 237 -236l15 -69q76 116 114 172q57 81 95 107q37 26 91 26q15 0 31 -2 q51 -6 87 -36q34 -27 40 -70v-7q0 -47 -37 -70q-17 -9 -37 -9q-26 0 -57 15q-33 16 -49 27q-27 15 -55 15h-6q-37 0 -58 -33l-141 -213l76 -364q28 -150 79 -153q87 6 161 242h53q-87 -338 -264 -341h-3q-187 0 -238 238l-28 131l-156 -235q-54 -80 -95 -107 q-35 -26 -90 -26q-15 0 -32 2q-51 6 -87 36q-32 27 -40 70z" />
<glyph unicode="y" horiz-adv-x="1174" d="M63 -454q10 -33 49 -48q24 -6 60 -6q14 0 29 1q102 12 204 72q262 147 487 480q230 334 274 625q8 53 8 102q0 60 -12 114q-12 52 -34 78q-24 28 -63 30q-31 3 -52 -21q-18 -21 -15 -47q3 -20 15 -42q6 -10 30 -43q27 -33 34 -47q21 -40 23 -80v-8q0 -247 -254 -617 l-141 671q-49 234 -227 234h-13q-177 -8 -264 -335h54q73 238 157 238h4q52 -3 79 -152l185 -870q-186 -207 -339 -263q-27 -11 -60 -11q-10 0 -20 1q-15 2 -57 17q-39 16 -73 16q-10 0 -19 -1q-32 -6 -46 -35q-9 -25 -3 -53z" />
<glyph unicode="z" horiz-adv-x="972" d="M60 67q4 -41 25 -65q24 -21 51 -19q24 3 41 24q12 17 15 38q4 15 7 56q3 45 25 57q9 5 20 5q27 0 70 -27q64 -36 133 -78q71 -42 152 -65q29 -9 59 -9q53 0 108 28q88 45 160 168q38 69 44 111q2 15 2 29q0 47 -25 91q-26 45 -68 67q-29 16 -59 18h-8q-38 0 -54 -27 q-10 -16 -10 -32q0 -33 40 -67q62 -50 76 -81q16 -30 16 -54q0 -14 -5 -26q-13 -33 -47 -37h-4q-33 0 -120 34q-90 38 -181 47q-19 2 -43 3q-89 0 -239 -34l57 55q370 345 562 525q32 28 46 49q23 30 23 62v8q-2 39 -23 59q-20 20 -46 17q-22 -1 -37 -22q-9 -13 -14 -34 q-3 -12 -6 -51t-23 -51q-7 -4 -17 -4q-24 0 -64 23q-54 34 -120 71q-63 39 -138 59q-25 8 -51 8q-47 0 -100 -25q-78 -39 -145 -152q-33 -62 -40 -101q-2 -13 -2 -26q0 -42 23 -82q24 -40 62 -61q27 -13 53 -16h6q36 0 50 24q9 15 9 30q0 30 -36 60q-56 45 -69 73 q-14 30 -14 52q0 12 4 21q13 30 43 33h7q32 0 105 -30q82 -34 164 -43q16 -2 36 -2q80 0 212 30l-622 -582q-33 -31 -51 -55q-25 -30 -25 -71v-6z" />
<glyph unicode="{" horiz-adv-x="1038" d="M39 542q131 0 206 -71q77 -69 53 -172l-77 -326q-25 -111 59 -194q82 -80 232 -80h104q-63 3 -115 17q-50 16 -86 49q-33 36 -21 92l90 369q45 174 -66 249q-57 37 -180 67q138 32 211 68q145 76 181 248l81 370q15 58 62 92q53 36 110 50q59 16 122 16h-104 q-150 0 -268 -80q-122 -80 -150 -196l-73 -324q-21 -99 -132 -171q-108 -69 -239 -73z" />
<glyph unicode="|" horiz-adv-x="571" d="M39 -247l106 4l393 1667l-107 -4z" />
<glyph unicode="}" horiz-adv-x="1037" d="M39 -301q67 3 121 17q60 16 110 49q51 36 63 92l80 369q41 174 182 249q75 37 209 67q-120 32 -178 68q-108 76 -67 248l91 370q16 58 -20 92q-32 36 -88 50q-48 16 -114 16h104q152 0 232 -80q88 -80 58 -196l-77 -324q-21 -99 54 -171q76 -69 205 -73q-128 0 -238 -71 q-108 -69 -133 -172l-73 -326q-24 -111 -149 -194q-117 -80 -268 -80h-104z" />
<glyph unicode="~" horiz-adv-x="1359" d="M39 1173q22 69 66 136q57 89 108 110q60 25 117 15q66 -9 128 -36l358 -129q128 -45 272 58q142 99 196 277l42 132q-30 -86 -65 -143q-45 -81 -106 -103q-61 -24 -121 -13q-63 11 -126 35l-359 125q-127 45 -274 -58q-137 -99 -197 -281z" />
<glyph unicode="&#xa1;" horiz-adv-x="610" d="M51 -254l326 878h41l-78 -878q-4 -68 -62 -123q-56 -55 -125 -55q-63 0 -96 53q-33 57 -6 125zM270 834q0 62 47 107q49 45 106 45t105 -45q52 -45 49 -107q0 -64 -48 -109q-49 -45 -106 -46q-57 0 -105 45q-48 46 -48 110z" />
<glyph unicode="&#xa2;" horiz-adv-x="1061" d="M53 682q-48 -208 63 -350q111 -138 329 -139h2l-45 -193h57l45 195q141 15 263 102q137 101 230 299h-47q-92 -188 -230 -271q-102 -65 -202 -71l206 893q76 0 120 -39q40 -27 32 -75q-3 -35 -39 -101q-15 -28 -18 -49q-6 -33 20 -59q27 -22 66 -19q52 7 82 40 q36 35 39 98q10 69 -32 127q-33 54 -109 88q-68 32 -150 38l45 194h-57l-45 -193q-242 -3 -407 -148t-218 -367zM317 684q34 123 76 213q57 117 128 176q70 63 145 71l-205 -889h-1q-242 30 -143 429z" />
<glyph unicode="&#xa3;" horiz-adv-x="1352" d="M39 81q5 -39 32 -66q33 -27 83 -32q172 -15 337 157q19 -8 58 -35q41 -25 61 -37t58 -31q39 -18 63 -27q27 -8 61 -14q36 -6 67 -5q121 11 202 80q57 49 120 142l-27 29q-46 -34 -92 -50q-44 -15 -95 -24q-49 -6 -94 -4q-45 4 -95 13q-50 12 -93 21q-41 12 -92 26 q-21 9 -37 12q108 180 181 479h262l11 47h-261l102 442q37 154 166 156q84 4 129 -33q33 -24 30 -63q-2 -24 -25 -71q-24 -50 -27 -71q-2 -33 20 -57q24 -20 62 -17q45 4 75 40q30 34 36 88q9 64 -31 118q-36 54 -99 84q-69 32 -163 32q-142 -2 -265 -94q-127 -96 -160 -251 l-62 -303h-173l-11 -47h174l-54 -274q-19 -85 -49 -173q-40 9 -73 12q-31 4 -79 4q-48 2 -91 -13q-41 -13 -80 -46q-30 -25 -48 -65q-17 -40 -14 -79zM138 118q3 42 33 74q31 33 76 36q21 2 40 -2q22 -2 34 -8q15 -4 37 -14q24 -8 38 -14q-21 -66 -72 -113q-50 -45 -117 -46 q-33 3 -54 26q-17 27 -15 61z" />
<glyph unicode="&#xa4;" horiz-adv-x="1172" d="M39 349l37 -48l136 110q42 -42 95 -69q69 -33 152 -39q96 -5 192 31q78 28 152 80l88 -113l59 48l-87 113q63 57 112 135q57 93 73 185q15 86 -1 161q-11 61 -44 111l136 110l-37 48l-136 -110q-39 44 -95 70q-65 34 -152 37q-93 6 -193 -30q-76 -27 -152 -80l-87 113 l-59 -48l86 -114q-64 -62 -110 -133q-54 -90 -73 -186q-15 -86 -1 -161q15 -57 45 -111zM254 640q-9 66 9 136q18 62 54 118q39 57 91 99q54 45 116 69q64 24 124 27h17q63 0 114 -22q60 -25 99 -76q40 -51 49 -116q11 -63 -10 -137q-15 -63 -54 -117q-35 -57 -92 -99 q-51 -42 -116 -69q-60 -25 -123 -28q-70 -3 -130 22q-60 27 -100 77q-36 50 -48 116z" />
<glyph unicode="&#xa5;" horiz-adv-x="1442" d="M60 1344l9 38h576l-9 -38q-170 0 -100 -176l165 -404l382 405q166 175 4 175l9 38h351l-9 -38q-140 -2 -304 -177l-308 -330h299l-12 -54h-337l-42 -47q-9 -14 -25 -95l-9 -40l371 -1l-12 -54h-372l-78 -336q-38 -172 139 -172l-9 -38h-596l9 38q176 0 215 172l56 239 q12 57 18 97h-374l12 54h367q3 15 1 27q0 27 -39 126l-11 30h-279l12 54l248 1l-133 332q-65 174 -185 174z" />
<glyph unicode="&#xa6;" horiz-adv-x="563" d="M39 -212h106l158 686h-106zM266 769h106l158 686h-106z" />
<glyph unicode="&#xa7;" horiz-adv-x="1039" d="M40 -44q-6 -69 30 -117q36 -51 97 -82q69 -32 158 -30q135 3 263 98q70 51 115 131q49 82 45 170q0 60 -39 117q99 45 155 137q57 93 30 183q-14 45 -71 103q-69 72 -304 308q-69 72 -45 174q16 72 66 123q72 72 171 80q78 7 128 -32q33 -24 29 -60q2 -18 -26 -72 q-24 -45 -27 -68q-3 -33 20 -56q25 -21 61 -18q45 6 72 39q28 34 37 88q5 66 -31 115q-38 57 -97 83q-65 32 -159 29q-134 -1 -262 -97q-66 -48 -116 -133q-48 -81 -45 -170q1 -57 39 -115q-98 -44 -154 -136t-31 -185q15 -41 72 -101q70 -70 304 -308q69 -69 45 -174 q-15 -69 -66 -123q-69 -69 -171 -79q-75 -6 -127 31q-32 23 -30 61q0 18 25 70q21 42 26 68q5 39 -19 57q-22 22 -61 18q-42 -5 -72 -39q-26 -34 -35 -88zM349 864q13 -16 21 -25l313 -317q99 -100 12 -259q-17 24 -21 27l-312 315q-100 101 -13 259z" />
<glyph unicode="&#xa8;" horiz-adv-x="890" d="M39 1223q0 -60 42 -102q43 -41 100 -41q60 0 99 41q42 42 41 102q0 61 -42 99q-37 46 -97 43q-57 3 -101 -40q-42 -39 -42 -102zM573 1223q1 -60 40 -102q44 -41 101 -41q63 0 102 41q42 42 41 102q0 61 -42 99q-37 46 -100 43q-59 3 -101 -40q-39 -39 -41 -102z" />
<glyph unicode="&#xa9;" horiz-adv-x="1085" d="M43 302q-11 88 9 179q22 91 73 178q53 87 131 155q94 82 194 124q105 42 210 42q104 0 190 -42q87 -42 138 -124q48 -68 58 -155q15 -83 -9 -177q-21 -93 -72 -180q-51 -86 -130 -156q-84 -74 -195 -119q-110 -45 -210 -45q-104 0 -191 45q-85 45 -137 119 q-44 75 -59 156zM108 298q18 -87 69 -150q45 -50 115 -83q69 -31 150 -31q82 0 163 31q85 33 153 83q84 63 140 150q58 88 79 183q23 97 5 181q-16 90 -70 151q-46 57 -116 85q-68 30 -148 29q-81 1 -163 -29q-81 -28 -153 -85q-84 -63 -141 -151q-57 -87 -79 -181 q-20 -95 -4 -183zM280 473q-26 -111 35 -189q61 -74 178 -77q99 0 175 57t125 162h-25q-51 -102 -126 -147q-72 -45 -141 -38q-129 17 -78 233q21 70 41 116q32 63 71 96q41 34 83 38q62 6 92 -20q21 -14 17 -41q0 -15 -21 -54q-6 -13 -10 -28q-3 -15 11 -31q15 -14 35 -11 q30 3 46 22q18 21 21 54q4 37 -17 69q-18 30 -58 48q-45 20 -111 20q-131 -2 -224 -79q-91 -77 -119 -200z" />
<glyph unicode="&#xaa;" horiz-adv-x="767" d="M41 849q-9 -69 27 -102q38 -33 92 -40q166 -15 320 62q18 -55 92 -59q30 -2 101 11l16 48q-51 14 -42 53l74 321q23 99 5 150q-18 48 -84 84q-60 30 -161 30q-83 0 -153 -24q-56 -21 -104 -63q-46 -42 -64 -90q-14 -38 -3 -68q13 -28 45 -31q28 0 50 15q24 16 33 42 q9 18 6 33q3 11 -2 32q-3 15 7 40q14 39 46 53q48 27 124 27q48 1 77 -14q45 -15 33 -85q-9 -60 -69 -100q-60 -42 -258 -114q-99 -36 -149 -84q-48 -46 -59 -127zM226 890q24 118 123 160q153 66 198 103l-61 -263q-12 -56 -14 -89q-110 -57 -180 -43q-90 15 -66 132z" />
<glyph unicode="&#xab;" horiz-adv-x="1020" d="M39 667l400 -370l43 46l-284 358l449 357l-22 46l-571 -370zM379 667l400 -370l43 46l-284 358l449 357l-22 46l-571 -370z" />
<glyph unicode="&#xac;" horiz-adv-x="1102" d="M39 650h859l-106 -458h159l118 511h-1018z" />
<glyph unicode="&#xad;" horiz-adv-x="617" d="M39 544h509l36 159h-509z" />
<glyph unicode="&#xae;" horiz-adv-x="1085" d="M43 302q-11 88 9 179q22 91 73 178q53 87 131 155q94 82 194 124q105 42 210 42q104 0 190 -42q87 -42 138 -124q48 -68 58 -155q15 -83 -9 -177q-21 -93 -72 -180q-51 -86 -130 -156q-84 -74 -195 -119q-110 -45 -210 -45q-104 0 -191 45q-85 45 -137 119 q-44 75 -59 156zM108 298q18 -87 69 -150q45 -50 115 -83q69 -31 150 -31q82 0 163 31q85 33 153 83q84 63 140 150q58 88 79 183q23 97 5 181q-16 90 -70 151q-46 57 -116 85q-68 30 -148 29q-81 1 -163 -29q-81 -28 -153 -85q-84 -63 -141 -151q-57 -87 -79 -181 q-20 -95 -4 -183zM233 219h236l4 14q-69 0 -54 69l42 184h16q39 0 57 -16q24 -16 29 -43l24 -108q15 -64 4 -100h190l3 14q-63 3 -90 98l-28 104q-14 51 -62 52q66 9 111 48q51 40 62 91q15 60 -27 101q-40 44 -110 42h-280l-4 -15q72 0 54 -70l-89 -382q-15 -69 -84 -69z M465 502l57 249h37q64 1 96 -35q33 -36 20 -90q-12 -52 -60 -88q-50 -36 -114 -36h-36z" />
<glyph unicode="&#xaf;" horiz-adv-x="858" d="M39 1353l24 102h762l-24 -102h-762z" />
<glyph unicode="&#xb0;" horiz-adv-x="544" d="M46 1169q-22 -97 28 -166q52 -69 145 -69q97 0 178 68q87 70 107 167q24 99 -31 166q-49 70 -145 70q-93 1 -177 -68t-105 -168zM103 1168q18 75 78 126q64 51 133 51q72 1 110 -51q40 -50 22 -125q-16 -73 -80 -124q-62 -51 -134 -51q-69 0 -108 51q-36 51 -21 123z" />
<glyph unicode="&#xb1;" horiz-adv-x="1210" d="M39 240h1018q7 27 13 53h-482l94 410h482l13 53h-482l106 461h-56l-106 -461h-480l-13 -53h480l-94 -410h-480q-14 -56 -13 -53z" />
<glyph unicode="&#xb2;" horiz-adv-x="721" d="M39 696q21 34 51 53t59 21q31 4 61 -1q32 -3 64 -15q34 -10 63 -22q31 -10 63 -19q33 -7 57 -7q33 0 65 10q33 12 60 34q28 22 49 61q24 40 33 94q-22 -39 -55 -56q-33 -15 -66 -18q-33 0 -75 9q-40 10 -74 22t-73 21q-36 11 -63 11q-20 0 -41 -3q-18 -3 -45 -13 q-24 -9 -46 -24q-20 -14 -39 -40q-17 -26 -32 -58q5 42 20 75q18 39 36 59q21 24 49 44q30 21 55 33q28 15 61 23q34 12 58 16q28 6 55 12q31 9 45 12q52 14 84 26q32 15 58 30q44 28 71 67q29 40 38 84q9 39 -7 71q-16 34 -44 52q-68 42 -200 39q-39 3 -87 -12 q-47 -9 -80 -31q-47 -28 -74 -68q-21 -36 -16 -63q6 -27 38 -35q21 -3 46 6q27 12 38 31q12 15 12 30q1 5 1 14q2 11 2 14q4 15 13 34q15 23 44 37q33 14 60 17q37 4 67 -11q34 -14 40 -50q8 -36 -4 -86q-26 -132 -149 -177q-15 -7 -46 -17q-29 -8 -50 -16q-21 -6 -49 -18 q-26 -10 -45 -20t-43 -25q-22 -15 -38 -32t-32 -39t-25 -50q-9 -26 -14 -61q-3 -35 -4 -75z" />
<glyph unicode="&#xb3;" horiz-adv-x="674" d="M40 810q6 -38 43 -60q66 -42 171 -41q147 1 249 70q42 28 69 67q30 40 39 84q18 82 -60 134q-44 28 -101 40q54 14 91 35q84 47 96 110q11 36 -4 63q-14 30 -41 46q-68 46 -185 38q-37 -2 -82 -13q-40 -9 -73 -30q-40 -27 -68 -70q-16 -31 -14 -58q6 -27 33 -35 q22 -6 43 6q24 10 35 31q14 17 11 29l3 27q4 19 13 34q16 23 43 37q29 16 53 16q81 4 96 -60q9 -30 -1 -70q-22 -108 -133 -133q-20 -5 -41 -5l1 -10h11q78 -8 104 -48q30 -38 9 -119q-18 -80 -69 -131q-46 -50 -121 -56q-93 -4 -108 50q-3 16 0 32q3 6 3 13q3 9 5 13 q4 14 1 29q-1 21 -22 30q-9 9 -25 5q-9 0 -18 -3q-30 -9 -46 -38q-14 -27 -10 -59z" />
<glyph unicode="&#xb4;" horiz-adv-x="482" d="M39 1152l195 304h215l-139 -128l-232 -206z" />
<glyph unicode="&#xb5;" horiz-adv-x="1307" d="M11 -253q-14 -48 7 -82q20 -33 58 -34q42 3 75 35q37 34 46 81q9 29 20 169q9 105 20 174q5 -8 11 -17q70 -89 199 -89q219 0 346 279q-67 -263 110 -279q213 -20 255 312h-48q-54 -242 -122 -227q-36 9 -3 150l171 739h-227q-93 -516 -197 -700q-93 -164 -192 -185 q-75 -14 -102 49q-30 66 15 243l90 349q36 135 -9 198q-42 62 -131 68q-204 15 -243 -312l47 -11q54 252 123 240q42 7 2 -152q-86 -345 -124 -451q-74 -206 -123 -332q-81 -200 -74 -215z" />
<glyph unicode="&#xb6;" horiz-adv-x="1058" d="M255 -264h709l9 38q-193 -2 -142 223l259 1119q52 226 245 226l9 38h-576q-170 0 -318 -117q-146 -118 -185 -284q-39 -169 53 -285q91 -116 264 -116h60l-134 -581q-52 -225 -244 -223zM558 -223l360 1563h125l-360 -1563h-125z" />
<glyph unicode="&#xb7;" horiz-adv-x="354" d="M39 728q0 -60 42 -102q43 -38 100 -41q60 3 99 41q42 42 41 102q0 63 -42 99q-37 43 -97 43q-57 2 -101 -40q-42 -39 -42 -102z" />
<glyph unicode="&#xb8;" horiz-adv-x="450" d="M39 225q139 -21 244 2q108 25 129 103q36 132 -172 186l43 150h-66q-8 -26 -23 -77t-24 -77q80 -14 107 -64q30 -48 14 -100q-12 -48 -78 -80q-63 -30 -170 -24z" />
<glyph unicode="&#xb9;" horiz-adv-x="444" d="M39 702h313l4 22q-96 0 -74 98l129 562h-42q-75 -46 -188 -65l-6 -27h98l-109 -470q-21 -98 -120 -98z" />
<glyph unicode="&#xba;" horiz-adv-x="808" d="M49 1049q-33 -143 44 -242q81 -99 226 -99q150 0 279 102q132 102 165 251q37 153 -35 247q-69 94 -235 94q-159 3 -285 -102q-123 -102 -159 -251zM231 828q-27 92 2 221q33 135 102 229q73 94 148 94q82 0 103 -86q26 -86 -8 -226q-28 -134 -104 -228q-72 -94 -144 -94 q-69 0 -99 90z" />
<glyph unicode="&#xbb;" horiz-adv-x="1020" d="M39 343l450 358l-285 357l44 46l399 -370l-15 -67l-570 -370zM379 343l450 358l-285 357l44 46l399 -370l-15 -67l-570 -370z" />
<glyph unicode="&#xbc;" horiz-adv-x="1565" d="M39 -152l26 -25l1467 1531l-26 26zM231 521h313l4 22q-96 0 -74 98l129 562h-42q-75 -47 -188 -65l-6 -27h98l-109 -470q-21 -98 -120 -98zM708 187h303l-15 -67q-22 -98 -122 -98l-5 -22h316l5 22q-98 0 -76 98l15 67h29q87 1 60 -119h22l61 264h-22q-27 -118 -114 -118 h-29l109 474h-45l-488 -482zM750 214l347 344l-80 -344h-267z" />
<glyph unicode="&#xbd;" horiz-adv-x="1565" d="M39 -152l26 -25l1467 1531l-26 26zM222 521h313l4 22q-95 0 -74 98l129 562h-42q-76 -47 -188 -65l-6 -27h98l-109 -470q-21 -98 -120 -98zM839 1h17q48 65 102 67q46 2 116 -32q84 -36 139 -35q151 3 190 181l-17 4q-44 -66 -106 -65q-66 3 -136 37q-66 34 -116 31 q-126 -1 -176 -137q6 42 20 75q16 35 34 59q21 26 47 44q27 21 51 33q27 13 57 23q32 12 53 17q24 6 51 12q28 8 42 11q51 15 78 27q29 13 53 29q44 28 69 68q27 39 35 83q9 39 -5 72q-12 35 -40 53q-60 42 -183 39q-36 -1 -81 -13q-42 -12 -74 -31q-45 -29 -70 -68 q-19 -35 -15 -63q6 -26 33 -35q21 -3 44 5q24 12 36 33q9 15 11 29q0 6 1 14q1 10 1 14q2 16 14 34q14 24 41 37q29 15 56 17q35 4 62 -11q29 -15 35 -50q8 -35 -5 -85q-33 -150 -165 -188q-138 -40 -206 -94t-90 -147q-15 -67 -3 -94z" />
<glyph unicode="&#xbe;" horiz-adv-x="1566" d="M39 -152l26 -25l1468 1531l-27 26zM102 619q6 -38 43 -60q66 -43 171 -41q147 2 249 70q42 28 69 67q30 40 39 84q18 81 -60 134q-44 28 -101 40q54 15 91 35q84 46 96 110q11 34 -4 63q-14 29 -41 47q-68 46 -185 38q-37 -2 -82 -14q-40 -9 -73 -30q-40 -26 -68 -70 q-16 -32 -14 -57q6 -27 33 -36q22 -6 43 6q24 10 35 31q14 16 11 29l3 27q4 16 13 34q15 22 42 37q28 15 54 16q81 4 96 -60q9 -31 -1 -70q-23 -105 -134 -133q-19 -2 -40 -5l1 -10h11q78 -9 104 -48q29 -39 8 -119q-17 -80 -68 -131q-46 -51 -121 -56q-93 -3 -108 50 q-3 17 0 32q3 5 3 13q3 10 5 13q4 15 1 29q-1 22 -22 30q-9 6 -25 5q-9 0 -18 -3q-30 -10 -46 -38q-14 -26 -10 -59zM702 187h303l-15 -67q-22 -98 -122 -98l-5 -22h316l5 22q-98 0 -76 98l15 67h29q87 1 60 -119h22l61 264h-22q-27 -118 -114 -118h-29l109 474h-45 l-488 -482zM744 214l347 344l-80 -344h-267z" />
<glyph unicode="&#xbf;" horiz-adv-x="815" d="M39 -190q6 -74 44 -125q57 -71 156 -101q63 -16 134 -19q78 0 144 18q80 22 137 66q63 47 95 110q27 51 19 90q-4 36 -44 45q-39 10 -78 -18q-24 -20 -39 -70q-9 -30 -13 -60q-6 -42 -17 -62q-11 -24 -41 -40q-69 -38 -151 -35q-48 3 -75 23q-48 38 -60 95q-8 51 -5 96 q4 47 18 91q33 94 92 175q69 93 142 168q75 78 111 117q39 40 47 84q15 60 -24 103q-38 43 -113 57l-8 -56q48 -6 62 -39q16 -31 4 -64q-8 -31 -46 -64q-34 -33 -130 -104q-93 -69 -162 -126q-144 -117 -178 -219q-24 -62 -21 -136zM475 833q0 64 48 109q51 46 106 46 q57 0 105 -45t48 -110q3 -62 -47 -107q-48 -45 -106 -45q-54 0 -105 45q-48 45 -49 107z" />
<glyph unicode="&#xc0;" horiz-adv-x="1501" d="M60 0h354l10 42q-162 0 -69 149l166 268h494l48 -268q27 -151 -136 -149l-10 -42h574l10 42q-135 4 -167 149l-226 1191h-65l-733 -1191q-93 -153 -240 -149zM60 0zM546 499q26 39 359 581q93 -518 103 -581h-462zM871 1818l139 -128l232 -206l39 30l-195 304h-215z" />
<glyph unicode="&#xc1;" horiz-adv-x="1501" d="M60 0h354l10 42q-162 0 -69 149l166 268h494l48 -268q27 -151 -136 -149l-10 -42h574l10 42q-135 4 -167 149l-226 1191h-65l-733 -1191q-93 -153 -240 -149zM60 0zM546 499q26 39 359 581q93 -518 103 -581h-462zM923 1514l39 -30l232 206l139 128h-215z" />
<glyph unicode="&#xc2;" horiz-adv-x="1501" d="M60 0h354l10 42q-162 0 -69 149l166 268h494l48 -268q27 -151 -136 -149l-10 -42h574l10 42q-135 4 -167 149l-226 1191h-65l-733 -1191q-93 -153 -240 -149zM60 0zM546 499q26 39 359 581q93 -518 103 -581h-462zM680 1515l35 -31l386 229l279 -229l50 31l-265 341h-62z " />
<glyph unicode="&#xc3;" horiz-adv-x="1501" d="M60 0h354l10 42q-162 0 -69 149l166 268h494l48 -268q27 -151 -136 -149l-10 -42h574l10 42q-135 4 -167 149l-226 1191h-65l-733 -1191q-93 -153 -240 -149zM60 0zM546 499q26 39 359 581q93 -518 103 -581h-462zM645 1484q15 45 42 87q36 56 69 70q39 16 74 9 q43 -5 82 -23l228 -82q83 -26 173 37q93 63 126 177l27 84q-20 -56 -42 -91q-27 -51 -68 -66q-37 -15 -76 -8t-81 22l-229 80q-81 29 -174 -37q-87 -62 -127 -179z" />
<glyph unicode="&#xc4;" horiz-adv-x="1501" d="M60 0h354l10 42q-162 0 -69 149l166 268h494l48 -268q27 -151 -136 -149l-10 -42h574l10 42q-135 4 -167 149l-226 1191h-65l-733 -1191q-93 -153 -240 -149zM60 0zM546 499q26 39 359 581q93 -518 103 -581h-462zM645 1627q0 -60 42 -102q43 -41 100 -41q60 0 99 41 q42 42 41 102q0 61 -42 99q-37 46 -97 43q-57 3 -101 -40q-42 -39 -42 -102zM1179 1627q1 -60 40 -102q44 -41 101 -41q63 0 102 41q42 42 41 102q0 61 -42 99q-37 46 -100 43q-59 3 -101 -40q-39 -39 -41 -102z" />
<glyph unicode="&#xc5;" horiz-adv-x="1501" d="M60 0h354l10 42q-162 0 -69 149l166 268h494l48 -268q27 -151 -136 -149l-10 -42h574l10 42q-135 4 -167 149l-226 1191h-65l-733 -1191q-93 -153 -240 -149zM60 0zM546 499q26 39 359 581q93 -518 103 -581h-462zM879 1732q-15 -99 43 -175q60 -72 162 -73q105 0 187 72 q87 75 101 176q18 105 -47 174q-56 75 -161 74q-102 3 -186 -72q-81 -71 -99 -176zM940 1731q15 78 73 132q66 54 140 54q78 3 122 -54q50 -54 35 -131q-12 -77 -76 -131q-62 -54 -140 -54q-75 0 -120 54q-44 54 -34 130z" />
<glyph unicode="&#xc6;" horiz-adv-x="2382" d="M30 1h374l9 38q-119 1 0 153l155 196h528l-29 -125q-52 -226 -232 -226l-8 -37h1193l115 394l-34 2q-103 -360 -539 -359q-310 0 -258 231l104 454h176q201 0 153 -211h38l107 461h-38q-48 -208 -250 -209h-176l133 577h347q308 0 262 -292l37 4l57 330h-1108l-9 -38 q141 1 37 -132l-807 -1020q-122 -152 -329 -153zM600 429l713 901l-208 -901h-505z" />
<glyph unicode="&#xc7;" horiz-adv-x="1484" d="M57 677q-42 -189 15 -352q63 -164 204 -254q136 -83 341 -91q-8 -24 -22 -74q-15 -50 -24 -77q81 -14 107 -64q30 -48 14 -100q-12 -46 -78 -80q-64 -30 -170 -24l-4 -19q138 -21 244 2q108 27 129 103q35 132 -172 186l42 146q379 10 580 313l-34 10 q-204 -270 -544 -272q-495 0 -348 647q65 277 239 471q182 202 389 203q372 1 378 -375l39 3l69 404h-39q-22 -84 -142 -42q-166 61 -286 61q-224 0 -423 -100t-329 -262q-128 -164 -175 -363z" />
<glyph unicode="&#xc8;" horiz-adv-x="1498" d="M60 0h1206l115 394l-34 3q-102 -357 -544 -360q-313 1 -262 232l105 453h178q206 0 155 -211h38l106 461h-38q-47 -207 -251 -207h-178l132 575h351q315 0 266 -293l38 6l55 329h-1119l-9 -38q177 3 135 -174l-222 -960q-37 -168 -214 -172zM60 0zM749 1818l139 -128 l232 -206l39 30l-195 304h-215z" />
<glyph unicode="&#xc9;" horiz-adv-x="1498" d="M60 0h1206l115 394l-34 3q-102 -357 -544 -360q-313 1 -262 232l105 453h178q206 0 155 -211h38l106 461h-38q-47 -207 -251 -207h-178l132 575h351q315 0 266 -293l38 6l55 329h-1119l-9 -38q177 3 135 -174l-222 -960q-37 -168 -214 -172zM60 0zM799 1514l39 -30 l232 206l139 128h-215z" />
<glyph unicode="&#xca;" horiz-adv-x="1498" d="M60 0h1206l115 394l-34 3q-102 -357 -544 -360q-313 1 -262 232l105 453h178q206 0 155 -211h38l106 461h-38q-47 -207 -251 -207h-178l132 575h351q315 0 266 -293l38 6l55 329h-1119l-9 -38q177 3 135 -174l-222 -960q-37 -168 -214 -172zM60 0zM679 1515l35 -31 l386 229l279 -229l50 31l-265 341h-62z" />
<glyph unicode="&#xcb;" horiz-adv-x="1498" d="M60 0h1206l115 394l-34 3q-102 -357 -544 -360q-313 1 -262 232l105 453h178q206 0 155 -211h38l106 461h-38q-47 -207 -251 -207h-178l132 575h351q315 0 266 -293l38 6l55 329h-1119l-9 -38q177 3 135 -174l-222 -960q-37 -168 -214 -172zM60 0zM644 1627 q0 -60 42 -102q43 -41 100 -41q60 0 99 41q42 42 41 102q0 61 -42 99q-37 46 -97 43q-57 3 -101 -40q-42 -39 -42 -102zM1178 1627q1 -60 40 -102q44 -41 101 -41q63 0 102 41q42 42 41 102q0 61 -42 99q-37 46 -100 43q-59 3 -101 -40q-39 -39 -41 -102z" />
<glyph unicode="&#xcc;" horiz-adv-x="932" d="M20 0h593l9 38q-172 0 -134 174l221 957q43 175 214 175l9 38h-593l-9 -38q174 0 134 -175l-221 -957q-39 -174 -214 -174zM20 0zM441 1818l139 -128l232 -206l39 30l-195 304h-215z" />
<glyph unicode="&#xcd;" horiz-adv-x="932" d="M20 0h593l9 38q-172 0 -134 174l221 957q43 175 214 175l9 38h-593l-9 -38q174 0 134 -175l-221 -957q-39 -174 -214 -174zM20 0zM501 1514l39 -30l232 206l139 128h-215z" />
<glyph unicode="&#xce;" horiz-adv-x="932" d="M20 0h593l9 38q-172 0 -134 174l221 957q43 175 214 175l9 38h-593l-9 -38q174 0 134 -175l-221 -957q-39 -174 -214 -174zM20 0zM276 1515l35 -31l386 229l279 -229l50 31l-265 341h-62z" />
<glyph unicode="&#xcf;" horiz-adv-x="932" d="M20 0h593l9 38q-172 0 -134 174l221 957q43 175 214 175l9 38h-593l-9 -38q174 0 134 -175l-221 -957q-39 -174 -214 -174zM20 0zM226 1627q0 -60 42 -102q43 -41 100 -41q60 0 99 41q42 42 41 102q0 61 -42 99q-37 46 -97 43q-57 3 -101 -40q-42 -39 -42 -102zM760 1627 q1 -60 40 -102q44 -41 101 -41q63 0 102 41q42 42 41 102q0 61 -42 99q-37 46 -100 43q-59 3 -101 -40q-39 -39 -41 -102z" />
<glyph unicode="&#xd0;" horiz-adv-x="1543" d="M47 0h807q280 0 518 203q239 204 298 488q30 139 -2 268q-26 122 -101 217q-77 93 -201 150q-122 54 -273 54h-727l-9 -38q173 -2 134 -173q-55 -237 -95 -409h-182l-10 -47h182q-112 -483 -117 -503q-39 -170 -213 -172zM524 268q60 262 103 445h279l10 47h-279 q131 565 134 578h168q123 0 234 -49q112 -49 172 -140q127 -188 73 -458q-32 -155 -106 -286q-71 -124 -172 -211q-104 -90 -199 -120t-203 -30q-266 0 -214 224z" />
<glyph unicode="&#xd1;" horiz-adv-x="1769" d="M60 0h391l8 35q-171 0 -132 177l235 1019l641 -1231h74l270 1170q42 174 213 172l9 40h-393l-9 -38q177 0 136 -174l-172 -745q-308 585 -437 866q-33 59 -27 91h-488l-9 -38q171 0 132 -174l-221 -958q-39 -174 -212 -175zM60 0zM694 1484q15 45 42 87q36 56 69 70 q39 16 74 9q43 -5 82 -23l228 -82q83 -26 173 37q93 63 126 177l27 84q-20 -56 -42 -91q-27 -51 -68 -66q-37 -15 -76 -8t-81 22l-229 80q-81 29 -174 -37q-87 -62 -127 -179z" />
<glyph unicode="&#xd2;" horiz-adv-x="1573" d="M13 0zM79 674q-66 -294 93 -496q160 -201 467 -204q199 0 393 95q192 94 330 262q138 165 185 371q75 321 -70 510q-145 194 -481 194q-220 0 -416 -101q-195 -99 -327 -265q-128 -162 -174 -366zM355 676q45 186 136 339q93 153 221 245q130 94 265 93q207 0 286 -180 q78 -177 9 -473q-44 -190 -143 -344q-99 -156 -226 -243t-250 -87q-186 0 -273 188q-88 190 -25 462zM827 1842l139 -128l232 -206l39 30l-195 304h-215z" />
<glyph unicode="&#xd3;" horiz-adv-x="1573" d="M13 0zM79 674q-66 -294 93 -496q160 -201 467 -204q199 0 393 95q192 94 330 262q138 165 185 371q75 321 -70 510q-145 194 -481 194q-220 0 -416 -101q-195 -99 -327 -265q-128 -162 -174 -366zM355 676q45 186 136 339q93 153 221 245q130 94 265 93q207 0 286 -180 q78 -177 9 -473q-44 -190 -143 -344q-99 -156 -226 -243t-250 -87q-186 0 -273 188q-88 190 -25 462zM807 1538l39 -30l232 206l139 128h-215z" />
<glyph unicode="&#xd4;" horiz-adv-x="1573" d="M13 0zM79 674q-66 -294 93 -496q160 -201 467 -204q199 0 393 95q192 94 330 262q138 165 185 371q75 321 -70 510q-145 194 -481 194q-220 0 -416 -101q-195 -99 -327 -265q-128 -162 -174 -366zM355 676q45 186 136 339q93 153 221 245q130 94 265 93q207 0 286 -180 q78 -177 9 -473q-44 -190 -143 -344q-99 -156 -226 -243t-250 -87q-186 0 -273 188q-88 190 -25 462zM617 1539l35 -31l386 229l279 -229l50 31l-265 341h-62z" />
<glyph unicode="&#xd5;" horiz-adv-x="1573" d="M13 0zM79 674q-66 -294 93 -496q160 -201 467 -204q199 0 393 95q192 94 330 262q138 165 185 371q75 321 -70 510q-145 194 -481 194q-220 0 -416 -101q-195 -99 -327 -265q-128 -162 -174 -366zM355 676q45 186 136 339q93 153 221 245q130 94 265 93q207 0 286 -180 q78 -177 9 -473q-44 -190 -143 -344q-99 -156 -226 -243t-250 -87q-186 0 -273 188q-88 190 -25 462zM652 1508q15 45 42 87q36 56 69 70q39 16 74 9q43 -5 82 -23l228 -82q83 -26 173 37q93 63 126 177l27 84q-20 -56 -42 -91q-27 -51 -68 -66q-37 -15 -76 -8t-81 22 l-229 80q-81 29 -174 -37q-87 -62 -127 -179z" />
<glyph unicode="&#xd6;" horiz-adv-x="1573" d="M13 0zM79 674q-66 -294 93 -496q160 -201 467 -204q199 0 393 95q192 94 330 262q138 165 185 371q75 321 -70 510q-145 194 -481 194q-220 0 -416 -101q-195 -99 -327 -265q-128 -162 -174 -366zM355 676q45 186 136 339q93 153 221 245q130 94 265 93q207 0 286 -180 q78 -177 9 -473q-44 -190 -143 -344q-99 -156 -226 -243t-250 -87q-186 0 -273 188q-88 190 -25 462zM612 1651q0 -60 42 -102q43 -41 100 -41q60 0 99 41q42 42 41 102q0 61 -42 99q-37 46 -97 43q-57 3 -101 -40q-42 -39 -42 -102zM1146 1651q1 -60 40 -102 q44 -41 101 -41q63 0 102 41q42 42 41 102q0 61 -42 99q-37 46 -100 43q-59 3 -101 -40q-39 -39 -41 -102z" />
<glyph unicode="&#xd7;" horiz-adv-x="829" d="M50 400l39 -38l326 326l323 -324l39 39l-324 324l326 326l-38 38l-326 -326l-325 325l-39 -38l325 -326z" />
<glyph unicode="&#xd8;" horiz-adv-x="1788" d="M50 10l31 -40l205 176q156 -168 424 -169q196 0 385 96q190 97 324 261q141 172 185 373q74 318 -67 510l-2 2l203 173l-28 42l-206 -177q-144 154 -437 154q-215 -1 -407 -100q-190 -99 -320 -267q-128 -164 -173 -365q-69 -291 87 -495zM424 330q-30 158 15 352 q43 184 133 337t218 246q124 93 261 93q204 0 276 -180q15 -30 19 -57zM438 276l919 790q27 -152 -24 -360q-41 -189 -140 -345q-98 -153 -222 -245q-123 -88 -247 -88q-182 0 -266 190q-6 20 -20 58z" />
<glyph unicode="&#xd9;" horiz-adv-x="1516" d="M0 0zM36 427q-50 -219 61 -332q123 -117 377 -117q250 0 424 117q177 119 227 332l171 743q40 174 211 174l9 37h-391l-9 -37q174 0 134 -174l-171 -743q-43 -183 -167 -271q-122 -86 -312 -89q-189 -1 -273 91q-81 92 -44 269l171 743q40 174 214 174l9 37h-595l-9 -37 q177 0 134 -174zM636 1817l139 -128l232 -206l39 30l-195 304h-215z" />
<glyph unicode="&#xda;" horiz-adv-x="1516" d="M0 0zM36 427q-50 -219 61 -332q123 -117 377 -117q250 0 424 117q177 119 227 332l171 743q40 174 211 174l9 37h-391l-9 -37q174 0 134 -174l-171 -743q-43 -183 -167 -271q-122 -86 -312 -89q-189 -1 -273 91q-81 92 -44 269l171 743q40 174 214 174l9 37h-595l-9 -37 q177 0 134 -174zM686 1513l39 -30l232 206l139 128h-215z" />
<glyph unicode="&#xdb;" horiz-adv-x="1516" d="M0 0zM36 427q-50 -219 61 -332q123 -117 377 -117q250 0 424 117q177 119 227 332l171 743q40 174 211 174l9 37h-391l-9 -37q174 0 134 -174l-171 -743q-43 -183 -167 -271q-122 -86 -312 -89q-189 -1 -273 91q-81 92 -44 269l171 743q40 174 214 174l9 37h-595l-9 -37 q177 0 134 -174zM521 1514l35 -31l386 229l279 -229l50 31l-265 341h-62z" />
<glyph unicode="&#xdc;" horiz-adv-x="1516" d="M0 0zM36 427q-50 -219 61 -332q123 -117 377 -117q250 0 424 117q177 119 227 332l171 743q40 174 211 174l9 37h-391l-9 -37q174 0 134 -174l-171 -743q-43 -183 -167 -271q-122 -86 -312 -89q-189 -1 -273 91q-81 92 -44 269l171 743q40 174 214 174l9 37h-595l-9 -37 q177 0 134 -174zM496 1626q0 -60 42 -102q43 -41 100 -41q60 0 99 41q42 42 41 102q0 61 -42 99q-37 46 -97 43q-57 3 -101 -40q-42 -39 -42 -102zM1030 1626q1 -60 40 -102q44 -41 101 -41q63 0 102 41q42 42 41 102q0 61 -42 99q-37 46 -100 43q-59 3 -101 -40 q-39 -39 -41 -102z" />
<glyph unicode="&#xdd;" horiz-adv-x="1447" d="M60 0zM60 1344q120 0 185 -174l163 -417q39 -99 39 -126q4 -51 -24 -178l-56 -239q-39 -172 -215 -172l-9 -38h596l9 38q-177 0 -139 172l100 431q16 69 25 83q16 27 32 42l368 401q164 175 304 177l9 38h-351l-9 -38q162 0 -4 -175l-382 -405l-165 404q-70 176 100 176 l9 38h-576zM549 1514l39 -30l232 206l139 128h-215z" />
<glyph unicode="&#xde;" horiz-adv-x="1245" d="M39 0h601l9 38q-183 -1 -143 172l17 73h362q165 1 307 125q143 124 184 303t-44 304q-86 124 -249 124h-362q46 199 229 203l9 38h-601l-9 -38q184 0 140 -184l-219 -948q-38 -172 -222 -172zM533 324l178 772h189q134 0 202 -112t30 -273t-157 -274t-253 -113h-189z" />
<glyph unicode="&#xdf;" horiz-adv-x="1116" d="M39 0h390l268 1161q45 191 217 189q189 0 132 -240q-44 -192 -215 -291q-101 -60 -62 -156l171 -415q22 -62 -8 -108q-28 -46 -81 -70q-54 -22 -105 -15q-36 6 -51 30q-10 21 -12 57q-1 40 -10 56q-11 26 -42 31t-58 -10q-32 -17 -45 -53q-11 -28 -10 -57q0 -34 21 -60 q41 -51 132 -63q103 -14 201 25q91 36 166 108q76 69 105 150q31 84 -2 165l-147 326q-27 56 17 87q183 137 217 285q64 276 -314 276q-381 0 -474 -402l-183 -794q-39 -174 -209 -174z" />
<glyph unicode="&#xe0;" d="M32 0zM81 474q-49 -204 20 -347q61 -129 208 -138q120 -5 207 73q90 81 135 195q-34 -122 11 -192q48 -68 134 -74q207 -15 234 311h-47q-51 -240 -120 -226q-39 9 -2 150l175 750h-36q-75 -126 -132 -127q-60 0 -87 33q-80 98 -200 98q-158 0 -305 -140 q-141 -140 -195 -366zM308 239q-6 141 27 280q37 141 121 274q84 123 179 118q147 -3 87 -279l-45 -197q-30 -129 -111 -254q-81 -123 -168 -107q-81 15 -90 165zM419 1416l139 -128l232 -206l39 30l-195 304h-215z" />
<glyph unicode="&#xe1;" d="M32 0zM81 474q-49 -204 20 -347q61 -129 208 -138q120 -5 207 73q90 81 135 195q-34 -122 11 -192q48 -68 134 -74q207 -15 234 311h-47q-51 -240 -120 -226q-39 9 -2 150l175 750h-36q-75 -126 -132 -127q-60 0 -87 33q-80 98 -200 98q-158 0 -305 -140 q-141 -140 -195 -366zM308 239q-6 141 27 280q37 141 121 274q84 123 179 118q147 -3 87 -279l-45 -197q-30 -129 -111 -254q-81 -123 -168 -107q-81 15 -90 165zM439 1112l39 -30l232 206l139 128h-215z" />
<glyph unicode="&#xe2;" d="M32 0zM81 474q-49 -204 20 -347q61 -129 208 -138q120 -5 207 73q90 81 135 195q-34 -122 11 -192q48 -68 134 -74q207 -15 234 311h-47q-51 -240 -120 -226q-39 9 -2 150l175 750h-36q-75 -126 -132 -127q-60 0 -87 33q-80 98 -200 98q-158 0 -305 -140 q-141 -140 -195 -366zM264 1113l35 -31l386 229l279 -229l50 31l-265 341h-62zM308 239q-6 141 27 280q37 141 121 274q84 123 179 118q147 -3 87 -279l-45 -197q-30 -129 -111 -254q-81 -123 -168 -107q-81 15 -90 165z" />
<glyph unicode="&#xe3;" d="M32 0zM81 474q-49 -204 20 -347q61 -129 208 -138q120 -5 207 73q90 81 135 195q-34 -122 11 -192q48 -68 134 -74q207 -15 234 311h-47q-51 -240 -120 -226q-39 9 -2 150l175 750h-36q-75 -126 -132 -127q-60 0 -87 33q-80 98 -200 98q-158 0 -305 -140 q-141 -140 -195 -366zM284 1082q15 45 42 87q36 56 69 70q39 16 74 9q43 -5 82 -23l228 -82q83 -26 173 37q93 63 126 177l27 84q-20 -56 -42 -91q-27 -51 -68 -66q-37 -15 -76 -8t-81 22l-229 80q-81 29 -174 -37q-87 -62 -127 -179zM308 239q-6 141 27 280q37 141 121 274 q84 123 179 118q147 -3 87 -279l-45 -197q-30 -129 -111 -254q-81 -123 -168 -107q-81 15 -90 165z" />
<glyph unicode="&#xe4;" d="M32 0zM81 474q-49 -204 20 -347q61 -129 208 -138q120 -5 207 73q90 81 135 195q-34 -122 11 -192q48 -68 134 -74q207 -15 234 311h-47q-51 -240 -120 -226q-39 9 -2 150l175 750h-36q-75 -126 -132 -127q-60 0 -87 33q-80 98 -200 98q-158 0 -305 -140 q-141 -140 -195 -366zM259 1225q0 -60 42 -102q43 -41 100 -41q60 0 99 41q42 42 41 102q0 61 -42 99q-37 46 -97 43q-57 3 -101 -40q-42 -39 -42 -102zM308 239q-6 141 27 280q37 141 121 274q84 123 179 118q147 -3 87 -279l-45 -197q-30 -129 -111 -254 q-81 -123 -168 -107q-81 15 -90 165zM793 1225q1 -60 40 -102q44 -41 101 -41q63 0 102 41q42 42 41 102q0 61 -42 99q-37 46 -100 43q-59 3 -101 -40q-39 -39 -41 -102z" />
<glyph unicode="&#xe5;" d="M32 0zM81 474q-49 -204 20 -347q61 -129 208 -138q120 -5 207 73q90 81 135 195q-34 -122 11 -192q48 -68 134 -74q207 -15 234 311h-47q-51 -240 -120 -226q-39 9 -2 150l175 750h-36q-75 -126 -132 -127q-60 0 -87 33q-80 98 -200 98q-158 0 -305 -140 q-141 -140 -195 -366zM308 239q-6 141 27 280q37 141 121 274q84 123 179 118q147 -3 87 -279l-45 -197q-30 -129 -111 -254q-81 -123 -168 -107q-81 15 -90 165zM411 1330q-15 -99 43 -175q60 -72 162 -73q105 0 187 72q87 75 101 176q18 105 -47 174q-56 75 -161 74 q-102 3 -186 -72q-81 -71 -99 -176zM472 1329q15 78 73 132q66 54 140 54q78 3 122 -54q50 -54 35 -131q-12 -77 -76 -131q-62 -54 -140 -54q-75 0 -120 54q-44 54 -34 130z" />
<glyph unicode="&#xe6;" horiz-adv-x="1810" d="M51 199q-9 -93 36 -142q47 -45 134 -61q187 -32 370 39q70 29 174 103q3 -2 7 -13q106 -138 313 -138q183 1 338 106q157 106 247 295h-47q-59 -116 -158 -202q-97 -84 -191 -117q-86 -31 -172 -22q-236 28 -136 427q3 3 6 18q6 16 7 29h732q39 211 -60 333 q-97 126 -316 124q-195 2 -361 -118q-30 40 -89 72q-87 42 -223 41q-120 1 -212 -33q-80 -27 -147 -87q-61 -57 -88 -126q-20 -51 -5 -95q14 -38 64 -41q40 -1 68 19q36 24 47 60q12 32 9 46q0 4 -4 43q-2 15 10 56q14 48 62 74q64 34 175 37q63 0 106 -19q65 -27 44 -119 q-12 -86 -93 -138q-80 -56 -360 -158q-134 -48 -206 -117q-63 -63 -81 -176zM308 255q36 167 171 224q216 94 273 142l-82 -358q-16 -78 -91 -135q-74 -57 -180 -55q-129 3 -91 182zM994 567q52 156 142 264q88 105 182 105q98 0 137 -101q37 -99 9 -268h-470z" />
<glyph unicode="&#xe7;" horiz-adv-x="974" d="M72 469q-38 -211 52 -346q90 -126 265 -137q-7 -23 -18 -61q-15 -50 -24 -77q81 -14 107 -64q30 -48 14 -100q-12 -46 -78 -80q-64 -30 -170 -24l-4 -19q138 -21 244 2q108 27 129 103q35 132 -172 186l38 134q152 9 269 102q130 102 217 295h-44q-86 -171 -210 -266 q-107 -86 -230 -66q-212 37 -131 448q18 81 57 168q43 88 121 169q82 82 175 92q93 15 136 -39q27 -33 21 -72q-3 -39 -37 -101q-14 -27 -17 -48q-4 -32 17 -59q26 -23 59 -20q44 3 76 42q30 39 38 95q9 70 -27 128q-29 57 -95 90q-74 39 -185 39q-216 -3 -381 -152 q-172 -153 -212 -362z" />
<glyph unicode="&#xe8;" horiz-adv-x="950" d="M32 0zM73 465q-41 -209 52 -344q100 -139 301 -139q174 0 302 101q126 102 215 297h-43q-86 -176 -209 -268q-108 -84 -232 -64q-172 30 -151 315q114 9 218 35q108 28 202 75q99 49 157 124q63 77 65 170q4 106 -80 163q-80 57 -206 54q-92 -2 -196 -45 q-102 -43 -183 -113q-173 -158 -212 -361zM310 407q22 184 122 346q102 165 207 174q84 10 108 -92q27 -117 -48 -244q-59 -95 -158 -134t-231 -50zM383 1423l139 -128l232 -206l39 30l-195 304h-215z" />
<glyph unicode="&#xe9;" horiz-adv-x="950" d="M32 0zM73 465q-41 -209 52 -344q100 -139 301 -139q174 0 302 101q126 102 215 297h-43q-86 -176 -209 -268q-108 -84 -232 -64q-172 30 -151 315q114 9 218 35q108 28 202 75q99 49 157 124q63 77 65 170q4 106 -80 163q-80 57 -206 54q-92 -2 -196 -45 q-102 -43 -183 -113q-173 -158 -212 -361zM310 407q22 184 122 346q102 165 207 174q84 10 108 -92q27 -117 -48 -244q-59 -95 -158 -134t-231 -50zM438 1119l39 -30l232 206l139 128h-215z" />
<glyph unicode="&#xea;" horiz-adv-x="950" d="M32 0zM73 465q-41 -209 52 -344q100 -139 301 -139q174 0 302 101q126 102 215 297h-43q-86 -176 -209 -268q-108 -84 -232 -64q-172 30 -151 315q114 9 218 35q108 28 202 75q99 49 157 124q63 77 65 170q4 106 -80 163q-80 57 -206 54q-92 -2 -196 -45 q-102 -43 -183 -113q-173 -158 -212 -361zM248 1120l35 -31l386 229l279 -229l50 31l-265 341h-62zM310 407q22 184 122 346q102 165 207 174q84 10 108 -92q27 -117 -48 -244q-59 -95 -158 -134t-231 -50z" />
<glyph unicode="&#xeb;" horiz-adv-x="950" d="M32 0zM73 465q-41 -209 52 -344q100 -139 301 -139q174 0 302 101q126 102 215 297h-43q-86 -176 -209 -268q-108 -84 -232 -64q-172 30 -151 315q114 9 218 35q108 28 202 75q99 49 157 124q63 77 65 170q4 106 -80 163q-80 57 -206 54q-92 -2 -196 -45 q-102 -43 -183 -113q-173 -158 -212 -361zM258 1232q0 -60 42 -102q43 -41 100 -41q60 0 99 41q42 42 41 102q0 61 -42 99q-37 46 -97 43q-57 3 -101 -40q-42 -39 -42 -102zM310 407q22 184 122 346q102 165 207 174q84 10 108 -92q27 -117 -48 -244q-59 -95 -158 -134 t-231 -50zM792 1232q1 -60 40 -102q44 -41 101 -41q63 0 102 41q42 42 41 102q0 61 -42 99q-37 46 -100 43q-59 3 -101 -40q-39 -39 -41 -102z" />
<glyph unicode="&#xec;" horiz-adv-x="553" d="M50 0zM50 667h48q45 241 113 226q41 -8 8 -149l-37 -160q-26 -122 -74 -328q-32 -134 21 -200q51 -62 139 -68q208 -15 235 312h-48q-45 -240 -113 -226q-40 8 -8 149l111 488q30 137 -21 200t-139 68q-207 15 -235 -312zM71 1430l139 -128l232 -206l39 30l-195 304h-215 z" />
<glyph unicode="&#xed;" horiz-adv-x="553" d="M50 0zM50 667h48q45 241 113 226q41 -8 8 -149l-37 -160q-26 -122 -74 -328q-32 -134 21 -200q51 -62 139 -68q208 -15 235 312h-48q-45 -240 -113 -226q-40 8 -8 149l111 488q30 137 -21 200t-139 68q-207 15 -235 -312zM71 1126l39 -30l232 206l139 128h-215z" />
<glyph unicode="&#xee;" horiz-adv-x="553" d="M-99 1127l35 -31l386 229l279 -229l50 31l-265 341h-62zM0 0zM50 667h48q45 241 113 226q41 -8 8 -149l-37 -160q-26 -122 -74 -328q-32 -134 21 -200q51 -62 139 -68q208 -15 235 312h-48q-45 -240 -113 -226q-40 8 -8 149l111 488q30 137 -21 200t-139 68 q-207 15 -235 -312z" />
<glyph unicode="&#xef;" horiz-adv-x="553" d="M-134 1239q0 -60 42 -102q43 -41 100 -41q60 0 99 41q42 42 41 102q0 61 -42 99q-37 46 -97 43q-57 3 -101 -40q-42 -39 -42 -102zM0 0zM50 667h48q45 241 113 226q41 -8 8 -149l-37 -160q-26 -122 -74 -328q-32 -134 21 -200q51 -62 139 -68q208 -15 235 312h-48 q-45 -240 -113 -226q-40 8 -8 149l111 488q30 137 -21 200t-139 68q-207 15 -235 -312zM400 1239q1 -60 40 -102q44 -41 101 -41q63 0 102 41q42 42 41 102q0 61 -42 99q-37 46 -100 43q-59 3 -101 -40q-39 -39 -41 -102z" />
<glyph unicode="&#xf0;" horiz-adv-x="1259" d="M50 471q-48 -207 63 -348q114 -141 324 -141q113 0 217 43q105 45 186 114q80 72 140 162q60 93 93 188q69 213 32 426q-37 214 -149 396l205 104l-16 47l-215 -111q-39 61 -93 115l-57 -13q40 -51 77 -138l-230 -119l15 -47l232 119q62 -180 40 -354q-36 28 -101 45 q-63 19 -127 19q-230 0 -409 -148q-177 -146 -227 -359zM310 156q-39 128 5 316q45 194 145 328q102 135 213 135q113 0 146 -124q36 -123 -10 -323q-45 -192 -150 -327t-206 -135t-143 130z" />
<glyph unicode="&#xf1;" horiz-adv-x="1066" d="M60 0zM60 668h48q57 246 123 229q37 -9 3 -152l-172 -745h229q94 522 199 706q94 168 193 187q76 15 103 -50q33 -65 -15 -245l-92 -363q-33 -135 9 -200q46 -62 133 -68q207 -15 245 314h-50q-52 -245 -122 -231q-40 8 -2 154l116 448q39 154 -30 241q-68 90 -201 90 q-219 0 -349 -282q69 267 -111 282q-215 21 -257 -315zM273 1106q15 45 42 87q36 56 69 70q39 16 74 9q43 -5 82 -23l228 -82q83 -26 173 37q93 63 126 177l27 84q-20 -56 -42 -91q-27 -51 -68 -66q-37 -15 -76 -8t-81 22l-229 80q-81 29 -174 -37q-87 -62 -127 -179z" />
<glyph unicode="&#xf2;" horiz-adv-x="1024" d="M32 0zM70 462q-38 -207 68 -348q108 -140 303 -137q198 4 363 154q168 153 207 366q44 219 -55 357q-93 134 -311 130q-212 -4 -374 -154q-159 -150 -201 -368zM319 468q39 196 125 331q93 136 189 138q102 3 134 -120q33 -126 -3 -327q-36 -198 -127 -330 q-92 -136 -185 -136q-90 0 -130 127q-39 129 -3 317zM459 1424l139 -128l232 -206l39 30l-195 304h-215z" />
<glyph unicode="&#xf3;" horiz-adv-x="1024" d="M32 0zM70 462q-38 -207 68 -348q108 -140 303 -137q198 4 363 154q168 153 207 366q44 219 -55 357q-93 134 -311 130q-212 -4 -374 -154q-159 -150 -201 -368zM319 468q39 196 125 331q93 136 189 138q102 3 134 -120q33 -126 -3 -327q-36 -198 -127 -330 q-92 -136 -185 -136q-90 0 -130 127q-39 129 -3 317zM449 1120l39 -30l232 206l139 128h-215z" />
<glyph unicode="&#xf4;" horiz-adv-x="1024" d="M32 0zM70 462q-38 -207 68 -348q108 -140 303 -137q198 4 363 154q168 153 207 366q44 219 -55 357q-93 134 -311 130q-212 -4 -374 -154q-159 -150 -201 -368zM279 1121l35 -31l386 229l279 -229l50 31l-265 341h-62zM319 468q39 196 125 331q93 136 189 138 q102 3 134 -120q33 -126 -3 -327q-36 -198 -127 -330q-92 -136 -185 -136q-90 0 -130 127q-39 129 -3 317z" />
<glyph unicode="&#xf5;" horiz-adv-x="1024" d="M32 0zM70 462q-38 -207 68 -348q108 -140 303 -137q198 4 363 154q168 153 207 366q44 219 -55 357q-93 134 -311 130q-212 -4 -374 -154q-159 -150 -201 -368zM274 1090q15 45 42 87q36 56 69 70q39 16 74 9q43 -5 82 -23l228 -82q83 -26 173 37q93 63 126 177l27 84 q-20 -56 -42 -91q-27 -51 -68 -66q-37 -15 -76 -8t-81 22l-229 80q-81 29 -174 -37q-87 -62 -127 -179zM319 468q39 196 125 331q93 136 189 138q102 3 134 -120q33 -126 -3 -327q-36 -198 -127 -330q-92 -136 -185 -136q-90 0 -130 127q-39 129 -3 317z" />
<glyph unicode="&#xf6;" horiz-adv-x="1024" d="M32 0zM70 462q-38 -207 68 -348q108 -140 303 -137q198 4 363 154q168 153 207 366q44 219 -55 357q-93 134 -311 130q-212 -4 -374 -154q-159 -150 -201 -368zM259 1233q0 -60 42 -102q43 -41 100 -41q60 0 99 41q42 42 41 102q0 61 -42 99q-37 46 -97 43 q-57 3 -101 -40q-42 -39 -42 -102zM319 468q39 196 125 331q93 136 189 138q102 3 134 -120q33 -126 -3 -327q-36 -198 -127 -330q-92 -136 -185 -136q-90 0 -130 127q-39 129 -3 317zM793 1233q1 -60 40 -102q44 -41 101 -41q63 0 102 41q42 42 41 102q0 61 -42 99 q-37 46 -100 43q-59 3 -101 -40q-39 -39 -41 -102z" />
<glyph unicode="&#xf7;" horiz-adv-x="1118" d="M212 703h1018l13 53h-1018zM512 452q0 42 34 71q36 29 76 29q42 0 76 -29q38 -29 35 -71q0 -42 -34 -71q-35 -27 -77 -30q-42 3 -75 29q-35 30 -35 72zM682 1009q0 45 34 71q36 28 76 29q42 -1 76 -29q38 -26 35 -71q0 -43 -34 -71q-35 -27 -77 -30q-42 0 -75 29 q-35 30 -35 72z" />
<glyph unicode="&#xf8;" horiz-adv-x="1285" d="M50 9l28 -38l140 120h1q111 -109 295 -109q216 0 402 148q188 150 236 360q51 222 -51 357h-1l135 116l-26 40l-141 -120q-104 99 -305 97q-231 0 -411 -147t-229 -360q-47 -205 63 -346zM367 280q-3 88 21 193q45 195 149 330q101 135 211 134q116 3 149 -121 q11 -30 14 -68zM370 221l542 466q-3 -93 -27 -198q-44 -193 -149 -328q-104 -134 -207 -134q-102 1 -144 130q-9 31 -15 64z" />
<glyph unicode="&#xf9;" horiz-adv-x="1058" d="M60 0zM60 668l47 -11q54 252 123 240q40 -8 2 -152l-114 -433q-38 -150 30 -239q70 -89 199 -89q219 0 346 279q-67 -263 110 -279q213 -20 255 312h-48q-54 -242 -122 -227q-36 9 -3 150l171 739h-227q-93 -516 -197 -700q-93 -164 -192 -185q-75 -14 -102 49 q-30 66 15 243l90 349q36 135 -9 198q-42 62 -131 68q-204 15 -243 -312zM419 1431l139 -128l232 -206l39 30l-195 304h-215z" />
<glyph unicode="&#xfa;" horiz-adv-x="1058" d="M60 0zM60 668l47 -11q54 252 123 240q40 -8 2 -152l-114 -433q-38 -150 30 -239q70 -89 199 -89q219 0 346 279q-67 -263 110 -279q213 -20 255 312h-48q-54 -242 -122 -227q-36 9 -3 150l171 739h-227q-93 -516 -197 -700q-93 -164 -192 -185q-75 -14 -102 49 q-30 66 15 243l90 349q36 135 -9 198q-42 62 -131 68q-204 15 -243 -312zM484 1127l39 -30l232 206l139 128h-215z" />
<glyph unicode="&#xfb;" horiz-adv-x="1058" d="M60 0zM60 668l47 -11q54 252 123 240q40 -8 2 -152l-114 -433q-38 -150 30 -239q70 -89 199 -89q219 0 346 279q-67 -263 110 -279q213 -20 255 312h-48q-54 -242 -122 -227q-36 9 -3 150l171 739h-227q-93 -516 -197 -700q-93 -164 -192 -185q-75 -14 -102 49 q-30 66 15 243l90 349q36 135 -9 198q-42 62 -131 68q-204 15 -243 -312zM259 1128l35 -31l386 229l279 -229l50 31l-265 341h-62z" />
<glyph unicode="&#xfc;" horiz-adv-x="1058" d="M60 0zM60 668l47 -11q54 252 123 240q40 -8 2 -152l-114 -433q-38 -150 30 -239q70 -89 199 -89q219 0 346 279q-67 -263 110 -279q213 -20 255 312h-48q-54 -242 -122 -227q-36 9 -3 150l171 739h-227q-93 -516 -197 -700q-93 -164 -192 -185q-75 -14 -102 49 q-30 66 15 243l90 349q36 135 -9 198q-42 62 -131 68q-204 15 -243 -312zM219 1240q0 -60 42 -102q43 -41 100 -41q60 0 99 41q42 42 41 102q0 61 -42 99q-37 46 -97 43q-57 3 -101 -40q-42 -39 -42 -102zM753 1240q1 -60 40 -102q44 -41 101 -41q63 0 102 41q42 42 41 102 q0 61 -42 99q-37 46 -100 43q-59 3 -101 -40q-39 -39 -41 -102z" />
<glyph unicode="&#xfd;" horiz-adv-x="1174" d="M57 0zM63 -454q10 -33 49 -48q33 -8 89 -5q102 12 204 72q262 147 487 480q230 334 274 625q18 117 -4 216q-12 52 -34 78q-24 28 -63 30q-31 3 -52 -21q-18 -21 -15 -47q3 -20 15 -42q6 -10 30 -43q27 -33 34 -47q21 -40 23 -80q4 -249 -254 -625l-141 671 q-51 243 -240 234q-177 -8 -264 -335h54q75 244 161 238q52 -3 79 -152l185 -870q-186 -207 -339 -263q-35 -14 -80 -10q-15 2 -57 17q-50 21 -92 15q-32 -6 -46 -35q-9 -25 -3 -53zM616 1135l39 -30l232 206l139 128h-215z" />
<glyph unicode="&#xfe;" horiz-adv-x="1123" d="M-80 -516h487l7 32q-130 2 -83 201l83 361q100 -90 254 -94q181 2 330 141q154 143 206 369q52 228 -30 356q-80 129 -266 129q-150 0 -312 -112l135 584l-374 -75l-8 -32q137 21 100 -139l-343 -1488q-46 -198 -179 -201zM434 160l117 507q27 107 103 175q81 66 155 70 q117 6 162 -122q47 -124 2 -318q-44 -190 -137 -306q-96 -116 -217 -115q-61 0 -112 34q-51 35 -73 75z" />
<glyph unicode="&#xff;" horiz-adv-x="1174" d="M57 0zM63 -454q10 -33 49 -48q33 -8 89 -5q102 12 204 72q262 147 487 480q230 334 274 625q18 117 -4 216q-12 52 -34 78q-24 28 -63 30q-31 3 -52 -21q-18 -21 -15 -47q3 -20 15 -42q6 -10 30 -43q27 -33 34 -47q21 -40 23 -80q4 -249 -254 -625l-141 671 q-51 243 -240 234q-177 -8 -264 -335h54q75 244 161 238q52 -3 79 -152l185 -870q-186 -207 -339 -263q-35 -14 -80 -10q-15 2 -57 17q-50 21 -92 15q-32 -6 -46 -35q-9 -25 -3 -53zM361 1248q0 -60 42 -102q43 -41 100 -41q60 0 99 41q42 42 41 102q0 61 -42 99 q-37 46 -97 43q-57 3 -101 -40q-42 -39 -42 -102zM895 1248q1 -60 40 -102q44 -41 101 -41q63 0 102 41q42 42 41 102q0 61 -42 99q-37 46 -100 43q-59 3 -101 -40q-39 -39 -41 -102z" />
<glyph unicode="&#x178;" horiz-adv-x="1447" d="M60 0zM60 1344q120 0 185 -174l163 -417q39 -99 39 -126q4 -51 -24 -178l-56 -239q-39 -172 -215 -172l-9 -38h596l9 38q-177 0 -139 172l100 431q16 69 25 83q16 27 32 42l368 401q164 175 304 177l9 38h-351l-9 -38q162 0 -4 -175l-382 -405l-165 404q-70 176 100 176 l9 38h-576zM344 1627q0 -60 42 -102q43 -41 100 -41q60 0 99 41q42 42 41 102q0 61 -42 99q-37 46 -97 43q-57 3 -101 -40q-42 -39 -42 -102zM878 1627q1 -60 40 -102q44 -41 101 -41q63 0 102 41q42 42 41 102q0 61 -42 99q-37 46 -100 43q-59 3 -101 -40q-39 -39 -41 -102 z" />
<glyph unicode="&#x2c6;" horiz-adv-x="907" d="M50 1055l46 -33l358 241l357 -241l46 33l-370 359h-67z" />
<glyph unicode="&#x2dc;" horiz-adv-x="838" d="M50 1173q4 43 22 87q20 58 52 70q36 16 73 10q43 -6 87 -23l247 -83q91 -26 166 37t84 177l7 84q-6 -57 -21 -91q-15 -51 -52 -66q-36 -15 -75 -8q-42 7 -86 22l-247 80q-89 29 -167 -37q-72 -62 -84 -179z" />
<glyph unicode="&#x2000;" horiz-adv-x="990" />
<glyph unicode="&#x2001;" horiz-adv-x="1980" />
<glyph unicode="&#x2002;" horiz-adv-x="990" />
<glyph unicode="&#x2003;" horiz-adv-x="1980" />
<glyph unicode="&#x2004;" horiz-adv-x="660" />
<glyph unicode="&#x2005;" horiz-adv-x="495" />
<glyph unicode="&#x2006;" horiz-adv-x="330" />
<glyph unicode="&#x2007;" horiz-adv-x="330" />
<glyph unicode="&#x2008;" horiz-adv-x="247" />
<glyph unicode="&#x2009;" horiz-adv-x="396" />
<glyph unicode="&#x200a;" horiz-adv-x="110" />
<glyph unicode="&#x2010;" horiz-adv-x="617" d="M39 544h509l36 159h-509z" />
<glyph unicode="&#x2011;" horiz-adv-x="617" d="M39 544h509l36 159h-509z" />
<glyph unicode="&#x2012;" horiz-adv-x="617" d="M39 544h509l36 159h-509z" />
<glyph unicode="&#x2013;" horiz-adv-x="1096" d="M39 544h956l68 159h-956z" />
<glyph unicode="&#x2014;" horiz-adv-x="2120" d="M39 544h1913l135 159h-1913z" />
<glyph unicode="&#x2018;" horiz-adv-x="415" d="M280 980q-4 99 45 204q58 118 164 199q105 78 223 102l-16 -68q-85 -30 -158 -94q-75 -67 -117 -145q-15 -30 -25 -70q-8 -38 20 -17q38 20 76 20q60 3 93 -41q34 -44 20 -103q-15 -63 -65 -104q-52 -43 -115 -43q-48 0 -82 22q-57 42 -63 138z" />
<glyph unicode="&#x2019;" horiz-adv-x="415" d="M242 821l15 68q86 31 158 94q77 69 117 145q16 30 26 70q8 39 -20 17q-38 -18 -77 -20q-59 -1 -93 41q-34 45 -20 103q15 65 65 104q55 43 115 43q50 0 82 -22q58 -40 63 -138q6 -98 -45 -204q-58 -118 -164 -199q-103 -78 -222 -102z" />
<glyph unicode="&#x201a;" horiz-adv-x="415" d="M-40 -397l16 68q86 31 158 94q78 69 117 145q16 30 25 70q8 39 -20 17q-38 -18 -76 -20q-58 -1 -93 41q-33 45 -20 103q15 65 65 104q56 43 115 43q49 0 82 -22q59 -40 63 -138q6 -98 -45 -204q-57 -118 -164 -199q-103 -78 -223 -102z" />
<glyph unicode="&#x201c;" horiz-adv-x="832" d="M280 980q-4 99 45 204q58 118 164 199q105 78 223 102l-16 -68q-85 -30 -158 -94q-75 -67 -117 -145q-15 -30 -25 -70q-8 -38 20 -17q38 20 76 20q60 3 93 -41q34 -44 20 -103q-15 -63 -65 -104q-52 -43 -115 -43q-48 0 -82 22q-57 42 -63 138zM697 980q-5 99 45 204 q58 118 164 199q105 78 223 102l-16 -68q-85 -30 -158 -94q-75 -67 -117 -145q-15 -30 -25 -70q-9 -38 20 -17q37 20 76 20q61 3 93 -41q34 -44 20 -103q-14 -63 -65 -104q-53 -43 -115 -43q-48 0 -82 22q-57 42 -63 138z" />
<glyph unicode="&#x201d;" horiz-adv-x="832" d="M242 821l15 68q86 31 158 94q77 69 117 145q16 30 26 70q8 39 -20 17q-38 -18 -77 -20q-59 -1 -93 41q-34 45 -20 103q15 65 65 104q55 43 115 43q50 0 82 -22q58 -40 63 -138q6 -98 -45 -204q-58 -118 -164 -199q-103 -78 -222 -102zM659 821l15 68q86 31 158 94 q78 69 117 145q17 30 26 70q9 39 -20 17q-38 -18 -77 -20q-58 -1 -93 41q-33 45 -20 103q15 65 65 104q56 43 115 43q49 0 82 -22q59 -40 63 -138q6 -98 -45 -204q-57 -118 -164 -199q-103 -78 -222 -102z" />
<glyph unicode="&#x202f;" horiz-adv-x="396" />
<glyph unicode="&#x205f;" horiz-adv-x="495" />
<glyph unicode="&#x25fc;" horiz-adv-x="980" d="M0 0v980h980v-980h-980z" />
</font>
</defs>
</svg>
