<?xml version="1.0" encoding="UTF-8" standalone="no"?>
<!DOCTYPE svg  PUBLIC '-//W3C//DTD SVG 1.1//EN'  'http://www.w3.org/Graphics/SVG/1.1/DTD/svg11.dtd'>
<svg xmlns="http://www.w3.org/2000/svg">
<defs>
<font id="DistantStroke-Regular" horiz-adv-x="594">
<font-face underline-position="-50" font-weight="300" descent="-200" panose-1="0 0 0 0 0 0 0 0 0 0" units-per-em="1000" unicode-range="U+0020-2122" bbox="-306 -373 1168 772" x-height="230" underline-thickness="50" font-family="DistantStroke" ascent="800" cap-height="630"/>
<missing-glyph horiz-adv-x="1000"/>
<glyph glyph-name=".notdef" horiz-adv-x="1000"/>
<glyph glyph-name=".null" horiz-adv-x="0"/>
<glyph glyph-name="nonmarkingreturn" horiz-adv-x="333"/>
<glyph glyph-name="space" horiz-adv-x="178" unicode=" "/>
<glyph glyph-name="exclam" horiz-adv-x="367" unicode="!" d="M85 43q14 0 5 -18q-9 -17 -23 -17q-8 0 -8 8q0 4 3 10q8 17 23 17zM393 582q4 4 11 4q4 0 4 -4v-1q-1 -1 -1 -2q-2 -3 -37 -53q-60 -87 -139 -221q-11 -21 -58.5 -101.5t-50.5 -80.5q-1 0 1 6q4 11 42 87q30 57 60 111q83 146 144 231q11 16 24 24z"/>
<glyph glyph-name="quotedbl" horiz-adv-x="285" unicode='&quot;' d="M303 597q3 0 3 -5t-7 -12q-28 -38 -78 -92q-24 -26 -37 -38q-4 -4 -6 -4t1 4q6 10 14 20q13 16 44 57t49 63q4 7 14 7h3zM238 597q3 0 3 -5t-7 -12q-28 -38 -78 -92q-24 -26 -37 -38q-4 -4 -6 -4v1q0 1 1 3q6 10 14 20q13 16 44 57t49 63q4 7 14 7h3z"/>
<glyph glyph-name="numbersign" horiz-adv-x="527" unicode="#" d="M322 190q7 11 23 37.5t28 45.5q-86 -4 -130 -8q-31 -46 -55 -83q45 4 134 8zM219 262q-14 -1 -44 -5q-15 -2 -23 1q-12 4 2 9q28 5 75 9q45 69 91 133q3 5 14.5 15.5t17.5 10.5q2 0 4 -3q2 -4 -11 -21q-28 -37 -93 -132q86 6 128 6q45 69 88 126q17 23 29 23h2q3 0 3 -4 q0 -9 -11 -20q-34 -44 -90 -125q40 0 71 -4l7 -3l-1 -1q-5 -1 -17 -1q-11 0 -33.5 -1t-33.5 -1q-19 -28 -55 -84q14 1 42 1q90 0 90 -7q0 -2 -20 -2h-12q-74 -2 -108 -4q-23 -36 -67 -108q-12 -20 -16 -22v2q0 1 2.5 7t6.5 16q20 41 57 104q-68 -3 -136 -9 q-75 -119 -85 -136q-1 -1 -4 -6t-6.5 -9.5t-4.5 -4.5q0 3 3 9q9 23 21.5 46.5t31.5 55.5t26 44q-7 -1 -21.5 -2.5t-21.5 -2.5q-17 -2 -26 0q-12 5 1 9q9 2 76 10z"/>
<glyph glyph-name="dollar" horiz-adv-x="492" unicode="$" d="M234 441q13 -23 54 -50q80 152 146 258q-26 -2 -62 -18q-58 -28 -99 -76q-45 -49 -45 -89q0 -13 6 -25zM496 631q9 -14 9 -37q0 -15 -2 -23q-7 -31 -26 -57t-46 -34q-16 -5 -27 0q-6 3 -3.5 6.5t8.5 4.5q32 8 51 27q36 34 36 77q0 18 -8 31q-9 16 -30 21l-6 -9 q-70 -107 -153 -255q28 -20 31 -22q56 -46 59 -102v-11q0 -115 -115 -195q-55 -37 -119 -55q-52 -13 -87 -13q-26 0 -45 5q-51 13 -59 53q-2 12 -2 19q0 38 34 90q32 49 83 92q50 42 93 56q16 4 25 4q7 -1 -1 -3q-24 -6 -48 -20q-51 -30 -97 -79q-50 -52 -70 -103 q-7 -21 -7 -39q0 -30 21 -46q26 -18 70 -18q13 0 35 2q60 7 122 38q94 47 132 122q19 36 19 78q0 43 -21 72q-19 26 -64 56q-68 -122 -101 -183q-3 -7 -30.5 -60t-43.5 -80l-6 -6q-2 5 9 27q18 35 113 218q32 60 48 91q-70 45 -70 94q0 9 1 13q5 29 28 62q35 49 91 82 q59 37 108 37h6q16 28 34 44l4 3q4 3 8 5t6 2q5 0 3 -6q0 -3 -9 -17q-19 -26 -24 -34q21 -6 33 -25z"/>
<glyph glyph-name="percent" horiz-adv-x="592" unicode="%" d="M113 400q-18 15 -18 41q0 31 20 60q34 56 86 66q5 1 14 1q28 0 39 -20q5 -12 5 -23q0 -5 -2 -13l-2 4q-1 2 -1 3q-6 36 -33 37h-5q-20 0 -50 -20q-23 -19 -39 -46q-15 -26 -15 -48q0 -4 2 -14q6 -21 29 -21q4 0 14 2q28 7 55 34q5 5 17 15q12 6 12 -1q-5 -13 -30 -38 q-28 -28 -69 -28q-17 0 -29 9zM379 198q33 -7 36 -40q1 -15 -3 -30q-4 -18 -10 -19v5q1 4 2 10l1 5q2 18 0 28q-5 28 -33 28q-6 0 -9 -1q-28 -4 -54 -30q-23 -20 -36 -52q-7 -23 -7 -32q0 -15 8 -24q8 -10 24 -10q15 0 27 6q32 15 52 43q8 12 18 20q10 7 10 0l-3 -12 q-13 -26 -38.5 -47t-53.5 -26q-4 -1 -11 -1q-28 0 -41 21q-9 13 -9 29q0 5 2 15q10 60 68 98q28 17 51 17q2 0 5 -0.5t4 -0.5zM466 559l2 1h3q4 0 4 -3q0 -2 -1 -3q-86 -86 -109 -111q-57 -62 -163 -194q-36 -45 -104 -137q-12 -16 -36.5 -50.5t-38.5 -52.5q-2 -2 -3 -2 t-1 1q0 3 2 7q10 21 63 106q73 107 159 211q97 115 181 197q26 26 42 30z"/>
<glyph glyph-name="ampersand" horiz-adv-x="509" unicode="&amp;" d="M434 304q3 6 4 7q-1 0 -4 -1v-6zM650 322q3 -3 3 -4t-2 -1q-3 1 -10.5 2.5t-11.5 2.5q-23 3 -45 3h-16q-48 0 -108 -10q-28 -46 -36 -62q-15 -45 -43 -83q-2 -4 -3 -5q-20 -39 -33 -70q-31 -68 -49 -115q-2 -5 -15 -37q0 -5 -4 -5v1q0 7 5 22q2 4 5 12.5t4 12.5 q35 89 59 145q-57 -60 -141 -102q-72 -36 -123 -37q-34 0 -60 16t-35 47q-3 13 -3 27q0 42 30 95q34 56 80 99q48 43 107 69q45 19 103 31q-42 18 -47 67v10q0 43 29 92q31 52 90 88q62 38 108 38q2 0 5.5 -0.5t5.5 -0.5q24 -2 36.5 -17.5t12.5 -38.5q0 -8 -1 -12 q-4 -25 -24 -51.5t-45 -34.5q-14 -5 -26 -4q-10 1 -12 6q0 3 5 5q42 17 44 18q19 13 33 34t14 43q0 12 -4 21q-8 23 -44 23h-4q-27 -1 -60 -18q-53 -29 -95 -82q-47 -61 -50 -116q0 -34 21 -52q7 -6 17 -9q12 -6 11 -11q0 -4 -6.5 -6.5t-17 -4t-11.5 -1.5q-33 -6 -62 -16 q-116 -41 -182 -151q-38 -64 -38 -109v-6q2 -34 26 -51q24 -16 61 -16q35 0 80 15q53 18 102 54q48 33 83 80q20 44 31 65q26 53 30 59q4 18 5 23q-23 -5 -56 -14q-39 -14 -58 -26q-18 -13 -27 -13h-1q-13 0 7 20l3 3q21 17 64 29q42 12 85 18q3 6 10 17.5t11 16.5 q11 17 22 23q8 6 13 2q2 -1 0 -6q-4 -8 -17 -26q-8 -11 -16 -25q52 5 92 5h19q34 0 57 -6q9 -2 13 -5z"/>
<glyph glyph-name="quotesingle" horiz-adv-x="149" unicode="&apos;" d="M264 597q3 0 3 -5t-7 -12q-28 -38 -78 -92q-24 -26 -37 -38q-4 -4 -6 -4v1q0 1 1 3q6 10 14 20q13 16 44 57t49 63q4 7 14 7h3z"/>
<glyph glyph-name="parenleft" horiz-adv-x="313" unicode="(" d="M309 559q5 0 5 -3q0 -1 -2 -5q-1 -1 -15 -12q-18 -11 -50 -37q-61 -53 -112 -133q-74 -120 -91 -241q-3 -27 -3 -54q0 -30 3 -61q2 -6 0 -6t-4 8q-9 26 -9 64v15q3 121 68 248q64 126 163 198q27 19 47 19z"/>
<glyph glyph-name="parenright" horiz-adv-x="329" unicode=")" d="M302 510q14 -34 14 -78q0 -20 -3 -41q-14 -118 -93 -236q-41 -60 -82 -97q-27 -25 -47 -36q-40 -20 -42 -20l-1 1q0 1 5 4t11 7l6 3q24 16 35 25q89 74 147 205q26 62 38 125q5 32 5 58q0 42 -12 73q-2 4 -5.5 13t-5.5 14q-3 6 -5 12.5t0 10.5h1q8 0 21 -18q7 -10 13 -25 z"/>
<glyph glyph-name="asterisk" horiz-adv-x="433" unicode="*" d="M287 386q-1 1 -2 2.5t-1 2.5q-1 -1 -3 -2.5t-3 -2.5h9zM453 511q2 1 6 1q2 0 2 -1t-3 -3q-20 -14 -44 -28q-70 -43 -119 -81l6 -12h108q11 -4 12 -5t-3 -2q-9 -2 -26 -2q-57 0 -86 -2q18 -37 31 -104q3 -14 1 -18l-1 -1q-1 0 -3 4t-4 9l-2 4q-9 55 -35 105q-22 -2 -32 -3 q-55 -43 -103 -94q-2 -2 -5.5 -5t-6.5 -5.5t-6 -4.5q-11 -5 -12 -3q-1 1 -1 4t7 12q45 49 102 94q-8 -1 -23.5 -2.5t-28 -3t-23.5 -3.5q-16 -2 -23 4q-3 5 1 8q2 1 22 4q39 6 95 8q4 3 11.5 8.5t10.5 8.5q-18 29 -48 62q-5 5 -7.5 11.5t1.5 11.5h2q7 0 22 -19q25 -28 42 -58 q64 45 142 91q7 4 21 10z"/>
<glyph glyph-name="plus" horiz-adv-x="361" unicode="+" d="M307 118q6 -3 6 -4q0 -3 -8 -3q-7 1 -26 4q-31 5 -75 5h-22q-33 -50 -66 -94q-10 -14 -16 -20q-3 -3 -5 -3q-1 0 -1 4q1 2 6 10q47 71 65 101q-55 -4 -111 -22q-11 -2 -16 -1q-8 0 -8 5t16 11q80 20 121 20h6q56 97 58 101q6 15 19 15q3 0 5 -1q3 -1 3.5 -3.5t-0.5 -5.5 t-2.5 -5.5t-3 -6t-2.5 -4.5q-31 -49 -60 -89q38 0 62 -4q41 -5 55 -10z"/>
<glyph glyph-name="comma" horiz-adv-x="226" unicode="," d="M74 37q-7 17 2 21q1 1 3 1q5 0 12 -13q3 -7 3 -16q0 -18 -10 -36q-34 -62 -106 -103q-1 0 -2.5 -0.5t-2.5 -0.5q-2 0 -2 1q0 3 8 8q45 26 81 83q17 27 17 45q0 5 -3 10z"/>
<glyph glyph-name="hyphen" horiz-adv-x="381" unicode="-" d="M268 123q6 0 32.5 -4t26.5 -6t-11 -2q-46 2 -70 2q-90 0 -177 -18q-3 -1 -10 -1q-8 0 -13 4q-2 2 -2 3q0 3 4 5q56 15 160 19q40 0 60 -2z"/>
<glyph glyph-name="period" horiz-adv-x="193" unicode="." d="M100 17q-8 -17 -23 -17q-8 0 -8 9q0 6 2 9q9 17 23 17q8 0 8 -9q0 -6 -2 -9z"/>
<glyph glyph-name="slash" horiz-adv-x="340" unicode="/" d="M475 550h2q2 1 3 1q4 0 4 -3q0 -2 -1 -3q-2 -5 -16 -16q-112 -107 -256 -289q-73 -91 -149 -199q-16 -24 -30 -40l-3 -3q-1 0 -1 2t2 6q2 5 6 13q20 37 57 93q161 234 340 409q26 24 42 29z"/>
<glyph glyph-name="zero" horiz-adv-x="433" unicode="0" d="M431 561q20 -20 20 -73q0 -54 -29 -127q-46 -117 -139 -221q-48 -53 -95 -88q-59 -44 -113 -55q-15 -3 -30 -3q-45 0 -72 22q-39 31 -39 99q0 3 0.5 9t0.5 9q7 109 93 247q77 123 177 196q45 31 84 44q21 7 44 9q1 0 5 0.5t8 0.5q22 0 22 -5q0 -1 -7 -2t-14.5 -2t-8.5 -1 q-19 -3 -39 -11q-41 -17 -75 -42q-93 -65 -170 -183q-88 -136 -104 -243q-3 -16 -3 -35q0 -54 30 -80q25 -22 65 -22q28 0 52 9q50 16 107 66q45 41 88 95q89 116 125 230q17 49 17 93q0 19 -2 29q-5 27 -26 36q-9 4 -23 4q-27 0 -75 -25q-51 -28 -103 -80q-40 -37 -83 -96 l-17 -25.5t-29 -43t-15 -20.5q-3 0 5 15t19 33l10 17q74 113 172 185q67 51 115 54h5q31 0 47 -19z"/>
<glyph glyph-name="one" horiz-adv-x="391" unicode="1" d="M-71 -28h-1q-6 0 -6 4q0 7 8 15q17 17 56 29q53 19 145 26q30 3 63 3q37 0 62 -5q19 -2 25 -8t-4 -4q-1 0 -6 1q-33 6 -65 6q-43 0 -127 -14t-124 -42q-13 -10 -26 -11zM443 644h1l2 1q8 0 8 -10v-1l-1 -2q-9 -15 -26.5 -43t-24.5 -41q-8 -14 -23 -40t-22 -40 q-19 -34 -77.5 -139.5t-92.5 -162.5q-5 -8 -14 -24.5t-21 -35.5t-28 -43q-7 -7 -8 -7q-1 1 0 4t2 7l1 4q10 24 70 139q92 172 128 236q44 75 95 155q-14 -11 -40 -33.5t-34 -29.5q-62 -51 -102 -77q-68 -45 -115 -59q-24 -7 -43 -7q-25 0 -43 11q-6 3 -6 5q1 1 3 0.5t4 -1.5 q18 -6 35 -6q33 0 78 20q53 24 106 63q79 57 153 128l9.5 9.5t14 12.5t11.5 7z"/>
<glyph glyph-name="two" horiz-adv-x="448" unicode="2" d="M463 639q28 -20 28 -62q0 -23 -9 -50q-34 -96 -161 -184q-34 -24 -110 -70.5t-114 -73.5q-59 -42 -102 -83q-25 -24 -44 -45q-27 -33 -35 -52q-5 -14 -3 -16q1 -1 22 3q28 8 64 20l126 39q71 19 124 22h11q29 0 45 -10q14 -8 17 -22q1 -1 0.5 -4.5t-1 -7.5t-1.5 -6.5 t-3 -2.5q-1 1 -2 7.5t-1 7.5q-5 18 -41 18q-28 0 -69 -9q-20 -4 -251 -59q-8 -2 -31 -7q-1 0 -3.5 -0.5t-4.5 -0.5q-7 0 -11 6q-1 2 -1 7q0 14 11 32q24 39 84 97q73 68 164 127q13 8 53 34.5t59.5 40t49 36.5t51.5 45q47 45 76 98q22 44 22 72q0 29 -21 44q-17 13 -42 13 q-33 0 -77 -22q-52 -27 -86 -80q-18 -28 -25 -57q-4 -16 -4 -26q0 -16 8 -25q1 -1 5.5 -4.5t7 -7t0.5 -5.5q-5 -6 -19 -1q-22 10 -22 40q0 50 52 108q39 46 93 72q40 19 72 19q29 0 49 -15z"/>
<glyph glyph-name="three" horiz-adv-x="474" unicode="3" d="M191 358q38 3 74 18q-9 2 -25 4q-2 0 -7 0.5t-7 0.5q-25 0 -51 -8q-6 -1 -12 -5.5t-1 -7.5q9 -4 29 -2zM483 604q3 -12 3 -25q0 -43 -37 -91q-50 -66 -149 -112q69 -25 76 -86q1 -7 1 -21q0 -88 -83 -177q-46 -48 -106.5 -78t-122.5 -31h-5q-63 0 -100 38q-24 24 -24 60 q0 23 8 45q19 53 71 99q19 17 47 34q31 17 38 17h1q1 -2 -22 -14q-55 -33 -92 -82q-39 -51 -39 -98q0 -30 19 -49q33 -34 91 -34h10q60 3 123 40q56 32 98 83t60 111q8 24 8 47q0 24 -10 43q-18 33 -61 47q-59 -21 -97 -21q-13 0 -19 1q-8 1 -14 5t-3 11q3 8 20 15 q24 9 53 9q23 0 53 -7q74 32 132 94q38 40 53 82q6 20 6 33q0 14 -6 26q-13 26 -45 31q-12 2 -18 2q-23 0 -50 -12q-25 -11 -51 -32q-35 -29 -49 -62q-4 -12 -4 -17q0 -10 6 -17q5 -4 15 -10q14 -5 5 -10q-2 -1 -7 -1q-15 0 -26 9q-12 12 -12 29v7q6 32 44 66q54 47 110 55 q6 1 18 1q68 0 83 -53z"/>
<glyph glyph-name="four" horiz-adv-x="433" unicode="4" d="M409 550q50 69 69 102q-38 -17 -83 -50q-93 -64 -213 -165q-103 -89 -150 -132q-30 -28 -40 -45q-9 -14 -6 -27q2 -11 20 -15q12 -2 18 -2q15 0 45 6q39 6 145 33q49 81 118 183q25 38 77 112zM96 3q6 39 38 106q22 47 53 99q3 7 10 19t9 15q-13 -3 -57 -14.5t-73 -16.5 t-58 -5h-4q-39 4 -39 32q0 23 28 53q14 15 99 90q119 103 209 172q74 55 108 77q57 34 66 34q6 0 6 -5q0 -6 -8 -19q-9 -15 -31.5 -51.5t-35.5 -55.5q-15 -24 -121 -193q-41 -67 -47 -77q41 9 69 14q32 4 49 4q16 0 31 -3l18 -7l1 -2l-15 4q-14 2 -22 2q-9 0 -49 -5 q-40 -7 -90 -20q-39 -62 -80 -140q-4 -8 -16 -30.5t-19.5 -37t-15 -35t-8.5 -36.5q0 -5 -1 -7h-1q-5 0 -5 15q0 8 2 24z"/>
<glyph glyph-name="five" horiz-adv-x="454" unicode="5" d="M548 650q0 -3 -12.5 -14t-15.5 -12q-19 -13 -45 -18q-21 -5 -53 -5q-15 0 -47 2q-8 0 -29.5 2.5t-33.5 2.5q-21 0 -38 -7q-14 -7 -33 -30q-65 -78 -102 -154l-3 -5q-2 -6 -3.5 -11t-0.5 -6l4 1q3 1 7.5 3t5.5 2q35 14 64 20q38 9 66 9q35 0 62 -13q52 -25 52 -89 q0 -2 -0.5 -6.5t-0.5 -6.5q-5 -57 -42 -120q-30 -52 -78 -99q-49 -46 -103 -75q-64 -34 -117 -34h-7q-65 2 -90 48q-10 20 -10 43q0 31 18 75q23 55 68 103q21 23 42 38q29 19 30 19q0 -1 -4.5 -5t-10 -8t-6.5 -5q-5 -4 -31 -27q-26 -26 -52 -66q-42 -63 -43 -118v-6 q0 -30 16 -49q21 -23 52 -29q16 -2 24 -2q44 0 104 30q53 28 99 74q44 44 76 100q37 67 41 119v10q0 51 -42 71q-26 11 -61 11q-32 0 -64 -8q-32 -6 -62 -18q-15 -5 -16 7q0 5 8 24q40 75 112 166q19 23 39 30q27 11 62 11q13 0 36.5 -2t30.5 -2h23l58 5q22 5 46 20 q1 0 3 1.5t3.5 2.5t2.5 1t1 -1z"/>
<glyph glyph-name="six" horiz-adv-x="485" unicode="6" d="M120 348q-13 -6 -37 -20q-45 -75 -61 -119q-24 -63 -24 -108q0 -14 1 -21q3 -35 21 -55q18 -21 50 -26q16 -2 23 -2q30 0 71 16q53 22 102 68q49 44 79 96q25 42 34 89q3 15 3 31q0 42 -25 64q-32 27 -86 27q-17 0 -34 -3q-55 -7 -117 -37zM507 615q12 -17 12 -44 q0 -29 -13 -60q-33 -69 -83 -80q-13 -4 -22 0q-3 1 -2 3q1 3 21 8q24 8 47 33q45 49 45 97q0 6 -2 16q-5 28 -31 42q-14 7 -32 7q-1 0 -28 -3q-54 -10 -116 -54q-50 -35 -98 -86q-58 -63 -115 -154q66 38 140 52q28 5 53 5q44 0 73 -16q48 -28 48 -89v-7q-4 -93 -83 -175 q-81 -82 -167 -112q-35 -11 -63 -11q-57 0 -84 38q-23 29 -23 82q0 21 3 41q11 74 52 149q-8 -6 -24 -20q-14 -13 -40 -41q-1 -1 -7.5 -9t-12.5 -15.5t-7 -7.5t3 6.5t8.5 13.5t5.5 8q16 21 29 33q21 23 53 46q38 71 91 137q94 114 198 167q58 30 105 30q16 0 24 -2 q26 -6 42 -28z"/>
<glyph glyph-name="seven" horiz-adv-x="448" unicode="7" d="M622 641q0 4 -6 4q-9 0 -13 -2q-45 -12 -93 -49l-39 -33q83 24 130 57q18 14 21 23zM557 634q32 19 59 19q13 0 13 -11q0 -12 -16 -25q-46 -37 -155 -69q-78 -74 -194 -206q16 1 49 1q50 0 84 -10l3 -1q2 -2 3 -3.5t0 -2.5q-2 -1 -5 0l-4 1q-34 7 -72 7q-24 0 -68 -4 q-4 -4 -12.5 -14t-12.5 -14q-95 -111 -158 -211q-35 -56 -51 -89q-10 -21 -11 -21t1 7q14 47 53 112q28 48 74 113q35 49 85 113q-113 -18 -169 -51q-5 -4 -17 -10q-14 -3 -16 -2q-2 2 -2 4q0 6 16 22q22 17 73 31q58 15 127 20q92 113 187 198q-58 -14 -115 -21 q-50 -6 -76 -6q-28 0 -49 4q-57 8 -72 41q-1 3 -3 11.5t0 8.5q1 0 2 -3.5t2 -6.5l2 -4q7 -20 44 -33q29 -8 67 -8h16q88 1 196 30q72 59 122 83z"/>
<glyph glyph-name="eight" horiz-adv-x="433" unicode="8" d="M283 323q-10 12 -30.5 31.5t-28.5 28.5q-6 -2 -18 -7t-14 -6q-121 -52 -181 -123q-59 -73 -59 -136q0 -28 13 -51q32 -57 111 -57q52 0 94 22q56 28 95.5 81t45.5 114q0 3 0.5 7.5t0.5 6.5q0 53 -29 89zM463 589q-3 -44 -31 -75q-29 -31 -60 -31q-7 0 -10 1q-15 4 -7 10 q4 3 14 5q21 5 36 16q41 29 47 69q0 2 0.5 5t0.5 4q0 24 -15 35q-15 12 -39 12q-8 0 -22 -2q-58 -10 -109 -58q-44 -41 -60 -91q-3 -11 -3 -20q0 -35 33 -70q9 3 28 10t29 10q90 30 93 30q6 0 -72 -32q-14 -6 -16 -6q-9 -4 -27 -10t-27 -10q6 -5 19.5 -17t23.5 -22t17 -20 q28 -40 28 -93q0 -10 -2 -28q-10 -60 -49.5 -112t-94.5 -81q-51 -27 -109 -27q-66 0 -107 41q-30 30 -30 77q0 54 39 115q60 92 198 152q6 3 18.5 8t18.5 7q-28 33 -28 71q0 17 6 35q20 51 71 92q52 43 111 55q16 2 24 2q22 0 37 -8q24 -13 26 -49z"/>
<glyph glyph-name="nine" horiz-adv-x="459" unicode="9" d="M469 493q43 16 56 61q2 10 2 16q0 25 -16 41q-18 18 -54 22q-6 1 -17 1q-47 0 -107 -29q-91 -45 -163 -142q-35 -45 -50 -86q-10 -28 -10 -50q0 -41 34 -49q6 -2 19 -2q27 0 69 16q55 23 97 70q15 17 30 39t22.5 35.5t24.5 45t21 39.5q4 5 9.5 4.5t6.5 -5.5q1 -4 -2 -25 q-27 -115 -95 -241q-71 -126 -159 -193q-56 -42 -112 -59q-32 -8 -51 -8q-44 0 -67 29q-16 22 -16 52q0 29 14 62q12 30 31 51q35 35 38 35h1q0 -1 -1 -2q-32 -35 -36 -40q-21 -30 -30 -55q-9 -27 -9 -49q0 -35 21 -55q19 -18 50 -18q32 0 70 17q52 21 103 68q79 72 149 206 q52 97 82 194q-40 -70 -71 -112q-65 -82 -153 -107q-20 -6 -42 -6q-34 0 -50 19q-17 18 -17 49q0 29 16 69q22 51 72 104q94 102 219 132q24 6 50 6q46 0 71 -25q20 -20 20 -50q0 -45 -34 -71q-26 -18 -41 -18q-3 0 -9 2q-6 3 0.5 6.5t13.5 5.5z"/>
<glyph glyph-name="colon" horiz-adv-x="151" unicode=":" d="M148 139q-8 -17 -23 -17q-6 0 -8 5t2 13q9 17 23 17q8 0 8 -9q0 -6 -2 -9zM84 43q-8 -17 -23 -17q-8 0 -8 9q0 6 2 9q9 17 23 17q8 0 8 -9q0 -6 -2 -9z"/>
<glyph glyph-name="semicolon" horiz-adv-x="151" unicode=";" d="M156 37q-7 17 2 21q8 5 15 -12q3 -8 3 -16q0 -18 -10 -36q-34 -62 -106 -103q-1 0 -2.5 -0.5t-2.5 -0.5q-2 0 -2 1q0 3 8 8q45 26 81 83q17 27 17 45q0 5 -3 10zM246 139q-8 -17 -23 -17q-8 0 -8 9q0 6 2 9q9 17 23 17q8 0 8 -9q0 -6 -2 -9z"/>
<glyph glyph-name="less" horiz-adv-x="356" unicode="&lt;" d="M275 37q9 -2 0 -4h-3q-17 0 -23 3q-46 16 -83 35q-55 28 -115 68q-8 5 -11 14q0 2 -0.5 4.5t1 4.5t3.5 1q9 -4 17 -11q51 -34 125 -74q63 -31 78 -37q5 -2 11 -4zM288 281l2 -2q0 -1 -4 -1q-52 -19 -136 -58q-110 -54 -124 -62q-8 -5 -17 -5q-10 0 -10 5t14 12 q35 20 94 48q73 35 117 50q41 13 51 14h7q4 0 6 -1z"/>
<glyph glyph-name="equal" horiz-adv-x="349" unicode="=" d="M267 97q11 -4 12 -5q1 -2 -3 -3q-10 -1 -28 -1h-27q-67 -1 -201 -17q-1 0 -3.5 -0.5t-3.5 -0.5q-8 0 -15 5q-2 2 -2 4t2 4q2 1 20 4q73 10 219 10h30zM306 190q12 0 12 -5q0 -2 -3 -2q-4 -1 -26 -1h-12q-78 0 -218 -18h-5q-11 0 -17 5q-2 2 -2 4q0 3 2 3q1 0 5 1l8 2t7 1 q58 9 219 11q20 0 30 -1z"/>
<glyph glyph-name="greater" horiz-adv-x="374" unicode="&gt;" d="M120 256q-9 2 0 4h3q17 0 23 -3q46 -16 83 -35q55 -28 115 -68q8 -5 11 -14q0 -2 0.5 -4.5t-1 -4.5t-3.5 -1q-9 4 -17 11q-51 34 -125 74q-63 31 -78 37q-5 2 -11 4zM107 12l-2 2q0 1 4 1q52 19 136 58q110 54 124 62q7 5 17 5t10 -5t-14 -12q-35 -20 -94 -48 q-73 -35 -117 -50q-41 -13 -51 -14h-6q-5 0 -7 1z"/>
<glyph glyph-name="question" horiz-adv-x="399" unicode="?" d="M99 36q14 0 5 -18q-8 -17 -23 -17q-8 0 -8 8q0 4 3 10q8 17 23 17zM451 567q29 -12 29 -48q0 -26 -16 -60q-23 -47 -78 -102q-20 -20 -94 -90q-53 -50 -89 -88q-17 -17 -49 -53q-10 -10 -11 -10l1 2q1 3 2.5 5t2.5 3q31 40 34 43q25 29 58 62q16 17 61 60.5t68 68.5 q55 59 76 101q19 34 19 60q0 31 -28 39q-10 3 -22 3q-19 0 -42 -7q-31 -9 -56 -27q-64 -44 -72 -95q-2 -10 -2 -16q0 -15 9 -23q3 -2 9 -5t9 -5q9 -5 -3 -9q-2 -1 -7 -1q-12 0 -21 9t-11 22v6q0 23 17 51q29 50 87 83q28 16 59 23q15 3 30 3q18 0 30 -5z"/>
<glyph glyph-name="at" horiz-adv-x="528" unicode="@" d="M476 234q6 5 3 -2q-8 -13 -22 -29q-12 -14 -38 -42q-60 -62 -96 -84q-14 -7 -23 -7q-12 0 -13 12q-1 15 13 43q9 17 27 49q-18 -20 -46 -45q-70 -61 -103 -61q-23 0 -23 28q0 32 22 73q29 52 85 89q29 19 58 29q24 8 40 8q6 0 16 -2q28 -6 35 -26q5 -11 -2 -14 q-3 -1 -5 1.5t-4 6t-3 4.5q-13 21 -43 21q-17 0 -36 -7q-41 -16 -80 -60q-37 -42 -56 -83q0 -1 -4 -9.5t-7 -17.5t-3 -16q0 -9 6 -12q6 -2 9 -2q18 0 48.5 21.5t51.5 41.5t35 36q18 21 36 45q8 11 16 15q2 1 4.5 2t5.5 1t4.5 -2t0.5 -6q-1 -5 -10 -19q-34 -49 -55 -84 q-19 -36 -19 -48q17 4 51 29q45 35 95 89q12 13 29 34zM543 339q9 -19 9 -44q0 -33 -10 -53q-7 -10 -10 -10q-1 5 2 19q3 17 3 33q0 51 -30 82t-87 35q-2 0 -7 0.5t-8 0.5q-53 0 -113 -24q-116 -48 -193 -149q-43 -59 -55 -113q-5 -20 -5 -39q0 -30 12 -54q31 -62 120 -62 q44 0 94 16q58 19 112 57q26 17 43 33q1 1 9 7.5t15 12.5t8 6t-5.5 -7.5t-14 -15t-7.5 -8.5q-100 -95 -219 -112q-17 -3 -35 -3q-96 0 -132 67q-16 31 -16 65q0 49 28 105q20 40 58 83q42 48 99 86q102 66 196 66q2 0 7.5 -0.5t8.5 -0.5q40 -2 73 -22.5t50 -56.5z"/>
<glyph glyph-name="A" d="M358 305q60 5 127 5q56 128 85 192l27 63q15 37 16 48q-1 1 -8 -7t-18 -21t-21 -25t-19 -22.5t-10 -11.5q-15 -18 -45 -56t-45 -56q-53 -66 -89 -109zM620 296q32 -8 32 -12h-1q-4 0 -21 4t-18 4q-44 9 -105 9q-58 -132 -87 -199q-14 -33 -23 -59q-8 -22 -8 -37 q0 -7 1 -10q3 -9 14 -9q29 0 88 47q45 34 93 82q6 6 18.5 19.5t19.5 20.5q1 1 6 5t5 3q0 -2 -2 -4.5t-4.5 -5.5t-3.5 -4q-25 -30 -69 -73q-53 -51 -97 -80q-34 -21 -53 -23h-4q-27 0 -27 35q0 20 12 56q15 42 95 236q-30 -1 -135 -10q-40 -48 -74 -85q-109 -120 -192 -186 q-60 -48 -102 -60q-10 -3 -22 -3h-5q-17 0 -17 7q0 1 1 2q2 2 18 5q63 13 133 68q40 31 99 88q73 74 148 162q-49 -7 -99 -18q-96 -20 -143 -58q-2 -1 -7.5 -6.5t-8.5 -7.5q-5 -3 -5.5 2.5t0.5 8.5q5 11 14 19q29 26 89 43q71 22 172 32l21 24q68 82 164 204q8 10 23 29.5 t27.5 35.5t24.5 29q8 8 16 8q5 0 8 -6q2 -8 2 -12q0 -2 -3 -20q-8 -33 -46 -126q-67 -151 -72 -161q75 -4 110 -13z" unicode="A"/>
<glyph glyph-name="B" horiz-adv-x="599" unicode="B" d="M465 376q-23 5 -43 5q-15 0 -39 -4q-17 -3 -32 -9q-13 -7 -14 -9q9 -4 27 -4q12 0 32 2q33 4 69 19zM564 602q-40 26 -110 28q-29 -50 -79 -136.5t-92 -159t-80 -135.5q99 31 211 31h19q62 -2 110 -15q7 18 8 34q1 6 1 19q0 62 -45 90q-13 8 -25 12q-60 -22 -119 -22 q-23 0 -30 6q-6 6 2 12q37 22 86 22q25 0 56 -7q21 10 38 21q59 41 82 95q8 19 8 36q0 13 -4 24q-10 28 -37 45zM421 62q91 72 120 146q-26 8 -63 11q-29 4 -68 4q-96 0 -191 -28q-18 -5 -23 -7q-72 -117 -90 -144q-10 -15 -15 -19q-2 -2 -2 2q1 0 1 2v1q2 6 7 15.5t6 12.5 q9 17 32.5 59t32.5 61q-48 -20 -69 -33q-64 -40 -82 -82q-6 -13 -6 -27q0 -18 10 -32q13 -20 38 -30q32 -14 79 -14q16 0 44 2q130 15 239 100zM620 178q15 -15 14 -17l-6 5l-14 10t-8 6q-13 9 -42 19q-26 -78 -117 -146q-104 -78 -235 -98q-34 -6 -70 -6q-35 0 -58 6 q-33 8 -56.5 28t-23.5 52q0 45 58 91q42 34 113 61q106 188 253 441q-68 -3 -120 -18q-82 -21 -132 -56q-73 -48 -95 -87q-10 -16 -10 -32q0 -17 15 -22q4 -1 12.5 -2t12.5 -2q12 -3 -5 -11q-2 -1 -3 -1q-8 -2 -11 -2q-24 0 -34 22q-3 7 -3 16q0 15 12 37q23 38 76 73 q103 71 239 87q31 4 50 5q10 17 26 33q10 10 14 10h1l1 -1q2 -1 2 -4q0 -4 -17 -38q29 0 56 -6q71 -17 98 -65q10 -19 10 -41q0 -39 -29 -78q-36 -45 -99 -72q11 -4 23 -11q52 -33 55 -102v-7q0 -21 -7 -47q38 -15 54 -30z"/>
<glyph glyph-name="C" horiz-adv-x="374" unicode="C" d="M537 637q27 -24 27 -58q0 -39 -35 -87q-36 -49 -94 -86q-47 -29 -85 -34q-2 0 -6.5 -0.5t-6.5 -0.5q-25 0 -38 13q-8 8 -4 10q3 2 10 -1q7 -2 17 -4q4 -1 12 -1q43 0 105 37q59 37 91 86q24 35 24 67q0 21 -11 36q-20 30 -65 30h-5q-52 -1 -120 -38q-108 -57 -202 -169 q-81 -95 -122 -198q-28 -73 -29 -131v-7q0 -74 37 -108q26 -22 65 -22q11 0 17 1q54 6 119 44q49 28 101 74q20 17 42 41q1 1 8 9t13 15l7 7q2 -1 -9 -16t-14 -18q-22 -24 -34 -35q-33 -32 -81 -66q-50 -33 -95 -51q-43 -16 -75 -16q-15 0 -29 3q-88 19 -88 147q0 35 7 72 q21 101 95 211q72 106 175 179q43 32 93 54q67 30 124 30q37 0 59 -19z"/>
<glyph glyph-name="D" d="M197 147q-50 -82 -65 -104q-7 -12 -13 -16q-2 -1 0 6l2 4q9 21 29.5 60t22.5 43q-29 -9 -66 -26q-57 -28 -90 -66q-20 -22 -20 -40q0 -6 1 -9q6 -25 46 -34q17 -4 39 -4q37 0 82 12q68 17 117 39q118 51 214 144q-55 14 -124 14q-86 0 -175 -23zM467 613 q-11 -19 -31.5 -54.5t-24.5 -42.5q-154 -268 -209 -360q86 21 166 21q68 0 134 -15q87 85 127 183q26 65 26 106q0 27 -9 52q-21 56 -79 85q-42 22 -100 25zM524 156q22 -7 44 -20q9 -6 22 -17t10 -13l-2 1q-1 1 -3 2.5t-3 2.5q-29 25 -74 38q-111 -106 -261 -161 q-68 -25 -126 -33q-32 -4 -49 -4q-13 0 -19 1q-38 4 -57 20q-17 13 -17 34q0 9 3 18q6 16 31 41q43 42 110 67q30 12 45 16q58 106 88 158q33 60 122 215q7 12 19.5 33.5t21.5 37.5t12 21q-98 -2 -189 -35.5t-154 -98.5q-46 -46 -53 -83q-4 -18 5 -28q8 -7 26 -7q4 0 14 1.5 t15 0.5q12 -3 -6 -13q-12 -6 -26 -6q-16 0 -27 8q-16 11 -16 33q0 10 3 20q15 49 76 98q49 41 102 64q116 52 235 53q9 17 21 30q12 12 17 14l1 1h2q3 0 3 -4q0 -6 -8 -22q-3 -6 -11 -20q69 -3 120 -31q29 -15 53 -46q32 -42 32 -99q0 -16 -1 -23q-4 -33 -19 -71 q-44 -109 -132 -194z" unicode="D"/>
<glyph glyph-name="E" horiz-adv-x="419" unicode="E" d="M380 383q-35 0 -59 -5q25 -25 65 -28q21 -2 31 1q18 8 9 18q-10 12 -46 14zM545 635q18 -15 18 -45q0 -31 -21.5 -60t-51.5 -38q-19 -4 -27 -1q-7 4 -4 6.5t10 4.5q33 10 53 30q30 30 30 64q0 24 -18 36q-20 14 -48 14q-34 0 -70 -18q-52 -25 -89 -83q-32 -52 -32 -101 q0 -33 19 -58q34 4 53 4h11q36 -2 50 -14q15 -11 4 -24q-11 -11 -35 -11q-9 0 -13 1q-48 5 -77 33q-59 -14 -111 -49q-91 -61 -137 -170q-19 -47 -19 -88q0 -21 4 -37q8 -28 30 -47t51 -19h2h4q47 0 111 31q48 24 100 66q56 44 105 93l10 7q0 -4 -10 -14q-48 -52 -100 -93 q-48 -37 -97 -63q-70 -37 -123 -37q-51 0 -81 34q-29 32 -29 86q0 17 3 32q9 56 48 115q54 85 144 130q39 20 88 31q-10 13 -18 30q-8 20 -8 45q0 44 26.5 86t65.5 69q60 41 121 41q38 0 58 -19z"/>
<glyph glyph-name="F" horiz-adv-x="323" unicode="F" d="M46 518q71 37 182 65q118 30 261 48q114 15 229 15h34q114 -6 176 -30q2 -1 12.5 -6.5t20 -12t7.5 -7.5q-2 2 -8 5l-5 3q-51 28 -154 36q-39 3 -78 3q-61 0 -122 -6q-142 -13 -270 -40q-173 -37 -260 -80q-23 -11 -42 -24q-8 -5 -16 -15q-5 -6 -6 1q-1 2 0 5q4 19 39 40z M429 318q31 -10 31 -13h-1q-9 0 -30 7q-53 11 -132 11h-23q0 -1 -0.5 -1t-0.5 -1q-20 -36 -57 -107t-68 -127t-62 -105q-10 -15 -12 -15q-1 1 0 3.5t2 5.5l1 4q27 62 171 342q-127 -6 -240 -32q-74 -20 -103 -34q-22 -11 -42 -28q-16 -16 -19 -13q-2 2 -2 5t1 6t3 6t2 4 q4 7 21 20q38 27 113 44q121 30 271 32q28 55 86 165q14 25 28 35q4 4 8 4t4 -6q0 -5 -3 -11.5t-7 -14t-6 -10.5q-14 -27 -42.5 -81t-42.5 -81q87 0 151 -14z"/>
<glyph glyph-name="G" horiz-adv-x="395" unicode="G" d="M50 -222q49 61 154 222q47 73 53 83q-111 -67 -192 -141q-42 -38 -78 -81q-48 -57 -65 -110q-6 -27 -6 -35q0 -13 5 -19q7 -8 16 -8q7 0 14 3q25 9 53 37q12 11 46 49zM601 554q1 -4 1 -12q0 -32 -22.5 -57t-54.5 -25q-17 0 -18 6q0 2 3 4q1 1 23 9q30 12 44 36 q8 15 8 32q0 45 -47 64q-21 8 -51 8q-15 0 -45 -4q-62 -9 -121 -42q-89 -49 -163 -146q-36 -48 -58 -88q-36 -67 -44 -125q-2 -12 -2 -20q0 -21 9 -39q13 -23 46 -26q2 0 6 -0.5t6 -0.5q31 0 67 16q48 21 104 75q39 38 87 100q16 21 79 111q10 16 17 24q3 3 7 3q6 0 6 -5 q0 -6 -8 -22q-22 -47 -49 -96t-67 -117t-55 -94q46 27 101 54q8 5 48.5 24t45.5 19l-70 -39l-1 -1q-32 -17 -34 -18q-33 -17 -99 -53q-54 -90 -109 -172q-4 -6 -26 -37.5t-28.5 -40.5t-26 -35.5t-31 -39t-29.5 -32.5t-35.5 -35t-36.5 -28q-24 -14 -41 -14q-1 0 -4 0.5 t-4 0.5q-25 5 -25 41q1 29 16 58q21 49 71 104q37 43 96 92q78 66 180 127q116 181 185 305q-12 -16 -34 -46q-38 -53 -75 -95q-100 -114 -185 -139q-24 -7 -44 -7q-48 0 -68 35q-13 25 -13 55q0 27 12 71q21 69 76 143q76 98 181 154q99 52 188 52h8q46 -2 69 -18 q29 -20 34 -54z"/>
<glyph glyph-name="H" horiz-adv-x="580" unicode="H" d="M150 35q67 82 140 209q-82 -19 -156 -71q-58 -43 -93 -84q-52 -59 -59 -111q-1 -4 -1 -14q0 -29 19 -34q3 -1 10 -1q18 0 47 18q44 28 93 88zM294 253q31 51 70 132q17 33 48.5 100t54.5 109q8 14 10 16q6 10 11 14q3 2 2 -7q-2 -11 -4 -16q-28 -75 -91 -205 q-33 -70 -72 -138q35 5 64 5q68 0 136 -22q13 25 39 74.5t39 74.5q22 41 129 230q13 24 30 40q9 9 13 9q2 0 2 -3q0 -10 -30 -63q-53 -92 -115 -205q-50 -89 -89 -164q39 -15 60 -30q5 -4 19.5 -16.5t11.5 -14.5q-39 36 -94 55q-84 -162 -116 -219q-10 -17 -13 -21t-4 -3 q-1 2 2 8q6 17 44 101q10 21 21.5 44.5t25.5 52t22 44.5q-66 20 -134 20q-30 0 -67 -5q-28 -49 -54 -89q-86 -134 -166 -198q-31 -24 -53 -33q-20 -9 -36 -9q-13 0 -23 7q-15 12 -15 35q0 26 19 64q25 52 78 101q48 47 105 78q59 32 120 47z"/>
<glyph glyph-name="I" horiz-adv-x="575" unicode="I" d="M196 495q-23 -17 -34 -36q-8 -17 -12 -7q-2 7 0 19q9 34 76 66q78 39 212 65q132 25 254 28h25q92 0 156 -15q6 -2 24.5 -8.5t18.5 -9.5q0 -1 -4 0.5t-9 3.5t-6 2q-65 20 -154 20q-6 0 -18.5 -0.5t-18.5 -0.5q-124 -4 -265 -35q-73 -15 -129 -35q-79 -28 -116 -57z M586 565q8 4 10 4q4 0 4 -6t-12 -27q-19 -36 -56.5 -108t-55.5 -108q-100 -184 -152 -275q-7 -13 -15 -23q18 1 53 1q44 0 65 -2q42 -4 62 -9q35 -9 35 -13q-1 -1 -3.5 0t-5.5 2q-59 14 -129 14q-54 0 -108 -6q-56 -5 -135 -19q-93 -19 -129 -35q-15 -6 -33 -10 q-1 0 -3 -0.5t-4 -0.5q-6 0 -6 4q0 5 8 10q16 11 67 25q111 30 261 39q5 15 15 35q22 41 59.5 118.5t54.5 110.5q57 110 128 245q10 22 25 34z"/>
<glyph glyph-name="J" horiz-adv-x="352" unicode="J" d="M935 610q2 -1 5.5 -2t8 -3t8 -3.5t5.5 -2.5t2 -2q-7 2 -27.5 6.5t-21.5 4.5q-73 14 -159 14h-31q-129 -3 -255 -30q-147 -31 -248 -85q-62 -32 -109 -73q-61 -52 -84 -99q-13 -28 -13 -49q0 -24 16 -35q13 -10 28 -10q19 0 43 12l33 21q11 7 11 -1q1 -4 -7 -17 q-27 -32 -71 -32q-8 0 -12 1q-24 3 -38 19t-14 40v7q4 47 53 102q67 77 174 132q165 85 383 107q60 5 109 5q42 0 82 -3q69 -7 129 -24zM127 -52q66 100 98 151q-84 -48 -159 -108q-99 -81 -147 -165q-17 -29 -27 -58q-8 -22 -8 -38q0 -8 3 -15q4 -12 16 -12q19 0 61 34 q40 37 86 98q27 37 77 113zM498 532q11 11 12 11h1q1 -1 1 -4q0 -6 -3 -12q-7 -16 -25 -48q-21 -37 -65 -111q-32 -54 -145 -233q62 34 113 55q18 8 54 22q27 9 34 9h1q0 -1 -8.5 -4.5t-19.5 -7.5t-13 -5q-104 -47 -170 -82q-53 -84 -136 -207q-3 -5 -13.5 -19.5 t-14.5 -20.5t-13.5 -19.5t-14.5 -20t-14 -18.5t-15.5 -19.5t-15.5 -18t-16.5 -18.5t-16.5 -16.5t-18 -16.5q-27 -23 -49 -33q-16 -6 -25 -6q-19 0 -27 16q-5 9 -5 23q0 17 7 38q7 22 26 59q51 90 166 180q69 56 164 108q77 121 194 317q40 66 70 102z"/>
<glyph glyph-name="K" horiz-adv-x="544" unicode="K" d="M592 -80h11l-7 -4q-10 -2 -15 -2q-2 0 -5.5 0.5t-5.5 0.5q-25 3 -55 20q-43 26 -89 89q-36 52 -60 109q-30 70 -31 127q0 14 4 26q8 15 15 13q5 -2 1 -23v-12q0 -34 12 -80q16 -60 49 -120q76 -144 172 -144h4zM956 702q13 -13 13 -14t-1 -1q-3 0 -10.5 3t-9.5 3 q-15 4 -34 4q-34 0 -78 -16q-52 -19 -115 -57q-94 -56 -211 -156q-143 -122 -265 -257q-62 -69 -121 -142q-8 -10 -24 -31t-24 -31q-13 -16 -16 -18l-1 -1h-2q-7 0 -7 9q0 5 10 25q46 93 129 243q88 162 133 242q34 64 68 109q13 15 16 18q4 3 5 0t0 -7q-3 -14 -23 -49 q-73 -136 -297 -531q17 19 47.5 56t41.5 49q191 219 386 376q131 106 217 149q70 36 119 37q33 0 54 -12z"/>
<glyph glyph-name="L" horiz-adv-x="478" unicode="L" d="M-16 -38q-35 -15 -50 -37q-5 -10 -1 -12h6q15 0 35 11q39 20 84 65q-37 -10 -74 -27zM481 649q3 3 5 3t2 -6t-1 -8q-10 -29 -25.5 -62.5t-26 -53.5t-33.5 -61.5t-30 -54.5q-69 -116 -147 -225q-73 -103 -136 -172q74 19 130 27q37 5 66 5q32 0 56 -4q55 -8 73 -41 q1 -1 2 -3.5t2.5 -6.5t1.5 -6t-1 -3l-1 3q-2 2 -4 5t-3 5q-15 19 -44 26q-31 8 -83 8q-90 -1 -208 -29q-12 -14 -17 -19q-45 -45 -97 -66q-14 -6 -23 -6q-1 0 -3 0.5t-3 0.5q-10 3 -10 13q0 4 1 6q9 19 43 38q45 24 103 41q33 37 67 84q69 93 150 226q29 45 57.5 95.5 t64 115.5t53.5 98q12 20 19 27z"/>
<glyph glyph-name="M" d="M698 661q2 2 4 2q7 0 7 -7q0 -3 -3 -9q-16 -33 -64 -115q-90 -156 -132 -235q-80 -148 -111 -243q-9 -29 -9 -45q0 -11 3 -18q4 -10 16 -10q7 0 26 8q42 19 101 74q12 11 25 24t28.5 29t24.5 25q1 0 3 3q6 4 7 3q-1 -2 -10 -14q-19 -22 -41 -44q-120 -120 -166 -120 q-17 0 -26 18q-4 9 -4 24q0 14 3 26q14 72 68 189q53 112 127 234q33 57 87 143q-28 -34 -29 -35q-39 -49 -74 -95q-100 -130 -149 -196q-22 -28 -61.5 -81t-72.5 -96t-65 -79q-11 -8 -16 -8q-6 0 -9 9q-1 8 3 24q12 48 30 92q35 96 106 251q8 19 17.5 40t21.5 46.5t18 39.5 q-25 -32 -74 -100q-188 -251 -334 -384q-93 -83 -154 -112q-38 -18 -64 -18q-6 0 -16 2q-9 3 -9 6q0 2 4 3q6 2 18 4q19 3 39 9q52 15 113 60q47 33 98 83q82 81 180 201q92 113 163 216q32 47 67 103q5 7 12 5t6 -11q-11 -30 -128 -301q-10 -24 -33 -76.5t-39 -93 t-29 -78.5q58 58 147 176q30 38 83 109t66 89q55 73 167 215q4 4 10.5 12.5t12 15t10.5 11.5z" unicode="M"/>
<glyph glyph-name="N" horiz-adv-x="544" unicode="N" d="M1110 680q4 -4 4 -7q0 -1 -9 3q-29 15 -64 15q-19 0 -39 -5q-57 -13 -120 -49q-211 -121 -364 -372q-51 -82 -113 -223q-10 -26 -17 -38q-8 -14 -15 -4q-2 3 -2 13q1 50 16 132q24 135 60 266q9 31 34 127q-68 -99 -85 -123q-89 -127 -161 -218q-93 -117 -179 -195 q-50 -47 -88 -69q-30 -17 -52 -23q-10 -2 -16 -2q-2 0 -5.5 0.5t-4.5 0.5q-16 3 -16 12q0 6 20 6q14 0 27 3q27 7 57 25q47 28 100 79q79 76 178 203q78 99 159 222q39 60 69 112q7 11 13 9q8 -2 6 -17q-12 -63 -75 -327q-32 -140 -39 -195q50 104 58 120q42 84 96 162 q76 109 171 200q115 111 213 156q55 26 104 27h7q26 0 49 -10q14 -7 23 -16z"/>
<glyph glyph-name="O" horiz-adv-x="451" unicode="O" d="M463 529q35 1 82 10q-5 52 -39 72q-14 7 -32 7q-48 0 -83 -37q-14 -14 -10 -28q8 -24 75 -24h7zM906 664h1l-7 -7q-27 -17 -54 -30q-107 -53 -236 -83q-29 -7 -49 -11q1 -8 1 -24q0 -32 -9 -73q-14 -59 -47 -120q-63 -113 -162 -205q-53 -48 -103 -79q-70 -43 -121 -44 h-3q-56 0 -81 45q-14 29 -16 65v13q0 71 39 158q47 106 130 195q40 44 80 71q37 25 64 31q17 0 8 -6q-50 -29 -86 -61q-39 -33 -78 -79q-86 -103 -123 -207q-21 -52 -22 -103v-6q0 -54 27 -82q22 -22 58 -22q19 0 43 7q48 17 109 65q93 75 175 190q93 132 102 237q0 3 0.5 8 t0.5 8q0 2 -0.5 7.5t-0.5 8.5q-52 -9 -91 -9q-20 0 -41 3q-41 7 -41 34q0 23 32 44q29 19 56 23q5 1 16 1q26 0 42 -12q33 -26 40 -73q6 1 17.5 3.5t16.5 3.5q122 30 229 76q11 5 34 16t34 16q1 1 7 3.5t9 3.5z"/>
<glyph glyph-name="P" horiz-adv-x="411" unicode="P" d="M551 430q33 50 33 92q0 7 -2 19q-12 52 -80 82q-23 9 -54 16q-8 -14 -23 -40.5t-23 -39.5l-126 -216q-22 -38 -68 -114q17 0 49 4q112 22 211 104q52 44 83 93zM146 597q-123 -53 -198 -149q-11 -13 -25 -38.5t-14 -39.5q0 -1 1 -3v-2q1 -7 8 -12q12 -8 11 -11 q-2 -6 -14 -3q-7 1 -13 6q-13 10 -13 27q0 20 17 49q17 30 53 66q87 86 221 132q108 37 209 37q14 0 42 -2q17 22 22 27q8 8 14 8q3 0 3 -3q0 -5 -3 -11l-4 -8t-4.5 -8.5t-3.5 -7.5q68 -11 108 -42q44 -35 44 -90q0 -7 -2 -21q-17 -78 -98 -152q-98 -87 -226 -117 q-40 -9 -70 -9h-8q-42 -70 -64 -105q-56 -92 -87 -136q-6 -8 -8 -8q0 4 5 14q12 27 40.5 78t31.5 56q20 34 60 104q-8 1 -19 5q-34 13 -37 42q-1 12 6 27q1 1 3 5t5 7.5t4 3.5l-1 -3q-2 -4 -4 -9t-3 -7q-5 -13 -4 -24q3 -21 25 -31q14 -6 30 -9q11 20 33.5 59t33.5 58 q24 40 67 115.5t60 103.5q9 17 45 77q-29 3 -55 3q-116 0 -224 -49z"/>
<glyph glyph-name="Q" horiz-adv-x="486" unicode="Q" d="M48 24q22 -39 71 -39q17 0 35 5q52 14 114 61l18 15q-37 24 -75 29q-27 2 -34 6q-11 5 5 11q3 2 5 2q11 2 21 0q47 -6 91 -38q74 63 147 160q43 60 70 112q41 78 41 143q0 42 -19 75q-36 61 -136 61q-39 0 -74 -8q-110 -24 -231 -105q-90 -62 -187 -161q-25 -25 -29 -28 h-1q0 2 3 5q4 6 14 18q35 39 84 83q105 94 208 145q121 63 219 63q3 0 9.5 -0.5t9.5 -0.5q63 -4 101 -36t46 -85q2 -11 2 -32q0 -63 -33 -134q-37 -80 -103 -159q-59 -72 -127 -125q74 -55 146 -144q52 -64 83 -113q3 -6 0 -6q-1 0 -4 4q-82 107 -114 140q-60 65 -124 109 l-33 -24q-90 -59 -149 -59q-47 0 -75 38q-24 32 -24 86q0 19 3 37q7 56 37 118q50 102 144 194q44 43 95 74q38 23 58 25q6 -1 5 -3q-3 -1 -9 -4.5t-9 -5.5q-50 -29 -99 -75q-44 -38 -83 -85q-47 -57 -75 -108q-36 -68 -48 -123q-6 -32 -6 -51q0 -36 16 -67z"/>
<glyph glyph-name="R" horiz-adv-x="549" unicode="R" d="M228 192q23 5 52 17q-15 7 -35 7q-13 0 -19 -2q-26 -7 -38 -21q-1 -1 -1 -2q0 -3 10 -3q19 0 31 4zM608 473q-27 -93 -132 -172q-70 -54 -167 -93q33 -20 68 -59q43 -45 79 -104q37 -58 57 -103q14 -30 20 -51q2 -3 5.5 -17.5t3.5 -20.5q0 -3 -1 -3t-3 5t-4 11l-2 6 q-41 110 -121 217q-46 63 -87 94q-16 13 -29 19l-9 -3q-56 -21 -89 -21q-21 0 -21 12q0 10 13 19t26 13q13 5 29 5q24 0 51 -12q34 16 50 25q128 68 197 162q47 61 47 111q0 39 -31 67q-55 47 -159 49q-15 -25 -44.5 -76t-44.5 -76l-135 -228q-88 -142 -134 -212l-30 -45 q-4 -6 -10 -14q-8 -8 -8 -7t7 18q10 21 13 25l27 48q24 42 52 89.5t62.5 105.5t53.5 90q90 151 165 283q-25 0 -50 -3q-88 -9 -170 -41q-140 -56 -209 -146q-33 -44 -33 -66q0 -7 1 -11q2 -8 17 -17q9 -5 0 -7q-4 -2 -8 -1q-11 1 -20 12q-8 11 -8 23q0 16 9 34q21 45 80 93 q46 36 109 68q122 58 255 70q5 0 17 1t17 2q13 20 26 31q7 7 12 7q3 0 3 -3q0 -6 -4 -14l-12 -21q108 -2 165 -43q43 -34 43 -90q0 -20 -5 -35z"/>
<glyph glyph-name="S" horiz-adv-x="492" unicode="S" d="M381 93q59 66 59 131v11q-26 2 -39 2q-71 0 -138 -23q-63 -22 -117 -55q-64 -41 -99 -81q-34 -39 -34 -69q0 -19 17 -31q22 -15 61 -15q36 0 67 7q133 29 223 123zM512 226q5 -2 25.5 -11t20.5 -11q0 -1 -21.5 7t-23.5 9q-23 8 -52 13v-9q0 -37 -17 -71q-24 -50 -80 -95 q-54 -44 -109 -68q-61 -28 -127 -35q-22 -2 -36 -2q-52 0 -75 23q-14 14 -14 34q0 26 22 55q28 39 74 72q109 83 238 103q37 5 65 5l37 -2q-3 16 -11 31.5t-15 26t-23 24.5t-23.5 20t-28 20.5t-24.5 17.5q-67 49 -67 101q1 47 48 98q44 45 103 67q37 14 70 14t55 -15 q34 -23 34 -69q0 -19 -6 -35q-19 -60 -78 -89q-22 -11 -43 -11q-9 0 -13 1q-9 3 -6 7q1 2 10 5q4 1 12.5 3t12.5 4q66 20 91 74q10 19 10 43q0 37 -26 56q-20 15 -50 15q-33 0 -70 -16q-62 -25 -101 -75q-32 -42 -32 -77q0 -14 6 -27q6 -11 13.5 -21t20 -20.5t18 -15 t23.5 -16.5t20 -14q85 -62 92 -130q23 -4 51 -14z"/>
<glyph glyph-name="T" horiz-adv-x="255" unicode="T" d="M847 610q1 -1 5 -2.5t7.5 -3t3.5 -2.5q-5 0 -11 2q-71 22 -142 29q-59 8 -133 8q-35 0 -52 -1q-133 -4 -270 -37q-65 -15 -130 -41q-77 -32 -107 -69q-20 -23 -21 -49q0 -10 -2 -14q-4 -9 -11 9q-2 5 -2 16q0 9 1 13q4 23 28 47q34 35 111 66q111 43 256 60q90 12 180 12 q42 0 82 -3q102 -8 181 -31q4 -1 12.5 -4t13.5 -5zM348 563q4 3 7 3q4 0 4 -5q0 -3 -1 -5q-3 -7 -20 -42q-174 -332 -264 -495q-47 -81 -52 -87q-5 -7 -6 -7l-1 1q-1 2 6 18q15 37 45 95q102 202 251 482q14 30 31 42z"/>
<glyph glyph-name="U" horiz-adv-x="525" unicode="U" d="M681 624q1 -1 1 -4q0 -7 -27 -44q-59 -77 -79 -106q-36 -54 -68 -112q-59 -111 -106 -239q-22 -60 -22 -89q0 -19 10 -25t29 4q16 8 32.5 21.5t26 23t27.5 29t25 26.5q2 2 5.5 6t6.5 7q2 2 2.5 0.5t-0.5 -2.5q-37 -49 -71 -80q-49 -45 -76 -45q-16 0 -23 18q-4 9 -4 22 q0 16 6 40q36 156 123 301q14 24 22 37q-89 -114 -177 -215q-3 -4 -21 -24.5t-23 -26.5t-21 -24t-24 -25.5t-22.5 -22t-25.5 -23.5t-24.5 -20t-27.5 -20q-61 -40 -95 -40h-8q-31 4 -31 47q0 4 3 25q19 88 112 237q28 43 84 117.5t77 104.5q35 52 44 74q4 12 4 15 q0 25 -49 25q-19 0 -37 -4q-57 -9 -127 -38q-65 -28 -114 -61q-116 -73 -181 -174q-1 -2 -5 -8l-6 -9q-10 -13 -10 -4q0 13 20 43q27 40 76 82q38 33 78 60q120 80 237 112q28 8 66 11h13q31 0 44 -13q7 -7 7 -20q0 -20 -17 -56q-28 -54 -115 -175q-115 -162 -161 -261 q-26 -52 -26 -89q0 -19 11 -25q9 -3 17 -3q21 0 61 22q47 28 102 81q79 75 177 200q21 26 166 216q40 54 72 91q26 31 33 31q2 0 4 -2z"/>
<glyph glyph-name="V" horiz-adv-x="332" unicode="V" d="M927 678q2 -1 2 -3q-2 -1 -5 -0.5t-8 1.5q-27 6 -54 6q-58 -3 -123 -37q-95 -48 -212 -158q-150 -139 -360 -403q-56 -72 -85 -106q-22 -22 -27 -22h-1l-2 1q-5 3 -5 14q0 9 4 29q10 50 40 128q21 54 50 125q44 108 145 303q19 40 19 55q0 20 -28 20h-6q-21 -2 -61 -16 q-116 -40 -227 -122q-58 -46 -93 -87q-47 -54 -57 -104q-3 -14 -3 -28q0 -18 -3 -22q-2 -2 -4 -1.5t-4 4t-3 6t-2 4.5q-3 7 -3 17q0 2 0.5 5t0.5 5q5 46 53 104q66 79 200 159q63 38 118 61q65 28 103 28q13 0 19 -2q20 -7 20 -32q0 -30 -22 -72q-109 -214 -173 -371 q-5 -12 -23.5 -58.5t-29 -76.5t-18.5 -61q13 12 25 26t28 34.5t23 28.5q139 173 199 241q95 112 184 195q119 111 211 161q71 39 129 39q25 0 46 -7q16 -5 23 -11z"/>
<glyph glyph-name="W" horiz-adv-x="597" unicode="W" d="M1165 682q3 -2 3 -3t-16 -1q-11 1 -32 1q-48 0 -86 -11q-53 -14 -116 -56q-85 -57 -188 -176q-59 -68 -165 -214q-6 -8 -35 -48.5t-45 -61.5q-54 -72 -85 -104q-21 -22 -43 -39q-10 -8 -20 -8q-3 0 -5 1q-9 5 -6 26q2 33 18 93q33 108 89 256q60 156 91 233 q-20 -20 -40 -44t-45 -56t-37 -47q-48 -62 -125 -165q-108 -146 -161 -219q-11 -13 -29.5 -38.5t-25.5 -35.5q-4 -4 -6 -4h-2q-7 3 -6 9q1 4 11 25q25 54 76 155t73 148q4 9 27 57.5t31.5 67.5t23.5 55t25 66q6 18 6 32q0 30 -35 30q-14 0 -23 -2q-50 -10 -116 -50 q-49 -29 -99 -73q-2 -2 -21 -19.5t-36 -33.5t-18 -16l4 5q3 5 7 10l4 5q43 48 96 88q95 69 167 89q24 6 38 6q12 0 22 -3q28 -8 28 -45q0 -36 -40 -129q-37 -90 -117 -243q-28 -57 -90 -169q14 18 20 26q58 76 86 114q99 131 190 250q86 114 136 173q15 18 24 12q4 -3 4 -9 q0 -4 -7 -25q-8 -21 -23 -62t-19 -51q-55 -143 -107 -291q-33 -96 -43 -131q-12 -46 -12 -59q7 1 28 19q36 30 88 98q38 49 81 110q126 170 164 217q100 122 185 188q100 76 193 87q8 1 25 1l35 -3q18 -4 26 -8z"/>
<glyph glyph-name="X" horiz-adv-x="743" unicode="X" d="M1031 685q12 2 25 2q18 0 18 -4l-3 -1q-3 0 -8 -0.5t-8 -0.5q-32 -4 -73 -25q-45 -22 -90 -58q-73 -57 -192 -178q-24 -24 -71.5 -72.5t-71.5 -72.5q-2 -72 -2 -107q0 -41 3 -80q4 -39 12 -63q10 -33 32 -37h5q18 0 48 23q33 28 83 93q26 35 29 35q1 0 -2 -4.5t-6 -9.5 l-3 -5q-48 -72 -94 -115q-31 -27 -54 -28h-2q-15 0 -26.5 9t-18.5 27.5t-10 28t-7 29.5q-11 59 -13 180q-106 -104 -162 -152q-133 -112 -223 -143q-29 -11 -54 -11q-22 0 -38 10q-11 11 -11 12t0.5 1t0.5 1q2 4 17 0q23 -5 42 -5h9q43 4 100 33q46 25 92 60q75 55 227 207 q0 24 2 97.5t2 114.5v36q0 66 -18 89q-15 18 -44 18q-31 0 -75 -20q-51 -22 -108 -69q-61 -49 -103 -111q-21 -31 -26 -50q-3 -10 -5 -26q-2 -9 -8 2q-1 2 -1 3q-3 8 -3 15q0 17 14 43q15 27 36 51q41 49 95 87q61 45 114 66q45 17 71 17q31 0 49 -19q28 -29 32 -121 q3 -63 3 -127q0 -47 -1 -70q86 88 128 133q118 126 186 179q55 43 103 65q34 15 57 18z"/>
<glyph glyph-name="Y" horiz-adv-x="427" unicode="Y" d="M167 -108q46 67 132 203q-73 -43 -122 -77q-125 -86 -191 -173q-44 -58 -52 -114q0 -2 -0.5 -6t-0.5 -7q0 -14 7 -20q5 -5 14 -5q13 0 31 11q41 23 97 83q45 47 85 105zM480 337q-103 -163 -130 -204q80 40 121 58q58 25 65 25h1q0 -1 -2.5 -2.5t-6.5 -3.5t-8.5 -4 t-7.5 -4l-4 -1q-21 -9 -41 -19q-19 -8 -40 -18.5t-46.5 -24t-39.5 -20.5q-12 -20 -36.5 -56.5t-32.5 -49.5q-63 -95 -86 -126q-41 -57 -81 -100q-57 -61 -99 -88q-33 -20 -53 -20h-4q-25 3 -29 35v7q0 47 41 108q59 88 189 181q74 53 159 100q69 113 152 242l60 90 q-3 -3 -30 -34t-41 -46q-110 -121 -196 -181q-94 -63 -151 -63q-47 0 -48 52q1 14 3 28t8 29.5t9.5 26t13.5 28t13 24t16.5 26t16 23t18 25t16.5 22.5q12 17 41 51.5t43 54.5q46 63 55 93q1 3 1 8q0 22 -39 22q-29 0 -66 -10q-71 -17 -136 -52q-60 -31 -110 -72 q-64 -54 -84 -115q-1 -4 -3.5 -13t-4.5 -13q-5 -17 -10 -1q-2 4 -2 14q0 18 11 40q23 47 84 93q48 38 110 70q63 33 119 51q37 12 64 16q30 3 31 3q21 0 34 -8q15 -8 15 -26q0 -6 -4 -20q-9 -26 -28 -57q-27 -42 -80.5 -114.5t-75.5 -104.5q-63 -94 -63 -147q0 -36 38 -36h3 q47 4 118 46q50 31 103 79q77 69 181 193q7 9 29.5 36t34.5 42q13 16 40.5 52.5t43.5 55.5q15 18 21 18q3 0 5 -2q3 -3 3 -5q0 -3 -14 -20q-28 -33 -46 -59q-53 -74 -151 -228z"/>
<glyph glyph-name="Z" horiz-adv-x="496" unicode="Z" d="M653 629q2 -2 2 -4q0 -9 -13 -15q-148 -103 -215 -157l-216 -168q-139 -106 -209 -172q-86 -80 -115 -138q-1 -3 2 -4t8 -1q15 0 43 7q22 5 65.5 17.5t65.5 18.5q75 20 128 27q58 8 108 8q66 0 119 -14q14 -3 22 -7q1 0 3 -1q5 -2 2 -2q-8 1 -23.5 3.5t-23.5 3.5 q-44 6 -87 6q-21 0 -31 -1q-108 -4 -253 -44q-18 -4 -60.5 -16t-64.5 -16q-2 0 -7 -0.5t-8 -0.5q-8 0 -14 3q-5 4 -5 11q0 4 2 10q7 18 32 52q55 72 190 189q82 69 213 171q122 96 223 160q12 9 50 31t57 37h-16q-36 0 -72 -3q-53 -3 -94 -10q-102 -14 -178 -43 q-78 -31 -112 -76q-4 -6 -18 -22q-5 -6 -9.5 -5.5t-4.5 8.5q0 19 28 47q22 19 53 34q49 25 122 42q52 12 132 23q101 13 167 14q9 0 12 -3z"/>
<glyph glyph-name="bracketleft" horiz-adv-x="430" unicode="[" d="M509 627q74 0 74 -5q0 -3 -20 -3q-82 0 -123 -2q-125 -9 -216 -39q-20 -4 -25 -4q-6 0 -6 3q0 5 11 10q50 17 116 27q81 13 189 13zM323 581q9 6 11 6q3 0 3 -3q0 -2 -1 -4q-17 -35 -76 -134q-22 -39 -66 -117.5t-66 -117.5q-8 -15 -19.5 -35.5t-18 -33t-15.5 -29 t-14.5 -27t-12 -22.5t-10 -20t-6.5 -16t-4.5 -13t-1.5 -9q0 -5 4 -7q6 -2 18 -2q22 0 60 11q53 16 91 31l8 1q-1 -2 -8 -6q-38 -18 -91 -33q-45 -13 -67 -13q-21 0 -25 11q-1 1 -1 5q0 9 14 46q30 74 122 243q90 162 137 241q19 32 35 47z"/>
<glyph glyph-name="backslash" horiz-adv-x="398" unicode="\" d="M14 630q14 -9 33 -39q124 -218 213 -487q21 -65 29 -105q3 -15 3 -18q0 -4 -1 -4t-2 3q-12 22 -18 48q-44 124 -88 232q-90 215 -167 348q-12 14 -12 22q0 3 2 3q5 0 8 -3z"/>
<glyph glyph-name="bracketright" horiz-adv-x="448" unicode="]" d="M6 -3q44 10 66 12q44 5 131 5q71 0 81 -5q6 -3 -4 -4q-5 -1 -8 -1q-12 0 -34 0.5t-34 0.5q-76 -2 -131 -8q-11 -1 -23 -3.5t-23 -5t-14 -3.5q-10 -2 -16 -2q-9 0 -9 3q1 8 18 11zM517 610q1 -2 1 -6q0 -7 -13 -43q-32 -80 -120 -242q-71 -127 -135 -236q-17 -30 -33 -45 q-11 -7 -12 -7q-3 0 -2 6q8 19 19 38.5t25 43t22 37.5q16 28 132 233q61 113 93 174q16 32 16 41q0 8 -27 4q-46 -6 -142 -37q-11 -4 -11 -1l2 2q74 34 137 43q18 3 27 3q17 0 21 -8z"/>
<glyph glyph-name="asciicircum" horiz-adv-x="180" unicode="^" d="M172 660l2 -2q3 -1 5 -2l2 -2q0 -2 -1 -2h-1q-1 1 -2 1q-17 8 -31 29q-16 24 -26 47q-30 -16 -45 -23q-1 0 -19 -8.5t-33.5 -13.5t-24.5 -5q-5 0 -7 1q21 6 59 25q10 5 21.5 11.5t25.5 15t22 12.5q4 2 8 2q6 0 7 -4q1 -3 -2 -6q2 -5 5.5 -14.5t5.5 -13.5q17 -38 29 -48z "/>
<glyph glyph-name="underscore" horiz-adv-x="488" unicode="_" d="M335 9q5 0 20.5 -4t15.5 -6q-1 -1 -2 -1q-8 -2 -16 -2q-48 5 -98 5q-85 0 -190 -12q-2 0 -6 -0.5t-5 -0.5q-6 0 -6 2t2 3q5 5 23 7q94 13 207 13q35 0 55 -4z"/>
<glyph glyph-name="grave" horiz-adv-x="249" unicode="`" d="M184 271q1 0 4.5 -1t6.5 -2l3 -1q0 -1 -3 -1q-17 0 -27 5q-18 5 -43.5 21t-36.5 35q-2 4 -2 6q0 8 6 8q2 0 5 -4q29 -46 87 -66z"/>
<glyph glyph-name="a" horiz-adv-x="249" unicode="a" d="M296 172q1 1 2.5 1.5t1.5 -0.5q0 -4 -5 -10t-12 -12.5t-9 -8.5q-29 -29 -43 -44q-65 -65 -95 -87q-12 -10 -23 -10q-9 0 -9 14q0 19 14 47q12 24 19 36q-32 -32 -76.5 -65.5t-70.5 -33.5q-24 0 -24 31q0 9 1 13q4 26 22 59q35 60 85 94q55 37 99 37q6 0 18 -2 q26 -4 35 -24q4 -14 -2 -16q-2 -1 -3.5 0t-2.5 2.5l-2 3t-2 3.5t-1 3q-15 22 -43 22q-19 0 -45 -11q-39 -16 -79 -62q-31 -37 -56 -93q-9 -18 -9 -34q0 -14 11 -14h2q30 3 73 36.5t72 67.5q20 22 29 34l2 4t0 2q9 11 19 17q16 8 16 -3q-1 -7 -11 -22q-7 -11 -25.5 -38.5 t-30 -48t-20.5 -41.5q-2 -4 -2 -8q6 0 23 12q10 7 28 23q28 26 55 52l23 23t22 23q15 15 23 22z"/>
<glyph glyph-name="b" horiz-adv-x="262" unicode="b" d="M167 91q4 5 20 28q-33 -3 -61 -15q-44 -19 -73 -52q-21 -24 -21 -38q0 -12 13 -12q12 0 27 6q45 17 95 83zM-37 18q3 9 18 38q36 75 114 223q86 162 133 241q12 20 23 29q6 6 13 6q4 0 1 -7q-56 -98 -118 -216q-118 -218 -144 -264q5 6 23.5 31.5t31 41.5t26.5 29 q57 57 100 61h7q32 0 41 -23q3 -9 3 -21q0 -29 -17 -59q11 0 33 -2q41 -5 41 -11q-2 -1 -7.5 -0.5t-14.5 1.5l-8 2q-24 3 -48 3q-25 -42 -66 -77q-60 -51 -101 -51q-4 0 -12 2q-11 4 -11 16q0 14 12 31q15 24 44 44q48 34 111 40q22 39 22 65q0 9 -3 16q-7 12 -26 12 q-11 0 -20 -3q-27 -9 -56 -33q-31 -25 -86 -98q-14 -17 -49 -65q-9 -12 -11 -13q-1 0 -1 2q0 5 2 9z"/>
<glyph glyph-name="c" horiz-adv-x="196" unicode="c" d="M236 165q12 12 14 12q-7 -11 -11 -16q-37 -42 -72 -74q-29 -27 -60 -51q-39 -29 -64 -36q-11 -3 -21 -3q-22 0 -35 14q-11 12 -11 37v7q4 52 58 110q54 56 104 67q10 2 17 2q22 0 32 -13q8 -9 8 -25q0 -18 -9 -32q-19 -32 -47 -32h-2q-4 0 -6 2t1 7q1 1 16 7q32 16 38 45 q0 1 0.5 3.5t0.5 3.5q0 21 -20 26q-8 2 -12 2q-12 0 -28 -7q-31 -13 -70 -56q-51 -55 -61 -111q-1 -4 -1 -11q0 -31 25 -35q2 0 4 -0.5t4 -0.5q21 0 49 17q39 22 100 81q21 20 41 41q3 3 9 9.5t9 9.5z"/>
<glyph glyph-name="d" horiz-adv-x="268" unicode="d" d="M89 58q55 46 84 88q14 20 17 34q1 4 1 13q0 27 -21 32q-3 1 -10 1q-18 0 -46 -15q-45 -26 -90 -90q-20 -28 -31 -56q-9 -27 -9 -37q0 -11 5 -16q4 -4 11 -4q31 0 89 50zM416 560q4 4 7 4q2 0 2 -3t-6 -17q-34 -66 -101.5 -188.5t-77.5 -141.5q-19 -37 -56.5 -105.5 t-51.5 -94.5q1 -2 14 5q9 6 49 41q16 14 46 44q2 2 20.5 20t35.5 34.5t19 16.5t-17.5 -21t-25.5 -27l-60 -60q-47 -45 -69 -59q-8 -6 -16 -6q-13 0 -7 21q8 23 29.5 63t25.5 49q-44 -58 -104 -101q-50 -37 -75 -37q-18 0 -25 20q-3 9 -3 19q0 19 9 42q9 26 32 56 q40 55 97 84q32 15 54 15q29 0 38 -24q4 -9 4 -22q9 16 25 46.5t18 33.5q89 163 140 254q15 27 30 39z"/>
<glyph glyph-name="e" horiz-adv-x="193" unicode="e" d="M112 218q-52 -28 -89 -87q-10 -16 -14 -24q13 0 30 5q70 21 107 65q16 19 16 36q0 7 -4 11q-5 5 -14 5q-14 0 -32 -11zM239 174q0 -4 -11 -17q-42 -47 -56 -60q-54 -52 -102 -80q-36 -21 -60 -21q-29 0 -40 27q-4 9 -4 22q0 24 16 58q18 39 59.5 75t76.5 50q18 6 28 6 q8 0 12 -2q17 -6 17 -26q0 -23 -23 -44q-25 -23 -68.5 -41.5t-77.5 -19.5q-18 -34 -18 -58q0 -1 0.5 -4t0.5 -5q4 -16 14 -20q7 -3 15 -3q13 0 44 12q43 20 104 77q1 1 20 20.5t36 36.5z"/>
<glyph glyph-name="f" horiz-adv-x="130" unicode="f" d="M-101 -109q11 23 31.5 65.5t27.5 56.5q-78 -66 -132 -136q-40 -51 -67 -101q-28 -58 -28 -82q0 -7 1 -10q3 -8 9 -8q20 0 58 47q15 18 36 51q26 42 64 117zM321 542q3 22 -7 23t-25 -11q-38 -30 -84 -102q-24 -38 -66 -116q-24 -45 -81 -163q30 29 59 59q73 76 126 153 q42 63 57 95q18 37 21 62zM325 574q9 -8 9 -23q0 -21 -17 -61q-22 -50 -78 -125q-45 -62 -94 -114q-22 -25 -94 -94q-36 -74 -45 -95q29 23 91 65q75 45 76 45l-46 -33l-1 -1q-24 -16 -25 -17q-62 -43 -102 -74q-74 -154 -99 -200q-32 -62 -70 -110q-55 -67 -85 -71h-4 q-21 0 -21 28q0 7 1 10q3 22 21 57q26 51 69 108q66 88 155 160q41 87 46 97q40 84 61 125q84 162 137 236q55 71 88 88q6 3 14 3t13 -4z"/>
<glyph glyph-name="g" horiz-adv-x="238" unicode="g" d="M3 -144q19 32 69 126q-41 -37 -89 -85q-54 -54 -86 -97q-19 -24 -36 -56q-17 -36 -17 -54v-6q2 -6 7 -6q10 0 36 21q21 19 43 47q27 34 73 110zM281 170q1 1 3.5 2.5t5.5 2.5l2 1q0 -3 -5 -8t-12.5 -11t-9.5 -8q-14 -12 -92 -78q-8 -8 -25 -22t-26 -22q-34 -67 -62 -116 q-30 -52 -45.5 -78t-45.5 -66.5t-60 -67.5q-30 -28 -49 -33q-3 -1 -9 -1q-10 0 -16 7q-5 10 -5 18q0 2 0.5 4t0.5 4q3 20 24 58q14 24 36 53q27 34 88 95q33 32 101 94q8 16 24 47t24 46q-43 -48 -105 -84q-26 -14 -37 -14q-8 0 -11 2q-15 6 -15 30q0 13 3 23q6 25 26 59 q36 59 90 92q52 34 94 34q7 0 19 -2q31 -6 37 -30q2 -8 -4 -11q-2 -2 -5 2q-1 1 -5.5 8.5t-8.5 11.5q-14 13 -36 13q-25 0 -59 -17q-40 -22 -85 -83q-43 -60 -51 -103q-1 -9 2.5 -13.5t12.5 -3.5q10 1 26 9q24 12 52 34q48 37 85 87q18 24 26 32q9 9 12 7q2 -2 -2 -13 q-5 -14 -58 -118q73 64 132 113q12 10 18 14z"/>
<glyph glyph-name="h" horiz-adv-x="254" unicode="h" d="M304 176q1 -1 -4 -7t-13.5 -15t-13 -13.5l-8.5 -8.5q-17 -18 -53 -54q-50 -47 -61 -56q-1 -1 -6.5 -5.5t-10 -7.5t-10 -6t-10.5 -3q-6 0 -10 7q-3 6 -3 13q0 11 7 30q6 14 31 58q27 44 37 60q18 36 19 43q-1 7 -9 7q-6 0 -29 -9q-23 -10 -54 -36q-46 -36 -89 -95 q-3 -4 -23 -31t-30 -40q-10 -10 -14 -10q-2 0 -2 3q0 2 24 50q53 105 117 223q68 126 134 244q5 9 18 28q10 10 14 10q2 0 2 -3q0 -5 -8 -21q-9 -16 -32 -63t-38 -73q-11 -19 -31.5 -58t-30.5 -58q-18 -34 -54.5 -100.5t-54.5 -99.5q25 35 45 56q22 24 68.5 58.5t71.5 34.5 h3q18 -1 18 -26q0 -23 -20 -55q-20 -34 -37 -60q-22 -32 -34 -55q-2 -4 -4.5 -12t-0.5 -8h2q25 0 113 93l20.5 20.5t35.5 35t18 15.5z"/>
<glyph glyph-name="i" horiz-adv-x="127" unicode="i" d="M124 320q-14 0 -5 17t23 17q5 0 7 -5t-2 -13q-10 -18 -23 -16zM175 173q0 -5 -27 -32q-44 -45 -92 -86l-13 -11q-13 -11 -24 -19.5t-25 -16.5t-22 -8q-3 0 -7 2q-6 6 -6 14q0 9 7 25q12 24 92 163q11 18 25 26q4 2 8 2q3 0 4 -2q1 -1 -3 -12q-14 -27 -57 -96.5 t-61 -109.5q13 0 52 28q28 21 60 50l54 51q0 1 9 9.5t17.5 16.5t8.5 6z"/>
<glyph glyph-name="j" horiz-adv-x="119" unicode="j" d="M118 320q-5 0 -7 5t2 12q9 17 23 17t5 -18q-10 -18 -23 -16zM-227 -286q15 16 28 33t29 43t21.5 35t26 45t21.5 38q19 33 36 66q-102 -91 -155 -155q-49 -58 -68 -109q-5 -12 -5 -26q0 -13 7 -13q4 0 10 3q26 15 49 40zM165 174h1q0 -2 -20 -22q-48 -42 -100 -85 q-52 -42 -64 -54q-84 -158 -132 -226q-48 -67 -83 -99q-33 -28 -51 -30h-2q-20 0 -20 26q0 6 2 16q12 45 65 110q31 39 92 96q29 29 91 83q12 23 37 71.5t45.5 85t42.5 68.5q16 20 19 20h1l1 -1q4 -3 -4 -19q-15 -34 -48 -96t-46 -88q9 8 26 22t25 22q14 12 43 36.5t43 36.5 q27 22 36 27z"/>
<glyph glyph-name="k" horiz-adv-x="233" unicode="k" d="M283 176q0 -4 -54 -69q-51 -62 -79 -85q-24 -19 -39 -19q-5 0 -8 1q-16 5 -22 26q-4 13 -4 32q0 26 6 48q4 14 11 20q13 13 17 1q1 -3 -2 -20q-9 -34 -9 -59q0 -2 0.5 -6.5t0.5 -6.5q2 -21 16 -21q7 0 15 5q13 8 25.5 19.5t20.5 19.5t21.5 23.5t20.5 22.5q1 1 17.5 20 t31 35t14.5 13zM89 131q-41 -40 -86 -102q-20 -28 -28 -28h-1q-8 0 -8 11q0 7 5 22q10 32 56 123q9 19 19.5 39.5t23.5 45t20 38.5q72 134 134 242q24 39 37 52q12 12 15 12t3 -3q0 -4 -5 -14q-14 -27 -54 -96q-112 -201 -131 -236q-83 -156 -109 -219q15 16 16 17l27 33 q27 34 58 64q73 71 125 95q13 6 22 7q3 1 8.5 0.5t2.5 -5.5q-3 -4 -23 -16q-4 -2 -12.5 -6t-12.5 -6q-60 -29 -102 -70z"/>
<glyph glyph-name="l" horiz-adv-x="111" unicode="l" d="M258 565q2 1 4 1t2 -3q0 -7 -7 -21l-183 -336q-8 -16 -96 -175q-2 -4 -4.5 -10t-1.5 -6t17 8q31 21 97 83q2 2 20.5 20t36 34.5t19.5 16.5q1 0 -1 -2.5t-6 -7t-8.5 -9.5t-10.5 -11l-10 -10t-8 -7l-3 -4q-44 -46 -103 -96q-24 -19 -36 -25q-6 -2 -9 -2q-5 0 -8 6l-1 2v3 q0 10 6 22q16 35 35.5 72t45.5 85t38 71q33 63 144 263q18 29 31 38z"/>
<glyph glyph-name="m" horiz-adv-x="361" unicode="m" d="M-8 93q10 18 32 53.5t34 56.5q3 5 12 11t15 6q5 0 5 -6q0 -5 -8 -16q-7 -11 -34 -53.5t-50 -78.5q1 1 11.5 13.5t15 18.5t16.5 19.5t19 21.5t19.5 21.5t21.5 21.5t20.5 18t21 16t19.5 11t18 6q12 0 12 -15q0 -30 -36 -88q-8 -13 -33 -52.5t-36 -59.5q15 15 76 89.5 t101 103.5q29 21 49 21h4q12 -3 12 -17q0 -15 -10 -32q-9 -17 -21.5 -38t-28.5 -45t-23 -36q-24 -40 -25 -53q2 -5 7.5 -3t10.5 5q18 13 24 18q33 26 91 88q34 38 53 55q4 4 4 3q0 -2 -1 -3q-44 -51 -68 -76q-62 -64 -93 -86q-20 -13 -26 -14h-2q-14 0 -14 20t19 54 q11 20 37.5 61t36.5 59q8 15 12 27q-3 1 -8 1q-20 0 -55 -30q-34 -30 -88 -97t-68 -83q-11 -11 -17 -8q-5 2 -5 7q0 8 7 24q5 11 81 151q16 29 19 38q-28 -4 -72 -45.5t-94 -101t-51 -60.5q-2 -2 -4.5 -5t-4 -4.5t-2.5 -3t-2 -2.5h-1q-1 1 -1 3q0 12 16 36z"/>
<glyph glyph-name="n" horiz-adv-x="236" unicode="n" d="M-17 93q36 64 67 111q11 16 25 16q6 0 6 -6q0 -5 -8 -16q-7 -11 -31.5 -49t-46.5 -72q3 3 8.5 9t8.5 9q47 53 99 95q28 22 52 34q25 11 34 11t15 -7q5 -7 5 -14q0 -15 -15 -40q-12 -23 -39.5 -61t-36.5 -52q-2 -4 -9.5 -15.5t-12.5 -20t-5 -14.5q-1 -8 15 2q21 13 62 52 q14 14 84 86q25 25 30 26q-4 -11 -29 -35q-45 -48 -84 -86q-56 -56 -76 -56q-8 0 -11 8q-1 2 -1 9q0 21 14 47q10 19 34 57q6 9 20 28.5t20 29.5q19 28 20 40q-1 4 -8.5 3.5t-15.5 -3.5q-35 -13 -83 -56q-40 -35 -132 -140q-19 -23 -20 -23t-1 2q0 5 16 37z"/>
<glyph glyph-name="o" horiz-adv-x="230" unicode="o" d="M101 83q6 -12 22 -14q39 42 63 92q11 22 11 36q0 7 -4 10q-2 1 -6 1q-16 0 -42 -21q-24 -21 -36 -48q-11 -20 -11 -40q0 -9 3 -16zM285 173q-12 -15 -13 -16q-29 -34 -67 -62q-39 -28 -68 -31q-38 -37 -82 -58q-24 -12 -41 -12q-10 0 -17 4q-20 10 -20 43v6q3 53 51 111 q38 43 79 65q27 14 50 17q1 0 4.5 0.5t6.5 0.5q21 0 21 -11q0 -2 -4 2q-11 5 -28 1q-26 -6 -46 -19q-43 -27 -86 -97q-18 -32 -26 -57q-6 -16 -6 -30q0 -18 11 -23q7 -4 15 -4q14 0 40 13q27 15 49 37l11 11q-17 2 -23 15q-4 8 -4 19q0 17 10 41q11 28 37 52q28 28 53 28 q17 0 21 -21q0 -1 0.5 -3t0.5 -4q0 -24 -17 -54q-16 -26 -52 -66q33 11 63 34q29 22 63 57q12 12 14 11z"/>
<glyph glyph-name="p" horiz-adv-x="263" unicode="p" d="M171 97q14 18 20 28q-33 -3 -61 -15q-44 -19 -73 -52q-21 -24 -21 -38q0 -12 13 -12q12 0 27 6q48 18 95 83zM-65 -57q-44 -81 -134 -243q-13 -24 -23 -34l-4 -4q-4 -3 -6 -3l-2 1q-1 1 -1 3q0 5 2 7q12 25 32 61t28 52q30 59 94 175q72 135 133 244q8 17 23 33q7 7 10 7 q1 0 2 -1q2 -2 -1 -10q-14 -29 -43 -83t-42 -79q31 45 87 103q57 57 101 61h6q32 0 42 -24q3 -7 3 -17q0 -29 -20 -58q11 0 33 -2q42 -5 42 -11h-2q-4 0 -17 1l-12 2q-24 3 -48 3q-24 -41 -65 -77q-27 -24 -53 -36q-26 -15 -48 -15q-9 0 -13 2q-11 4 -11 16q0 14 12 31 q18 26 44 44q48 34 111 40q24 43 24 62q0 8 -3 15q-7 12 -26 12q-11 0 -20 -3q-29 -10 -55 -33q-65 -54 -136 -159z"/>
<glyph glyph-name="q" horiz-adv-x="268" unicode="q" d="M96 -64q1 4 2 16t3 18q-67 -108 -105 -177q-43 -74 -55 -121q-3 -9 -3 -22q0 -7 1 -9q4 -9 18 2q21 16 43 48q37 54 62 117q20 52 34 128zM100 68q29 25 77 83q14 15 14 41v8q-3 27 -32 27q-1 0 -4 -0.5t-5 -0.5q-26 -5 -57 -27q-46 -35 -83 -94q-20 -35 -26 -59 q-2 -10 -2 -17q0 -21 15 -21h5q41 7 98 60zM322 181h1q0 -1 -3 -4.5t-4 -3.5q-33 -25 -68 -56q-45 -41 -87 -84q-30 -32 -44 -49q-8 -9 -10 -19q-1 -6 -2.5 -16t-2.5 -16q-14 -76 -34 -127q-23 -64 -60 -119q-21 -32 -40 -48q-17 -12 -25 -12h-3q-13 3 -13 21q0 26 13 61 q24 64 85 176q73 127 149 247l-18 -21q-29 -35 -69.5 -68t-77.5 -45q-8 -2 -12 -2q-27 0 -30 30v7q0 55 45 109q40 49 97 77q32 15 52 15q27 0 38 -25q4 -11 4 -29q25 31 29 35q9 11 17 16l6 3q2 0 2 -4q-1 -3 -8 -18q-16 -28 -133 -218q6 7 17 18t14 15q45 48 87 86 q7 6 14.5 12.5t16.5 14.5t14 12q30 23 43 29z"/>
<glyph glyph-name="r" horiz-adv-x="199" unicode="r" d="M238 209q0 -9 -6 -10q-2 0 -4.5 2.5t-5 6.5t-3.5 5q-8 9 -20 11q-3 1 -10 1q-18 0 -48 -15q-53 -28 -123 -120q-61 -88 -65 -92q-2 -2 -4 -2q-1 0 -1 1q26 65 111 213q6 10 18 12q4 0 7.5 -2.5t2.5 -6.5q-9 -18 -29 -51t-24 -41q56 67 104 98q31 21 58 21q16 0 28 -8 q14 -7 14 -23z"/>
<glyph glyph-name="s" horiz-adv-x="151" unicode="s" d="M78 110q-2 8 -4 13q-67 -18 -100 -60q-19 -21 -19 -40q0 -7 4 -11q8 -8 27 -5q11 1 29 9q64 31 64 85q0 1 -0.5 4t-0.5 5zM119 134q7 0 25.5 -2t18.5 -5h-2q-5 0 -23 1t-19 1q-15 0 -22 -1q4 -11 4 -25q0 -13 -2 -19q-7 -29 -31 -50t-54 -31q-20 -6 -33 -6q-14 0 -24 7 q-9 6 -9 18q0 15 10 31q34 54 113 76q-4 7 -13 18.5t-14 22t-5 21.5q0 1 0.5 3.5t0.5 4.5q5 24 26 35q14 9 33 9q16 0 23 -10q3 -5 3 -9q0 -12 -9 -21q-4 -5 -13 -10.5t-13 -4.5q10 2 22 18q6 8 6 15q0 9 -9 11q-3 1 -10 1q-15 0 -27.5 -9t-15.5 -22q0 -1 -0.5 -3.5 t-0.5 -3.5q0 -14 18.5 -33.5t21.5 -28.5q8 1 24 1z"/>
<glyph glyph-name="t" horiz-adv-x="119" unicode="t" d="M618 392q45 -11 44 -14q-23 8 -81 12q-37 3 -76 3q-87 0 -184 -13q-53 -7 -162 -31q-20 -36 -55.5 -102t-65 -120t-56.5 -102q-6 -11 -5 -12t2 -1q7 0 29.5 18t32.5 28q32 28 47 43q2 2 21 20t36.5 34.5t18.5 16.5q2 0 -7 -10t-24 -25t-29 -28.5t-26 -26.5l-13 -12 q-36 -34 -63 -55q-22 -14 -28 -14h-1q-8 1 -8 12q0 6 1 9q2 8 26 59q23 43 69.5 129.5t69.5 130.5q-51 -16 -93 -44q-2 -1 -7 -5t-8.5 -6.5t-4.5 -2.5q-11 5 6 22q11 13 21 19q34 21 98 38q12 21 33 61t39.5 71.5t36.5 57.5q12 12 15 12q2 0 2 -3q0 -7 -9 -25 q-11 -22 -42.5 -79t-47.5 -89q113 27 258 32q19 1 58 1q48 0 72 -2q40 -4 60 -7z"/>
<glyph glyph-name="u" horiz-adv-x="256" unicode="u" d="M308 175q0 -3 -6 -9q-18 -22 -75 -79q-23 -23 -47 -44q-31 -29 -48 -38q-10 -5 -14 -5t-9 5q-6 6 -2 24q6 25 46 103q-44 -57 -84 -89q-25 -22 -52 -36q-18 -9 -27 -9q-6 0 -12 3q-10 5 -10 23q0 11 1 15q5 24 23 59q30 59 74 105q12 14 28 21q12 5 16 0q1 -2 -2 -6 q-5 -6 -22 -23.5t-24 -28.5q-45 -56 -68 -111q-10 -25 -10 -39q0 -6 2 -7t7 -1q13 0 47 21q44 29 93 85q17 21 39 54q1 1 7 10.5t13 20.5t8 13q10 13 23 19q2 1 5 1q6 0 9 -4t-1 -9q-2 -4 -9 -13t-11 -15q-51 -77 -76 -123q-2 -4 -6.5 -12.5t-7 -14t-5 -13.5t-2.5 -15 q1 -1 2 -1q13 0 52 33q10 8 54 50l10.5 10.5t20.5 21t22.5 23.5t19.5 19t8 6z"/>
<glyph glyph-name="v" horiz-adv-x="183" unicode="v" d="M253 246q1 0 5 -3t4 -5l-1 -1q-6 4 -7 4q-2 1 -7 1q-11 0 -27 -11q-49 -35 -129 -125q-16 -17 -43 -49t-41 -48q-11 -11 -17 -11q-3 0 -4 2q-2 3 -2 16q0 19 8 51q15 66 45 124q12 20 21 27q16 16 20 6q2 -4 -3 -14q-20 -35 -28 -53q-30 -65 -47 -142q10 8 19.5 18.5 t21.5 24.5l18 21q10 11 31.5 36t34 39t32 33t37.5 34q32 26 51 26q6 0 8 -1z"/>
<glyph glyph-name="w" horiz-adv-x="297" unicode="w" d="M355 248h2h1q0 -1 -1 -2q-12 -8 -18 -13q-27 -22 -76 -82q-15 -18 -41.5 -52t-39.5 -49q-33 -38 -45 -45q-12 -8 -21 -2q-7 4 -7 20q0 26 15 68q26 66 52 104q-26 -25 -79.5 -88.5t-86.5 -92.5q-18 -15 -25 -15q-1 0 -3 1q-8 3 -8 15q0 2 0.5 6t0.5 5q8 65 65 154 q17 28 39 44q12 10 22 11q8 1 -1 -13q-43 -49 -71 -100q-31 -55 -42 -92q-2 -6 -3 -12.5t2 -9.5q8 1 26 16q33 30 69 73q16 18 85 102q19 24 27 29q3 2 7.5 1t5.5 -5q1 -7 -3 -17q-58 -110 -60 -115q-15 -37 -21 -60q-6 -22 3 -22q22 4 63 57q14 17 40 51q65 80 79 95 q8 9 24.5 21.5t23.5 13.5z"/>
<glyph glyph-name="x" horiz-adv-x="207" unicode="x" d="M247 167q9 9 9 7q-6 -12 -21 -29q-82 -97 -133 -134q-15 -11 -27 -11q-9 0 -17 8q-14 15 -21 72q-68 -54 -104 -79q-1 -1 -4.5 -2.5t-6.5 -2.5h-2l8 8q18 14 54 43.5t54 43.5q-1 10 -1 30q0 27 4 77q2 21 11 33t13 3q2 -3 2 -11q-1 -10 -4 -51t-3 -63q26 21 78 62.5 t78 62.5q14 11 17 9q0 -1 -11 -12l-162 -135q0 -4 0.5 -17.5t0.5 -21t1.5 -18t4 -17t6.5 -9.5q4 -2 6 -2q16 0 68 47q42 40 85 90q12 14 17 19z"/>
<glyph glyph-name="y" horiz-adv-x="262" unicode="y" d="M44 -91q30 57 31 59q-80 -69 -132 -128q-54 -61 -76 -105q-18 -36 -18 -53v-6q2 -8 8 -8q9 0 37 22q37 33 81 101q25 38 69 118zM314 172q2 2 2 0t-4 -6q-27 -26 -79 -68q-36 -30 -108 -88q-86 -159 -130 -223q-39 -59 -83 -100q-31 -29 -52 -31h-3q-20 0 -20 25 q0 6 2 14q10 45 63 110q33 42 90 95q35 35 91 82q32 61 72 130q-21 -24 -57 -54q-43 -36 -82 -53q-18 -7 -26 -6q-18 1 -18 26q0 8 1 12q18 76 95 166q16 16 31 21q12 3 14 0q3 -3 -5 -11q-82 -82 -115 -167q-8 -18 -8 -29q1 -11 19 -7q23 6 56 29q49 32 96 84q19 21 22 26 q3 4 15.5 22t20.5 27q11 12 20 20q10 8 16 11q2 1 4 1q4 0 1 -5q-3 -6 -24 -35q-39 -57 -98 -166q36 30 53 44t55 46t59 48q8 6 14 10z"/>
<glyph glyph-name="z" horiz-adv-x="273" unicode="z" d="M-28 10q24 4 49 21q-3 1 -9 5t-9 5q-7 4 -14 4q-14 0 -26 -12q-20 -16 -8 -22q7 -3 17 -1zM259 102q-52 -56 -92 -81q-26 -18 -54 -22q-4 -1 -11 -1q-18 0 -46 13q-4 1 -28 15q-3 -1 -9 -4.5t-9 -5.5q-26 -14 -44 -14q-23 0 -23 14l1 2v3q4 12 16 22t26 13q2 1 7 1 q6 0 13 -2.5t16 -7t14 -6.5q33 22 92 77q13 12 36 34.5t30 29.5l26 26q-12 -4 -61 -11q-8 -1 -31.5 -3.5t-38.5 -6t-28 -8.5q-12 -7 -12 -19q0 -7 6 -13q9 -9 22 -12q2 0 6 -0.5t7 -0.5l2 -1q0 -1 -1.5 -1.5t-4 -1t-4 -0.5h-2.5q-33 0 -43 24q-2 8 -2 10q0 25 34 36 q28 10 83 15t79 12q3 1 11.5 4.5t11.5 3.5q12 0 5 -12q-4 -5 -9 -8q-5 -5 -14 -12t-14.5 -11.5t-6.5 -5.5q-76 -71 -98 -90q-43 -40 -73 -59q21 -12 45 -18q12 -3 23 -3q19 0 40 9q40 18 99 77q2 2 19.5 20.5t33 35t16.5 16.5q3 0 -25.5 -32.5t-35.5 -39.5z"/>
<glyph glyph-name="braceleft" horiz-adv-x="382" unicode="{" d="M438 595q6 0 6 -2q-2 -6 -6 -9q-36 -25 -46 -34q-25 -23 -81 -101q-44 -67 -83 -103q-40 -37 -91 -51q29 -26 29 -88v-15q-1 -24 -7 -69t-7 -61q-2 -16 -2 -24q0 -16 4 -28v-2l1.5 -4.5t-0.5 -2.5h-1q-5 0 -5 5q-6 9 -8 23q-1 6 -1 17q0 2 3 41q11 73 11 119v10 q-2 40 -17 60q-10 12 -38 24q41 11 44 12q52 18 93 66q20 23 66.5 92.5t81.5 99.5q26 24 54 25z"/>
<glyph glyph-name="bar" horiz-adv-x="419" unicode="|" d="M208 656q7 -11 14 -49q12 -121 12 -244q0 -144 -15 -288q-5 -61 -16 -107q-1 -4 -3 -14q0 -7 -4 -7q-1 0 -1 3v13q0 19 3 38q9 104 14 248q1 37 1 110q0 158 -13 276q-4 16 -2 23q0 4 3 4t7 -6z"/>
<glyph glyph-name="braceright" horiz-adv-x="465" unicode="}" d="M334 345q15 -16 61 -27q-50 -16 -72 -31q-39 -26 -80 -74q-30 -35 -66 -85q-3 -4 -27.5 -35.5t-38.5 -46.5q-28 -28 -38 -28h-1q-1 0 6 7.5t14.5 16t8.5 9.5q19 21 78 99q49 68 82 102q39 42 82 65q-14 5 -28 23q-15 21 -15 60v10q1 22 10.5 71t9.5 75q0 34 -12 54 q-3 3 -3 7q0 2 3 2t7 -2q21 -12 25 -50v-9q0 -18 -2.5 -37t-8 -46.5l-7.5 -37.5q-4 -24 -4 -41q0 -34 16 -51z"/>
<glyph glyph-name="asciitilde" horiz-adv-x="372" unicode="~" d="M332 254q0 -4 -10 -14q-23 -23 -51 -23q-4 0 -14 2q-44 11 -48 11q-14 0 -42 -17q-7 -5 -13 -5q-5 0 -6 4q0 3 20 18q20 13 41 13q9 0 20 -3q2 0 20.5 -6.5t28.5 -6.5q4 0 12 2q12 3 26 13q1 1 5.5 5t7.5 6t3 1z"/>
<glyph glyph-name="exclamdown" horiz-adv-x="313" unicode="" d="M339 551q-14 0 -5 18q9 17 23 17q8 0 8 -8q0 -4 -3 -10q-8 -17 -23 -17zM31 12q-4 -4 -11 -4q-4 0 -4 4v1q1 1 1 2q2 3 37 53q60 87 139 221q11 21 58.5 101.5t50.5 80.5q1 0 -1 -6q-4 -11 -42 -87q-30 -57 -60 -111q-83 -146 -144 -231q-11 -16 -24 -24z"/>
<glyph glyph-name="cent" horiz-adv-x="259" unicode="" d="M33 66q10 -10 28 -8q15 39 33 78q30 69 66 135q-35 -15 -77 -65q-46 -56 -56 -95q-3 -18 -3 -21q0 -16 9 -24zM237 177l2 1q0 -4 -5 -9q-50 -62 -135 -109q-22 -10 -34 -12q-12 -32 -19 -48q-4 -7 -5 -7t-1 6q2 9 7 23q1 4 4 12.5t5 12.5h-6q-44 0 -44 54q0 17 7 35 q22 56 72 96q44 38 81 48q15 27 36 58q9 13 18 18q6 3 8 3q5 0 6 -4t-9 -17q-4 -5 -17 -24t-19 -29q29 0 38 -20q3 -7 3 -15q0 -19 -16 -41q-11 -15 -22 -21q-19 -9 -29 -5q-9 5 13 14q1 1 2 1q13 6 26 17q18 18 18 38q0 7 -5 15q-7 10 -26 10h-7q-5 -8 -14.5 -24t-14.5 -24 q-50 -86 -86 -171q29 6 60 26q51 34 89 75q14 14 19 17z"/>
<glyph glyph-name="sterling" horiz-adv-x="578" unicode="" d="M66 33l27 27q-39 -2 -72 -21q-37 -22 -43 -40q-2 -9 21 -3q37 11 67 37zM671 667q7 -8 7 -23q0 -29 -31 -91q-32 -61 -75 -104q-47 -49 -91 -49h-8q-16 4 -26 11q-14 9 -14 19q1 9 17 -2q12 -7 26 -9h7q44 0 100 60q45 50 70 107q15 34 15 60q0 21 -24 21q-8 0 -12 -1 q-16 -3 -31.5 -10t-28 -13t-28 -18.5t-24.5 -19.5t-25 -23.5t-21.5 -22.5t-23 -25t-21.5 -23q-72 -83 -144 -187q44 6 67 6q10 0 28 -2q19 -3 21 -10q1 -2 -13 1q-2 1 -3 1q-10 2 -31 2q-26 0 -76 -8q-54 -78 -88 -132q-61 -90 -77 -111q50 0 126 -17q16 -4 57.5 -14 t63.5 -14q40 -6 61 -6l26 2l19 4q3 -1 -3 -4t-15 -5q-16 -5 -38 -5q-27 0 -60 7q-25 4 -71 15t-66 15q-64 12 -99 12h-8q-19 -22 -35 -36q-33 -28 -70 -38q-15 -3 -17 -3q-5 0 -9 2q-7 4 -7 10q0 13 24 34q42 37 109 40q12 16 44 66q15 24 49 82.5t54 89.5q-57 -13 -179 -53 q-18 -8 -29 -1q-10 6 7 13q112 36 208 52q96 153 206 253q98 86 162 103q9 3 20 3q18 0 28 -11z"/>
<glyph glyph-name="currency" horiz-adv-x="425" unicode="" d="M163 282q-44 -47 -48 -102q16 14 24 20q22 18 58 45q-15 20 -34 37zM209 253q45 32 85 57q-12 22 -38 22q-20 0 -44 -12.5t-37 -26.5q19 -19 34 -40zM205 235q-50 -38 -87 -74q3 -13 15 -21t26 -8q41 0 83 40q-16 35 -37 63zM371 355q2 2 9 2h2q0 -1 -1 -2q-3 -3 -19 -14 q-48 -29 -55 -34q4 -14 4 -24q0 -21 -10 -43q-4 -9 -6 -9q-1 0 0 5l3 12t2 12q1 6 1 17q0 12 -3 24q-58 -40 -82 -58q9 -14 34 -63q3 4 12.5 15t14.5 19q6 7 13 13q5 4 6.5 1t-0.5 -8q-3 -8 -11 -21q-10 -16 -28 -36l12 -36q4 -17 3 -19q-2 -4 -9 11q0 1 -1 3l-1 2 q-8 22 -12 32q-40 -40 -90 -40q-37 0 -55 32q-7 -6 -27 -28q-15 -15 -25 -15l-1 1q-1 1 -1 4q0 4 3.5 9t9 10.5l6.5 6.5q20 20 31 30q-1 5 -1 15q0 59 53 112q-6 5 -16 15q-3 4 -5 13q0 3 3.5 3t5.5 -1q13 -8 24 -19q44 40 88 40q16 0 29 -6q15 -7 23 -22l45 27q15 9 22 12z "/>
<glyph glyph-name="yen" horiz-adv-x="407" unicode="" d="M296 358q-2 2 -12 10l-6 -9q9 0 18 -1zM164 227l27 42q-54 -6 -117 -24q-10 -3 -18 -3q-11 0 -12 2t1.5 4.5t8 4.5t8.5 3l6 2q56 16 132 24q14 21 44 63q-39 -2 -98 -22q-12 -4 -20 2q-3 2 -3.5 5.5t2.5 5.5q58 20 129 23q1 2 7 10.5t10 12.5q-43 61 -72 137 q-25 67 -25 103q0 8 2 24q2 14 12 20q5 3 10 0.5t2 -8.5q-7 -15 -7 -39v-15q4 -41 18 -82q29 -85 65 -133q69 91 131 162q77 86 115 118q18 14 28 17h1q1 1 2 1q2 0 2 -3q0 -4 -5 -9q-99 -102 -127 -135q-59 -66 -134 -166l15 -15q1 -1 1 -2q49 -4 78 -13q12 -4 12 -6l-3 -1 q-4 -1 -25 3q-36 8 -82 8h-15q-16 -22 -46 -64q45 3 91 3t91 -3q15 -2 16 -3q2 -3 -5 -4h-11q-44 2 -66 2q-67 0 -124 -7q-83 -120 -148 -227q-18 -30 -28 -44q-5 -5 -6 -5h-1q2 5 11 26q42 89 120 205z"/>
<glyph glyph-name="section" horiz-adv-x="510" unicode="" d="M270 410q22 65 110 113q-48 -18 -87 -54q-61 -61 -63 -106q0 -26 29 -51q10 -9 31.5 -23.5t37 -28t23.5 -30.5q7 -15 7 -35q0 -9 -2 -25q-7 -50 -44 -89t-88 -61q28 8 54 21q104 51 120 137q2 16 2 25q0 22 -7 39q-5 13 -16 25.5t-20.5 19.5t-26.5 18.5t-24 16.5 q-40 31 -40 66q0 11 4 22zM494 528q13 -16 13 -38q0 -5 -2 -17q-6 -29 -22.5 -50.5t-43.5 -25.5q-11 -2 -16 3t4 8q30 7 47 26q25 31 25 57q0 33 -30 41q-10 2 -16 2q-20 0 -46 -11q-51 -21 -99 -78q-21 -26 -21 -54q0 -36 31 -54q23 -14 35.5 -23t28.5 -25.5t24 -34.5 q9 -21 9 -44q0 -40 -22 -79q-29 -52 -87 -86t-122 -43q-30 -3 -32 -3q-50 0 -72 27q-11 15 -11 34q0 29 23 67q30 51 82 91q41 30 72 38q15 4 15 0q0 -1 -16 -5q-62 -26 -116 -90q-50 -56 -50 -103v-6q7 -35 55 -41h10q30 0 61 12q58 19 99.5 65.5t41.5 104.5v5 q-1 36 -46 64q-5 3 -20 12.5t-22.5 15t-18.5 15t-17.5 19.5t-9.5 21q-2 6 -2 17q0 26 19 58q32 51 86 86q63 39 122 40q39 0 57 -18z"/>
<glyph glyph-name="dieresis" horiz-adv-x="214" unicode="" d="M150 305q-8 -17 -23 -17q-6 0 -8 5t2 13q9 17 23 17q8 0 8 -9q0 -6 -2 -9zM64 305q-8 -17 -23 -17q-8 0 -8 9q0 6 2 9q9 17 23 17q8 0 8 -9q0 -6 -2 -9z"/>
<glyph glyph-name="copyright" horiz-adv-x="445" unicode="" d="M332 490q14 5 21 16q9 15 2 22q-4 5 -13 5q-11 0 -23 -8q-20 -12 -43 -41.5t-23 -52.5q0 -17 17 -17q8 0 20 5q11 5 22.5 12.5t18.5 13.5t19.5 18t17.5 16q-23 -33 -64 -58q-26 -14 -38 -14h-4q-22 3 -22 30q0 7 1 10q10 49 68 80q20 11 34 11q10 0 15 -5q6 -5 6 -15 q0 -11 -7 -22q-9 -15 -23 -15q-8 0 -9 4q0 1 7 5zM391 584q30 -16 30 -56q0 -21 -10 -49q-23 -60 -78 -97q-39 -27 -73 -27q-25 0 -41 16q-17 17 -17 47v9q1 20 10 37q4 8 5 9q0 -4 -2 -9q-7 -18 -7 -45q0 -36 25 -50q12 -6 27 -6q16 0 33 7q54 21 92 80q26 40 26 76 q0 22 -11 37q-15 19 -38 19q-34 0 -83 -35q-2 -2 -9.5 -5.5t-7.5 -0.5q2 5 17 17q43 33 80 33q18 0 32 -7z"/>
<glyph glyph-name="registered" horiz-adv-x="445" unicode="" d="M340 537q-8 -4 -27 -21q-24 -23 -35 -39q2 0 4 -0.5t4 -0.5q31 0 56 23q16 16 19 35q1 5 -1 6.5t-6 1t-7.5 -1.5t-6.5 -3zM303 574q32 17 58 17q16 0 30 -7q29 -15 29 -56q0 -26 -10 -49q-22 -58 -78 -97q-42 -27 -73 -27q-24 0 -41 16q-17 17 -17 46q0 2 0.5 5.5 t0.5 5.5q2 31 15 45q-10 -23 -10 -54q0 -36 26 -50q12 -6 26 -6q15 0 33 7q54 21 92 80q26 40 26 77q0 20 -10 36q-14 18 -39 18q-24 0 -54 -16q-8 -4 -29 -18l-15 -7l-1 1q1 5 15.5 16t25.5 17zM237 421l-5.5 -5.5t-3.5 0.5v1q1 1 1 2q10 24 59 113q6 10 15 4q4 -2 -1 -12 l-27 -45q37 46 63 62q12 7 20 7q5 0 8 -3q6 -4 6 -14q0 -9 -4 -19q-9 -19 -34 -29t-45 -10q-2 0 -4 0.5t-3 0.5q27 -31 41 -51q0 -1 3 -4.5t5 -6.5l2 -4h-1q-2 0 -7 5.5t-10.5 12t-6.5 7.5q-17 21 -34 40q-7 -9 -18.5 -26t-18.5 -26z"/>
<glyph glyph-name="acute" horiz-adv-x="238" unicode="" d="M195 333q1 -1 1 -3t-2 -4.5t-5 -4.5t-4 -3q-48 -36 -117 -48q-2 0 -4.5 -0.5t-4.5 -0.5q-6 0 -8 2q33 6 64 20q36 16 65 40q4 4 10 4q4 0 5 -2z"/>
<glyph glyph-name="mu" horiz-adv-x="253" unicode="" d="M292 166q2 2 2 1q0 -3 -2 -5q-1 -1 -2 -3.5t-3 -4.5q-36 -47 -103 -110q-40 -40 -64 -40q-6 0 -9 3q-4 4 -4 13q0 28 40 98q-32 -37 -62 -63q-47 -43 -85 -54q-3 -1 -8 -1q-19 0 -22 17q-1 4 -1 11q-70 -131 -182 -334q-1 -1 -1 -2.5t-1 -2.5t-3 -5l-4 -7 q-10 -20 -22 -32q-7 -7 -9 -7q-1 0 -1 2q0 5 4 13q15 31 40 74v1l1 2q64 122 166 309q12 21 40.5 73.5t44.5 80.5q6 9 17 23q11 11 17 9q3 -1 3 -5q0 -5 -4 -14t-9 -17.5t-5 -9.5q-7 -14 -24 -44t-29 -53.5t-20 -46.5q-3 -13 0 -19q1 -2 5 -2q13 0 25 8q41 20 93 72 q48 49 88 111q11 18 23 24q6 3 8 3t4 -2t-1 -12q-5 -8 -11 -16.5t-13.5 -18.5t-11.5 -16q-46 -69 -67 -111q-11 -33 -11 -36q0 -6 4 -6h1q42 9 140 119q22 28 28 33z"/>
<glyph glyph-name="paragraph" horiz-adv-x="607" unicode="" d="M814 547q15 -2 46 -10.5t31 -12.5l-8 2q-8 1 -18.5 3.5t-14.5 2.5q-96 14 -166 14q-39 0 -78 -3q-41 -54 -120 -176q-90 -146 -133 -220q-85 -150 -105 -185q-4 -7 -6 -7t0 5q2 8 4 12q11 27 70 140q62 115 134 230q75 121 134 200q-24 -2 -64 -8q-13 -22 -40.5 -62 t-41.5 -62q-59 -95 -133 -224q-39 -66 -64 -113q-11 -21 -19 -31q-3 -3 -3 -1t1 5q6 19 21 50q29 62 95 180q-38 -29 -99 -29q-32 0 -58.5 16t-26.5 46q0 43 52 93q87 84 228 123q77 22 161 28q33 38 39 43q9 7 17 10h1l2 1q6 -1 -2 -11q-19 -20 -35 -41q50 2 75 2 q67 -2 124 -10z"/>
<glyph glyph-name="cedilla" horiz-adv-x="242" unicode="" d="M137 70q0 -18 -23 -48q-34 -46 -88 -90q-17 -14 -22 -14l-1 1q0 5 12 13q17 13 44 42q37 39 57 81q4 18 1 20q-13 4 -13 16q0 5 6 5t14 -4q13 -5 13 -22z"/>
<glyph glyph-name="questiondown" horiz-adv-x="512" unicode="" d="M505 538q-14 0 -5 18q8 17 23 17q8 0 8 -8q0 -4 -3 -10q-8 -17 -23 -17zM153 7q-29 12 -29 48q0 26 16 60q23 47 78 102q20 20 94 90q53 50 89 88q17 17 49 53q10 10 11 10l-1 -2q-1 -3 -2.5 -5t-2.5 -3q-31 -40 -34 -43q-25 -29 -58 -62q-16 -17 -61 -60.5t-68 -68.5 q-55 -59 -76 -101q-19 -34 -19 -60q0 -31 28 -39q11 -3 22 -3q19 0 42 7q31 9 56 27q64 44 72 95q2 10 2 16q0 15 -9 23q-3 2 -9 5t-9 5q-9 5 3 9q2 1 7 1q12 0 21 -9t11 -22v-6q0 -23 -17 -51q-29 -50 -87 -83q-28 -16 -59 -23q-15 -3 -30 -3q-18 0 -30 5z"/>
<glyph glyph-name="Agrave" d="M697 659q1 0 4.5 -1t6.5 -2l3 -1q0 -2 -12.5 0t-17.5 4q-18 5 -43.5 21t-36.5 35q-3 5 -1 9.5t5 4.5q2 0 5 -4q29 -46 87 -66zM358 305q60 5 127 5q56 128 85 192l27 63q15 37 16 48q-1 1 -8 -7t-18 -21t-21 -25t-19 -22.5t-10 -11.5q-15 -18 -45 -56t-45 -56 q-53 -66 -89 -109zM620 296q32 -8 32 -12h-1q-4 0 -21 4t-18 4q-44 9 -105 9q-58 -132 -87 -199q-14 -33 -23 -59q-8 -22 -8 -37q0 -7 1 -10q3 -9 14 -9q29 0 88 47q45 34 93 82q6 6 18.5 19.5t19.5 20.5q1 1 6 5t5 3q0 -2 -2 -4.5t-4.5 -5.5t-3.5 -4q-25 -30 -69 -73 q-53 -51 -97 -80q-34 -21 -53 -23h-4q-27 0 -27 35q0 20 12 56q15 42 95 236q-30 -1 -135 -10q-40 -48 -74 -85q-109 -120 -192 -186q-60 -48 -102 -60q-10 -3 -22 -3h-5q-17 0 -17 7q0 1 1 2q2 2 18 5q63 13 133 68q40 31 99 88q73 74 148 162q-49 -7 -99 -18 q-96 -20 -143 -58q-2 -1 -7.5 -6.5t-8.5 -7.5q-5 -3 -5.5 2.5t0.5 8.5q5 11 14 19q29 26 89 43q71 22 172 32l21 24q68 82 164 204q8 10 23 29.5t27.5 35.5t24.5 29q8 8 16 8q5 0 8 -6q2 -8 2 -12q0 -2 -3 -20q-8 -33 -46 -126q-67 -151 -72 -161q75 -4 110 -13z" unicode=""/>
<glyph glyph-name="Aacute" d="M715 722q1 -1 1 -3t-2 -4.5t-5 -4.5t-4 -3q-48 -36 -117 -48q-14 -2 -17 1q33 6 64 20q36 16 65 40q4 4 10 4q4 0 5 -2zM358 305q60 5 127 5q56 128 85 192l27 63q15 37 16 48q-1 1 -8 -7t-18 -21t-21 -25t-19 -22.5t-10 -11.5q-15 -18 -45 -56t-45 -56q-53 -66 -89 -109 zM620 296q32 -8 32 -12h-1q-4 0 -21 4t-18 4q-44 9 -105 9q-58 -132 -87 -199q-14 -33 -23 -59q-8 -22 -8 -37q0 -7 1 -10q3 -9 14 -9q29 0 88 47q45 34 93 82q6 6 18.5 19.5t19.5 20.5q1 1 6 5t5 3q0 -2 -2 -4.5t-4.5 -5.5t-3.5 -4q-25 -30 -69 -73q-53 -51 -97 -80 q-34 -21 -53 -23h-4q-27 0 -27 35q0 20 12 56q15 42 95 236q-30 -1 -135 -10q-40 -48 -74 -85q-109 -120 -192 -186q-60 -48 -102 -60q-10 -3 -22 -3h-5q-17 0 -17 7q0 1 1 2q2 2 18 5q63 13 133 68q40 31 99 88q73 74 148 162q-49 -7 -99 -18q-96 -20 -143 -58 q-2 -1 -7.5 -6.5t-8.5 -7.5q-5 -3 -5.5 2.5t0.5 8.5q5 11 14 19q29 26 89 43q71 22 172 32l21 24q68 82 164 204q8 10 23 29.5t27.5 35.5t24.5 29q8 8 16 8q5 0 8 -6q2 -8 2 -12q0 -2 -3 -20q-8 -33 -46 -126q-67 -151 -72 -161q75 -4 110 -13z" unicode=""/>
<glyph glyph-name="Acircumflex" d="M721 660l3 -2l4 -2l2 -2q0 -2 -4 -1q-17 8 -31 29q-16 24 -26 47q-30 -16 -45 -23q-1 0 -19 -8.5t-33.5 -13.5t-24.5 -5q-5 0 -7 1q21 6 59 25l69 39q4 2 8 2q6 0 7 -4q1 -3 -2 -6q2 -5 5.5 -14.5t5.5 -13.5q17 -38 29 -48zM358 305q60 5 127 5q56 128 85 192l27 63 q15 37 16 48q-1 1 -8 -7t-18 -21t-21 -25t-19 -22.5t-10 -11.5q-15 -18 -45 -56t-45 -56q-53 -66 -89 -109zM620 296q32 -8 32 -12h-1q-4 0 -21 4t-18 4q-44 9 -105 9q-58 -132 -87 -199q-14 -33 -23 -59q-8 -22 -8 -37q0 -7 1 -10q3 -9 14 -9q29 0 88 47q45 34 93 82 q6 6 18.5 19.5t19.5 20.5q1 1 6 5t5 3q0 -2 -2 -4.5t-4.5 -5.5t-3.5 -4q-25 -30 -69 -73q-53 -51 -97 -80q-34 -21 -53 -23h-4q-27 0 -27 35q0 20 12 56q15 42 95 236q-30 -1 -135 -10q-40 -48 -74 -85q-109 -120 -192 -186q-60 -48 -102 -60q-10 -3 -22 -3h-5q-17 0 -17 7 q0 1 1 2q2 2 18 5q63 13 133 68q40 31 99 88q73 74 148 162q-49 -7 -99 -18q-96 -20 -143 -58q-2 -1 -7.5 -6.5t-8.5 -7.5q-5 -3 -5.5 2.5t0.5 8.5q5 11 14 19q29 26 89 43q71 22 172 32l21 24q68 82 164 204q8 10 23 29.5t27.5 35.5t24.5 29q8 8 16 8q5 0 8 -6q2 -8 2 -12 q0 -2 -3 -20q-8 -33 -46 -126q-67 -151 -72 -161q75 -4 110 -13z" unicode=""/>
<glyph glyph-name="Atilde" d="M739 719q0 -4 -10 -14q-23 -23 -51 -23q-4 0 -14 2q-44 11 -48 11q-14 0 -42 -17q-15 -11 -19 -1q-1 3 20 18q19 13 41 13q10 0 20 -3q2 0 20.5 -6.5t28.5 -6.5q4 0 12 2q12 3 26 13zM358 305q60 5 127 5q56 128 85 192l27 63q15 37 16 48q-1 1 -8 -7t-18 -21t-21 -25 t-19 -22.5t-10 -11.5q-15 -18 -45 -56t-45 -56q-53 -66 -89 -109zM620 296q32 -8 32 -12h-1q-4 0 -21 4t-18 4q-44 9 -105 9q-58 -132 -87 -199q-14 -33 -23 -59q-8 -22 -8 -37q0 -7 1 -10q3 -9 14 -9q29 0 88 47q45 34 93 82q6 6 18.5 19.5t19.5 20.5q1 1 6 5t5 3 q0 -2 -2 -4.5t-4.5 -5.5t-3.5 -4q-25 -30 -69 -73q-53 -51 -97 -80q-34 -21 -53 -23h-4q-27 0 -27 35q0 20 12 56q15 42 95 236q-30 -1 -135 -10q-40 -48 -74 -85q-109 -120 -192 -186q-60 -48 -102 -60q-10 -3 -22 -3h-5q-17 0 -17 7q0 1 1 2q2 2 18 5q63 13 133 68 q40 31 99 88q73 74 148 162q-49 -7 -99 -18q-96 -20 -143 -58q-2 -1 -7.5 -6.5t-8.5 -7.5q-5 -3 -5.5 2.5t0.5 8.5q5 11 14 19q29 26 89 43q71 22 172 32l21 24q68 82 164 204q8 10 23 29.5t27.5 35.5t24.5 29q8 8 16 8q5 0 8 -6q2 -8 2 -12q0 -2 -3 -20q-8 -33 -46 -126 q-67 -151 -72 -161q75 -4 110 -13z" unicode=""/>
<glyph glyph-name="Adieresis" d="M701 691q-9 -17 -23 -17q-6 0 -8 5t2 13q9 17 23 17q8 0 8 -9q0 -6 -2 -9zM615 691q-9 -17 -23 -17q-6 0 -8 5t2 13q9 17 23 17q6 0 8 -5.5t-2 -12.5zM358 305q60 5 127 5q56 128 85 192l27 63q15 37 16 48q-1 1 -8 -7t-18 -21t-21 -25t-19 -22.5t-10 -11.5 q-15 -18 -45 -56t-45 -56q-53 -66 -89 -109zM620 296q32 -8 32 -12h-1q-4 0 -21 4t-18 4q-44 9 -105 9q-58 -132 -87 -199q-14 -33 -23 -59q-8 -22 -8 -37q0 -7 1 -10q3 -9 14 -9q29 0 88 47q45 34 93 82q6 6 18.5 19.5t19.5 20.5q1 1 6 5t5 3q0 -2 -2 -4.5t-4.5 -5.5 t-3.5 -4q-25 -30 -69 -73q-53 -51 -97 -80q-34 -21 -53 -23h-4q-27 0 -27 35q0 20 12 56q15 42 95 236q-30 -1 -135 -10q-40 -48 -74 -85q-109 -120 -192 -186q-60 -48 -102 -60q-10 -3 -22 -3h-5q-17 0 -17 7q0 1 1 2q2 2 18 5q63 13 133 68q40 31 99 88q73 74 148 162 q-49 -7 -99 -18q-96 -20 -143 -58q-2 -1 -7.5 -6.5t-8.5 -7.5q-5 -3 -5.5 2.5t0.5 8.5q5 11 14 19q29 26 89 43q71 22 172 32l21 24q68 82 164 204q8 10 23 29.5t27.5 35.5t24.5 29q8 8 16 8q5 0 8 -6q2 -8 2 -12q0 -2 -3 -20q-8 -33 -46 -126q-67 -151 -72 -161 q75 -4 110 -13z" unicode=""/>
<glyph glyph-name="Aring" d="M654 746q6 2 10 2q11 0 18.5 -7t7.5 -18q0 -10 -4 -18t-4 -2q0 23 -1 25q-4 9 -13 9q-15 0 -30 -15q-21 -21 -21 -39q0 -7 4 -11q7 -9 23 -1q17 8 25 22q4 5 11 7q5 1 5.5 -2t-1.5 -6q-6 -12 -22 -26q-18 -12 -30 -12q-7 0 -13 3q-14 6 -14 25q0 12 5 24q17 31 44 40z M358 305q60 5 127 5q56 128 85 192l27 63q15 37 16 48q-1 1 -8 -7t-18 -21t-21 -25t-19 -22.5t-10 -11.5q-15 -18 -45 -56t-45 -56q-53 -66 -89 -109zM620 296q32 -8 32 -12h-1q-4 0 -21 4t-18 4q-44 9 -105 9q-58 -132 -87 -199q-14 -33 -23 -59q-8 -22 -8 -37q0 -7 1 -10 q3 -9 14 -9q29 0 88 47q45 34 93 82q6 6 18.5 19.5t19.5 20.5q1 1 6 5t5 3q0 -2 -2 -4.5t-4.5 -5.5t-3.5 -4q-25 -30 -69 -73q-53 -51 -97 -80q-34 -21 -53 -23h-4q-27 0 -27 35q0 20 12 56q15 42 95 236q-30 -1 -135 -10q-40 -48 -74 -85q-109 -120 -192 -186 q-60 -48 -102 -60q-10 -3 -22 -3h-5q-17 0 -17 7q0 1 1 2q2 2 18 5q63 13 133 68q40 31 99 88q73 74 148 162q-49 -7 -99 -18q-96 -20 -143 -58q-2 -1 -7.5 -6.5t-8.5 -7.5q-5 -3 -5.5 2.5t0.5 8.5q5 11 14 19q29 26 89 43q71 22 172 32l21 24q68 82 164 204q8 10 23 29.5 t27.5 35.5t24.5 29q8 8 16 8q5 0 8 -6q2 -8 2 -12q0 -2 -3 -20q-8 -33 -46 -126q-67 -151 -72 -161q75 -4 110 -13z" unicode=""/>
<glyph glyph-name="AE" horiz-adv-x="804" unicode="" d="M507 301l-12 -27q8 9 28 27h-16zM767 383q-35 0 -59 -5q25 -25 65 -28q21 -2 31 1q18 8 9 18q-10 12 -46 14zM358 305q60 5 127 5q56 128 85 192l27 63q15 37 16 48q-1 1 -8 -7t-18 -21t-21 -25t-19 -22.5t-10 -11.5q-15 -18 -45 -56t-45 -56q-53 -66 -89 -109zM932 635 q18 -15 18 -45q0 -31 -21.5 -60t-51.5 -38q-19 -4 -27 -1q-7 4 -4 6.5t10 4.5q33 10 53 30q30 30 30 64q0 24 -18 36q-20 14 -48 14q-34 0 -70 -18q-52 -25 -89 -83q-32 -52 -32 -101q0 -33 19 -58q34 4 53 4h11q36 -2 50 -14q15 -11 4 -24q-11 -11 -35 -11q-9 0 -13 1 q-48 5 -77 33q-59 -14 -111 -49q-17 -12 -27 -20q37 -3 64 -10q32 -8 32 -12h-1q-4 0 -21 4t-18 4q-35 7 -63 8q-69 -59 -103 -144q-19 -47 -19 -88q0 -21 4 -37q8 -28 30 -47t51 -19h2h4q47 0 111 31q48 24 100 66q55 44 105 93l10 7q0 -4 -10 -14q-48 -52 -100 -93 q-48 -37 -97 -63q-70 -37 -123 -37q-51 0 -81 34q-15 14 -23 40q-1 -9 -1 -28q0 -88 50 -129q8 -6 9 -7h-1q-5 0 -7 2q-11 5 -20 16q-16 17 -29 51q-13 43 -13 88q0 23 4 49t8 43.5t16 50t15.5 42.5t20.5 49.5t19 44.5q-30 -1 -135 -10q-40 -48 -74 -85q-109 -120 -192 -186 q-60 -48 -102 -60q-18 -4 -27 -3q-17 0 -17 7q0 1 1 2q2 2 18 5q63 13 133 68q40 31 99 88q73 74 148 162q-49 -7 -99 -18q-96 -20 -143 -58q-2 -1 -7.5 -6.5t-8.5 -7.5q-5 -3 -5.5 2.5t0.5 8.5q5 11 14 19q29 26 89 43q71 22 172 32l21 24q68 82 164 204q8 10 23 29.5 t27.5 35.5t24.5 29q18 15 24 2q2 -8 2 -12q0 -2 -3 -20q-8 -33 -46 -126q-67 -151 -72 -161q7 -1 21 -1q32 26 68 44q39 20 88 31q-11 13 -18 30q-8 20 -8 45q0 44 26.5 86t65.5 69q60 41 121 41q38 0 58 -19z"/>
<glyph glyph-name="Ccedilla" horiz-adv-x="374" unicode="" d="M71 -43q0 -18 -23 -48q-34 -46 -88 -90q-18 -14 -22 -14l-1 1q0 5 12 13q17 13 44 42q37 39 57 81q4 18 1 20q-13 4 -13 15q-54 34 -54 134q0 34 7 71q21 101 95 211q72 106 175 179q43 32 93 54q67 30 124 30q37 0 59 -19q27 -24 27 -58v-3q-1 -37 -35 -84 q-36 -49 -94 -86q-47 -29 -85 -34q-2 0 -6.5 -0.5t-6.5 -0.5q-25 0 -38 13q-8 8 -4 10q3 2 10 -1q7 -2 17 -4q4 -1 12 -1q43 0 105 37q59 37 91 86q24 35 24 67q0 21 -11 36q-20 30 -65 30h-5q-52 -1 -120 -38q-108 -57 -202 -169q-81 -95 -122 -198q-28 -73 -29 -131v-7 q0 -74 37 -108q26 -22 65 -22q11 0 17 1q54 6 119 44q49 28 101 74q20 17 42 41q1 1 8 9t13 15l7 7q2 -1 -9 -16t-14 -18q-22 -24 -34 -35q-33 -32 -81 -66q-50 -33 -95 -51q-43 -16 -74 -16q-17 0 -32 4q1 -1 1 -7z"/>
<glyph glyph-name="Egrave" horiz-adv-x="419" unicode="" d="M577 673q1 0 4.5 -1t6.5 -2l3 -1q0 -2 -12.5 0t-17.5 4q-18 5 -43.5 21t-36.5 35q-3 5 -1 9.5t5 4.5q2 0 5 -4q29 -46 87 -66zM380 383q-35 0 -59 -5q25 -25 65 -28q21 -2 31 1q18 8 9 18q-10 12 -46 14zM545 635q18 -15 18 -45q0 -31 -21.5 -60t-51.5 -38q-19 -4 -27 -1 q-7 4 -4 6.5t10 4.5q33 10 53 30q30 30 30 64q0 24 -18 36q-20 14 -48 14q-34 0 -70 -18q-52 -25 -89 -83q-32 -52 -32 -101q0 -33 19 -58q34 4 53 4h11q36 -2 50 -14q15 -11 4 -24q-11 -11 -35 -11q-9 0 -13 1q-48 5 -77 33q-59 -14 -111 -49q-91 -61 -137 -170 q-19 -47 -19 -88q0 -21 4 -37q8 -28 30 -47t51 -19h2h4q47 0 111 31q48 24 100 66q56 44 105 93l10 7q0 -4 -10 -14q-48 -52 -100 -93q-48 -37 -97 -63q-70 -37 -123 -37q-51 0 -81 34q-29 32 -29 86q0 17 3 32q9 56 48 115q54 85 144 130q39 20 88 31q-10 13 -18 30 q-8 20 -8 45q0 44 26.5 86t65.5 69q60 41 121 41q38 0 58 -19z"/>
<glyph glyph-name="Eacute" horiz-adv-x="419" unicode="" d="M621 752q1 -1 1 -3t-2 -4.5t-5 -4.5t-4 -3q-48 -36 -117 -48q-14 -2 -17 1q33 6 64 20q36 16 65 40q4 4 10 4q4 0 5 -2zM380 383q-35 0 -59 -5q25 -25 65 -28q21 -2 31 1q18 8 9 18q-10 12 -46 14zM545 635q18 -15 18 -45q0 -31 -21.5 -60t-51.5 -38q-19 -4 -27 -1 q-7 4 -4 6.5t10 4.5q33 10 53 30q30 30 30 64q0 24 -18 36q-20 14 -48 14q-34 0 -70 -18q-52 -25 -89 -83q-32 -52 -32 -101q0 -33 19 -58q34 4 53 4h11q36 -2 50 -14q15 -11 4 -24q-11 -11 -35 -11q-9 0 -13 1q-48 5 -77 33q-59 -14 -111 -49q-91 -61 -137 -170 q-19 -47 -19 -88q0 -21 4 -37q8 -28 30 -47t51 -19h2h4q47 0 111 31q48 24 100 66q56 44 105 93l10 7q0 -4 -10 -14q-48 -52 -100 -93q-48 -37 -97 -63q-70 -37 -123 -37q-51 0 -81 34q-29 32 -29 86q0 17 3 32q9 56 48 115q54 85 144 130q39 20 88 31q-10 13 -18 30 q-8 20 -8 45q0 44 26.5 86t65.5 69q60 41 121 41q38 0 58 -19z"/>
<glyph glyph-name="Ecircumflex" horiz-adv-x="419" unicode="" d="M603 667l3 -1l4 -4l2 -1q0 -2 -4 -1q-17 8 -31 29q-16 24 -26 47q-30 -16 -45 -23q-1 0 -19 -8.5t-33.5 -13.5t-24.5 -5q-5 0 -7 1q21 6 59 25l69 39q4 2 8 2q6 0 7 -4q1 -3 -2 -6q2 -5 5.5 -14.5t5.5 -13.5q17 -38 29 -48zM380 383q-35 0 -59 -5q25 -25 65 -28 q21 -2 31 1q18 8 9 18q-10 12 -46 14zM545 635q18 -15 18 -45q0 -31 -21.5 -60t-51.5 -38q-19 -4 -27 -1q-7 4 -4 6.5t10 4.5q33 10 53 30q30 30 30 64q0 24 -18 36q-20 14 -48 14q-34 0 -70 -18q-52 -25 -89 -83q-32 -52 -32 -101q0 -33 19 -58q34 4 53 4h11q36 -2 50 -14 q15 -11 4 -24q-11 -11 -35 -11q-9 0 -13 1q-48 5 -77 33q-59 -14 -111 -49q-91 -61 -137 -170q-19 -47 -19 -88q0 -21 4 -37q8 -28 30 -47t51 -19h2h4q47 0 111 31q48 24 100 66q56 44 105 93l10 7q0 -4 -10 -14q-48 -52 -100 -93q-48 -37 -97 -63q-70 -37 -123 -37 q-51 0 -81 34q-29 32 -29 86q0 17 3 32q9 56 48 115q54 85 144 130q39 20 88 31q-10 13 -18 30q-8 20 -8 45q0 44 26.5 86t65.5 69q60 41 121 41q38 0 58 -19z"/>
<glyph glyph-name="Edieresis" horiz-adv-x="419" unicode="" d="M575 707q-9 -17 -23 -17q-6 0 -8 5t2 13q9 17 23 17q8 0 8 -9q0 -6 -2 -9zM489 707q-9 -17 -23 -17q-6 0 -8 5t2 13q9 17 23 17q6 0 8 -5.5t-2 -12.5zM380 383q-35 0 -59 -5q25 -25 65 -28q21 -2 31 1q18 8 9 18q-10 12 -46 14zM545 635q18 -15 18 -45q0 -31 -21.5 -60 t-51.5 -38q-19 -4 -27 -1q-7 4 -4 6.5t10 4.5q33 10 53 30q30 30 30 64q0 24 -18 36q-20 14 -48 14q-34 0 -70 -18q-52 -25 -89 -83q-32 -52 -32 -101q0 -33 19 -58q34 4 53 4h11q36 -2 50 -14q15 -11 4 -24q-11 -11 -35 -11q-9 0 -13 1q-48 5 -77 33q-59 -14 -111 -49 q-91 -61 -137 -170q-19 -47 -19 -88q0 -21 4 -37q8 -28 30 -47t51 -19h2h4q47 0 111 31q48 24 100 66q56 44 105 93l10 7q0 -4 -10 -14q-48 -52 -100 -93q-48 -37 -97 -63q-70 -37 -123 -37q-51 0 -81 34q-29 32 -29 86q0 17 3 32q9 56 48 115q54 85 144 130q39 20 88 31 q-10 13 -18 30q-8 20 -8 45q0 44 26.5 86t65.5 69q60 41 121 41q38 0 58 -19z"/>
<glyph glyph-name="Igrave" horiz-adv-x="575" unicode="" d="M697 659q1 0 4.5 -1t6.5 -2l3 -1q0 -2 -12.5 0t-17.5 4q-18 5 -43.5 21t-36.5 35q-3 5 -1 9.5t5 4.5q2 0 5 -4q29 -46 87 -66zM196 495q-23 -17 -34 -36q-8 -17 -12 -7q-2 7 0 19q9 34 76 66q78 39 212 65q132 25 254 28h25q92 0 156 -15q6 -2 24.5 -8.5t18.5 -9.5 q0 -1 -4 0.5t-9 3.5t-6 2q-65 20 -154 20q-6 0 -18.5 -0.5t-18.5 -0.5q-124 -4 -265 -35q-73 -15 -129 -35q-79 -28 -116 -57zM586 565q8 4 10 4q4 0 4 -6t-12 -27q-19 -36 -56.5 -108t-55.5 -108q-100 -184 -152 -275q-7 -13 -15 -23q18 1 53 1q44 0 65 -2q42 -4 62 -9 q35 -9 35 -13q-1 -1 -3.5 0t-5.5 2q-59 14 -129 14q-54 0 -108 -6q-56 -5 -135 -19q-93 -19 -129 -35q-15 -6 -33 -10q-1 0 -3 -0.5t-4 -0.5q-6 0 -6 4q0 5 8 10q16 11 67 25q111 30 261 39q5 15 15 35q22 41 59.5 118.5t54.5 110.5q57 110 128 245q10 22 25 34z"/>
<glyph glyph-name="Iacute" horiz-adv-x="575" unicode="" d="M752 722q2 -3 0.5 -5.5t-6.5 -6.5l-4 -3q-48 -36 -117 -48q-14 -2 -17 1q33 6 64 20q36 16 65 40q4 4 10 4q4 0 5 -2zM196 495q-23 -17 -34 -36q-8 -17 -12 -7q-2 7 0 19q9 34 76 66q78 39 212 65q132 25 254 28h25q92 0 156 -15q6 -2 24.5 -8.5t18.5 -9.5q0 -1 -4 0.5 t-9 3.5t-6 2q-65 20 -154 20q-6 0 -18.5 -0.5t-18.5 -0.5q-124 -4 -265 -35q-73 -15 -129 -35q-79 -28 -116 -57zM586 565q8 4 10 4q4 0 4 -6t-12 -27q-19 -36 -56.5 -108t-55.5 -108q-100 -184 -152 -275q-7 -13 -15 -23q18 1 53 1q44 0 65 -2q42 -4 62 -9q35 -9 35 -13 q-1 -1 -3.5 0t-5.5 2q-59 14 -129 14q-54 0 -108 -6q-56 -5 -135 -19q-93 -19 -129 -35q-15 -6 -33 -10q-1 0 -3 -0.5t-4 -0.5q-6 0 -6 4q0 5 8 10q16 11 67 25q111 30 261 39q5 15 15 35q22 41 59.5 118.5t54.5 110.5q57 110 128 245q10 22 25 34z"/>
<glyph glyph-name="Icircumflex" horiz-adv-x="575" unicode="" d="M752 660l2 -2q3 -1 5 -2l2 -2q0 -2 -4 -1q-17 8 -31 29q-16 24 -26 47q-30 -16 -45 -23q-1 0 -19 -8.5t-33.5 -13.5t-24.5 -5q-5 0 -7 1q21 6 59 25l69 39q4 2 8 2q6 0 7 -4q1 -3 -2 -6q2 -5 5.5 -14.5t5.5 -13.5q17 -38 29 -48zM196 495q-23 -17 -34 -36q-8 -17 -12 -7 q-2 7 0 19q9 34 76 66q78 39 212 65q132 25 254 28h25q92 0 156 -15q6 -2 24.5 -8.5t18.5 -9.5q0 -1 -4 0.5t-9 3.5t-6 2q-65 20 -154 20q-6 0 -18.5 -0.5t-18.5 -0.5q-124 -4 -265 -35q-73 -15 -129 -35q-79 -28 -116 -57zM586 565q8 4 10 4q4 0 4 -6t-12 -27 q-19 -36 -56.5 -108t-55.5 -108q-100 -184 -152 -275q-7 -13 -15 -23q18 1 53 1q44 0 65 -2q42 -4 62 -9q35 -9 35 -13q-1 -1 -3.5 0t-5.5 2q-59 14 -129 14q-54 0 -108 -6q-56 -5 -135 -19q-93 -19 -129 -35q-15 -6 -33 -10q-1 0 -3 -0.5t-4 -0.5q-6 0 -6 4q0 5 8 10 q16 11 67 25q111 30 261 39q5 15 15 35q22 41 59.5 118.5t54.5 110.5q57 110 128 245q10 22 25 34z"/>
<glyph glyph-name="Idieresis" horiz-adv-x="575" unicode="" d="M732 691q-8 -17 -23 -17q-6 0 -8 5t2 13q9 17 23 17q6 0 8 -5.5t-2 -12.5zM646 691q-8 -17 -23 -17q-6 0 -8 5t2 13q9 17 23 17q6 0 8 -5.5t-2 -12.5zM196 495q-23 -17 -34 -36q-8 -17 -12 -7q-2 7 0 19q9 34 76 66q78 39 212 65q132 25 254 28h25q92 0 156 -15 q6 -2 24.5 -8.5t18.5 -9.5q0 -1 -4 0.5t-9 3.5t-6 2q-65 20 -154 20q-6 0 -18.5 -0.5t-18.5 -0.5q-124 -4 -265 -35q-73 -15 -129 -35q-79 -28 -116 -57zM586 565q8 4 10 4q4 0 4 -6t-12 -27q-19 -36 -56.5 -108t-55.5 -108q-100 -184 -152 -275q-7 -13 -15 -23q18 1 53 1 q44 0 65 -2q42 -4 62 -9q35 -9 35 -13q-1 -1 -3.5 0t-5.5 2q-59 14 -129 14q-54 0 -108 -6q-56 -5 -135 -19q-93 -19 -129 -35q-15 -6 -33 -10q-1 0 -3 -0.5t-4 -0.5q-6 0 -6 4q0 5 8 10q16 11 67 25q111 30 261 39q5 15 15 35q22 41 59.5 118.5t54.5 110.5q57 110 128 245 q10 22 25 34z"/>
<glyph glyph-name="Eth" d="M197 147q-50 -82 -65 -104q-7 -12 -13 -16q-2 -1 0 6l2 4q9 21 29.5 60t22.5 43q-29 -9 -66 -26q-57 -28 -90 -66q-20 -22 -20 -40q0 -6 1 -9q6 -25 46 -34q17 -4 39 -4q37 0 82 12q68 17 117 39q118 51 214 144q-55 14 -124 14q-86 0 -175 -23zM363 327q8 2 44 2 q15 0 15 -2q0 -1 -2 -2t-4.5 -1.5t-3.5 -0.5q-55 -5 -124 -20q-28 -49 -86 -147q86 21 166 21q68 0 134 -15q87 85 127 183q26 65 26 106q0 27 -9 52q-21 56 -79 85q-42 22 -100 25q-11 -19 -31.5 -54.5t-24.5 -42.5l-114 -198q4 0 6 1q33 7 60 8zM524 156q22 -7 44 -20 q9 -6 22 -17t10 -13l-2 1q-1 1 -3 2.5t-3 2.5q-29 25 -74 38q-111 -106 -261 -161q-68 -25 -126 -33q-32 -4 -49 -4q-13 0 -19 1q-38 4 -57 20q-17 13 -17 34q0 9 3 18q6 16 31 41q43 42 110 67q30 12 45 16l81 147q-54 -16 -88 -29q-16 -6 -23 -1q-3 1 -2.5 3.5t2.5 4.5 q46 22 120 38l120 210q7 12 19.5 33.5t21.5 37.5t12 21q-98 -2 -189 -35.5t-154 -98.5q-46 -46 -53 -83q-4 -18 5 -28q8 -7 26 -7q4 0 14 1.5t15 0.5q12 -3 -6 -13q-12 -6 -26 -6q-16 0 -27 8q-16 11 -16 33q0 10 3 20q15 49 76 98q49 41 102 64q116 52 235 53q9 17 21 30 q12 12 17 14l1 1h2q3 0 3 -4q0 -6 -8 -22q-3 -6 -11 -20q69 -3 120 -31q29 -15 53 -46q32 -42 32 -99q0 -16 -1 -23q-4 -33 -19 -71q-44 -109 -132 -194z" unicode=""/>
<glyph glyph-name="Ntilde" horiz-adv-x="544" unicode="" d="M781 679q1 -1 -3 -6t-7 -8q-23 -23 -51 -23q-4 0 -14 2q-44 11 -48 11q-14 0 -42 -17q-15 -11 -19 -1q-1 3 20 18q19 13 41 13q10 0 20 -3q2 0 20.5 -6.5t28.5 -6.5q4 0 12 2q12 3 26 13zM1110 680q4 -4 4 -7q0 -1 -9 3q-29 15 -64 15q-19 0 -39 -5q-57 -13 -120 -49 q-211 -121 -364 -372q-51 -82 -113 -223q-10 -26 -17 -38q-8 -14 -15 -4q-2 3 -2 13q1 50 16 132q24 135 60 266q9 31 34 127q-68 -99 -85 -123q-89 -127 -161 -218q-93 -117 -179 -195q-50 -47 -88 -69q-30 -17 -52 -23q-10 -2 -16 -2q-2 0 -5.5 0.5t-4.5 0.5q-16 3 -16 12 q0 6 20 6q14 0 27 3q27 7 57 25q47 28 100 79q79 76 178 203q78 99 159 222q39 60 69 112q7 11 13 9q8 -2 6 -17q-12 -63 -75 -327q-32 -140 -39 -195q50 104 58 120q42 84 96 162q76 109 171 200q115 111 213 156q55 26 104 27h7q26 0 49 -10q14 -7 23 -16z"/>
<glyph glyph-name="Ograve" horiz-adv-x="451" unicode="" d="M560 659q1 0 4.5 -1t6.5 -2l3 -1q0 -2 -12.5 0t-17.5 4q-18 5 -43.5 21t-36.5 35q-3 5 -1 9.5t5 4.5q2 0 5 -4q29 -46 87 -66zM463 529q35 1 82 10q-5 52 -39 72q-14 7 -32 7q-48 0 -83 -37q-14 -14 -10 -28q8 -24 75 -24h7zM906 664h1l-7 -7q-27 -17 -54 -30 q-107 -53 -236 -83q-29 -7 -49 -11q1 -8 1 -24q0 -32 -9 -73q-14 -59 -47 -120q-63 -113 -162 -205q-53 -48 -103 -79q-70 -43 -121 -44h-3q-56 0 -81 45q-14 29 -16 65v13q0 71 39 158q47 106 130 195q40 44 80 71q37 25 64 31q17 0 8 -6q-50 -29 -86 -61q-39 -33 -78 -79 q-86 -103 -123 -207q-21 -52 -22 -103v-6q0 -54 27 -82q22 -22 58 -22q19 0 43 7q48 17 109 65q93 75 175 190q93 132 102 237q0 3 0.5 8t0.5 8q0 2 -0.5 7.5t-0.5 8.5q-52 -9 -91 -9q-20 0 -41 3q-41 7 -41 34q0 23 32 44q29 19 56 23q5 1 16 1q26 0 42 -12q33 -26 40 -73 q6 1 17.5 3.5t16.5 3.5q122 30 229 76q11 5 34 16t34 16q1 1 7 3.5t9 3.5z"/>
<glyph glyph-name="Oacute" horiz-adv-x="451" unicode="" d="M608 722q2 -3 0.5 -5.5t-6.5 -6.5l-4 -3q-48 -36 -117 -48q-14 -2 -17 1q33 6 64 20q36 16 65 40q4 4 10 4q4 0 5 -2zM463 529q35 1 82 10q-5 52 -39 72q-14 7 -32 7q-48 0 -83 -37q-14 -14 -10 -28q8 -24 75 -24h7zM906 664h1l-7 -7q-27 -17 -54 -30q-107 -53 -236 -83 q-29 -7 -49 -11q1 -8 1 -24q0 -32 -9 -73q-14 -59 -47 -120q-63 -113 -162 -205q-53 -48 -103 -79q-70 -43 -121 -44h-3q-56 0 -81 45q-14 29 -16 65v13q0 71 39 158q47 106 130 195q40 44 80 71q37 25 64 31q17 0 8 -6q-50 -29 -86 -61q-39 -33 -78 -79q-86 -103 -123 -207 q-21 -52 -22 -103v-6q0 -54 27 -82q22 -22 58 -22q19 0 43 7q48 17 109 65q93 75 175 190q93 132 102 237q0 3 0.5 8t0.5 8q0 2 -0.5 7.5t-0.5 8.5q-52 -9 -91 -9q-20 0 -41 3q-41 7 -41 34q0 23 32 44q29 19 56 23q5 1 16 1q26 0 42 -12q33 -26 40 -73q6 1 17.5 3.5 t16.5 3.5q122 30 229 76q11 5 34 16t34 16q1 1 7 3.5t9 3.5z"/>
<glyph glyph-name="Ocircumflex" horiz-adv-x="451" unicode="" d="M595 660l3 -2l4 -2l2 -2q0 -2 -4 -1q-17 8 -31 29q-16 24 -26 47q-30 -16 -45 -23q-1 0 -19 -8.5t-33.5 -13.5t-24.5 -5q-5 0 -7 1q21 6 59 25l69 39q4 2 8 2q6 0 7 -4q1 -3 -2 -6q2 -5 5.5 -14.5t5.5 -13.5q17 -38 29 -48zM463 529q35 1 82 10q-5 52 -39 72q-14 7 -32 7 q-48 0 -83 -37q-14 -14 -10 -28q8 -24 75 -24h7zM906 664h1l-7 -7q-27 -17 -54 -30q-107 -53 -236 -83q-29 -7 -49 -11q1 -8 1 -24q0 -32 -9 -73q-14 -59 -47 -120q-63 -113 -162 -205q-53 -48 -103 -79q-70 -43 -121 -44h-3q-56 0 -81 45q-14 29 -16 65v13q0 71 39 158 q47 106 130 195q40 44 80 71q37 25 64 31q17 0 8 -6q-50 -29 -86 -61q-39 -33 -78 -79q-86 -103 -123 -207q-21 -52 -22 -103v-6q0 -54 27 -82q22 -22 58 -22q19 0 43 7q48 17 109 65q93 75 175 190q93 132 102 237q0 3 0.5 8t0.5 8q0 2 -0.5 7.5t-0.5 8.5q-52 -9 -91 -9 q-20 0 -41 3q-41 7 -41 34q0 23 32 44q29 19 56 23q5 1 16 1q26 0 42 -12q33 -26 40 -73q6 1 17.5 3.5t16.5 3.5q122 30 229 76q11 5 34 16t34 16q1 1 7 3.5t9 3.5z"/>
<glyph glyph-name="Otilde" horiz-adv-x="451" unicode="" d="M615 681q-23 -23 -51 -23q-4 0 -14 2q-44 11 -48 11q-14 0 -42 -17q-15 -11 -19 -1q-1 3 20 18q19 13 41 13q10 0 20 -3q2 0 20.5 -6.5t28.5 -6.5q4 0 12 2q12 3 26 13l16 12q2 0 -2.5 -5.5t-7.5 -8.5zM463 529q35 1 82 10q-5 52 -39 72q-14 7 -32 7q-48 0 -83 -37 q-14 -14 -10 -28q8 -24 75 -24h7zM906 664h1l-7 -7q-27 -17 -54 -30q-107 -53 -236 -83q-29 -7 -49 -11q1 -8 1 -24q0 -32 -9 -73q-14 -59 -47 -120q-63 -113 -162 -205q-53 -48 -103 -79q-70 -43 -121 -44h-3q-56 0 -81 45q-14 29 -16 65v13q0 71 39 158q47 106 130 195 q40 44 80 71q37 25 64 31q17 0 8 -6q-50 -29 -86 -61q-39 -33 -78 -79q-86 -103 -123 -207q-21 -52 -22 -103v-6q0 -54 27 -82q22 -22 58 -22q19 0 43 7q48 17 109 65q93 75 175 190q93 132 102 237q0 3 0.5 8t0.5 8q0 2 -0.5 7.5t-0.5 8.5q-52 -9 -91 -9q-20 0 -41 3 q-41 7 -41 34q0 23 32 44q29 19 56 23q5 1 16 1q26 0 42 -12q33 -26 40 -73q6 1 17.5 3.5t16.5 3.5q122 30 229 76q11 5 34 16t34 16q1 1 7 3.5t9 3.5z"/>
<glyph glyph-name="Odieresis" horiz-adv-x="451" unicode="" d="M570 691q-8 -17 -23 -17q-6 0 -8 5t2 13q9 17 23 17q6 0 8 -5.5t-2 -12.5zM484 691q-8 -17 -23 -17q-6 0 -8 5t2 13q9 17 23 17q6 0 8 -5.5t-2 -12.5zM463 529q35 1 82 10q-5 52 -39 72q-14 7 -32 7q-48 0 -83 -37q-14 -14 -10 -28q8 -24 75 -24h7zM906 664h1l-7 -7 q-27 -17 -54 -30q-107 -53 -236 -83q-29 -7 -49 -11q1 -8 1 -24q0 -32 -9 -73q-14 -59 -47 -120q-63 -113 -162 -205q-53 -48 -103 -79q-70 -43 -121 -44h-3q-56 0 -81 45q-14 29 -16 65v13q0 71 39 158q47 106 130 195q40 44 80 71q37 25 64 31q17 0 8 -6q-50 -29 -86 -61 q-39 -33 -78 -79q-86 -103 -123 -207q-21 -52 -22 -103v-6q0 -54 27 -82q22 -22 58 -22q19 0 43 7q48 17 109 65q93 75 175 190q93 132 102 237q0 3 0.5 8t0.5 8q0 2 -0.5 7.5t-0.5 8.5q-52 -9 -91 -9q-20 0 -41 3q-41 7 -41 34q0 23 32 44q29 19 56 23q5 1 16 1 q26 0 42 -12q33 -26 40 -73q6 1 17.5 3.5t16.5 3.5q122 30 229 76q11 5 34 16t34 16q1 1 7 3.5t9 3.5z"/>
<glyph glyph-name="multiply" horiz-adv-x="394" unicode="" d="M344 292q4 2 6 2t2 -1t-3 -4q-8 -7 -44 -28q-27 -17 -51 -33q-38 -25 -68 -48q10 -17 18 -38q12 -33 18 -60q2 -9 6 -29q3 -15 1 -18l-1 -1q-2 0 -5 7.5t-3 9.5q-5 21 -7 28q-8 31 -20 60q-3 5 -8.5 16l-8.5 17q-75 -58 -127 -113q-11 -11 -18 -15q-1 -1 -6 -2.5t-6 -0.5 t-1 4t7 12q3 2 7 7t7 8q34 36 73 67q38 30 57 44q-17 28 -45 59l-3 3q-5 5 -7.5 11.5t1.5 11.5h2q7 0 22 -19q25 -28 42 -58q33 24 90 60q10 6 28.5 17t23.5 14q14 8 21 10z"/>
<glyph glyph-name="Oslash" horiz-adv-x="451" unicode="" d="M545 539q-4 24 -9 35q-24 -21 -47 -44q26 3 56 9zM463 529h4q42 38 63 58q-11 16 -24 24q-14 7 -32 7q-48 0 -83 -37q-14 -14 -10 -28q8 -24 75 -24h7zM546 531q-35 -7 -65 -8q-109 -104 -252 -254q-66 -69 -192 -207q7 -25 22 -40q22 -22 58 -22q19 0 43 7q48 17 109 65 q93 75 175 190q93 132 102 237q0 3 0.5 8t0.5 8q0 2 -0.5 7.5t-0.5 8.5zM594 636q7 4 8 2q1 -1 -2 -5q-4 -5 -21 -20q-6 -5 -17.5 -15t-16.5 -15q11 -21 14 -41q6 1 17.5 3.5t16.5 3.5q122 30 229 76q11 5 34 16t34 16q1 1 7 3.5t9 3.5h1l-7 -7q-27 -17 -54 -30 q-107 -53 -236 -83q-29 -7 -49 -11q1 -8 1 -24q0 -32 -9 -73q-14 -59 -47 -120q-63 -113 -162 -205q-53 -48 -103 -79q-70 -43 -121 -44h-3q-56 0 -81 45q-6 12 -8 19q-2 -2 -6 -6.5t-6 -6.5q-23 -28 -43 -47q-4 -4 -4 -3q0 4 4 8q2 3 5.5 8t4.5 6q4 5 18.5 23.5t23.5 28.5 q-5 18 -5 35v13q0 71 39 158q47 106 130 195q40 44 80 71q37 25 64 31q17 0 8 -6q-50 -29 -86 -61q-39 -33 -78 -79q-86 -103 -123 -207q-21 -52 -22 -103v-10q0 -9 2 -27l36 42q187 214 390 407q-31 0 -46 3q-41 7 -41 34q0 23 32 44q29 19 56 23q5 1 16 1q26 0 42 -12 q12 -10 19 -20q1 1 4 3q38 31 52 38z"/>
<glyph glyph-name="Ugrave" horiz-adv-x="525" unicode="" d="M557 659q1 0 4.5 -1t6.5 -2l3 -1q0 -2 -12.5 0t-17.5 4q-18 5 -43.5 21t-36.5 35q-3 5 -1 9.5t5 4.5q2 0 5 -4q29 -46 87 -66zM681 624q1 -1 1 -4q0 -7 -27 -44q-59 -77 -79 -106q-36 -54 -68 -112q-59 -111 -106 -239q-22 -60 -22 -89q0 -19 10 -25t29 4q16 8 32.5 21.5 t26 23t27.5 29t25 26.5q2 2 5.5 6t6.5 7q2 2 2.5 0.5t-0.5 -2.5q-37 -49 -71 -80q-49 -45 -76 -45q-16 0 -23 18q-4 9 -4 22q0 16 6 40q36 156 123 301q14 24 22 37q-89 -114 -177 -215q-3 -4 -21 -24.5t-23 -26.5t-21 -24t-24 -25.5t-22.5 -22t-25.5 -23.5t-24.5 -20 t-27.5 -20q-61 -40 -95 -40h-8q-31 4 -31 47q0 4 3 25q19 88 112 237q28 43 84 117.5t77 104.5q35 52 44 74q4 12 4 15q0 25 -49 25q-19 0 -37 -4q-57 -9 -127 -38q-65 -28 -114 -61q-116 -73 -181 -174q-1 -2 -5 -8l-6 -9q-10 -13 -10 -4q0 13 20 43q27 40 76 82 q38 33 78 60q120 80 237 112q28 8 66 11h13q31 0 44 -13q7 -7 7 -20q0 -20 -17 -56q-28 -54 -115 -175q-115 -162 -161 -261q-26 -52 -26 -89q0 -19 11 -25q9 -3 17 -3q21 0 61 22q47 28 102 81q79 75 177 200q21 26 166 216q40 54 72 91q26 31 33 31q2 0 4 -2z"/>
<glyph glyph-name="Uacute" horiz-adv-x="525" unicode="" d="M598 722q2 -3 0.5 -5.5t-6.5 -6.5l-4 -3q-48 -36 -117 -48q-14 -2 -17 1q33 6 64 20q36 16 65 40q4 4 10 4q4 0 5 -2zM681 624q1 -1 1 -4q0 -7 -27 -44q-59 -77 -79 -106q-36 -54 -68 -112q-59 -111 -106 -239q-22 -60 -22 -89q0 -19 10 -25t29 4q16 8 32.5 21.5t26 23 t27.5 29t25 26.5q2 2 5.5 6t6.5 7q2 2 2.5 0.5t-0.5 -2.5q-37 -49 -71 -80q-49 -45 -76 -45q-16 0 -23 18q-4 9 -4 22q0 16 6 40q36 156 123 301q14 24 22 37q-89 -114 -177 -215q-3 -4 -21 -24.5t-23 -26.5t-21 -24t-24 -25.5t-22.5 -22t-25.5 -23.5t-24.5 -20t-27.5 -20 q-61 -40 -95 -40h-8q-31 4 -31 47q0 4 3 25q19 88 112 237q28 43 84 117.5t77 104.5q35 52 44 74q4 12 4 15q0 25 -49 25q-19 0 -37 -4q-57 -9 -127 -38q-65 -28 -114 -61q-116 -73 -181 -174q-1 -2 -5 -8l-6 -9q-10 -13 -10 -4q0 13 20 43q27 40 76 82q38 33 78 60 q120 80 237 112q28 8 66 11h13q31 0 44 -13q7 -7 7 -20q0 -20 -17 -56q-28 -54 -115 -175q-115 -162 -161 -261q-26 -52 -26 -89q0 -19 11 -25q9 -3 17 -3q21 0 61 22q47 28 102 81q79 75 177 200q21 26 166 216q40 54 72 91q26 31 33 31q2 0 4 -2z"/>
<glyph glyph-name="Ucircumflex" horiz-adv-x="525" unicode="" d="M603 660l3 -2l4 -2l2 -2q0 -2 -4 -1q-17 8 -31 29q-16 24 -26 47q-30 -16 -45 -23q-1 0 -19 -8.5t-33.5 -13.5t-24.5 -5q-5 0 -7 1q21 6 59 25l69 39q4 2 8 2q6 0 7 -4q1 -3 -2 -6q2 -5 5.5 -14.5t5.5 -13.5q17 -38 29 -48zM681 624q1 -1 1 -4q0 -7 -27 -44 q-59 -77 -79 -106q-36 -54 -68 -112q-59 -111 -106 -239q-22 -60 -22 -89q0 -19 10 -25t29 4q16 8 32.5 21.5t26 23t27.5 29t25 26.5q2 2 5.5 6t6.5 7q2 2 2.5 0.5t-0.5 -2.5q-37 -49 -71 -80q-49 -45 -76 -45q-16 0 -23 18q-4 9 -4 22q0 16 6 40q36 156 123 301 q14 24 22 37q-89 -114 -177 -215q-3 -4 -21 -24.5t-23 -26.5t-21 -24t-24 -25.5t-22.5 -22t-25.5 -23.5t-24.5 -20t-27.5 -20q-61 -40 -95 -40h-8q-31 4 -31 47q0 4 3 25q19 88 112 237q28 43 84 117.5t77 104.5q35 52 44 74q4 12 4 15q0 25 -49 25q-19 0 -37 -4 q-57 -9 -127 -38q-65 -28 -114 -61q-116 -73 -181 -174q-1 -2 -5 -8l-6 -9q-10 -13 -10 -4q0 13 20 43q27 40 76 82q38 33 78 60q120 80 237 112q28 8 66 11h13q31 0 44 -13q7 -7 7 -20q0 -20 -17 -56q-28 -54 -115 -175q-115 -162 -161 -261q-26 -52 -26 -89q0 -19 11 -25 q9 -3 17 -3q21 0 61 22q47 28 102 81q79 75 177 200q21 26 166 216q40 54 72 91q26 31 33 31q2 0 4 -2z"/>
<glyph glyph-name="Udieresis" horiz-adv-x="525" unicode="" d="M595 691q-9 -17 -23 -17q-6 0 -8 5t2 13q9 17 23 17q6 0 8 -5.5t-2 -12.5zM509 691q-9 -17 -23 -17q-6 0 -8 5t2 13q9 17 23 17q6 0 8 -5.5t-2 -12.5zM681 624q1 -1 1 -4q0 -7 -27 -44q-59 -77 -79 -106q-36 -54 -68 -112q-59 -111 -106 -239q-22 -60 -22 -89 q0 -19 10 -25t29 4q16 8 32.5 21.5t26 23t27.5 29t25 26.5q2 2 5.5 6t6.5 7q2 2 2.5 0.5t-0.5 -2.5q-37 -49 -71 -80q-49 -45 -76 -45q-16 0 -23 18q-4 9 -4 22q0 16 6 40q36 156 123 301q14 24 22 37q-89 -114 -177 -215q-3 -4 -21 -24.5t-23 -26.5t-21 -24t-24 -25.5 t-22.5 -22t-25.5 -23.5t-24.5 -20t-27.5 -20q-61 -40 -95 -40h-8q-31 4 -31 47q0 4 3 25q19 88 112 237q28 43 84 117.5t77 104.5q35 52 44 74q4 12 4 15q0 25 -49 25q-19 0 -37 -4q-57 -9 -127 -38q-65 -28 -114 -61q-116 -73 -181 -174q-1 -2 -5 -8l-6 -9q-10 -13 -10 -4 q0 13 20 43q27 40 76 82q38 33 78 60q120 80 237 112q28 8 66 11h13q31 0 44 -13q7 -7 7 -20q0 -20 -17 -56q-28 -54 -115 -175q-115 -162 -161 -261q-26 -52 -26 -89q0 -19 11 -25q9 -3 17 -3q21 0 61 22q47 28 102 81q79 75 177 200q21 26 166 216q40 54 72 91 q26 31 33 31q2 0 4 -2z"/>
<glyph glyph-name="Yacute" horiz-adv-x="427" unicode="" d="M598 722q2 -3 0.5 -5.5t-6.5 -6.5l-4 -3q-48 -36 -117 -48q-14 -2 -17 1q33 6 64 20q36 16 65 40q4 4 10 4q4 0 5 -2zM167 -108q46 67 132 203q-73 -43 -122 -77q-125 -86 -191 -173q-44 -58 -52 -114q0 -2 -0.5 -6t-0.5 -7q0 -14 7 -20q5 -5 14 -5q13 0 31 11 q41 23 97 83q45 47 85 105zM480 337q-103 -163 -130 -204q80 40 121 58q58 25 65 25h1q0 -1 -2.5 -2.5t-6.5 -3.5t-8.5 -4t-7.5 -4l-4 -1q-21 -9 -41 -19q-19 -8 -40 -18.5t-46.5 -24t-39.5 -20.5q-12 -20 -36.5 -56.5t-32.5 -49.5q-63 -95 -86 -126q-41 -57 -81 -100 q-57 -61 -99 -88q-33 -20 -53 -20h-4q-25 3 -29 35v7q0 47 41 108q59 88 189 181q74 53 159 100q69 113 152 242l60 90q-3 -3 -30 -34t-41 -46q-110 -121 -196 -181q-94 -63 -151 -63q-47 0 -48 52q1 14 3 28t8 29.5t9.5 26t13.5 28t13 24t16.5 26t16 23t18 25t16.5 22.5 q12 17 41 51.5t43 54.5q46 63 55 93q1 3 1 8q0 22 -39 22q-29 0 -66 -10q-71 -17 -136 -52q-60 -31 -110 -72q-64 -54 -84 -115q-1 -4 -3.5 -13t-4.5 -13q-5 -17 -10 -1q-2 4 -2 14q0 18 11 40q23 47 84 93q48 38 110 70q63 33 119 51q37 12 64 16q30 3 31 3q21 0 34 -8 q15 -8 15 -26q0 -6 -4 -20q-9 -26 -28 -57q-27 -42 -80.5 -114.5t-75.5 -104.5q-63 -94 -63 -147q0 -36 38 -36h3q47 4 118 46q50 31 103 79q77 69 181 193q7 9 29.5 36t34.5 42q13 16 40.5 52.5t43.5 55.5q15 18 21 18q3 0 5 -2q3 -3 3 -5q0 -3 -14 -20q-28 -33 -46 -59 q-53 -74 -151 -228z"/>
<glyph glyph-name="Thorn" horiz-adv-x="547" unicode="" d="M511 205q123 97 123 189q0 2 -0.5 6t-0.5 6q-5 46 -47.5 72t-98.5 35q-17 -29 -52 -89t-52 -89q-127 -213 -138 -230q6 -1 17 -1q15 0 43 4q105 17 206 97zM492 523q67 -9 114.5 -41.5t47.5 -92.5q0 -76 -96 -166q-100 -89 -225 -118q-38 -9 -67 -9q-9 0 -25 2 q-58 -95 -84 -131q-8 -11 -10 -11q-1 1 -0.5 2l2 4t1.5 4q10 23 73 136q-40 12 -43 43q-2 15 6 27q9 15 12 14l-2 -3q-1 -3 -3.5 -6.5t-3.5 -5.5q-5 -11 -4 -23q3 -30 42 -40q55 97 122 212q38 66 114 196q-28 2 -43 2q-105 0 -218 -48q-70 -29 -127 -75q-94 -80 -109 -147 q-3 -15 12 -23q7 -8 4 -10q-8 -2 -14 1q-19 8 -19 31q0 18 6 30q11 26 43 64q82 89 212 140q116 45 228 45q20 0 30 -1q61 105 74 122l6 6q5 6 8.5 9t7.5 3h1q7 -2 -4 -21q-1 -2 -69 -121z"/>
<glyph glyph-name="germandbls" horiz-adv-x="340" unicode="" d="M-171 -253q56 82 147 285q-37 -30 -75 -73q-78 -85 -130 -180q-20 -38 -27 -58q-10 -25 -10 -41q0 -10 5 -11l1 -1h3q17 0 46 29q20 20 40 50zM264 147l-12 78q-60 -14 -102 -47q-50 -39 -69 -84q-7 -17 -7 -33q0 -13 6 -27q13 -26 47 -33q5 -1 14 -1q51 0 92 50 q31 39 31 88v9zM487 683q28 -9 42 -35.5t14 -58.5q0 -60 -40 -114t-99 -90q-20 -12 -41 -20t-55.5 -18.5t-43.5 -13.5q-10 -14 -10 -37q0 -16 7 -60q36 6 72 6q54 0 94 -16q12 -5 16 -11l-3 1q-2 1 -5.5 2.5t-4.5 1.5q-41 15 -94 15q-39 0 -73 -7q21 -69 22 -90v-8 q0 -45 -27 -78q-45 -55 -102 -61h-8q-28 0 -51 14t-29 40q-2 10 -2 16q0 45 47 94q51 56 137 78q-4 28 -4 43v11q0 47 19 56q80 24 115 47q41 26 76 65.5t54 85.5q15 38 15 67q0 33 -17 51q-16 19 -44 19q-30 0 -68 -22q-45 -26 -94 -87q-60 -74 -142 -226 q-67 -126 -141 -272q1 0 14.5 6.5t16.5 6.5h1q-35 -24 -37 -24q-105 -212 -132 -259q-43 -74 -76 -107q-25 -25 -49 -34q-7 -3 -15 -3t-12 4q-6 6 -6 18v5q4 40 51 117q29 49 73 108q67 87 136 139q134 274 219 408q87 137 167 193q51 37 93 37q12 0 24 -3z"/>
<glyph glyph-name="agrave" horiz-adv-x="249" unicode="" d="M234 271q1 0 4.5 -1t6.5 -2l3 -1q0 -2 -12.5 0t-17.5 4q-18 5 -43.5 21t-36.5 35q-3 5 -1 9.5t5 4.5q2 0 5 -4q29 -46 87 -66zM296 172q1 1 2.5 1.5t1.5 -0.5q0 -4 -5 -10t-12 -12.5t-9 -8.5q-29 -29 -43 -44q-65 -65 -95 -87q-12 -10 -23 -10q-9 0 -9 14q0 19 14 47 q12 24 19 36q-32 -32 -76.5 -65.5t-70.5 -33.5q-24 0 -24 31q0 9 1 13q4 26 22 59q35 60 85 94q55 37 99 37q6 0 18 -2q26 -4 35 -24q4 -14 -2 -16q-2 -1 -3.5 0t-2.5 2.5l-2 3t-2 3.5t-1 3q-15 22 -43 22q-19 0 -45 -11q-39 -16 -79 -62q-31 -37 -56 -93q-9 -18 -9 -34 q0 -14 11 -14h2q30 3 73 36.5t72 67.5q20 22 29 34l2 4t0 2q9 11 19 17q16 8 16 -3q-1 -7 -11 -22q-7 -11 -25.5 -38.5t-30 -48t-20.5 -41.5q-2 -4 -2 -8q6 0 23 12q10 7 28 23q28 26 55 52l23 23t22 23q15 15 23 22z"/>
<glyph glyph-name="aacute" horiz-adv-x="249" unicode="" d="M274 333q2 -2 0.5 -4.5t-3 -4t-4 -3.5t-3.5 -3q-48 -36 -117 -48q-14 -2 -17 1q33 6 64 20q36 16 65 40q4 4 10 4q4 0 5 -2zM296 172q1 1 2.5 1.5t1.5 -0.5q0 -4 -5 -10t-12 -12.5t-9 -8.5q-29 -29 -43 -44q-65 -65 -95 -87q-12 -10 -23 -10q-9 0 -9 14q0 19 14 47 q12 24 19 36q-32 -32 -76.5 -65.5t-70.5 -33.5q-24 0 -24 31q0 9 1 13q4 26 22 59q35 60 85 94q55 37 99 37q6 0 18 -2q26 -4 35 -24q4 -14 -2 -16q-2 -1 -3.5 0t-2.5 2.5l-2 3t-2 3.5t-1 3q-15 22 -43 22q-19 0 -45 -11q-39 -16 -79 -62q-31 -37 -56 -93q-9 -18 -9 -34 q0 -14 11 -14h2q30 3 73 36.5t72 67.5q20 22 29 34l2 4t0 2q9 11 19 17q16 8 16 -3q-1 -7 -11 -22q-7 -11 -25.5 -38.5t-30 -48t-20.5 -41.5q-2 -4 -2 -8q6 0 23 12q10 7 28 23q28 26 55 52l23 23t22 23q15 15 23 22z"/>
<glyph glyph-name="acircumflex" horiz-adv-x="249" unicode="" d="M265 253l3 -1l4 -4l2 -1q0 -2 -4 -1q-17 8 -31 29q-16 24 -26 47q-30 -16 -45 -23q-1 0 -19 -8.5t-33.5 -13.5t-24.5 -5q-5 0 -7 1q21 6 59 25q10 5 21.5 11.5t25.5 15t22 12.5q4 2 8 2q6 0 7 -4q1 -3 -2 -6q2 -4 5.5 -14t5.5 -14q17 -38 29 -48zM296 172q1 1 2.5 1.5 t1.5 -0.5q0 -4 -5 -10t-12 -12.5t-9 -8.5q-29 -29 -43 -44q-65 -65 -95 -87q-12 -10 -23 -10q-9 0 -9 14q0 19 14 47q12 24 19 36q-32 -32 -76.5 -65.5t-70.5 -33.5q-24 0 -24 31q0 9 1 13q4 26 22 59q35 60 85 94q55 37 99 37q6 0 18 -2q26 -4 35 -24q4 -14 -2 -16 q-2 -1 -3.5 0t-2.5 2.5l-2 3t-2 3.5t-1 3q-15 22 -43 22q-19 0 -45 -11q-39 -16 -79 -62q-31 -37 -56 -93q-9 -18 -9 -34q0 -14 11 -14h2q30 3 73 36.5t72 67.5q20 22 29 34l2 4t0 2q9 11 19 17q16 8 16 -3q-1 -7 -11 -22q-7 -11 -25.5 -38.5t-30 -48t-20.5 -41.5 q-2 -4 -2 -8q6 0 23 12q10 7 28 23q28 26 55 52l23 23t22 23q15 15 23 22z"/>
<glyph glyph-name="atilde" horiz-adv-x="249" unicode="" d="M271 312q-23 -23 -51 -23q-4 0 -14 2q-44 11 -48 11q-14 0 -42 -17q-15 -11 -19 -1q-1 3 20 18q19 13 41 13q10 0 20 -3q2 0 20.5 -6.5t28.5 -6.5q4 0 12 2q12 3 26 13l16 12q2 0 -2.5 -5.5t-7.5 -8.5zM296 172q1 1 2.5 1.5t1.5 -0.5q0 -4 -5 -10t-12 -12.5t-9 -8.5 q-29 -29 -43 -44q-65 -65 -95 -87q-12 -10 -23 -10q-9 0 -9 14q0 19 14 47q12 24 19 36q-32 -32 -76.5 -65.5t-70.5 -33.5q-24 0 -24 31q0 9 1 13q4 26 22 59q35 60 85 94q55 37 99 37q6 0 18 -2q26 -4 35 -24q4 -14 -2 -16q-2 -1 -3.5 0t-2.5 2.5l-2 3t-2 3.5t-1 3 q-15 22 -43 22q-19 0 -45 -11q-39 -16 -79 -62q-31 -37 -56 -93q-9 -18 -9 -34q0 -14 11 -14h2q30 3 73 36.5t72 67.5q20 22 29 34l2 4t0 2q9 11 19 17q16 8 16 -3q-1 -7 -11 -22q-7 -11 -25.5 -38.5t-30 -48t-20.5 -41.5q-2 -4 -2 -8q6 0 23 12q10 7 28 23q28 26 55 52 l23 23t22 23q15 15 23 22z"/>
<glyph glyph-name="adieresis" horiz-adv-x="249" unicode="" d="M246 305q-8 -17 -23 -17q-6 0 -8 5t2 13q9 17 23 17q6 0 8 -5.5t-2 -12.5zM160 305q-8 -17 -23 -17q-6 0 -8 5t2 13q9 17 23 17q6 0 8 -5.5t-2 -12.5zM296 172q1 1 2.5 1.5t1.5 -0.5q0 -4 -5 -10t-12 -12.5t-9 -8.5q-29 -29 -43 -44q-65 -65 -95 -87q-12 -10 -23 -10 q-9 0 -9 14q0 19 14 47q12 24 19 36q-32 -32 -76.5 -65.5t-70.5 -33.5q-24 0 -24 31q0 9 1 13q4 26 22 59q35 60 85 94q55 37 99 37q6 0 18 -2q26 -4 35 -24q4 -14 -2 -16q-2 -1 -3.5 0t-2.5 2.5l-2 3t-2 3.5t-1 3q-15 22 -43 22q-19 0 -45 -11q-39 -16 -79 -62 q-31 -37 -56 -93q-9 -18 -9 -34q0 -14 11 -14h2q30 3 73 36.5t72 67.5q20 22 29 34l2 4t0 2q9 11 19 17q16 8 16 -3q-1 -7 -11 -22q-7 -11 -25.5 -38.5t-30 -48t-20.5 -41.5q-2 -4 -2 -8q6 0 23 12q10 7 28 23q28 26 55 52l23 23t22 23q15 15 23 22z"/>
<glyph glyph-name="aring" horiz-adv-x="249" unicode="" d="M205 352q6 2 10 2q11 0 18.5 -7t7.5 -18q0 -10 -4 -18t-4 -2q0 23 -1 25q-4 9 -13 9q-15 0 -30 -15q-21 -21 -21 -39q0 -7 4 -11q7 -9 23 -1q17 8 25 22q4 5 11 7q5 1 5.5 -2t-1.5 -6q-6 -12 -22 -26q-18 -12 -30 -12q-7 0 -13 3q-14 6 -14 25q0 12 5 24q17 31 44 40z M296 172q1 1 2.5 1.5t1.5 -0.5q0 -4 -5 -10t-12 -12.5t-9 -8.5q-29 -29 -43 -44q-65 -65 -95 -87q-12 -10 -23 -10q-9 0 -9 14q0 19 14 47q12 24 19 36q-32 -32 -76.5 -65.5t-70.5 -33.5q-24 0 -24 31q0 9 1 13q4 26 22 59q35 60 85 94q55 37 99 37q6 0 18 -2q26 -4 35 -24 q4 -14 -2 -16q-2 -1 -3.5 0t-2.5 2.5l-2 3t-2 3.5t-1 3q-15 22 -43 22q-19 0 -45 -11q-39 -16 -79 -62q-31 -37 -56 -93q-9 -18 -9 -34q0 -14 11 -14h2q30 3 73 36.5t72 67.5q20 22 29 34l2 4t0 2q9 11 19 17q16 8 16 -3q-1 -7 -11 -22q-7 -11 -25.5 -38.5t-30 -48 t-20.5 -41.5q-2 -4 -2 -8q6 0 23 12q10 7 28 23q28 26 55 52l23 23t22 23q15 15 23 22z"/>
<glyph glyph-name="ae" horiz-adv-x="342" unicode="" d="M270 218q-52 -28 -89 -87q-10 -16 -14 -24q13 0 30 5q70 21 107 65q16 19 16 36q0 7 -4 11q-5 5 -14 5q-14 0 -32 -11zM177 156l1 1q15 17 40 36q-2 3 -5 10q-15 22 -43 22q-19 0 -45 -11q-39 -16 -79 -62q-31 -37 -56 -93q-9 -18 -9 -34q0 -14 11 -14h2q30 3 73 36.5 t72 67.5q15 15 23 24q3 3 8 8.5t7 8.5zM397 174q0 -4 -11 -17q-42 -47 -56 -60q-54 -52 -102 -80q-36 -21 -60 -21q-29 0 -40 27q-4 9 -4 23q0 17 9 42q3 8 4 10q-32 -32 -76.5 -65.5t-70.5 -33.5q-24 0 -24 31q0 9 1 13q4 26 22 59q35 60 85 94q55 37 99 37q6 0 18 -2 q26 -4 35 -24q0 -1 0.5 -3t0.5 -4q23 18 49 28q18 6 28 6q8 0 12 -2q17 -6 17 -26q0 -23 -23 -44q-25 -23 -68.5 -41.5t-77.5 -19.5q-18 -34 -18 -58q0 -1 0.5 -4t0.5 -5q4 -16 14 -20q7 -3 15 -3q13 0 44 12q43 20 104 77q1 1 20 20.5t36 36.5z"/>
<glyph glyph-name="ccedilla" horiz-adv-x="196" unicode="" d="M236 165q12 12 14 12q-7 -11 -11 -16q-37 -42 -72 -74q-29 -27 -60 -51q-39 -29 -64 -36l-18 -3q2 -15 -17 -39q-21 -31 -66 -68q-10 -10 -16 -10l-1 1q0 5 9 9q13 10 33 32q28 29 43 60q0 1 1 4.5t1 6.5t-2 4q0 1 -2 1t-2 1q-10 3 -19 12q-11 12 -11 37v7q4 52 58 110 q54 56 104 67q10 2 17 2q22 0 32 -13q8 -9 8 -25q0 -18 -9 -32q-19 -32 -47 -32h-2q-4 0 -6 2t1 7q1 1 16 7q32 16 38 45q0 1 0.5 3.5t0.5 3.5q0 21 -20 26q-8 2 -12 2q-12 0 -28 -7q-31 -13 -70 -56q-51 -55 -61 -111q0 -2 -0.5 -5.5t-0.5 -5.5q0 -22 12 -30q1 0 3 -1 t3.5 -1.5t2.5 -0.5l1 -1q1 -1 2 -1h1q2 0 4 -0.5t4 -0.5q21 0 49 17q39 22 100 81q21 20 41 41q3 3 9 9.5t9 9.5z"/>
<glyph glyph-name="egrave" horiz-adv-x="193" unicode="" d="M183 271q1 0 4.5 -1t6.5 -2l3 -1q0 -2 -12.5 0t-17.5 4q-18 5 -43.5 21t-36.5 35q-3 5 -1 9.5t5 4.5q2 0 5 -4q29 -46 87 -66zM112 218q-52 -28 -89 -87q-10 -16 -14 -24q13 0 30 5q70 21 107 65q16 19 16 36q0 7 -4 11q-5 5 -14 5q-14 0 -32 -11zM239 174q0 -4 -11 -17 q-42 -47 -56 -60q-54 -52 -102 -80q-36 -21 -60 -21q-29 0 -40 27q-4 9 -4 22q0 24 16 58q18 39 59.5 75t76.5 50q18 6 28 6q8 0 12 -2q17 -6 17 -26q0 -23 -23 -44q-25 -23 -68.5 -41.5t-77.5 -19.5q-18 -34 -18 -58q0 -1 0.5 -4t0.5 -5q4 -16 14 -20q7 -3 15 -3 q13 0 44 12q43 20 104 77q1 1 20 20.5t36 36.5z"/>
<glyph glyph-name="eacute" horiz-adv-x="193" unicode="" d="M218 333q2 -2 0.5 -4.5t-3 -4t-4 -3.5t-3.5 -3q-48 -36 -117 -48q-14 -2 -17 1q33 6 64 20q36 16 65 40q4 4 10 4q4 0 5 -2zM112 218q-52 -28 -89 -87q-10 -16 -14 -24q13 0 30 5q70 21 107 65q16 19 16 36q0 7 -4 11q-5 5 -14 5q-14 0 -32 -11zM239 174q0 -4 -11 -17 q-42 -47 -56 -60q-54 -52 -102 -80q-36 -21 -60 -21q-29 0 -40 27q-4 9 -4 22q0 24 16 58q18 39 59.5 75t76.5 50q18 6 28 6q8 0 12 -2q17 -6 17 -26q0 -23 -23 -44q-25 -23 -68.5 -41.5t-77.5 -19.5q-18 -34 -18 -58q0 -1 0.5 -4t0.5 -5q4 -16 14 -20q7 -3 15 -3 q13 0 44 12q43 20 104 77q1 1 20 20.5t36 36.5z"/>
<glyph glyph-name="ecircumflex" horiz-adv-x="193" unicode="" d="M218 253l2 -1q3 -2 5 -4l2 -1q0 -2 -4 -1q-17 8 -31 29q-16 24 -26 47q-30 -16 -45 -23q-1 0 -19 -8.5t-33.5 -13.5t-24.5 -5q-5 0 -7 1q21 6 59 25q10 5 21.5 11.5t25.5 15t22 12.5q4 2 8 2q6 0 7 -4q1 -3 -2 -6q2 -4 5.5 -14t5.5 -14q17 -38 29 -48zM112 218 q-52 -28 -89 -87q-10 -16 -14 -24q13 0 30 5q70 21 107 65q16 19 16 36q0 7 -4 11q-5 5 -14 5q-14 0 -32 -11zM239 174q0 -4 -11 -17q-42 -47 -56 -60q-54 -52 -102 -80q-36 -21 -60 -21q-29 0 -40 27q-4 9 -4 22q0 24 16 58q18 39 59.5 75t76.5 50q18 6 28 6q8 0 12 -2 q17 -6 17 -26q0 -23 -23 -44q-25 -23 -68.5 -41.5t-77.5 -19.5q-18 -34 -18 -58q0 -1 0.5 -4t0.5 -5q4 -16 14 -20q7 -3 15 -3q13 0 44 12q43 20 104 77q1 1 20 20.5t36 36.5z"/>
<glyph glyph-name="edieresis" horiz-adv-x="193" unicode="" d="M204 305q-8 -17 -23 -17q-6 0 -8 5t2 13q9 17 23 17q6 0 8 -5.5t-2 -12.5zM118 305q-8 -17 -23 -17q-6 0 -8 5t2 13q9 17 23 17q6 0 8 -5.5t-2 -12.5zM112 218q-52 -28 -89 -87q-10 -16 -14 -24q13 0 30 5q70 21 107 65q16 19 16 36q0 7 -4 11q-5 5 -14 5q-14 0 -32 -11z M239 174q0 -4 -11 -17q-42 -47 -56 -60q-54 -52 -102 -80q-36 -21 -60 -21q-29 0 -40 27q-4 9 -4 22q0 24 16 58q18 39 59.5 75t76.5 50q18 6 28 6q8 0 12 -2q17 -6 17 -26q0 -23 -23 -44q-25 -23 -68.5 -41.5t-77.5 -19.5q-18 -34 -18 -58q0 -1 0.5 -4t0.5 -5q4 -16 14 -20 q7 -3 15 -3q13 0 44 12q43 20 104 77q1 1 20 20.5t36 36.5z"/>
<glyph glyph-name="igrave" horiz-adv-x="127" unicode="" d="M169 271q1 0 4.5 -1t6.5 -2l3 -1q0 -2 -12.5 0t-17.5 4q-18 5 -43.5 21t-36.5 35q-3 5 -1 9.5t5 4.5q2 0 5 -4q29 -46 87 -66zM175 173q0 -5 -27 -32q-44 -45 -92 -86l-13 -11q-13 -11 -24 -19.5t-25 -16.5t-22 -8q-3 0 -7 2q-6 6 -6 14q0 9 7 25q12 24 92 163 q11 18 25 26q4 2 8 2q3 0 4 -2q1 -1 -3 -12q-14 -27 -57 -96.5t-61 -109.5q13 0 52 28q28 21 60 50l54 51q0 1 9 9.5t17.5 16.5t8.5 6z"/>
<glyph glyph-name="iacute" horiz-adv-x="127" unicode="" d="M184 333q1 -1 1 -3t-2 -4.5t-5 -4.5t-4 -3q-48 -36 -117 -48q-14 -2 -17 1q33 6 64 20q36 16 65 40q4 4 10 4q4 0 5 -2zM175 173q0 -5 -27 -32q-44 -45 -92 -86l-13 -11q-13 -11 -24 -19.5t-25 -16.5t-22 -8q-3 0 -7 2q-6 6 -6 14q0 9 7 25q12 24 92 163q11 18 25 26 q4 2 8 2q3 0 4 -2q1 -1 -3 -12q-14 -27 -57 -96.5t-61 -109.5q13 0 52 28q28 21 60 50l54 51q0 1 9 9.5t17.5 16.5t8.5 6z"/>
<glyph glyph-name="icircumflex" horiz-adv-x="127" unicode="" d="M185 253l3 -1l4 -4l2 -1q0 -2 -4 -1q-17 8 -31 29q-16 24 -26 47q-30 -16 -45 -23q-1 0 -19 -8.5t-33.5 -13.5t-24.5 -5q-5 0 -7 1q21 6 59 25q10 5 21.5 11.5t25.5 15t22 12.5q4 2 8 2q6 0 7 -4q1 -3 -2 -6q2 -4 5.5 -14t5.5 -14q17 -38 29 -48zM175 173q0 -5 -27 -32 q-44 -45 -92 -86l-13 -11q-13 -11 -24 -19.5t-25 -16.5t-22 -8q-3 0 -7 2q-6 6 -6 14q0 9 7 25q12 24 92 163q11 18 25 26q4 2 8 2q3 0 4 -2q1 -1 -3 -12q-14 -27 -57 -96.5t-61 -109.5q13 0 52 28q28 21 60 50l54 51q0 1 9 9.5t17.5 16.5t8.5 6z"/>
<glyph glyph-name="idieresis" horiz-adv-x="127" unicode="" d="M175 305q-9 -17 -23 -17q-6 0 -8 5t2 13q9 17 23 17q8 0 8 -9q0 -6 -2 -9zM89 305q-9 -17 -23 -17q-6 0 -8 5t2 13q9 17 23 17q6 0 8 -5.5t-2 -12.5zM175 173q0 -5 -27 -32q-44 -45 -92 -86l-13 -11q-13 -11 -24 -19.5t-25 -16.5t-22 -8q-3 0 -7 2q-6 6 -6 14q0 9 7 25 q12 24 92 163q11 18 25 26q4 2 8 2q3 0 4 -2q1 -1 -3 -12q-14 -27 -57 -96.5t-61 -109.5q13 0 52 28q28 21 60 50l54 51q0 1 9 9.5t17.5 16.5t8.5 6z"/>
<glyph glyph-name="eth" horiz-adv-x="230" unicode="" d="M101 83q6 -12 22 -14q39 42 63 92q11 22 11 36q0 7 -4 10q-2 1 -6 1q-16 0 -42 -21q-24 -21 -36 -48q-11 -20 -11 -40q0 -9 3 -16zM139 191q31 28 53 28q4 0 6 -1q-6 8 -9 13v-1q0 -2 -4 2q-11 5 -28 1q-26 -6 -46 -19q-43 -27 -86 -97q-18 -32 -26 -57q-6 -16 -6 -30 q0 -18 11 -23q7 -4 15 -4q14 0 40 13q27 15 49 37l11 11q-17 2 -23 15q-4 8 -4 19q0 17 10 41q11 28 37 52zM285 173q-12 -15 -13 -16q-29 -34 -67 -62q-39 -28 -68 -31q-38 -37 -82 -58q-24 -12 -41 -12q-10 0 -17 4q-20 10 -20 43v6q3 53 51 111q38 43 79 65q27 14 50 17 q23 0 28 -3q-1 1 -1 2t-1 2q-2 3 -23 32q-8 -5 -18 -8q-6 -2 -28 -9q-1 0 -5.5 -1t-8.5 -2q-2 -1 -8 -1q-2 2 2 3.5t6 1.5l6 1q5 2 7 3q10 1 28 9l16 8q-31 38 -54 59q-5 5 -6 8l-2 6q1 1 2 1q2 0 6 -4q1 -1 3 -2.5t4 -3.5q16 -16 31 -34q14 -18 20 -27q9 5 29 21v1 q8 8 12 4q1 -2 -9 -12q-9 -8 -27 -20l27 -42q3 -4 6.5 -10.5t5.5 -8.5q5 -5 8 -16v-3v-5q0 -25 -16 -53q-16 -26 -52 -66q33 11 63 34q29 22 63 57q12 12 14 11z"/>
<glyph glyph-name="ntilde" horiz-adv-x="236" unicode="" d="M247 283q-23 -23 -51 -23q-4 0 -14 2q-44 11 -48 11q-14 0 -42 -17q-15 -11 -19 -1q-1 3 20 18q19 13 41 13q10 0 20 -3q2 0 20.5 -6.5t28.5 -6.5q4 0 12 2q12 3 26 13l16 12q2 0 -2.5 -5.5t-7.5 -8.5zM-17 93q36 64 67 111q11 16 25 16q6 0 6 -6q0 -5 -8 -16 q-7 -11 -31.5 -49t-46.5 -72q3 3 8.5 9t8.5 9q47 53 99 95q28 22 52 34q25 11 34 11t15 -7q5 -7 5 -14q0 -15 -15 -40q-12 -23 -39.5 -61t-36.5 -52q-2 -4 -9.5 -15.5t-12.5 -20t-5 -14.5q-1 -8 15 2q21 13 62 52q14 14 84 86q25 25 30 26q-4 -11 -29 -35q-45 -48 -84 -86 q-56 -56 -76 -56q-8 0 -11 8q-1 2 -1 9q0 21 14 47q10 19 34 57q6 9 20 28.5t20 29.5q19 28 20 40q-1 4 -8.5 3.5t-15.5 -3.5q-35 -13 -83 -56q-40 -35 -132 -140q-19 -23 -20 -23t-1 2q0 5 16 37z"/>
<glyph glyph-name="ograve" horiz-adv-x="230" unicode="" d="M222 268q1 0 4.5 -1t6.5 -2l3 -1q0 -2 -12.5 0t-17.5 4q-18 5 -43.5 21t-36.5 35q-3 4 -1 9t5 5q2 0 5 -4q29 -46 87 -66zM101 83q6 -12 22 -14q39 42 63 92q11 22 11 36q0 7 -4 10q-2 1 -6 1q-16 0 -42 -21q-24 -21 -36 -48q-11 -20 -11 -40q0 -9 3 -16zM285 173 q-12 -15 -13 -16q-29 -34 -67 -62q-39 -28 -68 -31q-38 -37 -82 -58q-24 -12 -41 -12q-10 0 -17 4q-20 10 -20 43v6q3 53 51 111q38 43 79 65q27 14 50 17q1 0 4.5 0.5t6.5 0.5q21 0 21 -11q0 -2 -4 2q-11 5 -28 1q-26 -6 -46 -19q-43 -27 -86 -97q-18 -32 -26 -57 q-6 -16 -6 -30q0 -18 11 -23q7 -4 15 -4q14 0 40 13q27 15 49 37l11 11q-17 2 -23 15q-4 8 -4 19q0 17 10 41q11 28 37 52q28 28 53 28q17 0 21 -21q0 -1 0.5 -3t0.5 -4q0 -24 -17 -54q-16 -26 -52 -66q33 11 63 34q29 22 63 57q12 12 14 11z"/>
<glyph glyph-name="oacute" horiz-adv-x="230" unicode="" d="M244 329q2 -2 0.5 -4.5t-3 -4t-4 -3.5t-3.5 -3q-48 -36 -117 -48q-14 -2 -17 1q33 6 64 20q36 16 65 40q4 4 10 4q4 0 5 -2zM101 83q6 -12 22 -14q39 42 63 92q11 22 11 36q0 7 -4 10q-2 1 -6 1q-16 0 -42 -21q-24 -21 -36 -48q-11 -20 -11 -40q0 -9 3 -16zM285 173 q-12 -15 -13 -16q-29 -34 -67 -62q-39 -28 -68 -31q-38 -37 -82 -58q-24 -12 -41 -12q-10 0 -17 4q-20 10 -20 43v6q3 53 51 111q38 43 79 65q27 14 50 17q1 0 4.5 0.5t6.5 0.5q21 0 21 -11q0 -2 -4 2q-11 5 -28 1q-26 -6 -46 -19q-43 -27 -86 -97q-18 -32 -26 -57 q-6 -16 -6 -30q0 -18 11 -23q7 -4 15 -4q14 0 40 13q27 15 49 37l11 11q-17 2 -23 15q-4 8 -4 19q0 17 10 41q11 28 37 52q28 28 53 28q17 0 21 -21q0 -1 0.5 -3t0.5 -4q0 -24 -17 -54q-16 -26 -52 -66q33 11 63 34q29 22 63 57q12 12 14 11z"/>
<glyph glyph-name="ocircumflex" horiz-adv-x="230" unicode="" d="M257 250l3 -2l4 -2l2 -2q0 -2 -4 -1q-17 8 -31 29q-16 24 -26 47q-30 -16 -45 -23q-1 0 -19 -8.5t-33.5 -13.5t-24.5 -5q-5 0 -7 1q21 6 59 25q10 5 21.5 11.5t25.5 15t22 12.5q4 2 8 2q6 0 7 -4q1 -3 -2 -6q2 -5 5.5 -14t5.5 -14q17 -38 29 -48zM101 83q6 -12 22 -14 q39 42 63 92q11 22 11 36q0 7 -4 10q-2 1 -6 1q-16 0 -42 -21q-24 -21 -36 -48q-11 -20 -11 -40q0 -9 3 -16zM285 173q-12 -15 -13 -16q-29 -34 -67 -62q-39 -28 -68 -31q-38 -37 -82 -58q-24 -12 -41 -12q-10 0 -17 4q-20 10 -20 43v6q3 53 51 111q38 43 79 65q27 14 50 17 q1 0 4.5 0.5t6.5 0.5q21 0 21 -11q0 -2 -4 2q-11 5 -28 1q-26 -6 -46 -19q-43 -27 -86 -97q-18 -32 -26 -57q-6 -16 -6 -30q0 -18 11 -23q7 -4 15 -4q14 0 40 13q27 15 49 37l11 11q-17 2 -23 15q-4 8 -4 19q0 17 10 41q11 28 37 52q28 28 53 28q17 0 21 -21q0 -1 0.5 -3 t0.5 -4q0 -24 -17 -54q-16 -26 -52 -66q33 11 63 34q29 22 63 57q12 12 14 11z"/>
<glyph glyph-name="otilde" horiz-adv-x="230" unicode="" d="M256 296q-23 -23 -51 -23q-4 0 -14 2q-44 11 -48 11q-14 0 -42 -17q-15 -11 -19 -1q-1 3 20 18q20 13 41 13q9 0 20 -3q2 0 20.5 -6.5t28.5 -6.5q4 0 12 2q12 3 26 13l16 12q2 0 -2.5 -5.5t-7.5 -8.5zM101 83q6 -12 22 -14q39 42 63 92q11 22 11 36q0 7 -4 10q-2 1 -6 1 q-16 0 -42 -21q-24 -21 -36 -48q-11 -20 -11 -40q0 -9 3 -16zM285 173q-12 -15 -13 -16q-29 -34 -67 -62q-39 -28 -68 -31q-38 -37 -82 -58q-24 -12 -41 -12q-10 0 -17 4q-20 10 -20 43v6q3 53 51 111q38 43 79 65q27 14 50 17q1 0 4.5 0.5t6.5 0.5q21 0 21 -11q0 -2 -4 2 q-11 5 -28 1q-26 -6 -46 -19q-43 -27 -86 -97q-18 -32 -26 -57q-6 -16 -6 -30q0 -18 11 -23q7 -4 15 -4q14 0 40 13q27 15 49 37l11 11q-17 2 -23 15q-4 8 -4 19q0 17 10 41q11 28 37 52q28 28 53 28q17 0 21 -21q0 -1 0.5 -3t0.5 -4q0 -24 -17 -54q-16 -26 -52 -66 q33 11 63 34q29 22 63 57q12 12 14 11z"/>
<glyph glyph-name="odieresis" horiz-adv-x="230" unicode="" d="M236 305q-8 -17 -23 -17q-6 0 -8 5t2 13q9 17 23 17q6 0 8 -5.5t-2 -12.5zM150 305q-8 -17 -23 -17q-6 0 -8 5t2 13q9 17 23 17q6 0 8 -5.5t-2 -12.5zM101 83q6 -12 22 -14q39 42 63 92q11 22 11 36q0 7 -4 10q-2 1 -6 1q-16 0 -42 -21q-24 -21 -36 -48q-11 -20 -11 -40 q0 -9 3 -16zM285 173q-12 -15 -13 -16q-29 -34 -67 -62q-39 -28 -68 -31q-38 -37 -82 -58q-24 -12 -41 -12q-10 0 -17 4q-20 10 -20 43v6q3 53 51 111q38 43 79 65q27 14 50 17q1 0 4.5 0.5t6.5 0.5q21 0 21 -11q0 -2 -4 2q-11 5 -28 1q-26 -6 -46 -19q-43 -27 -86 -97 q-18 -32 -26 -57q-6 -16 -6 -30q0 -18 11 -23q7 -4 15 -4q14 0 40 13q27 15 49 37l11 11q-17 2 -23 15q-4 8 -4 19q0 17 10 41q11 28 37 52q28 28 53 28q17 0 21 -21q0 -1 0.5 -3t0.5 -4q0 -24 -17 -54q-16 -26 -52 -66q33 11 63 34q29 22 63 57q12 12 14 11z"/>
<glyph glyph-name="divide" horiz-adv-x="473" unicode="" d="M249 123q6 0 32.5 -4t26.5 -6t-11 -2q-46 2 -70 2q-90 0 -177 -18q-15 -4 -23 3q-2 2 -2 3q0 3 4 5q56 15 160 19q40 0 60 -2zM211 192q-9 -17 -23 -17q-6 0 -8 5.5t2 12.5q9 17 23 17q8 0 8 -9q0 -6 -2 -9zM143 21q-9 -17 -23 -17q-8 0 -8 9q0 6 2 9q9 17 23 17 q8 0 8 -9q0 -6 -2 -9z"/>
<glyph glyph-name="oslash" horiz-adv-x="230" unicode="" d="M96 79q-4 8 -4 18q0 14 7 33q-20 -24 -29 -36q-34 -44 -66 -87q7 -4 15 -4q14 0 40 13q27 15 49 37l11 11q-17 2 -23 15zM101 83q6 -12 22 -14q39 42 63 92q11 22 11 36q0 7 -4 10q-2 1 -7 1q-12 0 -32 -14l-42 -48q0 -1 -1 -3.5t-2 -3.5q-11 -20 -11 -40q0 -9 3 -16z M121 172q24 27 59 62q-6 1 -23 -1q-26 -6 -46 -19q-43 -27 -86 -97q-18 -32 -26 -57q-5 -20 -5 -31q0 -13 5 -18q3 6 11 18q48 70 111 143zM204 252h3q4 0 1 -3q-1 -1 -9 -8t-11 -11q-3 -3 -8 -8.5t-7 -7.5q12 5 19 5q17 0 21 -21q0 -1 0.5 -3t0.5 -4q0 -24 -17 -54 q-16 -26 -52 -66q33 11 63 34q29 22 63 57q12 12 14 11q-12 -15 -13 -16q-29 -34 -67 -62q-39 -28 -68 -31q-38 -37 -82 -58q-22 -11 -41 -11q-8 0 -16 3q-3 -3 -4 -5q-7 -12 -15 -20l-2 -2l1 4q1 3 3 7q10 18 11 19q-15 11 -15 40v6q3 53 51 111q38 43 79 65q27 14 50 17 q23 0 27 -2q14 12 20 14z"/>
<glyph glyph-name="ugrave" horiz-adv-x="256" unicode="" d="M222 268q1 0 4.5 -1t6.5 -2l3 -1q0 -2 -12.5 0t-17.5 4q-18 5 -43.5 21t-36.5 35q-3 4 -1 9t5 5q2 0 5 -4q29 -46 87 -66zM308 175q0 -3 -6 -9q-18 -22 -75 -79q-23 -23 -47 -44q-31 -29 -48 -38q-10 -5 -14 -5t-9 5q-6 6 -2 24q6 25 46 103q-44 -57 -84 -89 q-25 -22 -52 -36q-18 -9 -27 -9q-6 0 -12 3q-10 5 -10 23q0 11 1 15q5 24 23 59q30 59 74 105q12 14 28 21q12 5 16 0q1 -2 -2 -6q-5 -6 -22 -23.5t-24 -28.5q-45 -56 -68 -111q-10 -25 -10 -39q0 -6 2 -7t7 -1q13 0 47 21q44 29 93 85q17 21 39 54q1 1 7 10.5t13 20.5t8 13 q10 13 23 19q2 1 5 1q6 0 9 -4t-1 -9q-2 -4 -9 -13t-11 -15q-51 -77 -76 -123q-2 -4 -6.5 -12.5t-7 -14t-5 -13.5t-2.5 -15q1 -1 2 -1q13 0 52 33q10 8 54 50l10.5 10.5t20.5 21t22.5 23.5t19.5 19t8 6z"/>
<glyph glyph-name="uacute" horiz-adv-x="256" unicode="" d="M244 329q2 -2 0.5 -4.5t-3 -4t-4 -3.5t-3.5 -3q-48 -36 -117 -48q-14 -2 -17 1q33 6 64 20q36 16 65 40q4 4 10 4q4 0 5 -2zM308 175q0 -3 -6 -9q-18 -22 -75 -79q-23 -23 -47 -44q-31 -29 -48 -38q-10 -5 -14 -5t-9 5q-6 6 -2 24q6 25 46 103q-44 -57 -84 -89 q-25 -22 -52 -36q-18 -9 -27 -9q-6 0 -12 3q-10 5 -10 23q0 11 1 15q5 24 23 59q30 59 74 105q12 14 28 21q12 5 16 0q1 -2 -2 -6q-5 -6 -22 -23.5t-24 -28.5q-45 -56 -68 -111q-10 -25 -10 -39q0 -6 2 -7t7 -1q13 0 47 21q44 29 93 85q17 21 39 54q1 1 7 10.5t13 20.5t8 13 q10 13 23 19q2 1 5 1q6 0 9 -4t-1 -9q-2 -4 -9 -13t-11 -15q-51 -77 -76 -123q-2 -4 -6.5 -12.5t-7 -14t-5 -13.5t-2.5 -15q1 -1 2 -1q13 0 52 33q10 8 54 50l10.5 10.5t20.5 21t22.5 23.5t19.5 19t8 6z"/>
<glyph glyph-name="ucircumflex" horiz-adv-x="256" unicode="" d="M257 250l3 -2l4 -2l2 -2q0 -2 -4 -1q-17 8 -31 29q-16 24 -26 47q-30 -16 -45 -23q-1 0 -19 -8.5t-33.5 -13.5t-24.5 -5q-5 0 -7 1q21 6 59 25q10 5 21.5 11.5t25.5 15t22 12.5q4 2 8 2q6 0 7 -4q1 -3 -2 -6q2 -5 5.5 -14t5.5 -14q17 -38 29 -48zM308 175q0 -3 -6 -9 q-18 -22 -75 -79q-23 -23 -47 -44q-31 -29 -48 -38q-10 -5 -14 -5t-9 5q-6 6 -2 24q6 25 46 103q-44 -57 -84 -89q-25 -22 -52 -36q-18 -9 -27 -9q-6 0 -12 3q-10 5 -10 23q0 11 1 15q5 24 23 59q30 59 74 105q12 14 28 21q12 5 16 0q1 -2 -2 -6q-5 -6 -22 -23.5t-24 -28.5 q-45 -56 -68 -111q-10 -25 -10 -39q0 -6 2 -7t7 -1q13 0 47 21q44 29 93 85q17 21 39 54q1 1 7 10.5t13 20.5t8 13q10 13 23 19q2 1 5 1q6 0 9 -4t-1 -9q-2 -4 -9 -13t-11 -15q-51 -77 -76 -123q-2 -4 -6.5 -12.5t-7 -14t-5 -13.5t-2.5 -15q1 -1 2 -1q13 0 52 33q10 8 54 50 l10.5 10.5t20.5 21t22.5 23.5t19.5 19t8 6z"/>
<glyph glyph-name="udieresis" horiz-adv-x="256" unicode="" d="M236 305q-8 -17 -23 -17q-6 0 -8 5t2 13q9 17 23 17q6 0 8 -5.5t-2 -12.5zM150 305q-8 -17 -23 -17q-6 0 -8 5t2 13q9 17 23 17q6 0 8 -5.5t-2 -12.5zM308 175q0 -3 -6 -9q-18 -22 -75 -79q-23 -23 -47 -44q-31 -29 -48 -38q-10 -5 -14 -5t-9 5q-6 6 -2 24q6 25 46 103 q-44 -57 -84 -89q-25 -22 -52 -36q-18 -9 -27 -9q-6 0 -12 3q-10 5 -10 23q0 11 1 15q5 24 23 59q30 59 74 105q12 14 28 21q12 5 16 0q1 -2 -2 -6q-5 -6 -22 -23.5t-24 -28.5q-45 -56 -68 -111q-10 -25 -10 -39q0 -6 2 -7t7 -1q13 0 47 21q44 29 93 85q17 21 39 54 q1 1 7 10.5t13 20.5t8 13q10 13 23 19q2 1 5 1q6 0 9 -4t-1 -9q-2 -4 -9 -13t-11 -15q-51 -77 -76 -123q-2 -4 -6.5 -12.5t-7 -14t-5 -13.5t-2.5 -15q1 -1 2 -1q13 0 52 33q10 8 54 50l10.5 10.5t20.5 21t22.5 23.5t19.5 19t8 6z"/>
<glyph glyph-name="yacute" horiz-adv-x="262" unicode="" d="M244 329q2 -2 0.5 -4.5t-3 -4t-4 -3.5t-3.5 -3q-48 -36 -117 -48q-14 -2 -17 1q33 6 64 20q36 16 65 40q4 4 10 4q4 0 5 -2zM44 -91q30 57 31 59q-80 -69 -132 -128q-54 -61 -76 -105q-18 -36 -18 -53v-6q2 -8 8 -8q9 0 37 22q37 33 81 101q25 38 69 118zM314 172 q2 2 2 0t-4 -6q-27 -26 -79 -68q-36 -30 -108 -88q-86 -159 -130 -223q-39 -59 -83 -100q-31 -29 -52 -31h-3q-20 0 -20 25q0 6 2 14q10 45 63 110q33 42 90 95q35 35 91 82q32 61 72 130q-21 -24 -57 -54q-43 -36 -82 -53q-18 -7 -26 -6q-18 1 -18 26q0 8 1 12 q18 76 95 166q16 16 31 21q12 3 14 0q3 -3 -5 -11q-82 -82 -115 -167q-8 -18 -8 -29q1 -11 19 -7q23 6 56 29q49 32 96 84q19 21 22 26q3 4 15.5 22t20.5 27q11 12 20 20q10 8 16 11q2 1 4 1q4 0 1 -5q-3 -6 -24 -35q-39 -57 -98 -166q36 30 53 44t55 46t59 48q8 6 14 10z "/>
<glyph glyph-name="thorn" horiz-adv-x="262" unicode="" d="M366 97q14 18 20 28q-33 -3 -61 -15q-44 -19 -73 -52q-21 -24 -21 -38q0 -12 13 -12q12 0 27 6q45 17 95 83zM450 132q42 -6 42 -11h-2q-4 0 -16 1l-13 2q-24 3 -48 3q-24 -41 -65 -77q-20 -18 -50 -34.5t-52 -16.5q-4 0 -12 2q-11 4 -11 16q0 14 12 31q18 26 44 44 q48 34 111 40q22 39 22 58q0 8 -3 16q-7 12 -26 12q-11 0 -20 -3q-28 -9 -55 -33q-42 -35 -127 -143q-67 -128 -185 -339q-11 -22 -23 -34q-7 -7 -10 -7q-1 0 -2 1t-1 3q0 5 2 7q2 5 36 70q119 223 220 406q144 275 202 374q11 18 23 29q9 6 14 6q4 0 1 -7q-2 -4 -18 -31 q-35 -61 -101 -185q-32 -62 -144 -266q54 69 88 103q57 57 101 61h6q32 0 42 -24q3 -9 3 -18q0 -22 -18 -54q11 0 33 -2z"/>
<glyph glyph-name="OE" horiz-adv-x="769" unicode="" d="M729 383q-35 0 -59 -5q25 -25 65 -28q21 -2 31 1q18 8 9 18q-10 12 -46 14zM822 625q7 3 20.5 9.5t17.5 8.5q-12 3 -25 3q-34 0 -70 -18q-34 -17 -63 -49q53 17 120 46zM463 529q35 1 82 10q-5 52 -39 72q-14 7 -32 7q-48 0 -83 -37q-14 -14 -10 -28q8 -24 75 -24h7z M553 436q-15 -61 -46 -117q25 18 54 33q39 20 88 31q-11 13 -18 30q-8 20 -8 45q0 51 34 98q-25 -8 -47 -12q-29 -7 -49 -11q1 -8 1 -24q0 -32 -9 -73zM894 635q18 -15 18 -45q0 -31 -21.5 -60t-51.5 -38q-19 -4 -27 -1q-7 4 -4 6.5t10 4.5q33 10 53 30q30 30 30 64 q0 24 -18 36q-2 1 -13 7l-24 -12q-70 -35 -156 -62q-8 -10 -14 -20q-32 -52 -32 -101q0 -33 19 -58q34 4 53 4h11q36 -2 50 -14q15 -11 4 -24q-11 -11 -35 -11q-9 0 -13 1q-48 5 -77 33q-59 -14 -111 -49q-41 -28 -72 -64q-13 -21 -39 -54q-17 -29 -26 -52q-19 -47 -19 -88 q0 -21 4 -37q8 -28 30 -47t51 -19h2h4q47 0 111 31q48 24 100 66q55 44 105 93l10 7q0 -4 -10 -14q-48 -52 -100 -93q-48 -37 -97 -63q-70 -37 -123 -37q-51 0 -81 34q-29 32 -29 86q0 17 3 32q3 20 9 37q-12 -13 -34 -33q-53 -48 -103 -79q-70 -43 -121 -44h-3 q-56 0 -81 45q-14 29 -16 65v13q0 71 39 158q47 106 130 195q40 44 80 71q37 25 64 31q17 0 8 -6q-50 -29 -86 -61q-39 -33 -78 -79q-86 -103 -123 -207q-21 -52 -22 -103v-6q0 -54 27 -82q22 -22 58 -22q19 0 43 7q48 17 109 65q93 75 175 190q93 132 102 237q0 3 0.5 8 t0.5 8q0 2 -0.5 7.5t-0.5 8.5q-52 -9 -91 -9q-20 0 -41 3q-41 7 -41 34q0 23 32 44q29 19 56 23q5 1 16 1q26 0 42 -12q33 -26 40 -73q6 1 17.5 3.5t16.5 3.5q57 14 74 19q21 27 48 45q60 41 121 41q19 0 35 -6q7 3 19 9q1 1 7 3.5t9 3.5q4 0 -6 -7q-14 -8 -20 -12 q10 -6 14 -10z"/>
<glyph glyph-name="oe" horiz-adv-x="358" unicode="" d="M101 83q6 -12 22 -14q39 42 63 92q11 22 11 36q0 7 -4 10q-2 1 -6 1q-16 0 -42 -21q-24 -21 -36 -48q-11 -20 -11 -40q0 -9 3 -16zM285 218q-52 -28 -89 -87q-10 -16 -14 -24q13 0 30 5q70 21 107 65q16 19 16 36q0 7 -4 11q-5 5 -14 5q-14 0 -32 -11zM412 174 q0 -4 -11 -17q-42 -47 -56 -60q-54 -52 -102 -80q-36 -21 -60 -21q-29 0 -40 27q-4 9 -4 23q0 6 2 18h-4q-38 -37 -82 -58q-24 -12 -41 -12q-10 0 -17 4q-20 10 -20 43v6q3 53 51 111q38 43 79 65q27 14 50 17q1 0 4.5 0.5t6.5 0.5q21 0 21 -11q0 -2 -4 2q-11 5 -28 1 q-26 -6 -46 -19q-43 -27 -86 -97q-18 -32 -26 -57q-6 -16 -6 -30q0 -18 11 -23q7 -4 15 -4q14 0 40 13q27 15 49 37l11 11q-17 2 -23 15q-4 8 -4 19q0 17 10 41q11 28 37 52q28 28 53 28q17 0 21 -21q1 -6 -1 -22q40 37 79 52q18 6 28 6q8 0 12 -2q17 -6 17 -26 q0 -23 -23 -44q-25 -23 -68.5 -41.5t-77.5 -19.5q-18 -34 -18 -58q0 -1 0.5 -4t0.5 -5q4 -16 14 -20q8 -3 15 -3q13 0 44 12q43 20 104 77q1 1 20 20.5t36 36.5z"/>
<glyph glyph-name="Scaron" horiz-adv-x="492" unicode="" d="M473 751q-3 4 -8.5 8.5t-8.5 7.5l-4 3q0 2 2 2q7 0 16 -9q6 -5 18 -21q13 -19 25 -47q30 16 46 23q33 16 67 26q13 4 16 1q-7 -2 -12 -4q-24 -11 -47 -22q-12 -6 -34.5 -19t-33.5 -19q-3 -3 -9 -2.5t-7 4.5q0 3 2 5q-2 5 -5.5 14.5t-5.5 13.5q-11 27 -17 35zM381 93 q59 66 59 131v11q-26 2 -39 2q-71 0 -138 -23q-63 -22 -117 -55q-64 -41 -99 -81q-34 -39 -34 -69q0 -19 17 -31q22 -15 61 -15q36 0 67 7q133 29 223 123zM512 226q5 -2 25.5 -11t20.5 -11q0 -1 -21.5 7t-23.5 9q-23 8 -52 13v-9q0 -37 -17 -71q-24 -50 -80 -95 q-54 -44 -109 -68q-61 -28 -127 -35q-22 -2 -36 -2q-52 0 -75 23q-14 14 -14 34q0 26 22 55q28 39 74 72q109 83 238 103q37 5 65 5l37 -2q-3 16 -11 31.5t-15 26t-23 24.5t-23.5 20t-28 20.5t-24.5 17.5q-67 49 -67 101q1 47 48 98q44 45 103 67q37 14 70 14t55 -15 q34 -23 34 -69q0 -19 -6 -35q-19 -60 -78 -89q-22 -11 -43 -11q-9 0 -13 1q-9 3 -6 7q1 2 10 5q4 1 12.5 3t12.5 4q66 20 91 74q10 19 10 43q0 37 -26 56q-20 15 -50 15q-33 0 -70 -16q-62 -25 -101 -75q-32 -42 -32 -77q0 -14 6 -27q6 -11 13.5 -21t20 -20.5t18 -15 t23.5 -16.5t20 -14q85 -62 92 -130q23 -4 51 -14z"/>
<glyph glyph-name="scaron" horiz-adv-x="151" unicode="" d="M92 310q-2 3 -6 6t-6 5l-3 2q0 1 1 1q6 0 12 -6q2 -1 13 -15q8 -11 17 -33q6 2 17 8t16 8q28 13 48 19h11q-5 -1 -9 -3t-10.5 -4.5t-12 -5t-10.5 -5.5l-48 -27q-9 -6 -12 1q0 2 2 4q-2 3 -4.5 10t-3.5 10q-1 1 -4.5 10.5t-7.5 14.5zM78 110q-2 8 -4 13q-67 -18 -100 -60 q-19 -21 -19 -40q0 -7 4 -11q8 -8 27 -5q11 1 29 9q64 31 64 85q0 1 -0.5 4t-0.5 5zM119 134q7 0 25.5 -2t18.5 -5h-2q-5 0 -23 1t-19 1q-15 0 -22 -1q4 -11 4 -25q0 -13 -2 -19q-7 -29 -31 -50t-54 -31q-20 -6 -33 -6q-14 0 -24 7q-9 6 -9 18q0 15 10 31q34 54 113 76 q-4 7 -13 18.5t-14 22t-5 21.5q0 1 0.5 3.5t0.5 4.5q5 24 26 35q14 9 33 9q16 0 23 -10q3 -5 3 -9q0 -12 -9 -21q-4 -5 -13 -10.5t-13 -4.5q10 2 22 18q6 8 6 15q0 9 -9 11q-3 1 -10 1q-15 0 -27.5 -9t-15.5 -22q0 -1 -0.5 -3.5t-0.5 -3.5q0 -14 18.5 -33.5t21.5 -28.5 q8 1 24 1z"/>
<glyph glyph-name="Ydieresis" horiz-adv-x="427" unicode="" d="M578 691q-8 -17 -23 -17q-6 0 -8 5t2 13q9 17 23 17q6 0 8 -5.5t-2 -12.5zM492 691q-8 -17 -23 -17q-6 0 -8 5t2 13q9 17 23 17q6 0 8 -5.5t-2 -12.5zM167 -108q46 67 132 203q-73 -43 -122 -77q-125 -86 -191 -173q-44 -58 -52 -114q0 -2 -0.5 -6t-0.5 -7q0 -14 7 -20 q5 -5 14 -5q13 0 31 11q41 23 97 83q45 47 85 105zM480 337q-103 -163 -130 -204q80 40 121 58q58 25 65 25h1q0 -1 -2.5 -2.5t-6.5 -3.5t-8.5 -4t-7.5 -4l-4 -1q-21 -9 -41 -19q-19 -8 -40 -18.5t-46.5 -24t-39.5 -20.5q-12 -20 -36.5 -56.5t-32.5 -49.5q-63 -95 -86 -126 q-41 -57 -81 -100q-57 -61 -99 -88q-33 -20 -53 -20h-4q-25 3 -29 35v7q0 47 41 108q59 88 189 181q74 53 159 100q69 113 152 242l60 90q-3 -3 -30 -34t-41 -46q-110 -121 -196 -181q-94 -63 -151 -63q-47 0 -48 52q1 14 3 28t8 29.5t9.5 26t13.5 28t13 24t16.5 26t16 23 t18 25t16.5 22.5q12 17 41 51.5t43 54.5q46 63 55 93q1 3 1 8q0 22 -39 22q-29 0 -66 -10q-71 -17 -136 -52q-60 -31 -110 -72q-64 -54 -84 -115q-1 -4 -3.5 -13t-4.5 -13q-5 -17 -10 -1q-2 4 -2 14q0 18 11 40q23 47 84 93q48 38 110 70q63 33 119 51q37 12 64 16 q30 3 31 3q21 0 34 -8q15 -8 15 -26q0 -6 -4 -20q-9 -26 -28 -57q-27 -42 -80.5 -114.5t-75.5 -104.5q-63 -94 -63 -147q0 -36 38 -36h3q47 4 118 46q50 31 103 79q77 69 181 193q7 9 29.5 36t34.5 42q13 16 40.5 52.5t43.5 55.5q15 18 21 18q3 0 5 -2q3 -3 3 -5 q0 -3 -14 -20q-28 -33 -46 -59q-53 -74 -151 -228z"/>
<glyph glyph-name="circumflex" horiz-adv-x="337" unicode="" d="M247 253l3 -1l4 -4l2 -1q0 -2 -1 -2t-3 1q-17 8 -31 29q-16 24 -26 47q-30 -16 -45 -23q-1 0 -19 -8.5t-33.5 -13.5t-24.5 -5q-5 0 -7 1q21 6 59 25q10 5 21.5 11.5t25.5 15t22 12.5q4 2 8 2q6 0 7 -4q1 -3 -2 -6q2 -4 5.5 -14t5.5 -14q17 -38 29 -48z"/>
<glyph glyph-name="tilde" horiz-adv-x="310" unicode="" d="M238 339q0 -4 -10 -14q-23 -23 -51 -23q-4 0 -14 2q-44 11 -48 11q-14 0 -42 -17q-7 -5 -13 -5q-5 0 -6 4q0 3 20 18q20 13 41 13q9 0 20 -3q2 0 20.5 -6.5t28.5 -6.5q4 0 12 2q12 3 26 13z"/>
<glyph glyph-name="quoteleft" horiz-adv-x="184" unicode="" d="M276 597q3 0 3 -5t-7 -12q-28 -38 -78 -92q-24 -26 -37 -38q-4 -4 -6 -4v1q0 1 1 3q6 10 14 20q13 16 44 57t49 63q4 7 14 7h3z"/>
<glyph glyph-name="quotedblleft" horiz-adv-x="285" unicode="" d="M303 597q3 0 3 -5t-7 -12q-28 -38 -78 -92q-24 -26 -37 -38q-4 -4 -6 -4t1 4q6 10 14 20q13 16 44 57t49 63q4 7 14 7h3zM238 597q3 0 3 -5t-7 -12q-28 -38 -78 -92q-24 -26 -37 -38q-4 -4 -6 -4v1q0 1 1 3q6 10 14 20q13 16 44 57t49 63q4 7 14 7h3z"/>
<glyph glyph-name="quotedblright" horiz-adv-x="383" unicode="" d="M401 597q3 0 3 -5t-7 -12q-28 -38 -78 -92q-24 -26 -37 -38q-4 -4 -6 -4t1 4q6 10 14 20q13 16 44 57t49 63q4 7 14 7h3zM336 597q3 0 3 -5t-7 -12q-28 -38 -78 -92q-24 -26 -37 -38q-4 -4 -6 -4v1q0 1 1 3q6 10 14 20q13 16 44 57t49 63q4 7 14 7h3z"/>
<glyph glyph-name="ellipsis" horiz-adv-x="420" unicode="" d="M262 17q-8 -17 -23 -17q-6 0 -8 5t2 13q9 17 23 17q8 0 8 -9q0 -6 -2 -9zM181 17q-9 -17 -23 -17q-6 0 -8 5t2 13q9 17 23 17q8 0 8 -9q0 -6 -2 -9zM100 17q-8 -17 -23 -17q-8 0 -8 9q0 6 2 9q9 17 23 17q8 0 8 -9q0 -6 -2 -9z"/>
<glyph glyph-name="perthousand" horiz-adv-x="711" unicode="" d="M459 26q-18 15 -18 41q0 31 20 60q34 56 86 66q5 1 14 1q28 0 39 -20q5 -12 5 -23q0 -5 -2 -13l-2 4q-1 2 -1 3q-6 36 -33 37h-5q-20 0 -50 -20q-23 -19 -39 -46q-15 -26 -15 -48q0 -4 2 -14q6 -21 29 -21q4 0 14 2q28 7 55 34q5 5 17 15q12 6 12 -1q-5 -13 -30 -38 q-28 -28 -69 -28q-17 0 -29 9zM113 400q-18 15 -18 41q0 31 20 60q34 56 86 66q5 1 14 1q28 0 39 -20q5 -12 5 -23q0 -5 -2 -13l-2 4q-1 2 -1 3q-6 36 -33 37h-5q-20 0 -50 -20q-23 -19 -39 -46q-15 -26 -15 -48q0 -4 2 -14q6 -21 29 -21q4 0 14 2q28 7 55 34q5 5 17 15 q12 6 12 -1q-5 -13 -30 -38q-28 -28 -69 -28q-17 0 -29 9zM379 198q33 -7 36 -40q1 -15 -3 -30q-4 -18 -10 -19v5q1 4 2 10l1 5q2 18 0 28q-5 28 -33 28q-6 0 -9 -1q-28 -4 -54 -30q-23 -20 -36 -52q-7 -23 -7 -32q0 -15 8 -24q8 -10 24 -10q15 0 27 6q32 15 52 43 q8 12 18 20q10 7 10 0l-3 -12q-13 -26 -38.5 -47t-53.5 -26q-4 -1 -11 -1q-28 0 -41 21q-9 13 -9 29q0 5 2 15q10 60 68 98q28 17 51 17q2 0 5 -0.5t4 -0.5zM466 559l2 1h3q4 0 4 -3q0 -2 -1 -3q-86 -86 -109 -111q-57 -62 -163 -194q-36 -45 -104 -137q-12 -16 -36.5 -50.5 t-38.5 -52.5q-2 -2 -3 -2t-1 1q0 3 2 7q10 21 63 106q73 107 159 211q97 115 181 197q26 26 42 30z"/>
<glyph glyph-name="fraction" horiz-adv-x="340" unicode="" d="M475 550h2q2 1 3 1q4 0 4 -3q0 -2 -1 -3q-2 -5 -16 -16q-112 -107 -256 -289q-73 -91 -149 -199q-16 -24 -30 -40l-3 -3q-1 0 -1 2t2 6q2 5 6 13q20 37 57 93q161 234 340 409q26 24 42 29z"/>
<glyph glyph-name="Euro" horiz-adv-x="587" unicode="" d="M100 301q37 63 55 89q-50 -18 -60 -27q-18 -13 -26 -13h-2q-13 0 7 20l3 3q21 17 64 29q20 6 29 8q42 53 82 91q111 105 217 142q39 13 63 13q26 0 42 -12q27 -20 27 -57q0 -23 -13 -55q-22 -49 -59 -68q-19 -8 -27 -8t-12 4q-4 3 -0.5 5t8.5 4q12 4 17 7 q27 15 46.5 41.5t24.5 55.5q2 10 2 15q0 25 -15.5 41t-41.5 16h-5q-54 -4 -122 -44q-48 -28 -102 -77q-55 -52 -97 -107q81 11 132 11q44 0 80 -7q9 -2 13 -5l3 -3l-2 -1q-8 2 -22 4q-25 4 -58 4q-64 0 -159 -20q-8 -11 -61 -90q57 14 125 22q59 7 102 7q4 0 14 -0.5 t14 -0.5q25 0 53.5 -7.5t28.5 -26.5q0 -12 -6 -12v2t0.5 4t0.5 5q-1 15 -24 21q-23 5 -53 7q-53 0 -111 -8q-67 -9 -155 -33q-26 -45 -42 -93q-17 -55 -17 -90q0 -17 5 -39q15 -57 74 -57q54 0 129 43q52 30 101 71q28 22 65 60q2 2 5.5 6t5.5 7l3 3q3 -1 -8 -15t-15 -18 q-35 -38 -90 -80q-62 -45 -109 -66q-48 -22 -87 -22q-12 0 -26 3q-54 12 -65 81q-2 11 -2 32q0 47 17 101q10 33 25 62q-26 -9 -55 -24q-4 -3 -9 -4.5t-7 3.5q0 12 19 22q22 14 63 25z"/>
<glyph glyph-name="trademark" horiz-adv-x="475" unicode="" d="M303 533q-4 -7 -10 -20t-10 -19q-24 -46 -42 -75q-7 -11 -9 -12v6q2 6 7 17.5t6 13.5q9 19 26.5 53t21.5 42q5 10 13 7q5 -2 -3 -13zM452 569q17 -6 26 -16q-35 19 -93 19q-16 0 -24 -1q-28 -2 -67 -13q-14 -4 -32 -13t-22 -15q-11 -10 -13 -12q-4 -3 -4 2q0 6 2 10 q9 14 39 27q56 22 118 22h8q39 -2 62 -10zM415 550q2 2 3 2q5 0 5 -6q0 -7 -3 -15t-10 -20t-8 -14l-33 -72q-3 -10 0 -11q1 0 3 1t14 11l11 9q2 0 -3.5 -7.5t-14 -15.5t-13.5 -8h-1q-1 1 -2 1q-5 3 -5 12q0 7 11 40q9 23 23 50q-4 -5 -12 -17t-12 -17q-6 -8 -16.5 -23.5 t-15.5 -22.5l-2 -3q-18 -21 -18 -5q0 10 13 41q17 38 20 47q-24 -36 -52 -67q-3 -3 -9.5 -10.5t-10.5 -11.5q-12 -12 -21 -11q-4 0 -4 4t4 4q6 1 20 10q14 12 36 40q6 8 18 23.5t18 23.5q13 20 16 27q2 7 8 5q4 -1 0 -14q-6 -14 -20.5 -47t-22.5 -52q10 10 30 38 q6 9 23 31.5t25 35.5q6 12 8 14z"/>
</font>
</defs>
</svg>
